<?xml version="1.0" standalone="no"?>
<!DOCTYPE svg PUBLIC "-//W3C//DTD SVG 20010904//EN"
 "http://www.w3.org/TR/2001/REC-SVG-20010904/DTD/svg10.dtd">
<svg version="1.0" xmlns="http://www.w3.org/2000/svg"
 width="1667.000000pt" height="1667.000000pt" viewBox="0 0 1667.000000 1667.000000"
 preserveAspectRatio="xMidYMid meet">

<g transform="translate(0.000000,1667.000000) scale(0.100000,-0.100000)"
fill="#000000" stroke="none">
<path d="M3045 11904 c-261 -46 -495 -173 -700 -378 -250 -251 -387 -542 -411
-877 l-7 -96 63 -6 c35 -4 726 -7 1536 -7 l1474 0 3 -2787 3 -2788 21 -90 c61
-258 175 -462 359 -641 183 -178 452 -322 702 -374 211 -45 732 -36 907 15 85
24 294 120 433 197 l63 35 -113 23 c-281 55 -456 136 -577 265 -149 160 -225
361 -256 677 -8 90 -21 190 -27 223 -8 43 -13 633 -18 2030 -6 1961 -6 1970
-27 2055 -46 185 -131 371 -240 523 -68 95 -221 253 -313 323 -171 130 -388
234 -583 279 -56 13 -99 24 -95 24 52 6 240 49 310 72 426 139 755 460 893
871 38 114 75 308 75 394 l0 54 -1697 -1 c-1419 -1 -1711 -3 -1778 -15z"/>
<path d="M8315 11909 c-82 -12 -224 -53 -308 -90 -464 -204 -801 -679 -834
-1175 l-6 -91 33 -6 c18 -4 709 -7 1536 -7 l1504 0 0 -2712 c0 -2297 3 -2729
15 -2818 64 -470 322 -826 750 -1035 212 -104 423 -145 745 -145 313 0 468 25
656 104 99 42 314 163 314 176 0 4 -24 10 -54 14 -117 13 -290 65 -405 122
-101 49 -125 66 -201 143 -74 73 -94 101 -138 191 -85 174 -123 337 -143 625
-8 106 -14 812 -19 2105 -6 1926 -6 1946 -27 2035 -85 367 -292 682 -591 903
-155 114 -324 193 -546 254 l-121 33 1545 6 c1146 4 1560 9 1605 18 98 19 263
79 370 134 388 199 664 583 730 1017 8 52 15 121 15 153 l0 57 -3182 -1
c-1751 -1 -3210 -5 -3243 -10z"/>
</g>
</svg>
