<?xml version="1.0" standalone="no"?>
<!DOCTYPE svg PUBLIC "-//W3C//DTD SVG 20010904//EN"
 "http://www.w3.org/TR/2001/REC-SVG-20010904/DTD/svg10.dtd">
<svg version="1.0" xmlns="http://www.w3.org/2000/svg"
 width="6250.000000pt" height="6250.000000pt" viewBox="0 0 6250.000000 6250.000000"
 preserveAspectRatio="xMidYMid meet">

<g transform="translate(0.000000,6250.000000) scale(0.100000,-0.100000)"
fill="#000000" stroke="none">
<path d="M0 31250 l0 -31250 31250 0 31250 0 0 31250 0 31250 -31250 0 -31250
0 0 -31250z m62480 0 l0 -31230 -31230 0 -31230 0 0 31230 0 31230 31230 0
31230 0 0 -31230z"/>
<path d="M23185 44503 c-239 -10 -574 -58 -820 -118 -916 -221 -1724 -713
-2358 -1435 -685 -781 -1084 -1786 -1124 -2831 l-6 -169 5021 0 5022 0 3
-8867 c2 -8355 4 -8877 20 -9023 88 -779 283 -1381 631 -1940 361 -580 899
-1088 1531 -1446 595 -336 1308 -566 2010 -649 465 -54 1177 -38 1724 41 645
92 1189 283 1741 609 160 95 450 287 445 295 -3 4 -35 10 -72 14 -569 57
-1163 227 -1554 447 -445 250 -769 586 -999 1039 -265 523 -409 1159 -475
2105 -39 555 -38 515 -45 6745 -7 6648 -2 6115 -60 6482 -178 1111 -751 2149
-1603 2902 -808 714 -1801 1144 -2862 1239 -22 2 2201 4 4940 5 3230 1 5027 6
5115 12 937 70 1810 418 2530 1009 727 597 1255 1402 1511 2306 99 348 169
824 169 1148 l0 87 -10182 -2 c-5601 -1 -10214 -3 -10253 -5z"/>
</g>
</svg>
