<svg width="48" height="48" viewBox="0 0 48 48" fill="none" xmlns="http://www.w3.org/2000/svg">
<path d="M0 14C0 6.26801 6.26801 0 14 0H34C41.732 0 48 6.26801 48 14V34C48 41.732 41.732 48 34 48H14C6.26801 48 0 41.732 0 34V14Z" fill="url(#paint0_linear_1300_1133)"/>
<path fill-rule="evenodd" clip-rule="evenodd" d="M24 41.5C33.665 41.5 41.5 33.665 41.5 24C41.5 14.335 33.665 6.5 24 6.5C14.335 6.5 6.5 14.335 6.5 24C6.5 33.665 14.335 41.5 24 41.5ZM24.0714 39.8571C32.8291 39.8571 39.9286 32.7576 39.9286 24C39.9286 15.2424 32.8291 8.14286 24.0714 8.14286C15.3138 8.14286 8.21429 15.2424 8.21429 24C8.21429 32.7576 15.3138 39.8571 24.0714 39.8571ZM24 38.6429C32.087 38.6429 38.6429 32.087 38.6429 24C38.6429 15.913 32.087 9.35714 24 9.35714C15.913 9.35714 9.35714 15.913 9.35714 24C9.35714 32.087 15.913 38.6429 24 38.6429ZM24.0357 36.8571C31.1562 36.8571 36.9286 31.0848 36.9286 23.9643C36.9286 16.8438 31.1562 11.0714 24.0357 11.0714C16.9152 11.0714 11.1429 16.8438 11.1429 23.9643C11.1429 31.0848 16.9152 36.8571 24.0357 36.8571ZM23.3081 13.5474L32.642 29.74L33.6429 28.0036L25.3099 13.5474H23.3081ZM14.3571 27.9744L22.3459 14.1154L22.3624 14.1439L22.3781 14.1166L31.8452 30.5404H29.8434L27.4517 26.3912C26.3649 26.0476 25.2079 25.8624 24.0074 25.8624C23.3886 25.8624 22.7848 25.9056 22.1977 25.9918L23.3506 23.9949C23.5682 23.9843 23.7872 23.9789 24.0074 23.9789C24.7408 23.9789 25.4602 24.0383 26.1613 24.1525L22.3616 17.5608L15.3581 29.7107L14.3571 27.9744ZM19.7882 27.7637L23.3779 21.5361L22.3771 19.7998L16.1859 30.5403H18.1877L18.2067 30.5073C19.9236 29.4736 21.8938 28.9511 24.0451 28.9511C25.4188 28.9511 26.7358 29.1937 27.9556 29.6386L26.6145 27.3157C25.768 27.1504 24.9075 27.0673 24.0451 27.0677C22.5564 27.0677 21.1247 27.3124 19.7882 27.7637Z" fill="white"/>
<defs>
<linearGradient id="paint0_linear_1300_1133" x1="0" y1="0" x2="53.2176" y2="6.72776" gradientUnits="userSpaceOnUse">
<stop stop-color="#E40C5B"/>
<stop offset="1" stop-color="#645AFD"/>
</linearGradient>
</defs>
</svg>
