<svg width="48" height="48" viewBox="0 0 48 48" fill="none" xmlns="http://www.w3.org/2000/svg">
<path d="M0 14C0 6.26801 6.26801 0 14 0H34C41.732 0 48 6.26801 48 14V34C48 41.732 41.732 48 34 48H14C6.26801 48 0 41.732 0 34V14Z" fill="url(#paint0_linear_1302_854)"/>
<path d="M34.8807 25.5742H40.1501C40.2733 25.5743 40.3918 25.5265 40.4805 25.4407C40.5691 25.3551 40.6209 25.2381 40.625 25.115V21.3134C40.625 21.1874 40.575 21.0665 40.4859 20.9775C40.3969 20.8884 40.276 20.8383 40.1501 20.8383H32.7654L26.9482 7.75197C26.899 7.64071 26.8188 7.54599 26.7171 7.47914C26.6156 7.41229 26.4967 7.37614 26.3752 7.375H21.6251C21.503 7.37553 21.3835 7.4114 21.2813 7.47829C21.1791 7.54517 21.0983 7.64022 21.0488 7.75197L15.2349 20.8225H7.85026C7.78653 20.8225 7.72344 20.8353 7.66475 20.8602C7.60607 20.8849 7.55298 20.9213 7.50866 20.9672C7.46434 21.013 7.42969 21.0672 7.40677 21.1268C7.38386 21.1863 7.37314 21.2498 7.37526 21.3134V25.115C7.37526 25.241 7.42531 25.3619 7.51439 25.4509C7.60347 25.5399 7.72428 25.5901 7.85026 25.5901H13.1196L7.4196 38.4009C7.39088 38.4722 7.3799 38.5494 7.3876 38.6259C7.3953 38.7024 7.42145 38.7759 7.46381 38.8401C7.50616 38.9043 7.56346 38.9573 7.63077 38.9944C7.69808 39.0315 7.7734 39.0518 7.85026 39.0534H12.0904C12.2131 39.0534 12.3332 39.0179 12.4361 38.9509C12.539 38.884 12.6202 38.7887 12.6699 38.6764L24.0001 13.2197L35.3304 38.6764C35.3801 38.7887 35.4614 38.884 35.5643 38.9509C35.6671 39.0179 35.7872 39.0534 35.9099 39.0534H40.1501C40.2292 39.0534 40.3071 39.0336 40.3766 38.9958C40.4462 38.958 40.5052 38.9033 40.5483 38.837C40.5914 38.7705 40.6173 38.6944 40.6235 38.6155C40.6296 38.5365 40.616 38.4573 40.5839 38.3849L34.8807 25.5742Z" fill="white"/>
<defs>
<linearGradient id="paint0_linear_1302_854" x1="48" y1="48" x2="0" y2="0" gradientUnits="userSpaceOnUse">
<stop offset="0.203785" stop-color="#008464"/>
<stop offset="0.809888" stop-color="#69E6C8"/>
</linearGradient>
</defs>
</svg>
