<svg width="48" height="48" viewBox="0 0 48 48" fill="none" xmlns="http://www.w3.org/2000/svg">
<path d="M0 14C0 6.26801 6.26801 0 14 0H34C41.732 0 48 6.26801 48 14V34C48 41.732 41.732 48 34 48H14C6.26801 48 0 41.732 0 34V14Z" fill="url(#paint0_linear_1300_1339)"/>
<path fill-rule="evenodd" clip-rule="evenodd" d="M35.2192 18.2651L35.2192 18.2651L35.2192 18.2651C35.2154 18.2751 35.2048 18.2811 35.1877 18.2836C35.228 18.3746 35.24 18.4439 35.2193 18.4864C35.128 18.6738 34.4557 18.3571 33.3976 17.8585C33.1995 17.7651 32.9877 17.6653 32.7637 17.5613C30.4223 16.9004 26.8821 16.2758 24.308 18.0942C21.8746 20.1035 21.0019 23.4099 21.8746 26.3161C22.3463 27.8857 22.5751 28.5282 23.3494 29.6343C23.9172 30.4455 24.7136 31.3304 25.8197 31.9571C26.0719 32.1433 29.4601 34.1843 33.5744 33.6999C40.0455 32.9388 45.0588 24.4423 45.0588 24.4423C45.0588 24.4423 43.8914 26.955 43.7836 27.1844C40.6584 33.8359 35.4655 35.6087 35.4655 35.6087C32.8591 36.4985 30.2515 36.2427 28.3832 35.8051L28.4589 35.8295L28.5357 35.8541C31.3644 36.7232 34.3919 36.6954 37.2043 35.7744C39.3823 35.0693 41.1482 33.8908 42.2113 33.1814C42.8376 32.7634 43.2199 32.5082 43.2988 32.6086C43.4305 32.7769 42.5396 33.7147 41.921 34.288C40.0332 36.0019 37.7208 37.176 35.2254 37.6877C33.4665 38.0381 31.6604 38.0819 29.8866 37.8167L29.881 37.8159C28.6759 37.639 25.5258 37.1765 22.5944 34.9541C24.0827 36.3241 25.4549 37.1027 26.1363 37.4893C26.439 37.6611 26.6053 37.7555 26.5849 37.79C26.4639 37.9969 19.5782 36.1449 16.4378 30.2386C16.0372 29.4855 14.1993 26.0021 14.5202 22.7126C13.9172 23.9883 13.8687 25.1125 13.8048 26.5902L13.8032 26.6281C13.7503 28.5597 14.2913 30.0869 14.7848 31.4796C15.311 32.9651 16.0775 34.5248 16.4183 35.2181C16.5323 35.4499 16.5986 35.5849 16.5924 35.5879C16.5914 35.5879 16.5883 35.5841 16.5867 35.5821L16.586 35.5812C12.9039 30.1911 12.5109 27.649 12.5109 27.649C12.3448 26.5755 11.6356 21.9888 14.6925 18.1168C15.3463 17.2887 16.1042 16.5949 16.8953 16.0158C15.4255 17.0645 14.4826 18.1178 14.18 18.4667C10.8865 22.2643 9.33589 28.1119 11.1883 32.6624C13.028 37.1811 18.3218 40.6607 20.3373 41.7435L20.3315 41.7413C19.4813 41.4044 9.04901 36.7571 8.6753 27.345L8.67528 27.3447L8.67526 27.345C8.4184 31.1758 9.2715 34.0704 9.66765 35.4145C9.82007 35.9317 9.90485 36.2193 9.83272 36.2425C9.49365 36.3513 5.90049 30.7566 6.58695 23.6642C6.74759 22.0032 7.16544 18.2087 9.98696 14.6718C12.49 11.5344 15.5092 10.279 16.9066 9.71936C18.2707 9.17284 24.2265 6.78865 29.3517 9.57928C30.5916 10.268 31.6972 11.1752 32.6156 12.2574C34.8926 14.9354 35.4771 18.1497 35.2192 18.2651ZM21.0686 42.0213L20.3373 41.7435C20.9593 42.0777 21.2691 42.1836 21.0686 42.0213Z" fill="white"/>
<defs>
<linearGradient id="paint0_linear_1300_1339" x1="48" y1="48" x2="0" y2="0" gradientUnits="userSpaceOnUse">
<stop stop-color="#A37539"/>
<stop offset="1" stop-color="#F5B840"/>
</linearGradient>
</defs>
</svg>
