<svg width="48" height="48" viewBox="0 0 48 48" fill="none" xmlns="http://www.w3.org/2000/svg">
<path d="M0 14C0 6.26801 6.26801 0 14 0H34C41.732 0 48 6.26801 48 14V34C48 41.732 41.732 48 34 48H14C6.26801 48 0 41.732 0 34V14Z" fill="url(#paint0_linear_1646_3782)"/>
<path fill-rule="evenodd" clip-rule="evenodd" d="M34.2086 8.72175C31.1868 6.70267 27.6342 5.625 24 5.625C19.1266 5.625 14.4529 7.56093 11.0069 11.0069C7.56093 14.4529 5.625 19.1266 5.625 24C5.625 27.6342 6.70267 31.1868 8.72175 34.2086C10.7408 37.2304 13.6106 39.5855 16.9682 40.9763C20.3258 42.367 24.0204 42.7309 27.5848 42.0219C31.1492 41.3129 34.4233 39.5629 36.9931 36.9931C39.5629 34.4233 41.3129 31.1492 42.0219 27.5848C42.7309 24.0204 42.367 20.3258 40.9763 16.9682C39.5855 13.6106 37.2304 10.7408 34.2086 8.72175ZM15.7951 11.7207C18.2238 10.0979 21.0791 9.23173 24 9.23173C27.9168 9.23173 31.6732 10.7877 34.4429 13.5573C37.2125 16.3269 38.7684 20.0833 38.7684 24.0002C38.7684 26.9211 37.9023 29.7764 36.2795 32.2051C34.6567 34.6337 32.3502 36.5266 29.6516 37.6444C26.9531 38.7622 23.9836 39.0547 21.1188 38.4848C18.254 37.915 15.6225 36.5084 13.5571 34.443C11.4917 32.3776 10.0852 29.7461 9.51534 26.8813C8.9455 24.0165 9.23796 21.0471 10.3557 18.3485C11.4735 15.6499 13.3664 13.3434 15.7951 11.7207ZM30.7641 15.945C31.3208 17.0596 35.0415 24.0082 35.0415 24.0082L35.0401 24.0107C34.9552 24.1627 31.07 31.114 30.615 32.0714L30.5547 32.1988C30.0898 33.1847 29.3345 34.7863 27.5979 34.7863C25.7842 34.7863 24.893 33.1861 24.3363 32.0714C23.7796 30.9568 20.0589 24.0082 20.0589 24.0082C20.0589 24.0082 24.0253 16.913 24.4854 15.945L24.5457 15.8176C25.0106 14.8317 25.7659 13.2301 27.5025 13.2301C29.3162 13.2301 30.2074 14.8304 30.7641 15.945ZM20.0586 24.0082C20.0586 24.0082 19.1258 21.1928 18.6032 19.8084L18.5824 19.7533C18.0723 18.4015 17.7612 17.5771 16.475 17.5801C15.9232 17.5813 15.347 18.299 14.7029 19.8087C13.9491 21.7731 13.0921 24.0082 13.0921 24.0082L13.0925 24.0094L13.0925 24.0096L13.0926 24.0096C13.116 24.0802 14.0315 26.8414 14.5475 28.2081L14.5697 28.267C15.0789 29.6165 15.3894 30.4393 16.6755 30.4367C17.2273 30.4354 17.8035 29.7179 18.4476 28.2081C19.2014 26.2434 20.0586 24.0082 20.0586 24.0082Z" fill="white"/>
<defs>
<linearGradient id="paint0_linear_1646_3782" x1="48" y1="48" x2="0.146965" y2="-0.14607" gradientUnits="userSpaceOnUse">
<stop offset="0.166667" stop-color="#2C9963"/>
<stop offset="0.848958" stop-color="#4EE59A"/>
</linearGradient>
</defs>
</svg>
