<svg width="48" height="48" viewBox="0 0 48 48" fill="none" xmlns="http://www.w3.org/2000/svg">
<path d="M0 14C0 6.26801 6.26801 0 14 0H34C41.732 0 48 6.26801 48 14V34C48 41.732 41.732 48 34 48H14C6.26801 48 0 41.732 0 34V14Z" fill="url(#paint0_linear_1900_4130)"/>
<path fill-rule="evenodd" clip-rule="evenodd" d="M23.5395 6.5L6.5 38.4375H13.8684H41.5L23.5395 6.5ZM13.8684 38.4375L30.4474 31.3925L23.5395 20.1204L13.8684 38.4375Z" fill="white"/>
<path d="M0 28H14C17.3137 28 20 30.6863 20 34V48H8C3.58172 48 0 44.4183 0 40V28Z" fill="#D43079"/>
<g clip-path="url(#clip0_1900_4130)">
<path d="M9.99873 34.1298C11.326 34.1298 12.4019 33.5038 12.4019 32.7315C12.4019 31.9593 11.326 31.3333 9.99873 31.3333C8.67151 31.3333 7.59558 31.9593 7.59558 32.7315C7.59558 33.5038 8.67151 34.1298 9.99873 34.1298Z" fill="white"/>
<path d="M9.99873 44.6657C11.326 44.6657 12.4019 44.0397 12.4019 43.2674C12.4019 42.4952 11.326 41.8691 9.99873 41.8691C8.67151 41.8691 7.59558 42.4952 7.59558 43.2674C7.59558 44.0397 8.67151 44.6657 9.99873 44.6657Z" fill="white"/>
<path d="M6.64973 36.0655C7.31334 34.9156 7.30903 33.6702 6.64011 33.2838C5.97118 32.8974 4.89095 33.5164 4.22733 34.6662C3.56372 35.8161 3.56803 37.0615 4.23695 37.4479C4.90588 37.8343 5.98612 37.2154 6.64973 36.0655Z" fill="white"/>
<path d="M15.7689 41.3326C16.4325 40.1827 16.4286 38.9375 15.7601 38.5514C15.0917 38.1653 14.0118 38.7844 13.3482 39.9343C12.6846 41.0842 12.6885 42.3294 13.357 42.7155C14.0255 43.1016 15.1053 42.4825 15.7689 41.3326Z" fill="white"/>
<path d="M6.64047 42.7152C7.3094 42.3288 7.31371 41.0834 6.6501 39.9336C5.98648 38.7837 4.90625 38.1647 4.23732 38.5511C3.56839 38.9375 3.56409 40.1829 4.2277 41.3328C4.89131 42.4827 5.97155 43.1016 6.64047 42.7152Z" fill="white"/>
<path d="M15.7607 37.4481C16.4292 37.062 16.4332 35.8168 15.7695 34.6669C15.1059 33.517 14.0261 32.8979 13.3576 33.284C12.6891 33.6701 12.6852 34.9153 13.3488 36.0652C14.0124 37.2151 15.0923 37.8342 15.7607 37.4481Z" fill="white"/>
</g>
<defs>
<linearGradient id="paint0_linear_1900_4130" x1="48" y1="48" x2="-2.71797e-05" y2="2.71797e-05" gradientUnits="userSpaceOnUse">
<stop stop-color="#0A42B3"/>
<stop offset="0.766683" stop-color="#4381FF"/>
</linearGradient>
<clipPath id="clip0_1900_4130">
<rect width="12.5333" height="13.3333" fill="white" transform="translate(3.73328 31.3333)"/>
</clipPath>
</defs>
</svg>
