<svg width="48" height="48" viewBox="0 0 48 48" fill="none" xmlns="http://www.w3.org/2000/svg">
<path d="M0 14C0 6.26801 6.26801 0 14 0H34C41.732 0 48 6.26801 48 14V34C48 41.732 41.732 48 34 48H14C6.26801 48 0 41.732 0 34V14Z" fill="url(#paint0_linear_1320_2484)"/>
<path fill-rule="evenodd" clip-rule="evenodd" d="M7.62891 39.7282H15.2372L17.3698 33.0063L34.8342 33.0063C36.2175 33.0063 37.4104 31.5077 36.6786 29.0293C35.4824 24.9774 33.1465 19.0197 31.2594 14.2065L31.2594 14.2064L31.2594 14.2064L31.2593 14.2062L31.2593 14.2061C30.2368 11.5984 29.3462 9.32662 28.8398 7.87599C27.3989 3.7478 20.7443 3.6684 19.2142 7.87599C17.6842 12.0836 7.62891 39.7282 7.62891 39.7282ZM23.9982 28.1071C27.6271 28.1071 30.569 25.1652 30.569 21.5363C30.569 17.9074 27.6271 14.9655 23.9982 14.9655C20.3693 14.9655 17.4274 17.9074 17.4274 21.5363C17.4274 25.1652 20.3693 28.1071 23.9982 28.1071ZM31.3759 33.8709H37.9467L40.3675 39.75H33.2203L31.3759 33.8709ZM28.0738 21.6925L23.9982 17.6169L19.9226 21.6925L23.9982 25.7682L28.0738 21.6925Z" fill="white"/>
<defs>
<linearGradient id="paint0_linear_1320_2484" x1="48" y1="48" x2="-2.71797e-05" y2="2.71797e-05" gradientUnits="userSpaceOnUse">
<stop offset="0.1875" stop-color="#2882DA"/>
<stop offset="1" stop-color="#69D0D3"/>
</linearGradient>
</defs>
</svg>
