<svg width="48" height="48" viewBox="0 0 48 48" fill="none" xmlns="http://www.w3.org/2000/svg">
<path d="M0 14C0 6.26801 6.26801 0 14 0H34C41.732 0 48 6.26801 48 14V34C48 41.732 41.732 48 34 48H14C6.26801 48 0 41.732 0 34V14Z" fill="url(#paint0_linear_1300_1295)"/>
<path fill-rule="evenodd" clip-rule="evenodd" d="M41.5 24C41.5 33.665 33.665 41.5 24 41.5C14.335 41.5 6.5 33.665 6.5 24C6.5 14.335 14.335 6.5 24 6.5C33.665 6.5 41.5 14.335 41.5 24ZM25.4583 37.4896C20.3542 37.6719 17.6198 36.2135 15.25 34.3906C19.4471 34.7015 22.0534 33.4218 23.2953 32.812C23.5097 32.7067 23.6835 32.6214 23.8177 32.5677C24.1962 32.7741 24.5357 32.9741 24.8559 33.1626L24.8559 33.1627C26.2319 33.9731 27.2505 34.5729 29.4688 34.5729C32.6847 34.5729 32.9323 32.2031 32.9323 31.6562C32.9323 29.651 31.474 28.5573 30.5625 28.5573C28.5573 28.5573 28.0104 29.2865 27.4635 30.0156L27.099 29.8333C28.5573 28.1927 30.3802 25.4583 30.5625 24C32.9323 25.276 34.9375 28.9219 34.2083 31.8385C33.4336 34.9375 28.7396 37.3724 25.4583 37.4896ZM20.7284 18.188C22.3597 17.803 25.8233 17.803 27.4732 18.3703L27.4639 17.9853C25.641 17.6207 24.0912 16.1913 24.7388 13.9953C25.2764 12.1723 28.0823 11.1298 30.1983 13.2457C31.3522 14.3997 31.6566 16.8916 31.6566 19.9905C32.741 20.5171 35.667 22.5426 37.4899 26.3707C38.2191 18.8968 34.7555 14.7041 30.7544 12.1723C27.0993 9.85957 24.3393 11.8098 23.6451 12.3546C21.8128 13.7926 20.7284 16.7093 20.7284 18.188ZM16.8909 30.5634C11.969 30.5634 10.4636 26.9175 10.4195 24.1832C10.3284 18.5321 14.1565 12.8811 19.2607 11.2405C17.6201 13.7925 16.8909 15.7978 16.8909 19.4436C13.9742 20.7196 11.969 22.7248 11.6044 24.1832C11.2399 25.4592 11.6044 26.8163 12.3336 27.4644C13.9742 28.9228 15.9274 28.1936 16.7086 27.2821C17.7202 26.1019 17.4378 24.5478 17.0732 23.8186H17.4378C17.8024 24.9123 19.443 28.5582 20.719 29.6519C19.6253 30.1988 17.9847 30.5634 16.8909 30.5634ZM21.0829 22.178C23.2704 21.6311 25.0114 21.6311 26.9162 22.178C26.9162 23.6363 25.2756 26.1884 23.9996 27.4644C22.7235 26.1884 21.2652 23.8186 21.0829 22.178Z" fill="white"/>
<defs>
<linearGradient id="paint0_linear_1300_1295" x1="48" y1="48" x2="-2.62577e-05" y2="2.62577e-05" gradientUnits="userSpaceOnUse">
<stop stop-color="#DD037D"/>
<stop offset="1" stop-color="#00B1FF"/>
</linearGradient>
</defs>
</svg>
