<svg width="48" height="48" viewBox="0 0 48 48" fill="none" xmlns="http://www.w3.org/2000/svg">
<path d="M0 14C0 6.26801 6.26801 0 14 0H34C41.732 0 48 6.26801 48 14V34C48 41.732 41.732 48 34 48H14C6.26801 48 0 41.732 0 34V14Z" fill="url(#paint0_linear_1900_4100)"/>
<path fill-rule="evenodd" clip-rule="evenodd" d="M21.3181 22.3765H12.625C12.625 17.3411 14.136 12.0417 16.8288 8.58462C19.4867 10.0102 21.7366 12.1013 23.3571 14.636C22.6363 15.8555 21.3181 18.6017 21.3181 22.3765ZM23.4898 33.4315C22.7791 32.2479 21.4106 29.4696 21.4106 25.6235H12.7175C12.7175 30.7368 14.2756 36.1224 17.0471 39.5746C19.6827 38.1124 21.904 35.9908 23.4898 33.4315ZM17.6656 40.2906C22.8658 37.3327 26.4966 31.9205 26.9935 25.6235H35.375C35.375 34.0657 30.8502 43.25 23.9075 43.25C21.4732 43.25 19.3703 42.1209 17.6656 40.2906ZM26.9695 22.3765C26.3805 16.1066 22.6813 10.7445 17.4359 7.85925C19.1645 5.94091 21.315 4.75 23.815 4.75C30.7578 4.75 35.2825 13.9343 35.2825 22.3765H26.9695Z" fill="white"/>
<path d="M0 28H14C17.3137 28 20 30.6863 20 34V48H8C3.58172 48 0 44.4183 0 40V28Z" fill="#3F3F3F"/>
<path d="M15.8873 34.1034C15.6867 33.9447 15.4475 33.7279 15.0116 33.6737C14.6026 33.6195 14.1859 33.8944 13.9043 34.0763C13.6227 34.2583 13.0903 34.7926 12.8704 34.9552C12.6504 35.1178 12.0872 35.2688 11.1805 35.8147C10.2739 36.3606 6.7168 38.6525 6.7168 38.6525L7.64273 38.6641L3.51464 40.7973H3.92745L3.33331 41.2503C3.33331 41.2503 3.858 41.3897 4.29782 41.1109V41.2387C4.29782 41.2387 9.21294 39.2952 10.162 39.7985L9.58331 39.9688C9.63347 39.9688 10.5671 40.0308 10.5671 40.0308C10.5898 40.2248 10.6548 40.4114 10.7574 40.5774C10.8601 40.7433 10.998 40.8845 11.1612 40.9909C11.7245 41.3626 11.7361 41.5678 11.7361 41.5678C11.7361 41.5678 11.4429 41.6878 11.4429 41.8388C11.4429 41.8388 11.875 41.7072 12.2762 41.7188C12.5309 41.7285 12.7834 41.7688 13.0285 41.8388C13.0285 41.8388 12.9977 41.6762 12.608 41.5678C12.2183 41.4594 11.8325 41.0335 11.6435 40.8012C11.5277 40.6534 11.4522 40.4778 11.4245 40.2918C11.3968 40.1058 11.4177 39.9158 11.4853 39.7404C11.6204 39.3881 12.091 39.1945 13.0633 38.6912C14.2091 38.095 14.4714 37.6536 14.6335 37.3091C14.7955 36.9645 15.0347 36.2793 15.1697 35.9579C15.3395 35.5437 15.5478 35.323 15.7214 35.1913C15.895 35.0597 16.6666 34.7693 16.6666 34.7693C16.6666 34.7693 16.0764 34.2544 15.8873 34.1034Z" fill="white"/>
<defs>
<linearGradient id="paint0_linear_1900_4100" x1="48" y1="48" x2="-2.71797e-05" y2="2.71797e-05" gradientUnits="userSpaceOnUse">
<stop offset="0.161458" stop-color="#DF5262"/>
<stop offset="0.53125" stop-color="#EC725D"/>
<stop offset="0.753207" stop-color="#F38861"/>
</linearGradient>
</defs>
</svg>
