<svg width="48" height="48" viewBox="0 0 48 48" fill="none" xmlns="http://www.w3.org/2000/svg">
<path d="M0 14C0 6.26801 6.26801 0 14 0H34C41.732 0 48 6.26801 48 14V34C48 41.732 41.732 48 34 48H14C6.26801 48 0 41.732 0 34V14Z" fill="url(#paint0_linear_1304_1037)"/>
<path fill-rule="evenodd" clip-rule="evenodd" d="M21.3181 22.3765H12.625C12.625 17.3411 14.136 12.0417 16.8288 8.58462C19.4867 10.0102 21.7366 12.1013 23.3571 14.636C22.6363 15.8555 21.3181 18.6017 21.3181 22.3765ZM23.4898 33.4315C22.7791 32.2479 21.4106 29.4696 21.4106 25.6235H12.7175C12.7175 30.7368 14.2756 36.1224 17.0471 39.5746C19.6827 38.1124 21.904 35.9908 23.4898 33.4315ZM17.6656 40.2906C22.8658 37.3327 26.4966 31.9205 26.9935 25.6235H35.375C35.375 34.0657 30.8502 43.25 23.9075 43.25C21.4732 43.25 19.3703 42.1209 17.6656 40.2906ZM26.9695 22.3765C26.3805 16.1066 22.6813 10.7445 17.4359 7.85925C19.1645 5.94091 21.315 4.75 23.815 4.75C30.7578 4.75 35.2825 13.9343 35.2825 22.3765H26.9695Z" fill="white"/>
<defs>
<linearGradient id="paint0_linear_1304_1037" x1="48" y1="48" x2="-2.71797e-05" y2="2.71797e-05" gradientUnits="userSpaceOnUse">
<stop offset="0.161458" stop-color="#DF5262"/>
<stop offset="0.53125" stop-color="#EC725D"/>
<stop offset="0.753207" stop-color="#F38861"/>
<stop offset="0.754052" stop-color="#3F3F3F"/>
</linearGradient>
</defs>
</svg>
