<svg width="48" height="48" viewBox="0 0 48 48" fill="none" xmlns="http://www.w3.org/2000/svg">
<path d="M0 14C0 6.26801 6.26801 0 14 0H34C41.732 0 48 6.26801 48 14V34C48 41.732 41.732 48 34 48H14C6.26801 48 0 41.732 0 34V14Z" fill="url(#paint0_linear_1300_1200)"/>
<path fill-rule="evenodd" clip-rule="evenodd" d="M24 39.75C33.665 39.75 41.5 32.6985 41.5 24C41.5 15.3015 33.665 8.25 24 8.25C14.335 8.25 6.5 15.3015 6.5 24C6.5 32.6985 14.335 39.75 24 39.75ZM24.3587 9.0376C22.1922 9.0376 17.8592 19.0013 17.8592 24.3481C17.8592 29.6949 22.9144 38.9626 24.3587 38.9626C25.8031 38.9626 30.1361 30.4262 30.1361 24.3481C30.1361 18.2699 26.5253 9.0376 24.3587 9.0376Z" fill="white"/>
<defs>
<linearGradient id="paint0_linear_1300_1200" x1="48" y1="48" x2="0" y2="0" gradientUnits="userSpaceOnUse">
<stop stop-color="#5B892B"/>
<stop offset="1" stop-color="#97D92D"/>
</linearGradient>
</defs>
</svg>
