<svg width="48" height="48" viewBox="0 0 48 48" fill="none" xmlns="http://www.w3.org/2000/svg">
<path d="M0 14C0 6.26801 6.26801 0 14 0H34C41.732 0 48 6.26801 48 14V34C48 41.732 41.732 48 34 48H14C6.26801 48 0 41.732 0 34V14Z" fill="url(#paint0_linear_1301_815)"/>
<path fill-rule="evenodd" clip-rule="evenodd" d="M6.5 10.875H11.0902V19.1416H20.7008V37.125H6.5V32.3391H15.9672V23.7825H6.5V10.875ZM27.4427 19.1414V36.9798H41.5V32.3389H32.1763V23.9273H41.5V19.1414H27.4427ZM21.9918 32.919V36.9798H26.0082V32.919H21.9918Z" fill="white"/>
<defs>
<linearGradient id="paint0_linear_1301_815" x1="48" y1="48" x2="-2.62577e-05" y2="2.62577e-05" gradientUnits="userSpaceOnUse">
<stop stop-color="#391BB5"/>
<stop offset="0.762981" stop-color="#B5309C"/>
<stop offset="0.763634" stop-color="#3F3F3F"/>
</linearGradient>
</defs>
</svg>
