<svg width="48" height="48" viewBox="0 0 48 48" fill="none" xmlns="http://www.w3.org/2000/svg">
<path d="M0 14C0 6.26801 6.26801 0 14 0H34C41.732 0 48 6.26801 48 14V34C48 41.732 41.732 48 34 48H14C6.26801 48 0 41.732 0 34V14Z" fill="url(#paint0_linear_1301_798)"/>
<path d="M39.7873 17.2448C37.9494 16.1827 35.5666 17.1894 35.0864 19.249C34.7724 20.5974 35.2803 21.9181 36.4163 22.7493C36.5918 22.8786 36.5733 22.9894 36.5364 23.1371C36.3332 24.0238 35.9361 24.818 35.3912 25.5384C33.9042 27.3301 31.5492 28.1613 29.268 27.6441C28.3813 27.4502 27.3839 26.8499 26.7282 27.5056C26.2479 27.9858 26.2756 28.4661 26.4049 28.9094C26.9406 30.7473 26.7466 32.6406 25.7215 34.2476C24.7702 35.7345 22.9139 36.5103 21.6394 36.8058C21.4454 36.852 21.1683 36.9536 21.039 36.6765C20.568 35.6329 19.6537 35.1249 18.5454 34.9864C14.8235 34.6539 13.6506 39.5673 16.9292 41.1835C18.527 41.9685 20.5403 41.2389 21.233 39.595C21.3161 39.401 21.4177 39.3179 21.6301 39.2994C22.9416 39.1794 24.1699 38.7545 25.2782 38.0526C26.331 37.3877 27.1992 36.5103 27.8642 35.4574C28.8154 33.9428 29.231 32.2804 29.1756 30.4887C29.1664 30.1562 29.1571 30.1654 29.4989 30.2116C32.5835 30.6734 35.8345 29.3342 37.6262 26.7575C38.1249 26.0371 38.6698 24.4209 38.9838 23.562C39.0577 23.3588 39.1039 23.2572 39.3071 23.2018C42.0223 22.3614 42.244 18.6025 39.7873 17.2448ZM18.2868 39.4103C16.7537 39.3733 16.6614 37.0829 18.2499 37.0552C19.7276 37.0737 19.9031 39.3179 18.2868 39.4103ZM38.2727 21.2716C37.6077 21.2623 37.072 20.7359 37.0813 20.0894C37.1182 18.4732 39.4271 18.5932 39.4179 20.1633C39.3994 20.7913 38.9007 21.2808 38.2727 21.2716ZM20.7805 31.5877C16.6337 31.5231 11.9512 30.3132 9.67003 26.5451C7.00095 22.3706 8.84807 17.3095 9.19902 12.7656C9.29137 11.7404 9.32832 10.7153 9.2452 9.69012C9.1159 8.75733 9.93787 8.08313 10.8152 8.28631C11.628 8.43408 12.4499 8.56338 13.2719 8.53568C16.3381 8.45256 22.5999 7.9446 25.2043 9.07134C28.7323 10.6044 30.9673 14.1417 31.346 17.8267C31.5214 19.2028 31.5307 20.5974 31.4014 21.9827C31.3367 22.6754 30.8011 23.1464 30.1176 23.1187C29.5173 23.1002 28.9724 22.5922 28.917 22.0012C28.9078 21.9458 28.917 21.8811 28.917 21.8165C29.3141 16.8108 28.0212 11.4911 22.1935 10.9462C20.5311 10.7799 18.8687 10.8908 17.2063 10.9646C15.47 11.0385 13.7429 11.0847 12.0066 10.9277C11.8681 10.9185 11.7757 10.9092 11.7757 11.1032C11.7665 13.3659 11.3971 15.5917 11.0738 17.8174C10.6213 20.819 10.3442 24.0976 12.6901 26.4158C14.8604 28.4661 17.9636 29.0664 20.8636 29.0849C22.4152 29.1588 22.5352 31.5785 20.7805 31.5877ZM19.3489 22.7031C21.5562 22.8047 21.6024 25.9725 19.3766 26.0279C18.4438 26.0187 17.705 25.2429 17.7142 24.2916C17.7142 23.3957 18.4346 22.6938 19.3489 22.7031ZM24.3362 18.1592C26.5619 18.2238 26.6081 21.4193 24.41 21.4932C23.4957 21.4932 22.7199 20.7267 22.7107 19.8308C22.7107 18.8795 23.4126 18.1499 24.3362 18.1592Z" fill="white"/>
<defs>
<linearGradient id="paint0_linear_1301_798" x1="48" y1="48" x2="-2.62577e-05" y2="2.62577e-05" gradientUnits="userSpaceOnUse">
<stop stop-color="#5C09BA"/>
<stop offset="0.583333" stop-color="#C72F9E"/>
<stop offset="1" stop-color="#FCA027"/>
</linearGradient>
</defs>
</svg>
