<svg width="48" height="48" viewBox="0 0 48 48" fill="none" xmlns="http://www.w3.org/2000/svg">
<path d="M0 14C0 6.26801 6.26801 0 14 0H34C41.732 0 48 6.26801 48 14V34C48 41.732 41.732 48 34 48H14C6.26801 48 0 41.732 0 34V14Z" fill="url(#paint0_linear_1300_1323)"/>
<path fill-rule="evenodd" clip-rule="evenodd" d="M10.2632 34.3956C9.19716 32.1078 8.60168 29.5553 8.60168 26.8635C8.60168 17.0228 16.5596 9.04546 26.3761 9.04546C31.8422 9.04546 36.7317 11.519 39.9922 15.4102L41.9375 13.774C38.2111 9.32688 32.6231 6.5 26.3761 6.5C15.1572 6.5 6.0625 15.6171 6.0625 26.8635C6.0625 29.9399 6.74301 32.8569 7.96137 35.4715L10.2632 34.3956ZM26.3762 38.9548C19.715 38.9548 14.315 33.5414 14.315 26.8639C14.315 20.1864 19.715 14.7731 26.3762 14.7731C30.0853 14.7731 33.4027 16.452 35.6152 19.0924L37.5609 17.4558C34.8827 14.2595 30.8661 12.2277 26.3762 12.2277C18.3126 12.2277 11.7757 18.7805 11.7757 26.8639C11.7757 34.9474 18.3126 41.5001 26.3762 41.5001V38.9548ZM26.3758 32.5903C28.1327 32.5903 29.7043 31.7949 30.7523 30.5443L32.5298 32.84C30.9721 34.4515 28.7911 35.4539 26.3758 35.4539C21.6428 35.4539 17.806 31.6075 17.806 26.863C17.806 22.1184 21.6428 18.2721 26.3758 18.2721C29.0114 18.2721 31.3683 19.465 32.9404 21.3412L30.7523 23.1818C29.7043 21.931 28.1327 21.1358 26.3758 21.1358C23.2205 21.1358 20.6626 23.6999 20.6626 26.863C20.6626 30.0261 23.2205 32.5903 26.3758 32.5903Z" fill="white"/>
<defs>
<linearGradient id="paint0_linear_1300_1323" x1="48" y1="48" x2="0.146965" y2="-0.14607" gradientUnits="userSpaceOnUse">
<stop/>
<stop offset="1" stop-color="#3F3F3F"/>
</linearGradient>
</defs>
</svg>
