<svg width="48" height="48" viewBox="0 0 48 48" fill="none" xmlns="http://www.w3.org/2000/svg">
<path d="M0 14C0 6.26801 6.26801 0 14 0H34C41.732 0 48 6.26801 48 14V34C48 41.732 41.732 48 34 48H14C6.26801 48 0 41.732 0 34V14Z" fill="url(#paint0_linear_1320_2686)"/>
<path fill-rule="evenodd" clip-rule="evenodd" d="M20.6371 11.0302C20.7476 10.9196 20.9267 10.9196 21.0376 11.0302L24.0003 13.9942L29.4188 8.57399C32.1815 5.80869 36.6629 5.80869 39.4274 8.57399C42.1906 11.3396 42.1906 15.8213 39.4274 18.5866L38.5739 19.4403C38.4634 19.5512 38.284 19.5512 38.1735 19.4403L35.9714 17.2377C35.8609 17.1268 35.8609 16.9475 35.9714 16.8369L36.8242 15.9841C38.1493 14.6587 38.1493 12.5022 36.8242 11.1765C35.5009 9.85265 33.3449 9.85265 32.0202 11.1765L26.6016 16.5972C26.5978 16.5931 26.5931 16.5887 26.5891 16.5843L26.5887 16.584L26.5877 16.5849L31.4058 21.4037L34.3699 18.439C34.4804 18.3284 34.6598 18.3284 34.7703 18.439L36.9727 20.6419C37.0832 20.7525 37.0832 20.9318 36.9727 21.0424L34.009 24.0073L39.4273 29.4265C40.8092 30.8093 41.4999 32.6217 41.4999 34.4338C41.4999 36.2281 40.8215 38.0245 39.4638 39.4026C36.711 42.1959 32.1027 42.1242 29.3298 39.3507L28.5642 38.5848C28.4536 38.4743 28.4536 38.2949 28.5642 38.1843L30.7663 35.9814C30.8768 35.8708 31.0559 35.8708 31.1667 35.9814L31.9662 36.7814C33.3093 38.1251 35.5441 38.161 36.8647 36.7954C38.1489 35.4675 38.1367 33.3421 36.8248 32.0299L31.4066 26.6108C30.6202 27.3963 28.4046 29.6101 26.6 31.4133L29.5651 34.3794C29.6759 34.49 29.6759 34.6693 29.5651 34.7799L27.3633 36.9828C27.2527 37.0934 27.0733 37.0934 26.9628 36.9828L23.994 34.0128L18.5834 39.4268C17.2006 40.809 15.3888 41.5 13.577 41.5C11.7666 41.5015 9.9562 40.809 8.5734 39.4268C5.80898 36.6612 5.80898 32.1798 8.5734 29.4142L9.42099 28.5663C9.53182 28.4558 9.71091 28.4558 9.82145 28.5663L12.0232 30.769C12.1338 30.8798 12.1338 31.0589 12.0232 31.1697L11.1762 32.0167C9.85149 33.3421 9.85149 35.4975 11.1762 36.8228C12.4995 38.1482 14.6555 38.1482 15.9806 36.8228L21.3924 31.4101L16.5863 26.6046L13.6247 29.5676C13.5142 29.6781 13.3348 29.6781 13.2243 29.5676L11.0225 27.3649C10.912 27.2544 10.912 27.075 11.0228 26.9645L13.9842 24.0028L13.9813 23.9999L13.9829 23.9983L8.57288 18.5864C5.80904 15.8214 5.80904 11.3388 8.57288 8.57375C11.3367 5.80875 15.8179 5.80875 18.582 8.57375L19.436 9.42804C19.5463 9.53859 19.5463 9.71796 19.436 9.8285L17.2339 12.0315C17.1234 12.142 16.9443 12.142 16.8338 12.0315L16.034 11.2314C14.6903 9.88742 12.4553 9.85154 11.1346 11.2183C9.85067 12.5465 9.86438 14.6716 11.1751 15.983L16.5922 21.4022L21.369 16.5684L18.435 13.6333C18.3245 13.5228 18.3245 13.3437 18.435 13.2328L20.6371 11.0302ZM24.7734 19.9608C24.3463 19.5336 23.6538 19.5336 23.2266 19.9608L19.9783 23.209C19.5512 23.6362 19.5512 24.3287 19.9783 24.7558L23.2266 28.0041C23.6538 28.4312 24.3463 28.4312 24.7734 28.0041L28.0217 24.7558C28.4488 24.3287 28.4488 23.6362 28.0217 23.209L24.7734 19.9608Z" fill="white"/>
<defs>
<linearGradient id="paint0_linear_1320_2686" x1="48" y1="48" x2="-2.71797e-05" y2="2.71797e-05" gradientUnits="userSpaceOnUse">
<stop offset="0.0982327"/>
<stop offset="0.869792" stop-color="#FBE257"/>
</linearGradient>
</defs>
</svg>
