<svg width="48" height="48" viewBox="0 0 48 48" fill="none" xmlns="http://www.w3.org/2000/svg">
<path d="M0 14C0 6.26801 6.26801 0 14 0H34C41.732 0 48 6.26801 48 14V34C48 41.732 41.732 48 34 48H14C6.26801 48 0 41.732 0 34V14Z" fill="url(#paint0_linear_1300_1435)"/>
<path fill-rule="evenodd" clip-rule="evenodd" d="M24.0186 41.5C33.6938 41.5 41.5371 33.665 41.5371 24C41.5371 14.335 33.6938 6.5 24.0186 6.5C14.3434 6.5 6.5 14.335 6.5 24C6.5 33.665 14.3434 41.5 24.0186 41.5ZM20.9269 14.7352H27.1099V20.9766H20.9276V27.0231H27.1099V33.2645H20.9269V27.2181H14.7446V20.9766H20.9269V14.7352ZM27.1109 20.9766H33.2939V27.2181H27.1109V20.9766Z" fill="white"/>
<defs>
<linearGradient id="paint0_linear_1300_1435" x1="48" y1="48" x2="-2.62577e-05" y2="2.62577e-05" gradientUnits="userSpaceOnUse">
<stop stop-color="#4AA7CA"/>
<stop offset="1" stop-color="#56D5A7"/>
</linearGradient>
</defs>
</svg>
