<svg width="48" height="48" viewBox="0 0 48 48" fill="none" xmlns="http://www.w3.org/2000/svg">
<path d="M0 14C0 6.26801 6.26801 0 14 0H34C41.732 0 48 6.26801 48 14V34C48 41.732 41.732 48 34 48H14C6.26801 48 0 41.732 0 34V14Z" fill="url(#paint0_linear_1304_910)"/>
<path fill-rule="evenodd" clip-rule="evenodd" d="M8.05293 23.9818C8.05346 21.033 8.872 18.142 10.4175 15.6307C11.963 13.1194 14.1748 11.0862 16.8069 9.75716C19.4389 8.42817 22.3881 7.85555 25.3262 8.10302C28.2643 8.35049 31.0761 9.40834 33.4489 11.1589C33.576 11.2556 33.7212 11.3261 33.8759 11.3661C34.0306 11.406 34.1917 11.4147 34.3497 11.3917C34.5875 11.3567 34.8095 11.2518 34.9876 11.0904C35.1657 10.9289 35.2918 10.7182 35.3499 10.485C35.408 10.2518 35.3955 10.0065 35.314 9.78039C35.2325 9.55426 35.0857 9.35746 34.8921 9.21495C32.1587 7.19674 28.9191 5.97661 25.5336 5.69031C22.1481 5.40401 18.7496 6.06277 15.7161 7.59329C12.6827 9.12382 10.1334 11.4661 8.35185 14.3595C6.57029 17.2528 5.62635 20.5838 5.62507 23.9818C5.61414 27.9095 6.87323 31.7354 9.21449 34.8888C9.30925 35.0169 9.42832 35.125 9.56488 35.2071C9.70145 35.2892 9.85284 35.3436 10.0104 35.3671C10.168 35.3907 10.3287 35.383 10.4833 35.3445C10.6379 35.3059 10.7834 35.2373 10.9114 35.1425C11.0395 35.0478 11.1477 34.9287 11.2298 34.7921C11.3118 34.6555 11.3662 34.5041 11.3897 34.3465C11.4133 34.1889 11.4056 34.0282 11.3671 33.8736C11.3285 33.719 11.2599 33.5735 11.1652 33.4454C9.13469 30.709 8.04301 27.3894 8.05293 23.9818ZM38.7617 13.0679C38.57 12.8096 38.2838 12.6378 37.9657 12.5903C37.6476 12.5427 37.3236 12.6232 37.0647 12.8141C36.9364 12.9087 36.828 13.0276 36.7457 13.1641C36.6634 13.3006 36.6088 13.452 36.585 13.6096C36.5612 13.7672 36.5687 13.928 36.6071 14.0827C36.6455 14.2374 36.714 14.3831 36.8087 14.5113C39.0891 17.5796 40.1905 21.3656 39.912 25.1786C39.6335 28.9916 37.9937 32.5773 35.2916 35.2817C32.5896 37.986 29.0055 39.6287 25.1932 39.91C21.3809 40.1913 17.5946 39.0925 14.525 36.8141C14.2653 36.6372 13.9472 36.5678 13.6375 36.6204C13.3278 36.673 13.0505 36.8436 12.8637 37.0963C12.677 37.349 12.5954 37.6642 12.6361 37.9757C12.6767 38.2873 12.8365 38.571 13.0817 38.7673C16.6195 41.3881 20.981 42.6505 25.3715 42.3246C29.7619 41.9986 33.8892 40.106 37.0013 36.9916C40.1134 33.8771 42.0032 29.7481 42.3263 25.3569C42.6494 20.9656 41.3844 16.6044 38.7617 13.0679ZM22.9142 24.5685C21.2987 21.6235 19.2409 19.9799 16.7991 19.6796C14.8228 19.4351 12.6534 20.3454 12.3554 22.5547C12.2871 22.9548 12.3018 23.3646 12.3987 23.7588C12.4956 24.1529 12.6726 24.5228 12.9187 24.8455C13.5426 25.658 14.6343 26.2331 15.8424 26.3821C17.3831 26.5497 18.9363 26.2088 20.2652 25.4113C20.4043 25.3327 20.5576 25.2825 20.7162 25.2634C20.8748 25.2444 21.0356 25.2568 21.1894 25.3001C21.3432 25.3433 21.4869 25.4166 21.6124 25.5155C21.7378 25.6145 21.8424 25.7373 21.9202 25.8769C22.0775 26.1582 22.1168 26.4904 22.0295 26.8007C21.9422 27.111 21.7355 27.374 21.4546 27.5321C19.6722 28.593 17.5913 29.0403 15.5305 28.8056C13.6636 28.5751 12.0039 27.6765 10.9797 26.3378C10.5354 25.7595 10.214 25.0965 10.0351 24.3896C9.85617 23.6826 9.82353 22.9465 9.93917 22.2265C10.0463 21.387 10.344 20.5833 10.8096 19.8767C11.2752 19.1701 11.8964 18.5795 12.6254 18.15C13.9806 17.369 15.5565 17.0595 17.1064 17.27C20.321 17.6658 23.0701 19.7867 25.0534 23.4021C26.6665 26.3448 28.7243 27.9884 31.1684 28.2911C33.1517 28.5355 35.3235 27.6229 35.6331 25.4066C35.6968 25.0068 35.6776 24.5981 35.5767 24.206C35.4758 23.8139 35.2953 23.4468 35.0465 23.1274C34.425 22.3149 33.3309 21.7422 32.1251 21.5909C30.5843 21.4253 29.0315 21.767 27.7024 22.564C27.4211 22.7213 27.0889 22.7606 26.7786 22.6734C26.4684 22.5861 26.2054 22.3793 26.0473 22.0984C25.8902 21.8174 25.8509 21.4855 25.9382 21.1756C26.0255 20.8657 26.2322 20.6031 26.5129 20.4455C28.438 19.356 30.4305 18.9299 32.4301 19.1767C34.297 19.4095 35.9543 20.3081 36.9809 21.6445C37.4238 22.2226 37.7444 22.8848 37.9233 23.5908C38.1022 24.2968 38.1355 25.0318 38.0214 25.7511C37.9136 26.5901 37.6156 27.3932 37.15 28.0993C36.6845 28.8054 36.0637 29.3958 35.3351 29.8252C34.2594 30.4487 33.0355 30.7704 31.7923 30.7565C31.481 30.7565 31.17 30.7371 30.8612 30.6983C27.6442 30.3002 24.8974 28.1816 22.9142 24.5685Z" fill="white"/>
<defs>
<linearGradient id="paint0_linear_1304_910" x1="48" y1="48" x2="-2.71797e-05" y2="2.71797e-05" gradientUnits="userSpaceOnUse">
<stop stop-color="#D43079"/>
<stop offset="1" stop-color="#F93C90"/>
</linearGradient>
</defs>
</svg>
