<svg width="48" height="48" viewBox="0 0 48 48" fill="none" xmlns="http://www.w3.org/2000/svg">
<path d="M0 14C0 6.26801 6.26801 0 14 0H34C41.732 0 48 6.26801 48 14V34C48 41.732 41.732 48 34 48H14C6.26801 48 0 41.732 0 34V14Z" fill="url(#paint0_linear_1301_947)"/>
<path fill-rule="evenodd" clip-rule="evenodd" d="M38.8672 14.3909C39.8352 14.3909 40.6198 15.1773 40.6198 16.1473C40.6198 17.0969 39.8678 17.8705 38.928 17.9026L36.7867 21.1214L36.7633 21.1561C36.281 21.8567 35.4904 22.2807 34.6412 22.2942L34.5994 22.2945L32.004 22.2944C32.2471 22.8521 32.4341 23.4399 32.5579 24.0508L38.0765 24.0509L38.1047 24.0505C38.3776 24.0416 38.6308 23.9058 38.7895 23.6832L38.8056 23.6599L40.8674 20.5605C40.7102 20.2972 40.6198 19.9892 40.6198 19.66C40.6198 18.69 41.4045 17.9036 42.3724 17.9036C43.3403 17.9036 44.125 18.69 44.125 19.66C44.125 20.6192 43.3577 21.3989 42.4046 21.4161L40.2638 24.6341L40.2403 24.6688C39.7581 25.3694 38.9675 25.7934 38.1183 25.8069L38.0765 25.8073L32.7331 25.8072C32.7332 26.4088 32.6728 26.9962 32.5579 27.5638L38.0765 27.5636C38.9415 27.5636 39.7502 27.99 40.2403 28.7021L40.2638 28.7368L42.4046 31.9548C43.3577 31.972 44.125 32.7517 44.125 33.7109C44.125 34.6809 43.3403 35.4673 42.3724 35.4673C41.4045 35.4673 40.6198 34.6809 40.6198 33.7109C40.6198 33.3817 40.7102 33.0737 40.8674 32.8104L38.8056 29.7111C38.6483 29.4746 38.387 29.3296 38.1047 29.3205L38.0765 29.32L32.004 29.3201C31.7306 29.9472 31.3862 30.536 30.9811 31.0765L34.5713 31.0764C35.4363 31.0764 36.245 31.5027 36.7352 32.2148L36.7586 32.2495L38.8994 35.4676C39.8525 35.4848 40.6198 36.2644 40.6198 37.2236C40.6198 38.1936 39.8352 38.98 38.8672 38.98C37.8993 38.98 37.1146 38.1936 37.1146 37.2236C37.1146 36.8945 37.205 36.5865 37.3622 36.3232L35.3004 33.2238C35.1431 32.9874 34.8818 32.8423 34.5996 32.8332L34.5713 32.8327L29.2286 32.8329C27.7639 33.9356 25.9432 34.5891 23.9702 34.5891C21.9972 34.5891 20.1765 33.9356 18.7119 32.8329L13.4287 32.8327L13.4004 32.8332C13.1276 32.842 12.8743 32.9778 12.7157 33.2004L12.6996 33.2238L10.6379 36.3232C10.795 36.5865 10.8854 36.8945 10.8854 37.2236C10.8854 38.1936 10.1007 38.98 9.13277 38.98C8.16484 38.98 7.38018 38.1936 7.38018 37.2236C7.38018 36.2644 8.14754 35.4847 9.10065 35.4676L11.2414 32.2495L11.2648 32.2148C11.7471 31.5142 12.5377 31.0902 13.3869 31.0767L13.4287 31.0764L16.9594 31.0765C16.5542 30.536 16.2099 29.9472 15.9365 29.3201L9.92355 29.32L9.89526 29.3205C9.62243 29.3293 9.36915 29.4651 9.2105 29.6877L9.19443 29.7111L7.13267 32.8105C7.28985 33.0738 7.38018 33.3818 7.38018 33.7109C7.38018 34.6809 6.59552 35.4673 5.62759 35.4673C4.65966 35.4673 3.875 34.6809 3.875 33.7109C3.875 32.7516 4.64236 31.972 5.59547 31.9548L7.73619 28.7368L7.75966 28.7021C8.24192 28.0015 9.03252 27.5775 9.88174 27.564L9.92355 27.5636L15.3826 27.5638C15.2744 27.0296 15.2146 26.4778 15.2079 25.9133L15.2073 25.8072L9.92355 25.8073C9.05853 25.8073 8.24983 25.3809 7.75966 24.6688L7.73619 24.6341L5.59547 21.4161C4.64236 21.3989 3.875 20.6193 3.875 19.66C3.875 18.69 4.65966 17.9036 5.62759 17.9036C6.59552 17.9036 7.38018 18.69 7.38018 19.66C7.38018 19.9891 7.28985 20.2971 7.13267 20.5604L9.19443 23.6599C9.35171 23.8963 9.61302 24.0413 9.89526 24.0505L9.92355 24.0509L15.3826 24.0508C15.5063 23.4399 15.6934 22.8521 15.9365 22.2944L13.4006 22.2945C12.5356 22.2945 11.7269 21.8682 11.2367 21.1561L11.2133 21.1214L9.07199 17.9026C8.1322 17.8705 7.38018 17.0969 7.38018 16.1473C7.38018 15.1773 8.16484 14.3909 9.13277 14.3909C10.1007 14.3909 10.8854 15.1773 10.8854 16.1473C10.8854 16.4857 10.7899 16.8017 10.6244 17.0698L12.6715 20.1471C12.8288 20.3836 13.0901 20.5286 13.3724 20.5377L13.4006 20.5382L16.9594 20.538C18.5581 18.4051 21.1034 17.0255 23.9702 17.0255C26.8371 17.0255 29.3824 18.4051 30.9811 20.538L34.5994 20.5382L34.6276 20.5377C34.9005 20.5289 35.1538 20.3931 35.3124 20.1705L35.3285 20.1471L37.3756 17.0698C37.2101 16.8017 37.1146 16.4857 37.1146 16.1473C37.1146 15.1773 37.8993 14.3909 38.8672 14.3909ZM23.9702 18.7818C20.0985 18.7818 16.9599 21.9272 16.9599 25.8073C16.9599 29.6873 20.0985 32.8327 23.9702 32.8327C27.8419 32.8327 30.9806 29.6873 30.9806 25.8073C30.9806 21.9272 27.8419 18.7818 23.9702 18.7818ZM23.9702 20.5382C26.874 20.5382 29.228 22.8972 29.228 25.8073C29.228 28.7173 26.874 31.0764 23.9702 31.0764C21.0664 31.0764 18.7125 28.7173 18.7125 25.8073C18.7125 22.8972 21.0664 20.5382 23.9702 20.5382ZM30.1043 10L30.1623 10.0005C32.0714 10.0315 33.6095 11.5921 33.6095 13.5127C33.6095 15.4528 32.0401 17.0255 30.1043 17.0255C28.1684 17.0255 26.5991 15.4528 26.5991 13.5127C26.5991 12.5594 26.978 11.6948 27.5932 11.0619L27.6258 11.0289L30.1043 13.5127V10ZM17.8362 10V13.5127L20.3147 11.0289C20.949 11.6645 21.3413 12.5427 21.3413 13.5127C21.3413 15.4528 19.772 17.0255 17.8362 17.0255C15.9003 17.0255 14.331 15.4528 14.331 13.5127C14.331 11.5921 15.8691 10.0315 17.7782 10.0005L17.8362 10Z" fill="white"/>
<defs>
<linearGradient id="paint0_linear_1301_947" x1="48" y1="48" x2="0" y2="0" gradientUnits="userSpaceOnUse">
<stop stop-color="#E6335B"/>
<stop offset="1" stop-color="#0036F5"/>
</linearGradient>
</defs>
</svg>
