<svg width="48" height="48" viewBox="0 0 48 48" fill="none" xmlns="http://www.w3.org/2000/svg">
<path d="M0 14C0 6.26801 6.26801 0 14 0H34C41.732 0 48 6.26801 48 14V34C48 41.732 41.732 48 34 48H14C6.26801 48 0 41.732 0 34V14Z" fill="url(#paint0_linear_1301_920)"/>
<path fill-rule="evenodd" clip-rule="evenodd" d="M17.6043 14.995C19.0536 13.8949 20.7427 13.1648 22.401 13.1648C23.032 13.1648 23.5435 13.6763 23.5435 14.3073C23.5435 14.9383 23.032 15.4498 22.401 15.4498C21.3935 15.4498 20.1786 15.9098 18.9858 16.8151C17.8053 17.7111 16.729 18.9837 15.998 20.4565C14.5534 23.367 14.4787 26.9645 17.5072 30.0772C19.0492 31.662 20.6703 32.3801 22.2204 32.5726C23.7883 32.7674 25.3604 32.4327 26.784 31.7856C28.2101 31.1374 29.4411 30.1956 30.3036 29.248C30.7341 28.7749 31.056 28.3188 31.2649 27.9188C31.4804 27.5059 31.5413 27.2192 31.5413 27.0655C31.5413 26.4345 32.0528 25.923 32.6838 25.923C33.3148 25.923 33.8263 26.4345 33.8263 27.0655C33.8263 27.7211 33.6015 28.3806 33.2905 28.9764C32.9727 29.5849 32.5269 30.1999 31.9935 30.7861C30.9279 31.9569 29.4454 33.086 27.7295 33.8659C26.0111 34.647 24.0127 35.0978 21.9388 34.8403C19.8471 34.5805 17.755 33.6086 15.8694 31.6707C12.0429 27.7378 12.1587 23.052 13.9512 19.4406C14.8388 17.6523 16.1427 16.1043 17.6043 14.995Z" fill="white"/>
<path fill-rule="evenodd" clip-rule="evenodd" d="M7.15563 17.7108C9.72775 11.3575 16.2705 6.5 25.8285 6.5C26.4595 6.5 26.971 7.01153 26.971 7.64253C26.971 8.27353 26.4595 8.78506 25.8285 8.78506C17.1061 8.78506 11.462 13.163 9.27369 18.5683C7.07694 23.9943 8.28372 30.6212 13.6364 35.3495C18.9589 40.051 25.1089 40.0454 29.9756 37.5678C34.9053 35.0581 38.3964 30.0792 38.3964 24.9709C38.3964 24.3399 38.9079 23.8284 39.5389 23.8284C40.1699 23.8284 40.6815 24.3399 40.6815 24.9709C40.6815 31.0974 36.5557 36.7821 31.0123 39.6042C25.4057 42.4584 18.2263 42.4528 12.1236 37.062C6.05106 31.6979 4.59192 24.0432 7.15563 17.7108Z" fill="white"/>
<path fill-rule="evenodd" clip-rule="evenodd" d="M33.7091 10.1817C32.8173 11.669 31.2337 14.328 29.7906 16.8439C28.9072 18.3841 28.0837 19.8581 27.5046 20.9733C27.4884 21.0045 27.4724 21.0353 27.4567 21.0658C27.4722 21.0619 27.4879 21.058 27.5036 21.054C28.7095 20.7493 30.3252 20.2838 32.0224 19.7725C34.7992 18.936 37.7541 17.9891 39.4018 17.4553C38.7368 16.2621 37.709 14.4955 36.9233 13.4854C36.1469 12.4871 34.7027 11.0987 33.7091 10.1817ZM32.2357 8.19762C32.734 7.37064 33.8448 7.22491 34.5459 7.85362C35.3599 8.5835 37.5908 10.6216 38.7271 12.0825C39.8604 13.5396 41.3336 16.2107 41.856 17.1774C42.3016 18.0017 41.907 19.0422 40.9948 19.3401C39.7719 19.7394 36.097 20.9316 32.6815 21.9605C30.9764 22.4741 29.3208 22.9517 28.0634 23.2694C27.4392 23.4271 26.8861 23.5524 26.4649 23.6211C26.2607 23.6544 26.0429 23.682 25.8463 23.6837C25.7522 23.6846 25.608 23.6805 25.451 23.6448C25.3427 23.6201 24.95 23.5228 24.6876 23.1292C24.4567 22.7828 24.4801 22.4284 24.4862 22.339C24.496 22.1964 24.5258 22.0692 24.5499 21.9806C24.5999 21.7974 24.6771 21.5966 24.7589 21.4035C24.9267 21.0077 25.1777 20.4961 25.4766 19.9203C26.0784 18.7615 26.9211 17.254 27.8085 15.707C29.5855 12.6087 31.5703 9.30163 32.2357 8.19762Z" fill="white"/>
<defs>
<linearGradient id="paint0_linear_1301_920" x1="48" y1="48" x2="0" y2="0" gradientUnits="userSpaceOnUse">
<stop stop-color="#D57923"/>
<stop offset="1" stop-color="#F8A65A"/>
</linearGradient>
</defs>
</svg>
