<svg width="48" height="48" viewBox="0 0 48 48" fill="none" xmlns="http://www.w3.org/2000/svg">
<path d="M0 14C0 6.26801 6.26801 0 14 0H34C41.732 0 48 6.26801 48 14V34C48 41.732 41.732 48 34 48H14C6.26801 48 0 41.732 0 34V14Z" fill="url(#paint0_linear_1309_576)"/>
<path fill-rule="evenodd" clip-rule="evenodd" d="M25.9024 6.70616L12.0013 14.7397C11.7661 14.8711 11.5701 15.0629 11.4338 15.2954C11.2974 15.5278 11.2255 15.7924 11.2255 16.0619V23.5297L25.8862 14.9821C26.1283 14.8469 26.401 14.776 26.6783 14.776C26.9556 14.776 27.2282 14.8469 27.4703 14.9821L31.7053 17.4229C32.0003 17.5966 32.3448 17.6671 32.6844 17.6232C33.0239 17.5793 33.3392 17.4235 33.5803 17.1804L36.5383 14.2063C36.7038 14.0365 36.8286 13.8314 36.9032 13.6064C36.9779 13.3814 37.0005 13.1424 36.9694 12.9074C36.9383 12.6724 36.8542 12.4475 36.7235 12.2497C36.5929 12.0519 36.419 11.8863 36.215 11.7655L27.4541 6.70616C27.2179 6.57106 26.9504 6.5 26.6783 6.5C26.4061 6.5 26.1387 6.57106 25.9024 6.70616ZM27.4538 41.2938L36.247 36.2183C36.3689 36.1515 36.4783 36.0639 36.5703 35.9596C36.8575 35.6692 37.0186 35.2771 37.0186 34.8686C37.0186 34.46 36.8575 34.068 36.5703 33.7775L33.5961 30.8033C33.3528 30.5639 33.0379 30.4106 32.6994 30.3669C32.3608 30.3231 32.0173 30.3912 31.7211 30.5609L27.4538 33.0178C27.2175 33.1529 26.9501 33.224 26.6779 33.224C26.4057 33.224 26.1383 33.1529 25.902 33.0178L19.1616 29.1223C18.9253 28.9872 18.729 28.7918 18.5927 28.5561C18.4564 28.3205 18.385 28.0529 18.3858 27.7807V20.9918L11.2251 25.1459V31.9186C11.2243 32.1909 11.2957 32.4585 11.432 32.6941C11.5683 32.9298 11.7646 33.1251 12.001 33.2603L25.902 41.2938C26.1383 41.4289 26.4057 41.4999 26.6779 41.4999C26.9501 41.4999 27.2175 41.4289 27.4538 41.2938Z" fill="white"/>
<defs>
<linearGradient id="paint0_linear_1309_576" x1="48" y1="48" x2="0" y2="0" gradientUnits="userSpaceOnUse">
<stop stop-color="#D57923"/>
<stop offset="1" stop-color="#F8A65A"/>
</linearGradient>
</defs>
</svg>
