<svg width="48" height="48" viewBox="0 0 48 48" fill="none" xmlns="http://www.w3.org/2000/svg">
<path d="M0 14C0 6.26801 6.26801 0 14 0H34C41.732 0 48 6.26801 48 14V34C48 41.732 41.732 48 34 48H14C6.26801 48 0 41.732 0 34V14Z" fill="url(#paint0_linear_1301_928)"/>
<g clip-path="url(#clip0_1301_928)">
<path fill-rule="evenodd" clip-rule="evenodd" d="M7.01129 18.9861C7.96855 18.6854 8.66292 17.791 8.66292 16.7345C8.66292 15.4314 7.60651 14.375 6.30337 14.375C5.00023 14.375 3.94383 15.4314 3.94383 16.7345C3.94383 17.7911 4.63824 18.6854 5.59556 18.9861V30.6586C5.52992 30.6585 5.46408 30.6583 5.39805 30.6582C4.84868 30.657 4.28542 30.6559 3.70786 30.6559C3.31692 30.6559 3 30.9728 3 31.3637C3 31.7547 3.31692 32.0716 3.70786 32.0716C4.29133 32.0716 4.86381 32.073 5.42522 32.0744L5.42669 32.0744C10.1437 32.086 14.0797 32.0957 17.1974 31.2506C18.9693 30.7703 20.5128 30.0077 21.8126 28.7956C22.4295 28.2203 22.9828 27.5519 23.4768 26.7786C23.7146 26.8494 23.9667 26.8875 24.2275 26.8875C25.6773 26.8875 26.8525 25.7122 26.8525 24.2625C26.8525 23.3509 26.3879 22.5479 25.6826 22.0773C26.2818 20.9917 27.0015 20.1379 27.818 19.4626C28.2451 19.1094 28.7033 18.8013 29.191 18.5331V26.7527C28.2337 27.0534 27.5393 27.9477 27.5393 29.0042C27.5393 30.3073 28.5958 31.3637 29.8989 31.3637C31.202 31.3637 32.2584 30.3073 32.2584 29.0042C32.2584 27.9477 31.564 27.0533 30.6067 26.7527V17.8917C31.1077 17.707 31.633 17.5524 32.1816 17.4237C33.1702 17.1918 34.2211 17.0462 35.3258 16.9594V26.7527C34.3685 27.0533 33.6741 27.9477 33.6741 29.0042C33.6741 30.3073 34.7305 31.3637 36.0336 31.3637C37.3368 31.3637 38.3932 30.3073 38.3932 29.0042C38.3932 27.9477 37.6988 27.0534 36.7415 26.7527V16.879C38.2362 16.8236 39.8156 16.848 41.4606 16.8911V28.6403C40.5033 28.9409 39.8089 29.8353 39.8089 30.8918C39.8089 32.195 40.8653 33.2514 42.1684 33.2514C43.4716 33.2514 44.528 32.195 44.528 30.8918C44.528 29.8353 43.8336 28.941 42.8764 28.6403V16.9309C43.3377 16.9443 43.8035 16.9579 44.2735 16.9702C44.6643 16.9805 44.9895 16.672 44.9998 16.2812C45.0101 15.8904 44.7016 15.5653 44.3108 15.555C43.8329 15.5424 43.3555 15.5283 42.8795 15.5143L42.8794 15.5143C38.9413 15.3982 35.0996 15.285 31.8583 16.0454C30.0219 16.4762 28.3404 17.1934 26.9158 18.3716C25.8883 19.2214 25.0131 20.2955 24.3112 21.6388C24.2835 21.6379 24.2556 21.6375 24.2275 21.6375C22.7778 21.6375 21.6025 22.8128 21.6025 24.2625C21.6025 24.9396 21.8589 25.5568 22.2799 26.0224C21.8449 26.7022 21.3672 27.2751 20.847 27.7602C20.3694 28.2056 19.8488 28.5837 19.2808 28.9045V20.8737C20.2382 20.5731 20.9326 19.6787 20.9326 18.6222C20.9326 17.319 19.8762 16.2626 18.573 16.2626C17.2699 16.2626 16.2135 17.319 16.2135 18.6222C16.2135 19.6787 16.9078 20.573 17.8651 20.8737V29.5547C17.5328 29.6773 17.1869 29.7866 16.8271 29.8842C15.7203 30.1842 14.4977 30.3694 13.146 30.4832V18.9861C14.1033 18.6854 14.7977 17.7911 14.7977 16.7345C14.7977 15.4314 13.7413 14.375 12.4382 14.375C11.1351 14.375 10.0787 15.4314 10.0787 16.7345C10.0787 17.791 10.773 18.6854 11.7303 18.9861V30.5758C10.2945 30.6461 8.72597 30.6599 7.01129 30.6603V18.9861Z" fill="white"/>
</g>
<defs>
<linearGradient id="paint0_linear_1301_928" x1="48" y1="48" x2="0" y2="0" gradientUnits="userSpaceOnUse">
<stop stop-color="#E6335B"/>
<stop offset="1" stop-color="#0036F5"/>
</linearGradient>
<clipPath id="clip0_1301_928">
<rect width="42" height="42" fill="white" transform="translate(3 3)"/>
</clipPath>
</defs>
</svg>
