<svg width="48" height="48" viewBox="0 0 48 48" fill="none" xmlns="http://www.w3.org/2000/svg">
<path d="M0 14C0 6.26801 6.26801 0 14 0H34C41.732 0 48 6.26801 48 14V34C48 41.732 41.732 48 34 48H14C6.26801 48 0 41.732 0 34V14Z" fill="url(#paint0_linear_1301_887)"/>
<path fill-rule="evenodd" clip-rule="evenodd" d="M9.125 6.5H32.3332C36.1878 6.5 39.3125 9.61898 39.3125 13.4664V16.3201H32.081V15.6487C32.081 14.4898 31.1398 13.5504 29.9788 13.5504H18.711C17.55 13.5504 16.6088 14.4898 16.6088 15.6487V31.3441C16.6088 33.0593 18.0018 34.4496 19.7201 34.4496H28.9697C30.688 34.4496 32.081 33.0593 32.081 31.3441V26.56H39.3125V34.3657C39.3125 38.3059 36.1125 41.5 32.165 41.5H9.125V6.5ZM10.3022 7.67506V40.3249H32.165C35.4623 40.3249 38.1353 37.6569 38.1353 34.3657V27.735H33.2582V31.3441C33.2582 33.7082 31.3382 35.6247 28.9697 35.6247H19.7201C17.3516 35.6247 15.4316 33.7082 15.4316 31.3441V15.6487C15.4316 13.8408 16.8998 12.3753 18.711 12.3753H29.9788C31.6184 12.3753 32.9769 13.5763 33.2196 15.1451H38.1353V13.4664C38.1353 10.2679 35.5376 7.67506 32.3332 7.67506H10.3022ZM29.222 16.4041H19.2996C18.9281 16.4041 18.6269 16.7047 18.6269 17.0755V30.6727C18.6269 31.0435 18.9281 31.3441 19.2996 31.3441H29.222C29.5935 31.3441 29.8947 31.0435 29.8947 30.6727V17.0755C29.8947 16.7047 29.5935 16.4041 29.222 16.4041ZM38.9761 18.5863H32.4173C32.2315 18.5863 32.081 18.7366 32.081 18.9221V23.7902C32.081 23.9756 32.2315 24.1259 32.4173 24.1259H38.9761C39.1619 24.1259 39.3125 23.9756 39.3125 23.7902V18.9221C39.3125 18.7366 39.1619 18.5863 38.9761 18.5863Z" fill="white"/>
<defs>
<linearGradient id="paint0_linear_1301_887" x1="48" y1="48" x2="0" y2="0" gradientUnits="userSpaceOnUse">
<stop stop-color="#248A63"/>
<stop offset="1" stop-color="#58B18F"/>
</linearGradient>
</defs>
</svg>
