<svg width="48" height="48" viewBox="0 0 48 48" fill="none" xmlns="http://www.w3.org/2000/svg">
<path d="M0 14C0 6.26801 6.26801 0 14 0H34C41.732 0 48 6.26801 48 14V34C48 41.732 41.732 48 34 48H14C6.26801 48 0 41.732 0 34V14Z" fill="url(#paint0_linear_1304_988)"/>
<g clip-path="url(#clip0_1304_988)">
<path fill-rule="evenodd" clip-rule="evenodd" d="M29.8469 29.597C30.0974 29.6581 30.3543 29.69 30.6122 29.6919C31.52 29.6919 32.0988 29.2468 32.3571 28.7563C32.5894 28.3152 32.6018 27.8125 32.4124 27.331L34.8991 26.2852C35.189 26.1633 35.3251 25.8296 35.203 25.54C35.0809 25.2503 34.7469 25.1144 34.4569 25.2364L31.7348 26.3812C31.5066 26.1518 31.2764 25.9241 31.0563 25.7066L31.0562 25.7065L31.0065 25.6574C30.6073 25.2625 30.2511 24.91 30.0018 24.6443C30.8501 24.5073 32.3839 24.2015 33.0232 24.0384C33.1042 24.0178 33.1827 23.9964 33.2591 23.9752L33.2618 23.9745C33.7754 23.8344 34.1465 23.7332 34.5542 24.0661C35.0466 24.4684 36.471 25.9037 37.6028 27.1379C37.9242 27.4883 38.3708 27.6795 38.8332 27.7409L36.2164 36.3387C35.889 37.4143 35.1026 38.2905 34.0678 38.7325L22.6222 43.6213C22.3329 43.7449 22.1986 44.0793 22.3223 44.3682C22.4461 44.6572 22.7809 44.7912 23.0701 44.6677L34.5157 39.7789C35.8599 39.2047 36.8813 38.0668 37.3065 36.6697L40.0434 27.6771C40.0508 27.653 40.0565 27.6287 40.0605 27.6045C40.1147 27.5838 40.1674 27.5612 40.2183 27.5367C41.1775 27.0743 41.5086 26.2025 41.1253 25.1452C40.5512 23.5606 38.6936 21.2327 37.1465 19.5823C36.6649 19.0863 36.1533 18.6202 35.6144 18.1868C35.1959 17.8378 34.8348 17.5366 34.6922 17.3289C33.8488 16.0974 33.1157 12.9643 33.5497 11.6725C34.2852 9.4833 35.0949 6.15418 34.9572 3.97407C34.9294 3.54909 34.8053 3.27233 34.5757 3.12778C34.2522 2.9246 33.8313 3.07455 33.5434 3.20525C33.1101 3.40173 31.4038 4.40707 29.6822 5.75819C27.3113 4.46246 23.7814 5.03567 22.3338 5.65627C21.7283 5.19493 19.2189 3.30327 18.5578 3.08342C18.418 3.02566 18.2678 2.99733 18.1166 3.0002C17.9653 3.00306 17.8163 3.03707 17.6789 3.10009C17.586 3.15274 17.505 3.22389 17.4408 3.30912C17.376 3.39481 17.329 3.49326 17.3021 3.59864C17.0792 4.38218 17.5627 7.10131 17.8351 8.08782L17.8548 8.15966C18.2425 9.56324 18.7139 11.2701 18.9431 13.375C18.8822 13.3706 18.8196 13.376 18.7572 13.3924L12.4038 15.0624C11.1295 15.3974 10.7662 17.0302 11.7785 17.8727L25.6874 29.4501L20.9968 43.3546C20.8287 43.8528 20.2104 44.0245 19.8089 43.6845L8.27609 33.9148C7.93041 33.622 7.7826 33.1577 7.89548 32.7192L11.566 18.4615C11.6444 18.1571 11.4609 17.8469 11.1562 17.7687C10.8514 17.6904 10.5409 17.8737 10.4626 18.1781L6.79201 32.4358C6.57043 33.2965 6.86059 34.2079 7.53914 34.7827L19.072 44.5524C20.0874 45.4125 21.6513 44.9782 22.0765 43.718L26.8097 29.6873L28.3339 29.0463C28.8729 29.2982 29.3851 29.4878 29.8469 29.597ZM12.6938 16.163L19.0403 14.4948C19.4227 19.4377 20.3477 21.3955 21.3437 23.1155C22.354 24.861 24.7653 26.998 27.0409 28.3553L26.4503 28.6037L12.5079 16.9985C12.2069 16.748 12.3149 16.2626 12.6938 16.163ZM30.0703 10.7775C30.266 10.5358 30.4481 10.3111 30.653 10.2877L30.6539 10.2886C31.1017 10.2325 31.1753 11.5071 30.9054 12.1094C30.6468 12.7073 29.7538 13.0943 29.4198 12.7931C29.3193 12.7007 29.3173 12.644 29.3112 12.481L29.3112 12.4809C29.31 12.4463 29.3085 12.407 29.3059 12.3615C29.291 12.1015 28.7169 12.1497 28.702 12.5436C28.6988 12.6097 28.7011 12.6781 28.7037 12.7522C28.7093 12.9156 28.7159 13.107 28.6652 13.3648C28.4987 14.22 26.9693 14.3759 26.5723 14.3163C26.1762 14.2612 25.6959 13.9452 25.9325 13.7561C26.4987 13.3017 26.0946 12.2136 25.2252 11.8564C24.9211 11.7339 24.8019 11.6892 24.688 11.8074C24.4767 12.0271 24.6398 12.3913 24.9211 12.4727C25.3655 12.604 25.9842 13.4917 24.9623 14.0572C23.9395 14.621 23.2471 13.5696 23.1884 13.3394C23.1297 13.1091 23.0333 13.0601 22.744 13.0452C21.5098 13.0032 21.3867 12.5632 21.2787 12.1769C21.2651 12.1285 21.2518 12.0809 21.2366 12.035C21.0998 11.6218 21.4548 11.4327 21.5144 11.4774C21.5194 11.4809 21.5263 11.486 21.535 11.4924L21.5354 11.4927L21.5356 11.4929C21.6366 11.5675 21.9686 11.8129 22.248 11.7855C22.4631 11.7619 22.5106 11.8374 22.6221 12.0146L22.6221 12.0146C22.6677 12.0872 22.7241 12.1768 22.8071 12.2836C23.2918 12.9157 23.7099 12.0867 23.4364 11.9308C22.8291 11.5815 22.9886 11.0274 23.2033 10.9048C23.418 10.7823 23.4697 10.5591 23.333 10.377C23.1954 10.1949 22.8957 10.2588 22.7922 10.3551C22.6073 10.5293 22.5737 10.7221 22.5472 10.8744C22.5211 11.0245 22.5019 11.1352 22.3514 11.15C21.8957 11.1937 21.1332 10.6475 21.4355 9.5287C21.7432 8.41079 23.0692 8.41079 23.0692 8.41079L23.0394 8.79335C23.0245 8.95705 23.2287 9.71078 23.702 9.98216C24.5311 10.4584 25.3909 10.2282 25.454 9.90775C25.4908 9.70816 25.22 9.47705 24.794 9.50681C24.3689 9.53657 23.7537 9.30284 23.617 8.70756C23.4802 8.10615 23.9649 7.54851 24.5206 7.31827C25.0683 7.09154 25.6056 7.50036 25.7055 7.76036C25.9053 8.28123 26.3199 8.02736 26.3199 8.02736C26.3199 8.02736 26.8458 7.20622 27.4794 7.25437C28.1201 7.30339 28.3795 7.78224 28.3795 7.78224C28.3795 7.78224 29.83 7.49248 30.0754 8.78197C30.3532 10.2579 29.4566 10.6659 28.9387 10.7446L28.9262 10.7465C28.4167 10.823 28.2267 10.8515 28.1832 11.1867C28.135 11.5246 29.0167 11.6918 29.6127 11.2568C29.7814 11.134 29.9294 10.9514 30.0703 10.7775ZM26.4277 11.5991C26.3129 11.7295 26.5241 11.9597 26.6827 11.9597C27.0456 11.9597 27.305 11.4914 27.3199 10.9635C27.3462 10.3061 27.0938 9.54008 26.7572 9.64775C26.6021 9.70028 26.4724 9.80795 26.4794 9.97866C26.4844 10.0649 26.5247 10.1385 26.5706 10.2222C26.6296 10.3297 26.6978 10.4541 26.7125 10.644C26.7309 10.897 26.6906 11.3093 26.4277 11.5991ZM27.4294 7.79283C27.344 7.78496 27.1563 7.76769 27.0421 8.0685C26.9308 8.36264 26.9676 8.99732 27.4233 9.45078C27.8493 9.88236 28.6459 9.81583 28.9124 9.64075C29.1788 9.46567 28.9904 9.09099 28.8309 9.09449C28.8119 9.09449 28.7826 9.09794 28.7454 9.10234C28.5575 9.12451 28.1658 9.17073 27.8572 8.91941C27.6118 8.72244 27.7345 8.09127 27.7345 8.09127C27.7458 7.88292 27.5197 7.79713 27.4382 7.79362L27.4294 7.79283ZM15.9065 36.4836C16.3046 36.6975 16.7492 36.8106 17.2013 36.8127C17.8087 36.791 18.3864 36.5449 18.8227 36.1222C19.3576 35.5958 19.7406 34.9351 19.9314 34.2096C20.1943 33.3785 20.2949 32.5047 20.2278 31.6357C20.1704 30.8044 19.9638 29.9903 19.6179 29.232C19.3974 28.7548 19.1187 28.3066 18.7882 27.8976C18.3934 27.4272 17.9511 26.9988 17.4682 26.6192L16.1996 25.5444C16.1727 25.5217 16.1406 25.5061 16.1062 25.4989C16.0718 25.4918 16.0362 25.4935 16.0027 25.5039L14.5642 25.949C14.5307 25.9593 14.5004 25.9777 14.4758 26.0025C14.4512 26.0274 14.4331 26.0579 14.4231 26.0914L12.1627 33.4856C12.1499 33.5275 12.1499 33.5722 12.1627 33.6141C12.1754 33.6557 12.2003 33.6925 12.2342 33.7197L14.5024 35.5326C14.9333 35.9011 15.4043 36.2201 15.9065 36.4836ZM28.2116 40.0448C28.242 40.0599 28.2757 40.0673 28.3097 40.0666C28.3315 40.0661 28.3531 40.0621 28.3736 40.0549L29.93 39.5046C29.961 39.4932 29.9889 39.4749 30.0118 39.4511C30.0346 39.4273 30.0518 39.3986 30.0619 39.3672L31.0676 36.2027L33.5507 35.3236C33.5821 35.3125 33.6105 35.2941 33.6335 35.27C33.6565 35.2458 33.6735 35.2166 33.683 35.1846L34.141 33.7028C34.1527 33.6647 34.1538 33.6241 34.1443 33.5851C34.1348 33.5465 34.1149 33.5112 34.0866 33.4832C34.0589 33.4553 34.0237 33.4358 33.9853 33.4271C33.9468 33.4184 33.9067 33.4208 33.8696 33.4341L31.6904 34.2059L31.982 33.2977L34.6709 32.3461C34.7023 32.3348 34.7307 32.3164 34.7537 32.2923C34.7767 32.2682 34.7938 32.239 34.8035 32.2071L35.2615 30.7258C35.2733 30.6877 35.2745 30.6472 35.2649 30.6085C35.2554 30.5699 35.2355 30.5345 35.2073 30.5063C35.1795 30.4786 35.1445 30.4592 35.1061 30.4504C35.0678 30.4416 35.0278 30.4438 34.9907 30.4568L31.5296 31.6718C31.4962 31.6837 31.4662 31.7038 31.4426 31.7302L30.2658 33.04C30.2454 33.0627 30.2298 33.0898 30.2205 33.1192L28.1031 39.7844C28.0925 39.8172 28.0899 39.852 28.0954 39.886C28.1009 39.92 28.1144 39.9522 28.1347 39.98C28.1547 40.0075 28.1811 40.0297 28.2116 40.0448ZM16.4184 34.6287C16.4405 34.6298 16.4626 34.6304 16.4847 34.6304C16.6814 34.6304 16.8759 34.589 17.0555 34.5091C17.2361 34.4283 17.3979 34.3109 17.5306 34.1643C17.8678 33.7606 18.1086 33.2854 18.2347 32.7749C18.4114 32.2185 18.4868 31.635 18.4572 31.052C18.4248 30.4786 18.2684 29.919 17.9986 29.4118C17.8621 29.1632 17.7008 28.9291 17.5172 28.7129C17.2688 28.4517 17.0011 28.2095 16.7165 27.9882L16.3014 27.6465C16.3014 27.6465 16.2096 27.5965 16.1574 27.5993C16.1051 27.602 16.0558 27.6242 16.0191 27.6615C15.9945 27.6865 15.9764 27.7171 15.9663 27.7506L14.3107 33.2023C14.2982 33.2436 14.2981 33.2877 14.3105 33.3291C14.3227 33.3702 14.3469 33.4068 14.38 33.434L14.7916 33.7729C15.0771 34.018 15.3837 34.2372 15.708 34.4281L15.7204 34.4348C15.9383 34.544 16.1753 34.6098 16.4184 34.6287Z" fill="white"/>
</g>
<defs>
<linearGradient id="paint0_linear_1304_988" x1="48" y1="48" x2="-2.71797e-05" y2="2.71797e-05" gradientUnits="userSpaceOnUse">
<stop stop-color="#E04E02"/>
<stop offset="1" stop-color="#FCB350"/>
</linearGradient>
<clipPath id="clip0_1304_988">
<rect width="42" height="42" fill="white" transform="translate(3 3)"/>
</clipPath>
</defs>
</svg>
