<svg width="48" height="48" viewBox="0 0 48 48" fill="none" xmlns="http://www.w3.org/2000/svg">
<path d="M0 14C0 6.26801 6.26801 0 14 0H34C41.732 0 48 6.26801 48 14V34C48 41.732 41.732 48 34 48H14C6.26801 48 0 41.732 0 34V14Z" fill="url(#paint0_linear_1300_1419)"/>
<path fill-rule="evenodd" clip-rule="evenodd" d="M43.25 24.003L40.4067 19.1162H32.5298L36.4714 12.3493L33.6281 7.4624H27.9416L24 14.2293L20.0646 7.46863H14.3781L11.5349 12.3555L15.4765 19.1224H7.59953L4.75 24.003L7.59325 28.8899H15.4702L11.5286 35.6568L14.3719 40.5374H20.0584L24 33.7705L27.9416 40.5374H27.9981H33.6281L36.4714 35.6568L32.5298 28.8899H40.4067L43.25 24.003ZM35.0341 12.3493L31.0924 19.1162H27.565L33.2704 9.32377L35.0341 12.3493ZM28.6572 8.70124H32.1845L26.4792 18.4999L24.7155 15.4681L28.6572 8.70124ZM25.7637 19.7387L24 22.7704L17.9369 12.3555L19.7006 9.32377L25.7637 19.7387ZM12.9722 12.3493L15.0937 8.70124H18.621L16.4996 12.3493L22.9204 23.3805H19.3931L12.9722 12.3493ZM8.31505 20.355H16.192L17.9557 23.3867H6.55135L8.31505 20.355ZM8.31505 27.651L6.55135 24.6193H17.9557L16.192 27.651H8.31505ZM19.3931 24.6193H22.9204L16.8574 35.0342H13.33L19.3931 24.6193ZM19.3428 39.3048H15.0937L13.33 36.2731H17.5791L24 25.2418L25.7637 28.2736L19.3428 39.3048ZM28.6572 39.3048L24.7155 32.5379L26.4792 29.5062L32.1845 39.3048H28.6572ZM35.0341 35.6568L33.2704 38.6823L27.565 28.8836H31.0924L35.0341 35.6568ZM26.8433 27.651L25.0796 24.6193H37.2057L38.9694 27.651H26.8433ZM37.9275 23.3867H37.871H25.0858L26.8495 20.355H39.6975L41.819 24.003L40.049 27.0347L37.9275 23.3867Z" fill="white"/>
<defs>
<linearGradient id="paint0_linear_1300_1419" x1="48" y1="48" x2="-2.62577e-05" y2="2.62577e-05" gradientUnits="userSpaceOnUse">
<stop/>
<stop offset="1" stop-color="#3F3F3F"/>
</linearGradient>
</defs>
</svg>
