<svg width="48" height="48" viewBox="0 0 48 48" fill="none" xmlns="http://www.w3.org/2000/svg">
<path d="M0 14C0 6.26801 6.26801 0 14 0H34C41.732 0 48 6.26801 48 14V34C48 41.732 41.732 48 34 48H14C6.26801 48 0 41.732 0 34V14Z" fill="url(#paint0_linear_1301_966)"/>
<path fill-rule="evenodd" clip-rule="evenodd" d="M35.2278 15.2003H41.7932C43.733 15.2003 43.733 10.875 39.2563 10.875H27.7306H20.5678H7.76988C4.03921 10.875 4.03922 15.2003 6.27763 15.2003H13.0707C12.3343 16.4727 11.9128 17.9499 11.9128 19.5256V21.6136H6.24225C5.4181 21.6136 4.75 22.2814 4.75 23.1051V24.8949C4.75 25.7186 5.4181 26.3864 6.24225 26.3864H11.9128V28.4744C11.9128 30.0501 12.3343 31.5273 13.0707 32.7997H6.27758C4.03924 32.7997 4.03924 37.125 7.76977 37.125H20.5678H27.7306H39.255C43.7316 37.125 43.7316 32.7997 41.7918 32.7997H35.2278C35.9642 31.5273 36.3857 30.0501 36.3857 28.4744V26.3864H41.7578C42.5819 26.3864 43.25 25.7186 43.25 24.8949V23.1051C43.25 22.2814 42.5819 21.6136 41.7578 21.6136H36.3857V19.5256C36.3857 17.9499 35.9642 16.4727 35.2278 15.2003ZM31.0136 21.6136V20.0685C31.0136 17.5974 29.0093 15.5941 26.5368 15.5941H21.7616C19.2892 15.5941 17.2849 17.5974 17.2849 20.0685V21.6136H31.0136ZM17.2849 26.3864V27.9315C17.2849 30.4026 19.2892 32.4059 21.7616 32.4059H26.5368C29.0093 32.4059 31.0136 30.4026 31.0136 27.9315V26.3864H17.2849Z" fill="white"/>
<defs>
<linearGradient id="paint0_linear_1301_966" x1="48" y1="48" x2="0.146965" y2="-0.14607" gradientUnits="userSpaceOnUse">
<stop stop-color="#4E6FD4"/>
<stop offset="1" stop-color="#7B99F5"/>
</linearGradient>
</defs>
</svg>
