<svg width="48" height="48" viewBox="0 0 48 48" fill="none" xmlns="http://www.w3.org/2000/svg">
<path d="M0 14C0 6.26801 6.26801 0 14 0H34C41.732 0 48 6.26801 48 14V34C48 41.732 41.732 48 34 48H14C6.26801 48 0 41.732 0 34V14Z" fill="url(#paint0_linear_1301_840)"/>
<path fill-rule="evenodd" clip-rule="evenodd" d="M21.4264 26.7537L21.1075 26.2247C20.355 24.9758 19.576 23.6844 18.7218 22.4794C18.0681 21.5584 17.9783 20.833 18.4113 19.9732C18.9446 18.9186 18.7288 17.795 18.5206 17.0425C18.0173 15.2241 17.4437 13.4434 16.8499 11.6271C16.5415 10.6818 15.6699 8.814 15.0093 7.82268C14.6533 7.30436 14.2049 6.856 13.6866 6.5L13.438 6.91769C13.8951 7.23543 14.291 7.63303 14.6069 8.09139C15.2369 9.03537 16.0973 10.8795 16.3904 11.7768C16.9814 13.5868 17.5537 15.3627 18.0535 17.1706C18.3508 18.244 18.3271 19.0641 17.979 19.7526C17.466 20.7682 17.5732 21.6948 18.3271 22.7564C19.166 23.939 19.9348 25.213 20.6792 26.4466L20.694 26.4711L21.0135 27.0009C21.3393 27.5397 21.2266 28.1502 20.7351 28.5199C20.3881 28.7756 20.0037 28.9761 19.5955 29.1144C18.8297 29.3796 18.5387 29.6553 18.8464 30.5923C19.1729 31.5871 19.01 32.1329 18.2651 32.5415L18.034 32.6675L18.1781 32.8882C18.5422 33.4451 18.6585 33.7507 18.387 34.0835C17.8384 34.7553 17.6908 35.4716 17.9115 36.4072C18.238 37.796 17.9714 38.8312 17.097 39.5712C16.6648 39.9333 16.1345 40.1585 15.5738 40.2179C15.5216 40.2235 15.2494 40.2298 14.8693 40.236C15.1013 40.1262 15.3174 39.9857 15.5119 39.8183C16.8081 38.6857 16.7844 37.3672 16.7649 36.4072C16.7649 36.3581 16.7643 36.3101 16.7637 36.2632C16.7624 36.1725 16.7613 36.0858 16.7649 36.0028C16.7714 35.377 16.9242 34.7614 17.2112 34.2053C17.4681 33.7096 17.4026 33.2147 17.2968 32.7775C17.7291 32.2491 17.9094 31.6017 17.8635 30.7531C17.7948 30.4372 17.7081 30.1255 17.6038 29.8196C17.4228 29.4576 17.5244 29.2452 17.7716 28.7997L17.7718 28.7993C18.2661 27.9075 19.0132 26.5596 16.8234 22.6304C16.7598 22.5163 16.7016 22.4123 16.6487 22.3186C16.4064 21.8897 16.2735 21.6531 16.2575 21.4929C16.2442 21.3572 16.3152 21.2096 16.49 20.8594C16.5888 20.6617 16.7106 20.4167 16.8575 20.086C17.0364 19.795 17.3657 18.9228 16.7246 16.9534C16.4781 16.1953 16.2686 15.4483 16.0667 14.7257C15.8084 13.8012 15.5411 12.8461 15.1972 11.8798C14.8533 10.9136 14.0722 9.16485 13.5063 8.1986C13.4958 8.1805 13.4852 8.1631 13.4746 8.14569C13.464 8.12829 13.4534 8.11089 13.4429 8.09279C13.3285 7.9083 13.2019 7.73155 13.0642 7.56371L12.7906 8.00994C12.8693 8.11437 12.9466 8.22645 13.0204 8.34549L13.0204 8.34558C13.0399 8.37757 13.0594 8.40956 13.0781 8.44225C13.6309 9.38344 14.3925 11.0939 14.7308 12.0406C15.0642 12.9736 15.3144 13.8687 15.5781 14.8118L15.5781 14.8119L15.5898 14.8538C15.7931 15.5813 16.0034 16.3331 16.2533 17.1009C16.8694 18.9959 16.5102 19.7115 16.4322 19.8361C16.4242 19.8483 16.4172 19.8611 16.4113 19.8744C16.2658 20.2023 16.144 20.4459 16.0465 20.6402C15.649 21.4359 15.633 21.5208 16.2164 22.5553C16.2693 22.6481 16.3273 22.7513 16.3904 22.865C18.4489 26.5588 17.8064 27.7165 17.3372 28.5616L17.3364 28.563C17.091 29.0066 16.8592 29.4255 17.1562 30.027C17.191 30.1217 17.349 30.6863 17.3699 30.7893C17.4089 31.5481 17.2411 32.1078 16.8415 32.5499L16.7587 32.6487L16.7921 32.7761C16.9209 33.2718 16.9599 33.6275 16.7768 33.9818C16.4532 34.6034 16.28 35.2923 16.2714 35.993V36.4156L16.2714 36.4179C16.2874 37.3336 16.3073 38.4721 15.1819 39.4549C14.8143 39.7766 14.3194 39.9576 13.839 40.1051C13.6684 40.15 13.4945 40.1815 13.319 40.1991L13.287 40.2026L13.2577 40.2144C13.2167 40.2305 13.1672 40.2465 13.1123 40.2618L12.783 40.266C13.1123 40.1142 13.4283 39.9228 13.6309 39.6687C14.5226 38.546 14.8333 37.0565 15.0192 36.1651L15.0197 36.1629L15.0368 36.0806L15.0368 36.0805C15.0676 35.9318 15.0942 35.8031 15.1213 35.7034C15.5662 33.986 15.6998 30.5937 15.7145 30.1892C16.7322 27.0503 15.6629 24.5205 15.0225 23.0064C14.7983 22.4759 14.6048 22.0178 14.5923 21.7449C14.5658 21.1386 14.7169 20.5831 14.8638 20.0463C15.0169 19.4846 15.1617 18.9534 15.0552 18.4605C14.9703 18.0714 14.8784 17.6182 14.7816 17.1378C14.444 15.472 14.0235 13.3988 13.5285 12.1256C13.2633 11.442 12.6973 10.0504 12.2017 9.00683L11.9016 9.51432C12.3534 10.4973 12.8366 11.6877 13.0754 12.2989C13.5564 13.5367 13.9741 15.5889 14.3089 17.2346C14.4064 17.7163 14.499 18.1716 14.5839 18.5629C14.6653 18.94 14.5416 19.3929 14.3983 19.9174L14.398 19.9183L14.3876 19.9572C14.2445 20.4916 14.0814 21.1005 14.1133 21.7665C14.1293 22.1261 14.3288 22.5977 14.5812 23.1943L14.5818 23.1957L14.582 23.1962C15.2371 24.7465 16.2274 27.0902 15.2487 30.0702L15.2376 30.1036V30.1384C15.2376 30.1753 15.1088 33.844 14.6584 35.5809C14.625 35.7104 14.5888 35.874 14.5519 36.0633C14.3751 36.9126 14.0785 38.3335 13.2584 39.3658C13.0176 39.6694 12.4641 39.8893 12.0402 40.0432L12.5324 40.8786C12.7732 40.8389 13.0002 40.795 13.1853 40.7463C14.2442 40.7345 15.5126 40.7171 15.6323 40.7017C16.2869 40.6314 16.9057 40.3674 17.4096 39.9436C18.4232 39.086 18.7511 37.8587 18.3842 36.2965C18.1976 35.5015 18.3069 34.9495 18.7629 34.3919C19.2189 33.8343 18.9801 33.2613 18.7204 32.8346C19.7103 32.1649 19.5614 31.2133 19.3087 30.4433C19.1068 29.8272 19.1729 29.7778 19.7542 29.5773C20.2101 29.4222 20.6393 29.1978 21.0268 28.9118C21.7146 28.3939 21.8809 27.5056 21.4264 26.7537ZM11.2487 12.53L11.193 12.3261C11.1053 12.0044 11.0016 11.6278 10.8895 11.2373L11.2278 10.6644C11.3927 11.21 11.5417 11.7535 11.6628 12.1954L11.6628 12.1955L11.6629 12.1959L11.7186 12.3985C12.3242 14.6039 13.3002 18.5239 13.0308 19.9955C12.719 21.6955 13.0134 22.7892 13.3545 24.0555C13.7618 25.5661 14.2226 27.2786 13.9163 30.4726C13.8989 30.6622 13.88 30.8829 13.8592 31.1253L13.8467 31.271L13.8462 31.2773C13.7383 32.5326 13.5908 34.2496 13.3337 35.3331C13.0036 36.7455 12.4118 38.0836 11.5891 39.2781L11.3155 38.8124C12.0384 37.7156 12.5614 36.4994 12.8603 35.2203C13.1053 34.1878 13.251 32.5108 13.3585 31.2727L13.3622 31.2307C13.3859 30.9285 13.4095 30.6556 13.4318 30.4273C13.7291 27.3212 13.2801 25.6539 12.884 24.183L12.8839 24.1829L12.8836 24.1817C12.5273 22.8595 12.2199 21.7187 12.5512 19.9092C12.7357 18.904 12.2609 16.2141 11.2487 12.53ZM10.1062 17.3612L10.1339 17.5925C10.5952 21.4492 11.155 26.1289 11.3857 26.8741C11.3989 26.9187 12.3819 31.2598 10.2023 36.9258L10.5134 37.4563C11.3781 35.3175 11.9002 33.0558 12.0603 30.7544C12.2072 28.4927 11.9259 26.9834 11.8514 26.7314C11.6311 26.0142 11.0313 20.9959 10.5922 17.3225L10.5922 17.3225L10.59 17.3042C10.3359 15.1788 10.1159 13.3403 10.0171 12.7131L9.62027 13.3848C9.7297 14.2156 9.89542 15.6002 10.0819 17.158L10.1062 17.3612ZM9.28193 35.3596L8.91715 34.733C9.00556 34.3153 9.08979 33.8775 9.1615 33.4201C9.79917 29.5425 9.58824 25.9664 8.53496 22.7899C8.35773 22.2561 8.34357 20.7738 8.33105 19.4638V19.4637L8.33099 19.4574L8.33033 19.3918C8.32365 18.7244 8.31743 18.1027 8.28574 17.8264C8.21335 17.2054 8.15487 16.5761 8.10057 15.9572L8.52591 15.2367C8.52903 15.2779 8.53257 15.3179 8.53607 15.3572C8.53883 15.3883 8.54156 15.419 8.54401 15.4497L8.56851 15.7175C8.6302 16.393 8.6936 17.0872 8.77165 17.77C8.80716 18.0812 8.81342 18.7167 8.82038 19.4526C8.83083 20.6012 8.84614 22.1738 8.9993 22.6361C10.5656 27.3601 10.0296 32.1336 9.28193 35.3596ZM6.58722 22.8059C6.29971 21.9629 6.38116 21.0454 6.49881 20.2587C6.57355 19.6976 6.5943 19.1307 6.56077 18.5657L6.99934 17.8222C7.00019 17.8315 7.00122 17.8408 7.00226 17.8501C7.00463 17.8713 7.007 17.8925 7.007 17.9134C7.06339 18.6395 7.10446 19.495 6.97985 20.3304C6.87194 21.0593 6.79537 21.9051 7.04946 22.6486C8.11944 25.7847 8.08533 29.4618 7.6941 32.6522L7.27641 31.9442C7.73795 27.4938 7.18382 24.5546 6.58722 22.8059ZM5.77553 29.3886L5.28822 28.5609C5.26247 26.2476 5.04457 24.2991 4.63315 22.81C4.56492 22.5571 4.5243 22.2976 4.51202 22.0359L5.01046 21.1922C4.97635 21.7226 4.97565 22.2246 5.10166 22.6805C5.57295 24.3826 5.79711 26.6632 5.77553 29.3886ZM3.48173 25.4867C3.48173 25.2072 3.48304 24.9033 3.48443 24.5785C3.48553 24.3216 3.48669 24.0515 3.4873 23.77L3 24.5984V24.6638L3.48173 25.4867ZM38.7179 35.3595L39.0827 34.7329C38.9943 34.3153 38.9101 33.8774 38.8356 33.4165C38.1979 29.539 38.4088 25.9629 39.4621 22.7864C39.6393 22.2526 39.6535 20.7703 39.666 19.4603V19.4602L39.6661 19.4539L39.6663 19.4323V19.4323V19.4322V19.4321V19.4321V19.432V19.4319C39.6732 18.7481 39.6796 18.1052 39.7113 17.8228C39.7844 17.2019 39.8422 16.5725 39.8972 15.9537L39.4719 15.2331C39.4656 15.3062 39.4594 15.3751 39.4532 15.444L39.4531 15.4462C39.3869 16.2084 39.318 16.9965 39.2282 17.7671C39.1927 18.0783 39.1864 18.7139 39.1795 19.4497C39.169 20.5984 39.1537 22.171 39.0006 22.6332C37.4342 27.3573 37.9703 32.1307 38.7179 35.3595ZM41.5011 20.2587C41.6187 21.0454 41.7002 21.9629 41.4127 22.8059C40.8161 24.5546 40.2619 27.4938 40.7235 31.9442L40.3058 32.6522C39.9146 29.4618 39.8811 25.7847 40.9511 22.6486C41.2045 21.9051 41.128 21.0593 41.0207 20.3304C40.8968 19.495 40.9372 18.6395 40.9936 17.9134C40.9936 17.8925 40.996 17.8713 40.9983 17.85C40.9994 17.8408 41.0004 17.8315 41.0013 17.8222L41.4398 18.5657C41.4061 19.1307 41.4266 19.6976 41.5011 20.2587ZM37.8804 17.473L37.8938 17.3612L37.9178 17.1604L37.9181 17.1581L37.9184 17.1553C38.1047 15.5986 38.2703 14.2151 38.3797 13.3848L37.9829 12.7131C37.884 13.3403 37.6641 15.1788 37.41 17.3042L37.4078 17.3222L37.4077 17.3231L37.4076 17.3238L37.4076 17.3241C36.9685 20.9973 36.3688 26.0143 36.1486 26.7314C36.0741 26.9834 35.7928 28.4927 35.9397 30.7544C36.0998 33.0558 36.6218 35.3175 37.4865 37.4563L37.7977 36.9258C35.6181 31.2598 36.601 26.9187 36.6143 26.8741C36.8473 26.1212 37.4171 21.3518 37.8804 17.473ZM36.8077 12.326L36.752 12.53C35.7398 16.214 35.2651 18.9039 35.4496 19.9091C35.7808 21.7186 35.4734 22.8595 35.1171 24.1817L35.1168 24.1828L35.1167 24.183C34.7206 25.6539 34.2717 27.3212 34.5696 30.4272C34.5912 30.6556 34.6149 30.9285 34.6392 31.2306L34.64 31.2394C34.7464 32.4799 34.8918 34.1743 35.1405 35.2216C35.4394 36.5008 35.9624 37.7169 36.6852 38.8137L36.4116 39.2794C35.5889 38.0849 34.9972 36.7468 34.6671 35.3344C34.4095 34.2491 34.2619 32.5282 34.1547 31.2724C34.129 30.9723 34.1053 30.7008 34.0851 30.4739C33.779 27.2818 34.2398 25.5694 34.6462 24.0594L34.6469 24.0568C34.988 22.7905 35.2825 21.6968 34.9706 19.9968C34.7012 18.5252 35.6772 14.6052 36.2828 12.3998L36.3385 12.1972L36.3386 12.197C36.4597 11.755 36.6087 11.2114 36.7736 10.6657L37.112 11.2386C36.9985 11.6278 36.8955 12.0044 36.8077 12.326ZM26.8939 26.2247L26.5744 26.7537C26.1191 27.5056 26.2854 28.3939 26.9725 28.9118C27.36 29.1978 27.7892 29.4222 28.2451 29.5773C28.8264 29.7778 28.8932 29.8272 28.6906 30.4433C28.4386 31.2133 28.289 32.1649 29.2789 32.8346C29.0192 33.2613 28.7804 33.8343 29.2364 34.3919C29.6924 34.9495 29.8017 35.5015 29.6151 36.2965C29.2483 37.8587 29.5761 39.086 30.5897 39.9436C31.0936 40.3674 31.7124 40.6314 32.367 40.7017C32.4867 40.7171 33.7551 40.7345 34.814 40.7463C34.9991 40.795 35.2261 40.8389 35.4676 40.8786L35.9591 40.0432C35.5352 39.8893 34.9824 39.6694 34.7416 39.3658C33.9208 38.3335 33.6249 36.9126 33.4481 36.0633C33.4105 35.874 33.3743 35.7104 33.3409 35.5809C32.8905 33.844 32.7617 30.1753 32.7617 30.1384V30.1036L32.7513 30.0702C31.7718 27.09 32.7624 24.746 33.4182 23.1957L33.4218 23.1871C33.6721 22.5939 33.8701 22.1247 33.886 21.7665C33.9166 21.0851 33.7479 20.4663 33.599 19.9203L33.599 19.9202L33.5985 19.9183C33.4551 19.3934 33.3319 18.9402 33.4126 18.5629C33.4998 18.1799 33.5897 17.7355 33.6849 17.2651L33.6911 17.2346C34.0231 15.5889 34.4408 13.5367 34.9198 12.2989C35.1579 11.6877 35.641 10.4973 36.0928 9.51432L35.7927 9.00683C35.2971 10.0504 34.7311 11.442 34.4659 12.1256C33.9709 13.3988 33.5505 15.472 33.2128 17.1378C33.1161 17.6182 33.0242 18.0714 32.9392 18.4605C32.8334 18.9534 32.9775 19.4846 33.1314 20.0463L33.1324 20.0501C33.2783 20.5857 33.4293 21.14 33.4022 21.7449C33.3896 22.0178 33.1961 22.4759 32.972 23.0064L32.9711 23.0084C32.3312 24.5228 31.2627 27.0517 32.28 30.1892C32.2946 30.5937 32.4283 33.986 32.8731 35.7034C32.904 35.8169 32.9349 35.968 32.9708 36.1436L32.9747 36.1629L32.9792 36.1838C33.1683 37.0772 33.4808 38.5539 34.367 39.6687C34.5689 39.9228 34.885 40.1142 35.2149 40.266L34.885 40.2618C34.83 40.2465 34.7812 40.2305 34.7402 40.2144L34.7102 40.2026L34.6782 40.1991C34.5027 40.1815 34.3288 40.15 34.1582 40.1051C33.6779 39.9576 33.1829 39.7766 32.8153 39.4549C31.6899 38.4721 31.7098 37.3336 31.7258 36.4179L31.7258 36.4156V35.993C31.7191 35.2915 31.5482 34.6013 31.2267 33.9777C31.0429 33.6233 31.0819 33.2676 31.2114 32.7719L31.2441 32.6445L31.1564 32.5478C30.7561 32.1057 30.5883 31.546 30.6273 30.7872C30.6482 30.6842 30.8062 30.1196 30.841 30.0249C31.1384 29.424 30.9068 29.0054 30.6616 28.5623L30.66 28.5595C30.1908 27.7144 29.5483 26.5567 31.6068 22.863C31.6699 22.7493 31.7279 22.646 31.7808 22.5532C32.3642 21.5187 32.3482 21.4338 31.9514 20.6381C31.8532 20.4438 31.7314 20.2002 31.5866 19.8723L31.5838 19.8669C31.5803 19.8601 31.5744 19.8486 31.565 19.834C31.4871 19.7094 31.1279 18.9938 31.7439 17.0989C31.9939 16.331 32.2041 15.5792 32.4074 14.8517L32.4315 14.7655L32.4315 14.7655C32.6906 13.8384 32.9376 12.9549 33.2664 12.0386C33.6055 11.0939 34.3663 9.38344 34.9191 8.44225C34.9378 8.40959 34.9573 8.37762 34.9768 8.34566L34.9769 8.34549C35.0507 8.22645 35.1279 8.11437 35.2066 8.00994L34.9421 7.56371C34.8046 7.73157 34.6783 7.90831 34.564 8.09279C34.5533 8.11075 34.5428 8.12803 34.5323 8.1453L34.532 8.14569L34.5318 8.14608C34.5212 8.16336 34.5107 8.18064 34.5 8.1986C33.934 9.16485 33.153 10.9136 32.8091 11.8798C32.4652 12.8461 32.1978 13.8012 31.9396 14.7257C31.7377 15.4483 31.5288 16.1953 31.2817 16.9534C30.6406 18.9228 30.9698 19.795 31.1487 20.086C31.289 20.4019 31.4071 20.6396 31.5029 20.8325L31.5163 20.8594C31.6917 21.2096 31.7621 21.3572 31.7488 21.4929C31.7328 21.6531 31.5998 21.8897 31.3576 22.3186C31.3047 22.4123 31.2464 22.5163 31.1829 22.6304C28.9928 26.5602 29.7404 27.9079 30.2354 28.7997C30.4825 29.2452 30.5842 29.4576 30.4032 29.8196C30.2976 30.127 30.2102 30.4403 30.1414 30.758C30.0955 31.6066 30.2758 32.254 30.7081 32.7824C30.603 33.2196 30.5368 33.7145 30.7937 34.2102C31.0807 34.7663 31.2335 35.3819 31.2399 36.0076C31.2432 36.0907 31.2421 36.1774 31.2411 36.2681V36.2682C31.2405 36.3151 31.2399 36.363 31.2399 36.4121C31.2204 37.3721 31.1968 38.6906 32.493 39.8232C32.6876 39.9904 32.9037 40.1309 33.1356 40.2409C32.7555 40.2346 32.484 40.2284 32.431 40.2228C31.8703 40.1633 31.3401 39.9382 30.9079 39.5761C30.0335 38.8361 29.7669 37.8009 30.0934 36.4121C30.3141 35.4765 30.1665 34.7601 29.6179 34.0883C29.3464 33.7556 29.4627 33.45 29.8268 32.8931L29.9709 32.6724L29.7397 32.5464C28.9949 32.1377 28.832 31.592 29.1585 30.5972C29.4662 29.6601 29.1752 29.3845 28.4094 29.1192C28.0013 28.9811 27.6171 28.7806 27.2705 28.5247C26.779 28.1551 26.6662 27.5446 26.992 27.0057L27.3095 26.4753L27.3243 26.4506C28.0688 25.2171 28.8375 23.9432 29.6764 22.7606C30.4303 21.699 30.5375 20.7724 30.0245 19.7567C29.6764 19.0683 29.6527 18.2482 29.95 17.1747C30.4505 15.3668 31.022 13.591 31.6131 11.781C31.9062 10.8836 32.7666 9.03955 33.3966 8.09557C33.7112 7.63596 34.1062 7.23693 34.5627 6.91769L34.3141 6.5C33.7958 6.856 33.3474 7.30436 32.9914 7.82268C32.3308 8.814 31.4592 10.6818 31.1508 11.6271C30.557 13.4434 29.9834 15.2241 29.4801 17.0425C29.2719 17.795 29.0568 18.9186 29.5894 19.9732C30.0224 20.833 29.9326 21.5584 29.2789 22.4794C28.4254 23.6844 27.6457 24.9758 26.8939 26.2247ZM42.7117 28.5609L42.2244 29.3886C42.2028 26.6632 42.427 24.3826 42.8983 22.6805C43.0243 22.2246 43.0236 21.7226 42.9894 21.1922L43.4907 22.0359C43.4783 22.2975 43.4379 22.557 43.3702 22.81C42.9553 24.2991 42.7374 26.2476 42.7117 28.5609ZM44.5155 24.5784C44.5169 24.9033 44.5182 25.2072 44.5182 25.4867L44.9999 24.6638V24.5984L44.5126 23.77C44.5132 24.0515 44.5144 24.3216 44.5155 24.5784Z" fill="white"/>
<defs>
<linearGradient id="paint0_linear_1301_840" x1="48" y1="48" x2="-2.62577e-05" y2="2.62577e-05" gradientUnits="userSpaceOnUse">
<stop stop-color="#001BC4"/>
<stop offset="1" stop-color="#3F59FF"/>
</linearGradient>
</defs>
</svg>
