<svg width="48" height="48" viewBox="0 0 48 48" fill="none" xmlns="http://www.w3.org/2000/svg">
<path d="M0 14C0 6.26801 6.26801 0 14 0H34C41.732 0 48 6.26801 48 14V34C48 41.732 41.732 48 34 48H14C6.26801 48 0 41.732 0 34V14Z" fill="url(#paint0_linear_1302_1336)"/>
<path fill-rule="evenodd" clip-rule="evenodd" d="M17.4771 5.71291C17.6804 5.59557 17.9308 5.59571 18.1339 5.71325L23.9971 9.10626L29.8603 5.71325C30.0635 5.59571 30.3139 5.59557 30.5171 5.71291L36.7241 9.29613C36.9271 9.41335 37.0522 9.63 37.0522 9.86447V16.6375L42.7447 19.9316C42.9107 19.9726 43.0606 20.0779 43.1539 20.237C43.2173 20.3453 43.2462 20.4642 43.2439 20.5811L43.2442 20.5991V27.7206C43.2442 27.9549 43.1193 28.1713 42.9166 28.2886L37.0522 31.6822V38.4253C37.0522 38.6602 36.9267 38.8772 36.723 38.9943L30.5161 42.5625C30.3956 42.6317 30.2587 42.6598 30.1249 42.6466C30.0228 42.6368 29.9276 42.6036 29.8446 42.5525L23.9971 39.1828L18.1613 42.5457C18.0588 42.6121 17.9365 42.6507 17.8052 42.6507C17.674 42.6507 17.5517 42.6121 17.4492 42.5458L11.2712 38.9943C11.0676 38.8772 10.942 38.6602 10.942 38.4253V31.6822L5.07766 28.2886C4.87494 28.1713 4.75011 27.9549 4.75011 27.7206V20.6111C4.74925 20.5632 4.75362 20.515 4.76345 20.4673C4.80066 20.2858 4.91368 20.126 5.07766 20.0311L10.942 16.6375V9.88577C10.9381 9.76633 10.9667 9.64439 11.0315 9.53361C11.0868 9.43888 11.1623 9.36317 11.2493 9.30873C11.2561 9.30441 11.2631 9.30021 11.2702 9.29613L17.4771 5.71291ZM12.2545 15.8783V11.0087L16.4433 13.4572L12.2545 15.8783ZM12.2543 18.1601V23.7952L17.1487 26.6157V21.0211L12.2543 18.1601ZM17.8069 19.8856L12.9034 17.0192L17.7875 14.1963L22.7027 17.0406L17.8069 19.8856ZM23.3409 18.1878V23.6852L18.4612 26.5121V21.0234L23.3409 18.1878ZM24.6534 18.1878L29.5326 21.0231V26.5773L24.6534 23.717V18.1878ZM30.1871 19.8855L25.3143 17.0538L30.3432 14.2861L35.0841 17.023L30.1871 19.8855ZM18.4615 28.8868V34.5209L23.3406 37.3469V31.6984L18.4615 28.8868ZM24.6531 37.2855V31.6984L29.5323 28.8868V34.456L24.6531 37.2855ZM28.9073 27.7321L23.9969 30.5618L19.0299 27.6995L23.9698 24.8377L28.9073 27.7321ZM35.7395 23.8175L30.8451 26.6075V21.0211L35.7395 18.1601V23.8175ZM19.0985 13.4385L24.0035 16.277L29.0146 13.5192L23.9837 10.6149L19.0985 13.4385ZM22.6731 9.85647L17.8048 7.03923L12.9044 9.86824L17.7511 12.7013L22.6731 9.85647ZM35.7397 15.886V11.0082L31.5414 13.4623L35.7397 15.886ZM30.2328 12.7069L35.0895 9.86801L30.1894 7.03923L25.3081 9.86399L30.2328 12.7069ZM30.8448 28.1184V33.6949L35.7395 30.8564V25.3282L30.8448 28.1184ZM30.8448 35.2121L35.7397 32.3735V38.0456L30.8448 40.8596V35.2121ZM25.3076 38.4231L29.5323 35.9733V40.8576L25.3076 38.4231ZM17.149 33.7606V28.1307L12.2543 25.31V30.9256L17.149 33.7606ZM12.2545 32.4425L17.149 35.2774V40.8593L12.2545 38.0456V32.4425ZM18.4615 36.0376L22.6332 38.4539L18.4615 40.8579V36.0376ZM37.052 30.166L41.9317 27.3422V21.7138L37.052 24.5731V30.166ZM37.052 23.0519L41.2577 20.5875L37.052 18.1538V23.0519ZM10.9418 18.1541L6.70978 20.603L10.9418 23.0828V18.1541ZM10.9418 24.604L6.06261 21.745V27.3422L10.9418 30.1657V24.604Z" fill="white"/>
<defs>
<linearGradient id="paint0_linear_1302_1336" x1="48" y1="48" x2="0" y2="0" gradientUnits="userSpaceOnUse">
<stop offset="0.281472" stop-color="#3E93F7"/>
<stop offset="1" stop-color="#CFEDFD"/>
</linearGradient>
</defs>
</svg>
