<svg width="48" height="48" viewBox="0 0 48 48" fill="none" xmlns="http://www.w3.org/2000/svg">
<path d="M0 14C0 6.26801 6.26801 0 14 0H34C41.732 0 48 6.26801 48 14V34C48 41.732 41.732 48 34 48H14C6.26801 48 0 41.732 0 34V14Z" fill="url(#paint0_linear_1302_1346)"/>
<path d="M27.9199 16.4118C26.9149 15.8386 25.8601 15.4903 24.8041 15.3829C24.5106 15.3531 23.692 15.3586 23.3795 15.3924C22.4934 15.4885 21.6881 15.7225 20.8591 16.1249C20.6026 16.2493 20.0988 16.5235 20.0608 16.5592C20.0542 16.5654 20.214 16.868 20.5382 17.4631L20.7575 17.8655C20.9016 18.13 21.3287 18.9183 22.2727 20.6617C22.4943 21.0711 22.6835 21.4207 22.6931 21.4387C22.7086 21.4676 22.7299 21.4636 22.8844 21.4025C23.1413 21.3008 23.4501 21.2387 23.8288 21.2125C24.3829 21.174 24.7731 21.2336 25.1658 21.4166C25.2351 21.4489 25.2931 21.4733 25.295 21.4709C25.2967 21.4684 25.3904 21.3079 25.5031 21.1144C25.7062 20.7656 26.5673 19.3022 26.8999 18.7406C26.9949 18.5802 27.1817 18.2633 27.3148 18.0366C27.448 17.8097 27.6827 17.4114 27.8361 17.1514C27.9897 16.8913 28.1294 16.6517 28.1467 16.6188L28.178 16.5589L27.9199 16.4118Z" fill="white"/>
<path d="M25.4341 22.4621C25.1287 22.1432 24.6982 21.935 24.2325 21.8811C23.6324 21.8114 23.0126 22.0226 22.5897 22.4408C22.0457 22.9789 21.8747 23.8394 22.1692 24.5577C22.2714 24.8072 22.3901 24.9808 22.5996 25.1877C22.9685 25.5518 23.376 25.7297 23.8999 25.7554C24.6844 25.794 25.3919 25.4057 25.7459 24.7422C25.9209 24.4143 25.9897 24.101 25.9704 23.7195C25.9556 23.4259 25.9053 23.2223 25.7858 22.9738C25.6757 22.7447 25.6023 22.638 25.4341 22.4621Z" fill="white"/>
<path d="M32.2756 25.5192C32.3131 25.224 32.3377 24.3644 32.3165 24.0856L32.3016 23.8905H26.6737L26.664 23.9558C26.5839 24.4984 26.5291 24.6902 26.3448 25.0716C26.1278 25.5212 25.8945 25.8204 25.5849 26.0467C25.509 26.102 25.4471 26.1545 25.4471 26.1631C25.4471 26.1753 27.9746 30.1715 28.1703 30.4687C28.1959 30.5074 28.2786 30.6363 28.3543 30.7553C28.43 30.8743 28.4967 30.9716 28.5026 30.9716C28.5278 30.9716 28.8671 30.7591 29.1314 30.5777C29.9769 29.9975 30.6216 29.3577 31.127 28.5972C31.7443 27.6683 32.1354 26.6203 32.2756 25.5192Z" fill="white"/>
<path d="M21.3721 24.2325C21.3547 24.0721 21.3371 23.9295 21.3328 23.9156C21.3267 23.8957 20.7462 23.8905 18.519 23.8905C16.8901 23.8905 15.7083 23.898 15.7017 23.9085C15.6748 23.9514 15.6659 24.7639 15.6888 25.0773C15.7629 26.0923 15.9753 26.8902 16.4032 27.763C16.7746 28.5199 17.1354 29.0299 17.7108 29.6111C18.0435 29.9472 18.3507 30.2085 18.7417 30.4883C19.0016 30.6742 19.4697 30.9718 19.5014 30.9713C19.5101 30.9712 19.5984 30.8421 19.6974 30.6847C19.7964 30.5271 20.1853 29.9139 20.5616 29.3219C20.9379 28.7301 21.5445 27.7752 21.9096 27.2002L22.5734 26.1547L22.5259 26.1239C22.1136 25.8567 21.8011 25.5177 21.6082 25.1285C21.483 24.8761 21.4129 24.6096 21.3721 24.2325Z" fill="white"/>
<path fill-rule="evenodd" clip-rule="evenodd" d="M24 43.25C34.6315 43.25 43.25 34.6315 43.25 24C43.25 13.3685 34.6315 4.75 24 4.75C13.3685 4.75 4.75 13.3685 4.75 24C4.75 34.6315 13.3685 43.25 24 43.25ZM28.1453 5.71129C27.0842 5.4713 25.989 5.32147 24.8682 5.27027C24.8045 6.02779 24.7444 6.74048 24.6945 7.32748C24.6003 8.43742 24.5053 9.5592 24.4117 10.6671C25.2324 10.6748 26.0352 10.7584 26.8137 10.9112C26.9284 10.4632 27.0088 10.148 27.0426 10.0138C27.1618 9.53891 27.4432 8.438 27.6674 7.56734C27.7617 7.20193 27.9337 6.5336 28.1453 5.71129ZM31.311 6.73255C32.3612 7.17864 33.3623 7.71793 34.3041 8.34006C33.4969 9.54034 32.4359 11.1205 31.3504 12.7394C30.6544 12.2921 29.9143 11.909 29.1381 11.5983C29.6043 10.5547 29.9022 9.88704 29.9733 9.72599C30.0497 9.55315 30.5814 8.36341 31.311 6.73255ZM39.2661 13.1334C38.5891 12.182 37.8256 11.2968 36.987 10.489C35.826 11.6969 34.5841 12.9886 33.3284 14.2943C33.9498 14.886 34.5147 15.5379 35.0139 16.2409C35.8527 15.6284 36.7212 14.9937 37.4597 14.4534C37.7374 14.2501 38.3366 13.8123 38.7911 13.4804L39.2661 13.1334ZM10.2405 11.278C9.49575 12.0846 8.82095 12.9569 8.2257 13.8852C9.58581 14.8784 11.2477 16.0917 12.8868 17.288C13.2738 16.6196 13.7164 15.9882 14.2081 15.4004L10.2405 11.278ZM6.70393 16.7907C6.28364 17.8001 5.94899 18.8542 5.70906 19.944C6.92957 20.2855 8.04222 20.5979 8.44314 20.7125C8.97343 20.864 10.1924 21.2055 11.152 21.4715L11.3158 21.5169C11.4583 20.7634 11.6631 20.0324 11.9245 19.3295C10.8336 18.7988 9.62476 18.2109 8.30541 17.5694L6.70393 16.7907ZM5.43062 26.4613C5.32485 25.6549 5.27027 24.8323 5.27027 23.9969C5.27027 23.7275 5.27595 23.4594 5.28719 23.1927L5.47096 23.2096C7.15935 23.3651 9.35942 23.5667 11.0834 23.724C11.0809 23.8323 11.0796 23.941 11.0796 24.05C11.0796 24.6909 11.124 25.3213 11.21 25.9381C9.50623 26.0933 7.63916 26.2625 6.423 26.3718L5.43062 26.4613ZM6.12471 29.6117C6.4468 30.64 6.85503 31.6302 7.34093 32.5737C8.09882 32.2048 8.92333 31.8032 9.72868 31.4105C10.6534 30.9597 11.6174 30.49 12.4864 30.0668C12.1672 29.4253 11.8975 28.7542 11.6823 28.0587L6.12471 29.6117ZM11.0543 37.5445C10.3071 36.8291 9.61891 36.0523 8.9979 35.2223C10.8006 33.8984 11.2765 33.5514 12.6671 32.5454C12.8608 32.4053 13.1807 32.1727 13.5773 31.8837C13.9893 32.4612 14.4458 33.004 14.9415 33.507L11.0543 37.5445ZM13.3993 39.4538C14.2279 40.0241 15.1046 40.5294 16.022 40.9624C16.672 39.5089 17.4201 37.8362 18.2588 35.9613C17.6395 35.6388 17.0487 35.2682 16.4911 34.8543L14.0698 38.4555C13.846 38.7881 13.6103 39.1391 13.3993 39.4538ZM21.7432 42.6086C20.7389 42.4878 19.759 42.2875 18.8099 42.0141C18.9627 41.42 19.1275 40.778 19.279 40.187C19.6374 38.7887 20.0319 37.2561 20.1557 36.7812L20.1594 36.7669C20.8157 36.9855 21.4947 37.1534 22.192 37.266C22.0862 38.5239 21.9431 40.227 21.7432 42.6086ZM24.7195 42.7297C25.7485 42.6908 26.7562 42.5688 27.7363 42.3702C27.6611 42.0729 27.5823 41.7648 27.4966 41.4343C27.3257 40.7747 26.9985 39.501 26.7696 38.604C26.6889 38.2879 26.5677 37.815 26.425 37.2589C25.729 37.3737 25.0148 37.4334 24.2868 37.4334L24.2761 37.4334C24.3475 38.2851 24.4146 39.0875 24.4704 39.7554C24.5382 40.5674 24.6258 41.6133 24.7195 42.7297ZM33.5098 40.1504C32.6162 40.6785 31.675 41.1345 30.6941 41.5103L30.269 40.5747C29.7376 39.4056 29.3912 38.6434 29.3101 38.4601C29.1913 38.1914 28.8866 37.508 28.5368 36.7254C29.2551 36.4781 29.9457 36.17 30.6024 35.8069C31.5212 37.1776 32.3542 38.4217 32.7319 38.9878C32.962 39.3326 33.2359 39.7419 33.5098 40.1504ZM36.1305 38.2807C36.9663 37.569 37.7389 36.7851 38.4386 35.9387L37.4359 35.204C36.464 34.4917 35.0792 33.4797 34.2288 32.8603C33.7087 33.4626 33.1361 34.0171 32.5184 34.5166C33.1364 35.161 33.772 35.8234 34.4201 36.4987L36.1305 38.2807ZM41.7474 30.0045C41.374 31.1101 40.9004 32.1693 40.3373 33.1715C39.8578 32.9393 39.3491 32.6923 38.8829 32.4653C37.7214 31.8996 36.5643 31.3366 36.3119 31.2142C36.2263 31.1728 35.9871 31.0562 35.6424 30.8881C36.0664 30.1666 36.4253 29.4013 36.711 28.6004L37.827 28.911C38.8066 29.1832 40.4831 29.651 41.7474 30.0045ZM42.7297 23.9969C42.7297 23.6824 42.722 23.3696 42.7067 23.0589C42.3511 23.0913 41.9732 23.1254 41.5917 23.1593C40.3462 23.27 38.6548 23.423 37.4843 23.5308C37.4908 23.703 37.4941 23.8761 37.4941 24.05C37.4941 24.7572 37.4399 25.4515 37.3356 26.1291C38.8441 26.2659 40.2133 26.3894 41.0867 26.4675C41.5934 26.5128 42.0916 26.5579 42.5507 26.6C42.6687 25.7493 42.7297 24.8803 42.7297 23.9969ZM41.0249 16.1712C41.518 17.2443 41.9129 18.372 42.198 19.5428L42.1427 19.5584C39.5779 20.2791 38.4196 20.6019 37.1386 20.9528C36.937 20.0906 36.6531 19.2605 36.2957 18.4718C38.1725 17.5595 39.7485 16.7928 41.0249 16.1712ZM18.4095 6.09992C19.3575 5.80353 20.3379 5.58054 21.3439 5.43757C21.5757 7.1744 21.8066 8.96217 22.0142 10.8639C21.2462 10.9989 20.5009 11.2011 19.7845 11.4643L19.6337 10.8773C19.2814 9.50533 18.8335 7.75682 18.6382 6.99169C18.5698 6.72403 18.4904 6.41448 18.4095 6.09992ZM16.844 10.5415C16.6547 10.1142 16.1034 8.87933 15.4119 7.33312C14.2856 7.91576 13.226 8.60942 12.2474 9.39966C13.4287 10.6407 14.6129 12.05 15.803 13.7924C16.3921 13.2916 17.0249 12.8419 17.6948 12.4502C17.2839 11.5298 16.9726 10.8318 16.844 10.5415ZM34.4054 24C34.4054 29.7467 29.7467 34.4054 24 34.4054C18.2533 34.4054 13.5946 29.7467 13.5946 24C13.5946 18.2533 18.2533 13.5946 24 13.5946C29.7467 13.5946 34.4054 18.2533 34.4054 24Z" fill="white"/>
<defs>
<linearGradient id="paint0_linear_1302_1346" x1="48" y1="48" x2="0" y2="0" gradientUnits="userSpaceOnUse">
<stop stop-color="#923D21"/>
<stop offset="1" stop-color="#D96D3D"/>
</linearGradient>
</defs>
</svg>
