<svg width="48" height="48" viewBox="0 0 48 48" fill="none" xmlns="http://www.w3.org/2000/svg">
<path d="M0 14C0 6.26801 6.26801 0 14 0H34C41.732 0 48 6.26801 48 14V34C48 41.732 41.732 48 34 48H14C6.26801 48 0 41.732 0 34V14Z" fill="url(#paint0_linear_1696_3812)"/>
<path d="M19.0915 8.27672C19.3022 5.81075 21.3754 3.875 23.9021 3.875C26.4288 3.875 28.5021 5.81075 28.7128 8.27672H30.8075C31.0369 8.27672 31.223 8.4623 31.223 8.69119C31.223 8.92007 31.0371 9.10565 30.8075 9.10565H16.9965C16.7671 9.10565 16.581 8.92007 16.581 8.69119C16.581 8.4623 16.7671 8.27672 16.9965 8.27672H19.0915Z" fill="white"/>
<path d="M8.80237 11.7081L23.5686 20.158C23.8156 20.2996 24.1193 20.3004 24.3664 20.1603L39.202 11.79C39.7399 11.4863 40.4062 11.874 40.4062 12.4906V34.8934C40.4062 35.3378 40.0449 35.6983 39.5993 35.6983H37.0026C36.5571 35.6983 36.1957 35.3378 36.1957 34.8934V19.6924C36.1957 19.076 35.5294 18.6883 34.9914 18.9917L29.4458 22.1206C28.9015 22.4276 28.8989 23.2092 29.4415 23.5195L33.3316 25.7455C33.5825 25.889 33.7371 26.1553 33.7371 26.4437V30.2982C33.7371 30.7426 33.3758 31.1031 32.9302 31.1031H30.3335C29.888 31.1031 29.5266 30.7429 29.5266 30.2982V28.8764C29.5266 28.588 29.372 28.3217 29.1211 28.1781L24.3508 25.4484C24.1038 25.3072 23.8001 25.3062 23.552 25.4462L18.8144 28.1191C18.5612 28.2622 18.4048 28.5297 18.4048 28.8199V35.4818C18.4048 35.7664 18.5556 36.0299 18.8011 36.1747L23.7483 39.0929C24.0085 39.2464 24.3331 39.2418 24.5891 39.0812L26.4184 37.9323C26.9329 37.609 26.9179 36.8558 26.3908 36.5534L23.9937 35.1772C23.6073 34.9554 23.4744 34.4633 23.6966 34.0779L24.9918 31.833C25.2141 31.4476 25.7074 31.315 26.0938 31.5367L33.2906 35.6679C33.5409 35.8115 33.695 36.0777 33.695 36.3656V37.8808C33.695 38.1575 33.5526 38.4146 33.3181 38.562L24.6578 44.0012C24.4021 44.1619 24.0774 44.1665 23.8171 44.0129L14.5906 38.5708C14.3448 38.4259 14.1942 38.1625 14.1942 37.8778V26.3699C14.1942 26.0798 14.3507 25.8119 14.6039 25.6691L18.4731 23.4861C19.0174 23.1791 19.02 22.3975 18.4774 22.0873L13.0129 18.9603C12.4749 18.6525 11.8043 19.04 11.8043 19.6586V34.8249C11.8043 35.2693 11.4429 35.6298 10.9974 35.6298H8.40066C7.95512 35.6298 7.59375 35.2693 7.59375 34.8249V12.4063C7.59375 11.7875 8.26443 11.4003 8.80237 11.7081Z" fill="white"/>
<defs>
<linearGradient id="paint0_linear_1696_3812" x1="48" y1="48" x2="0.146965" y2="-0.14607" gradientUnits="userSpaceOnUse">
<stop offset="0.166667" stop-color="#DC5A42"/>
<stop offset="0.848958" stop-color="#FDDE4F"/>
</linearGradient>
</defs>
</svg>
