<svg width="48" height="48" viewBox="0 0 48 48" fill="none" xmlns="http://www.w3.org/2000/svg">
<path d="M0 14C0 6.26801 6.26801 0 14 0H34C41.732 0 48 6.26801 48 14V34C48 41.732 41.732 48 34 48H14C6.26801 48 0 41.732 0 34V14Z" fill="url(#paint0_linear_1446_4044)"/>
<path fill-rule="evenodd" clip-rule="evenodd" d="M25.8825 7.90583L22.1184 14.428C21.9335 14.7478 21.6678 15.0132 21.3479 15.1978C21.028 15.3824 20.6652 15.4796 20.2958 15.4796C19.9265 15.4796 19.5636 15.3824 19.2437 15.1978C18.9238 15.0132 18.6581 14.7478 18.4732 14.428L18.4128 14.3228C20.5106 10.6883 21.2646 9.38311 22.9715 6.42825L23.941 4.75H24.0599C24.4293 4.74971 24.7923 4.84673 25.1123 5.0313C25.4324 5.21587 25.6981 5.48148 25.8829 5.80139C26.0676 6.1213 26.1649 6.48424 26.1648 6.85367C26.1647 7.2231 26.0673 7.58599 25.8825 7.90583ZM17.5846 9.12028V16.6502C17.5845 17.0197 17.4871 17.3827 17.3023 17.7026C17.1175 18.0226 16.8517 18.2882 16.5317 18.4729C16.2117 18.6576 15.8487 18.7548 15.4792 18.7548C15.1097 18.7548 14.7467 18.6575 14.4267 18.4728L14.3234 18.4123V7.35816L14.4267 7.29774C14.7467 7.11299 15.1097 7.01572 15.4792 7.0157C15.8487 7.01567 16.2117 7.11289 16.5317 7.29759C16.8517 7.48229 17.1175 7.74795 17.3023 8.0679C17.4871 8.38785 17.5845 8.7508 17.5846 9.12028ZM33.6773 11.0032L27.1667 14.7672C26.8467 14.9549 26.4828 15.0547 26.1118 15.0563C25.7408 15.058 25.3759 14.9615 25.0543 14.7766C24.7326 14.5917 24.4656 14.3251 24.2803 14.0037C24.095 13.6823 23.998 13.3176 23.9991 12.9466V12.8257L33.572 7.29768L33.6773 7.35811C33.9976 7.54256 34.2636 7.80813 34.4485 8.12809C34.6335 8.44805 34.7308 8.81109 34.7308 9.18065C34.7308 9.55022 34.6335 9.91326 34.4485 10.2332C34.2636 10.5532 33.9976 10.8187 33.6773 11.0032ZM33.6771 18.4119L33.5718 18.4724C33.2521 18.6572 32.9866 18.9229 32.802 19.2428C32.6174 19.5627 32.5202 19.9256 32.5202 20.2949C32.5202 20.6642 32.6174 21.0271 32.802 21.347C32.9866 21.6669 33.2521 21.9326 33.5718 22.1175L40.0941 25.8815C40.4139 26.0663 40.7768 26.1637 41.1463 26.1638C41.5157 26.1639 41.8787 26.0666 42.1986 25.8819C42.5185 25.6971 42.7841 25.4314 42.9687 25.1113C43.1533 24.7913 43.2503 24.4283 43.25 24.0589V23.9381L33.6771 18.4119ZM7.90588 22.1174L14.4282 25.8814C14.7479 26.0663 15.0134 26.332 15.198 26.6519C15.3826 26.9718 15.4797 27.3346 15.4797 27.704C15.4797 28.0733 15.3826 28.4361 15.198 28.756C15.0134 29.0759 14.7479 29.3417 14.4282 29.5265L14.3229 29.5869L4.75 24.0589V23.94C4.74971 23.5705 4.84673 23.2075 5.03131 22.8875C5.21588 22.5675 5.48149 22.3017 5.80141 22.117C6.12133 21.9322 6.48427 21.835 6.8537 21.8351C7.22314 21.8351 7.58604 21.9325 7.90588 22.1174ZM30.4161 31.3493V38.8793C30.4164 39.2485 30.5138 39.6111 30.6985 39.9308C30.8832 40.2504 31.1487 40.5159 31.4685 40.7006C31.7882 40.8852 32.1508 40.9825 32.52 40.9827C32.8893 40.9829 33.252 40.8861 33.572 40.7018L33.6772 40.6414V29.5872L33.572 29.5268C33.2521 29.3419 32.8892 29.2445 32.5198 29.2444C32.1503 29.2444 31.7874 29.3416 31.4675 29.5263C31.1476 29.7111 30.882 29.9769 30.6974 30.2969C30.5128 30.6169 30.4158 30.9799 30.4161 31.3493ZM14.3225 36.9968L20.8428 33.2328C21.1625 33.048 21.5252 32.9506 21.8945 32.9504C22.2638 32.9503 22.6266 33.0473 22.9464 33.2319C23.2663 33.4164 23.5319 33.6819 23.7166 34.0016C23.9014 34.3214 23.9986 34.6841 23.9987 35.0534V35.1742L14.4258 40.7023L14.3225 40.6419C14.0022 40.4574 13.7362 40.1918 13.5513 39.8719C13.3663 39.5519 13.2689 39.1889 13.2689 38.8193C13.2689 38.4497 13.3663 38.0867 13.5513 37.7668C13.7362 37.4468 14.0022 37.1812 14.3225 36.9968ZM33.2312 27.1661L36.9972 33.6863C37.1816 34.0066 37.4472 34.2726 37.7672 34.4575C38.0871 34.6424 38.4502 34.7398 38.8197 34.7398C39.1893 34.7398 39.5524 34.6424 39.8723 34.4575C40.1923 34.2726 40.4579 34.0066 40.6423 33.6863L40.7028 33.5811C38.4474 29.6785 37.7445 28.4607 35.7466 24.9994L35.7446 24.9958L35.1746 24.0083H35.0537C34.6842 24.0084 34.3213 24.1058 34.0013 24.2906C33.6814 24.4754 33.4157 24.7411 33.231 25.0612C33.0463 25.3812 32.9491 25.7442 32.9491 26.1136C32.9491 26.4831 33.0464 26.8461 33.2312 27.1661ZM38.8804 17.5843H31.3504C30.9809 17.5842 30.6179 17.4868 30.298 17.302C29.978 17.1172 29.7123 16.8514 29.5276 16.5314C29.3429 16.2114 29.2457 15.8484 29.2457 15.4789C29.2458 15.1095 29.343 14.7465 29.5278 14.4265L29.5882 14.3232H40.6426L40.703 14.4265C40.8878 14.7465 40.985 15.1095 40.9851 15.4789C40.9851 15.8484 40.8879 16.2114 40.7032 16.5314C40.5185 16.8514 40.2528 17.1172 39.9328 17.302C39.6129 17.4868 39.2499 17.5842 38.8804 17.5843ZM29.5884 33.6773L29.5279 33.572C29.3431 33.2523 29.0774 32.9868 28.7575 32.8022C28.4375 32.6176 28.0747 32.5205 27.7054 32.5205C27.336 32.5205 26.9732 32.6176 26.6533 32.8022C26.3334 32.9868 26.0676 33.2523 25.8828 33.572L22.1187 40.0942C21.9338 40.414 21.8365 40.7769 21.8364 41.1464C21.8363 41.5158 21.9335 41.8787 22.1183 42.1986C22.3031 42.5185 22.5688 42.7842 22.8889 42.9687C23.2089 43.1533 23.5719 43.2503 23.9413 43.25H24.0602L25.0303 41.5708C26.7368 38.6166 27.4908 37.3113 29.5884 33.6773ZM16.6512 30.4154H9.12116C8.75196 30.4157 8.38932 30.5131 8.06964 30.6978C7.74996 30.8825 7.48448 31.1481 7.29984 31.4678C7.1152 31.7875 7.01788 32.1502 7.01766 32.5194C7.01744 32.8886 7.11432 33.2513 7.29859 33.5713L7.35901 33.6765H18.4134L18.4738 33.5713C18.6581 33.2513 18.7549 32.8886 18.7547 32.5194C18.7545 32.1502 18.6572 31.7875 18.4725 31.4678C18.2879 31.1481 18.0224 30.8825 17.7027 30.6978C17.3831 30.5131 17.0204 30.4157 16.6512 30.4154ZM11.0039 14.3231L14.768 20.8433C14.9528 21.163 15.0502 21.5257 15.0503 21.895C15.0505 22.2643 14.9534 22.6271 14.7689 22.9469C14.5844 23.2668 14.3189 23.5324 13.9991 23.7171C13.6794 23.9018 13.3166 23.9991 12.9473 23.9992H12.8265L7.29833 14.4264L7.35876 14.3231C7.54322 14.0028 7.8088 13.7369 8.12876 13.5519C8.44872 13.367 8.81177 13.2696 9.18134 13.2696C9.55091 13.2696 9.91396 13.367 10.2339 13.5519C10.5539 13.7369 10.8195 14.0028 11.0039 14.3231Z" fill="white"/>
<defs>
<linearGradient id="paint0_linear_1446_4044" x1="48" y1="48" x2="0.146965" y2="-0.14607" gradientUnits="userSpaceOnUse">
<stop offset="0.125" stop-color="#7CB00B"/>
<stop offset="1" stop-color="#B5FF14"/>
</linearGradient>
</defs>
</svg>
