<svg width="48" height="48" viewBox="0 0 48 48" fill="none" xmlns="http://www.w3.org/2000/svg">
<path d="M0 14C0 6.26801 6.26801 0 14 0H34C41.732 0 48 6.26801 48 14V34C48 41.732 41.732 48 34 48H14C6.26801 48 0 41.732 0 34V14Z" fill="url(#paint0_linear_1300_1368)"/>
<path fill-rule="evenodd" clip-rule="evenodd" d="M14.9464 13.8729H38.2788L31.087 9.43285H7.75457L14.9464 13.8729ZM40.6189 15.2015H14.7574C14.6342 15.2015 14.5138 15.1672 14.4088 15.1028L5.06517 9.33415C4.81247 9.17805 4.69417 8.87285 4.77537 8.58725C4.85587 8.30165 5.11697 8.10425 5.41377 8.10425H31.2753C31.3985 8.10425 31.5196 8.13925 31.6246 8.20295L40.9682 13.9723C41.2209 14.1277 41.3392 14.4329 41.258 14.7185C41.1768 15.0041 40.9164 15.2015 40.6189 15.2015ZM16.5558 37.0363H39.8882L32.6964 32.5962H9.364L16.5558 37.0363ZM42.2283 38.3649H16.3668C16.2436 38.3649 16.1232 38.3306 16.0182 38.2662L6.6746 32.4975C6.4219 32.3414 6.3036 32.0362 6.3848 31.7506C6.4653 31.465 6.7264 31.2676 7.0232 31.2676H32.8847C33.0079 31.2676 33.129 31.3026 33.234 31.3663L42.5776 37.1357C42.8303 37.2911 42.9486 37.5963 42.8674 37.8819C42.7862 38.1675 42.5258 38.3649 42.2283 38.3649ZM20.4648 23.2994C20.4872 25.5317 22.31 27.3321 24.5374 27.3321C24.5514 27.3321 24.5647 27.3314 24.578 27.3314C26.8236 27.309 28.6324 25.4638 28.61 23.2182C28.5988 22.1304 28.1648 21.1119 27.3878 20.3503C26.6213 19.5992 25.6112 19.1862 24.5395 19.1862C24.5255 19.1862 24.5108 19.1862 24.4968 19.1869C23.409 19.1974 22.3905 19.6314 21.6289 20.4077C20.8673 21.1854 20.4543 22.2123 20.4648 23.2994Z" fill="white"/>
<defs>
<linearGradient id="paint0_linear_1300_1368" x1="48" y1="48" x2="0.146965" y2="-0.14607" gradientUnits="userSpaceOnUse">
<stop/>
<stop offset="1" stop-color="#3F3F3F"/>
</linearGradient>
</defs>
</svg>
