<svg width="48" height="48" viewBox="0 0 48 48" fill="none" xmlns="http://www.w3.org/2000/svg">
<path d="M0 14C0 6.26801 6.26801 0 14 0H34C41.732 0 48 6.26801 48 14V34C48 41.732 41.732 48 34 48H14C6.26801 48 0 41.732 0 34V14Z" fill="url(#paint0_linear_1900_3956)"/>
<path fill-rule="evenodd" clip-rule="evenodd" d="M40.2038 12.139C40.8627 12.139 41.4015 11.6002 41.4015 10.9414V10.9352C41.4015 10.2763 40.8627 9.73755 40.2038 9.73755H7.79004C7.13117 9.73755 6.59238 10.2763 6.59238 10.9352V10.9414C6.59238 11.6002 7.13117 12.139 7.79004 12.139H22.7962V37.1667C22.7962 37.7671 23.2857 38.2566 23.8861 38.2566H24.1232C24.7235 38.2566 25.2131 37.7671 25.2131 37.1667V12.139H40.2038ZM19.1232 14.5434H7.70074C7.04187 14.5434 6.5 15.0822 6.5 15.7442C6.5 16.403 7.03879 16.9449 7.70074 16.9449H17.7777V25.1069H8.9415C8.31342 25.1069 7.79926 25.621 7.79926 26.2491V26.363C7.79926 26.9911 8.31342 27.5053 8.9415 27.5053H17.7777V35.8335H7.76539C7.10653 35.8335 6.56773 36.3723 6.56773 37.0311V37.0373C6.56773 37.6962 7.10653 38.2349 7.76539 38.2349H19.1262C19.585 38.2349 19.9852 37.9732 20.1853 37.5915C20.3116 37.3913 20.3855 37.1543 20.3855 36.8987V15.8766C20.3855 15.6056 20.3023 15.3532 20.1576 15.1438C19.9514 14.7867 19.5634 14.5434 19.1232 14.5434ZM41.5 15.7414C41.5 16.4033 40.9581 16.9421 40.2992 16.9421H30.2223V25.1041H39.0585C39.6866 25.1041 40.2007 25.6182 40.2007 26.2463V26.3602C40.2007 26.9883 39.6866 27.5024 39.0585 27.5024H30.2223V35.8276H40.2315C40.8904 35.8276 41.4292 36.3664 41.4292 37.0252V37.0314C41.4292 37.6903 40.8904 38.229 40.2315 38.229H28.8707C28.4119 38.229 28.0117 37.9674 27.8116 37.5856C27.6853 37.3824 27.6114 37.1453 27.6114 36.8928V15.8738C27.6114 15.6028 27.6976 15.3504 27.8393 15.141C28.0486 14.7839 28.4366 14.5406 28.8768 14.5406H40.2992C40.9612 14.5406 41.5 15.0825 41.5 15.7414Z" fill="white"/>
<path d="M0 28H14C17.3137 28 20 30.6863 20 34V48H8C3.58172 48 0 44.4183 0 40V28Z" fill="#D43079"/>
<g clip-path="url(#clip0_1900_3956)">
<path d="M9.99876 34.1298C11.326 34.1298 12.4019 33.5038 12.4019 32.7315C12.4019 31.9593 11.326 31.3333 9.99876 31.3333C8.67154 31.3333 7.59561 31.9593 7.59561 32.7315C7.59561 33.5038 8.67154 34.1298 9.99876 34.1298Z" fill="white"/>
<path d="M9.99876 44.6657C11.326 44.6657 12.4019 44.0397 12.4019 43.2674C12.4019 42.4952 11.326 41.8691 9.99876 41.8691C8.67154 41.8691 7.59561 42.4952 7.59561 43.2674C7.59561 44.0397 8.67154 44.6657 9.99876 44.6657Z" fill="white"/>
<path d="M6.64979 36.0655C7.3134 34.9156 7.3091 33.6702 6.64017 33.2838C5.97124 32.8974 4.89101 33.5164 4.2274 34.6662C3.56378 35.8161 3.56809 37.0615 4.23701 37.4479C4.90594 37.8343 5.98618 37.2154 6.64979 36.0655Z" fill="white"/>
<path d="M15.769 41.3326C16.4326 40.1827 16.4287 38.9375 15.7602 38.5514C15.0918 38.1653 14.0119 38.7844 13.3483 39.9343C12.6847 41.0842 12.6886 42.3294 13.3571 42.7155C14.0256 43.1016 15.1054 42.4825 15.769 41.3326Z" fill="white"/>
<path d="M6.64051 42.7152C7.30943 42.3288 7.31374 41.0834 6.65013 39.9336C5.98651 38.7837 4.90628 38.1647 4.23735 38.5511C3.56843 38.9375 3.56412 40.1829 4.22773 41.3328C4.89134 42.4827 5.97158 43.1016 6.64051 42.7152Z" fill="white"/>
<path d="M15.7608 37.4481C16.4293 37.062 16.4332 35.8168 15.7696 34.6669C15.106 33.517 14.0261 32.8979 13.3577 33.284C12.6892 33.6701 12.6852 34.9153 13.3489 36.0652C14.0125 37.2151 15.0923 37.8342 15.7608 37.4481Z" fill="white"/>
</g>
<defs>
<linearGradient id="paint0_linear_1900_3956" x1="48" y1="48" x2="0" y2="0" gradientUnits="userSpaceOnUse">
<stop offset="0.411877" stop-color="#000C5F"/>
<stop offset="0.824153" stop-color="#4D7EA0"/>
</linearGradient>
<clipPath id="clip0_1900_3956">
<rect width="12.5333" height="13.3333" fill="white" transform="translate(3.73334 31.3333)"/>
</clipPath>
</defs>
</svg>
