<svg width="48" height="48" viewBox="0 0 48 48" fill="none" xmlns="http://www.w3.org/2000/svg">
<path d="M0 14C0 6.26801 6.26801 0 14 0H34C41.732 0 48 6.26801 48 14V34C48 41.732 41.732 48 34 48H14C6.26801 48 0 41.732 0 34V14Z" fill="url(#paint0_linear_1900_3959)"/>
<path fill-rule="evenodd" clip-rule="evenodd" d="M40.2038 12.139C40.8627 12.139 41.4015 11.6002 41.4015 10.9414V10.9352C41.4015 10.2763 40.8627 9.73755 40.2038 9.73755H7.79004C7.13117 9.73755 6.59238 10.2763 6.59238 10.9352V10.9414C6.59238 11.6002 7.13117 12.139 7.79004 12.139H22.7962V37.1667C22.7962 37.7671 23.2857 38.2566 23.8861 38.2566H24.1232C24.7235 38.2566 25.2131 37.7671 25.2131 37.1667V12.139H40.2038ZM19.1232 14.5434H7.70074C7.04187 14.5434 6.5 15.0822 6.5 15.7442C6.5 16.403 7.03879 16.9449 7.70074 16.9449H17.7777V25.1069H8.9415C8.31342 25.1069 7.79926 25.621 7.79926 26.2491V26.363C7.79926 26.9911 8.31342 27.5053 8.9415 27.5053H17.7777V35.8335H7.76539C7.10653 35.8335 6.56773 36.3723 6.56773 37.0311V37.0373C6.56773 37.6962 7.10653 38.2349 7.76539 38.2349H19.1262C19.585 38.2349 19.9852 37.9732 20.1853 37.5915C20.3116 37.3913 20.3855 37.1543 20.3855 36.8987V15.8766C20.3855 15.6056 20.3023 15.3532 20.1576 15.1438C19.9514 14.7867 19.5634 14.5434 19.1232 14.5434ZM41.5 15.7414C41.5 16.4033 40.9581 16.9421 40.2992 16.9421H30.2223V25.1041H39.0585C39.6866 25.1041 40.2007 25.6182 40.2007 26.2463V26.3602C40.2007 26.9883 39.6866 27.5024 39.0585 27.5024H30.2223V35.8276H40.2315C40.8904 35.8276 41.4292 36.3664 41.4292 37.0252V37.0314C41.4292 37.6903 40.8904 38.229 40.2315 38.229H28.8707C28.4119 38.229 28.0117 37.9674 27.8116 37.5856C27.6853 37.3824 27.6114 37.1453 27.6114 36.8928V15.8738C27.6114 15.6028 27.6976 15.3504 27.8393 15.141C28.0486 14.7839 28.4366 14.5406 28.8768 14.5406H40.2992C40.9612 14.5406 41.5 15.0825 41.5 15.7414Z" fill="white"/>
<path d="M0 28H14C17.3137 28 20 30.6863 20 34V48H8C3.58172 48 0 44.4183 0 40V28Z" fill="#3F3F3F"/>
<path d="M15.8873 34.1034C15.6867 33.9447 15.4475 33.7279 15.0116 33.6737C14.6026 33.6195 14.186 33.8944 13.9043 34.0763C13.6227 34.2583 13.0903 34.7926 12.8704 34.9552C12.6505 35.1178 12.0872 35.2688 11.1806 35.8147C10.2739 36.3606 6.71682 38.6525 6.71682 38.6525L7.64274 38.6641L3.51466 40.7973H3.92746L3.33333 41.2503C3.33333 41.2503 3.85802 41.3897 4.29783 41.1109V41.2387C4.29783 41.2387 9.21296 39.2952 10.162 39.7985L9.58333 39.9688C9.63348 39.9688 10.5671 40.0308 10.5671 40.0308C10.5898 40.2248 10.6548 40.4114 10.7575 40.5774C10.8602 40.7433 10.998 40.8845 11.1613 40.9909C11.7245 41.3626 11.7361 41.5678 11.7361 41.5678C11.7361 41.5678 11.4429 41.6878 11.4429 41.8388C11.4429 41.8388 11.875 41.7072 12.2762 41.7188C12.5309 41.7285 12.7835 41.7688 13.0285 41.8388C13.0285 41.8388 12.9977 41.6762 12.608 41.5678C12.2184 41.4594 11.8326 41.0335 11.6435 40.8012C11.5277 40.6534 11.4523 40.4778 11.4245 40.2918C11.3968 40.1058 11.4177 39.9158 11.4853 39.7404C11.6204 39.3881 12.091 39.1945 13.0633 38.6912C14.2091 38.095 14.4714 37.6536 14.6335 37.3091C14.7955 36.9645 15.0347 36.2793 15.1697 35.9579C15.3395 35.5437 15.5478 35.323 15.7214 35.1913C15.8951 35.0597 16.6667 34.7693 16.6667 34.7693C16.6667 34.7693 16.0764 34.2544 15.8873 34.1034Z" fill="white"/>
<defs>
<linearGradient id="paint0_linear_1900_3959" x1="48" y1="48" x2="0" y2="0" gradientUnits="userSpaceOnUse">
<stop offset="0.411877" stop-color="#000C5F"/>
<stop offset="0.824153" stop-color="#4D7EA0"/>
</linearGradient>
</defs>
</svg>
