<svg width="48" height="48" viewBox="0 0 48 48" fill="none" xmlns="http://www.w3.org/2000/svg">
<path d="M0 14C0 6.26801 6.26801 0 14 0H34C41.732 0 48 6.26801 48 14V34C48 41.732 41.732 48 34 48H14C6.26801 48 0 41.732 0 34V14Z" fill="url(#paint0_linear_1300_1426)"/>
<path fill-rule="evenodd" clip-rule="evenodd" d="M36.6875 15.2956L31.2016 12.1802L23.601 16.5899L23.6069 7.86536L18.121 4.75L12.634 7.93343L12.6282 16.658L12.6261 20.734L12.6401 24.5573L12.6613 26.5907L12.6261 31.5732L12.625 35.5544L12.6255 40.1407L18.108 43.25L23.595 40.0666L23.5943 35.4804L31.1951 39.7916L31.2497 39.76L36.6821 36.6082L36.6867 30.3154L29.0859 26.0041L36.6865 21.5943L36.6875 15.2956ZM22.22 8.66999L22.2141 17.3945L18.8106 19.3693L18.8203 6.74317L22.22 8.66999ZM14.0197 8.72613L17.4233 6.75141L17.4172 27.2702L14.0136 29.2449L14.0197 8.72613ZM12.625 35.5544L12.6268 30.0495L12.6262 33.957L12.625 35.5544ZM14.0136 29.2449L17.4172 27.2702L17.4179 36.5579L14.0144 38.5326L14.0136 29.2449ZM22.2128 39.2799L18.1127 41.6587L14.7096 39.7258L18.8096 37.347V26.4231L22.2114 28.1844L22.2128 39.2799ZM31.1939 38.2039L23.5931 33.8925L23.5935 29.985L34.5974 36.2291L31.1939 38.2039ZM35.2998 31.1201L35.2959 35.0216L24.2919 28.7774L27.6955 26.8027L35.2998 31.1201ZM22.2114 28.1844L18.8096 26.4231L31.2013 19.2729L34.6044 21.2057L22.2114 28.1844ZM31.2059 17.6815L31.1514 17.7132L17.4177 25.5943L17.4189 21.5536L31.2125 13.7705L35.3068 16.0967L35.3002 20.0077L31.2059 17.6815Z" fill="white"/>
<defs>
<linearGradient id="paint0_linear_1300_1426" x1="48" y1="48" x2="-2.62577e-05" y2="2.62577e-05" gradientUnits="userSpaceOnUse">
<stop stop-color="#C9B904"/>
<stop offset="0.661458" stop-color="#D3CD4A"/>
<stop offset="1" stop-color="#FDF775"/>
</linearGradient>
</defs>
</svg>
