<svg width="48" height="48" viewBox="0 0 48 48" fill="none" xmlns="http://www.w3.org/2000/svg">
<path d="M0 14C0 6.26801 6.26801 0 14 0H34C41.732 0 48 6.26801 48 14V34C48 41.732 41.732 48 34 48H14C6.26801 48 0 41.732 0 34V14Z" fill="url(#paint0_linear_1300_1128)"/>
<path d="M31.6856 8.25L21.9002 17.0614C20.887 17.9735 19.5686 18.481 18.1998 18.4858L15.2831 18.4927L15.2732 8.25099H10V37.5203H12.8758C14.4843 37.5203 15.9844 36.6755 16.7713 35.2876C16.7783 35.2777 16.7812 35.2679 16.7872 35.262C17.3094 34.3324 17.5711 32.496 17.5203 31.2422C17.4069 28.3757 16.9414 27.6304 16.9414 27.6304C16.8439 29.595 14.7728 29.7015 14.7728 29.7015C16.2461 28.3076 15.4433 27.2529 15.4433 27.2529C12.835 29.0933 12.1835 27.1287 12.1337 26.9503C12.2153 27.0193 12.9574 27.6334 14.368 25.7181C15.8591 23.6944 17.8476 20.3203 19.1129 19.4528C20.3803 18.5824 21.5829 18.6544 21.5829 18.6544C21.5829 18.6544 22.2753 17.7248 24.1066 16.952C25.9369 16.1841 27.1108 17.3108 27.1108 17.3108C25.2386 18.8072 22.697 21.2646 22.5548 24.7866C22.4414 27.6364 28.6407 32.5266 27.5514 39.75C28.203 38.1097 28.4646 36.4665 28.2408 34.433C28.0617 32.7917 26.9944 29.3643 26.9944 29.3643L32.948 37.5163H39.5312L26.6641 19.9999L39.5312 8.25H31.6856Z" fill="white"/>
<defs>
<linearGradient id="paint0_linear_1300_1128" x1="48" y1="48" x2="0.146965" y2="-0.14607" gradientUnits="userSpaceOnUse">
<stop stop-color="#E40C5B"/>
<stop offset="1" stop-color="#FF4C3B"/>
</linearGradient>
</defs>
</svg>
