<svg width="48" height="48" viewBox="0 0 48 48" fill="none" xmlns="http://www.w3.org/2000/svg">
<path d="M0 14C0 6.26801 6.26801 0 14 0H34C41.732 0 48 6.26801 48 14V34C48 41.732 41.732 48 34 48H14C6.26801 48 0 41.732 0 34V14Z" fill="url(#paint0_linear_1300_1506)"/>
<path fill-rule="evenodd" clip-rule="evenodd" d="M38.8066 38.875H31.0457V32.4076H25.8718V24.6467H33.6327V31.1141H38.8066V38.875ZM18.111 24.6467H25.8718V16.8859H18.111V9.125H10.3501V38.875H18.111V24.6467ZM38.8066 16.8859H25.8718V9.125H38.8066V16.8859Z" fill="white"/>
<defs>
<linearGradient id="paint0_linear_1300_1506" x1="48" y1="48" x2="-2.62577e-05" y2="2.62577e-05" gradientUnits="userSpaceOnUse">
<stop stop-color="#0B8789"/>
<stop offset="1" stop-color="#36F7FA"/>
</linearGradient>
</defs>
</svg>
