<svg width="48" height="48" viewBox="0 0 48 48" fill="none" xmlns="http://www.w3.org/2000/svg">
<path d="M0 14C0 6.26801 6.26801 0 14 0H34C41.732 0 48 6.26801 48 14V34C48 41.732 41.732 48 34 48H14C6.26801 48 0 41.732 0 34V14Z" fill="url(#paint0_linear_1301_892)"/>
<path fill-rule="evenodd" clip-rule="evenodd" d="M12.0263 9.68182H6.5V38.3182H12.0263V29.2273L24 41.5L35.5132 29.2273V38.3182H41.5V9.68182H35.5132V17.8636L24 6.5L12.0263 17.8636V9.68182ZM24 12.8438L35.1562 24L24 35.1562L12.8438 24L24 12.8438ZM24 18.75L18.75 24L24 29.25L29.25 24L24 18.75Z" fill="white"/>
<defs>
<linearGradient id="paint0_linear_1301_892" x1="48" y1="48" x2="0" y2="0" gradientUnits="userSpaceOnUse">
<stop stop-color="#248A63"/>
<stop offset="1" stop-color="#58B18F"/>
</linearGradient>
</defs>
</svg>
