<svg width="48" height="48" viewBox="0 0 48 48" fill="none" xmlns="http://www.w3.org/2000/svg">
<path d="M0 14C0 6.26801 6.26801 0 14 0H34C41.732 0 48 6.26801 48 14V34C48 41.732 41.732 48 34 48H14C6.26801 48 0 41.732 0 34V14Z" fill="url(#paint0_linear_1300_1453)"/>
<path fill-rule="evenodd" clip-rule="evenodd" d="M23.9928 10.2718L18.8857 6.67573H14.8677C14.6775 6.66752 14.4916 6.73341 14.349 6.85954C14.2064 6.98566 14.1184 7.16218 14.1033 7.35193V11.4679L18.1561 14.3292L14.0249 17.201V27.981C14.0352 27.2221 14.2168 26.4754 14.5562 25.7966C14.8956 25.1178 15.384 24.5245 15.9849 24.061L33.9679 11.468V7.21475C33.9186 7.05462 33.818 6.91514 33.6817 6.81775C33.5453 6.72037 33.3808 6.67047 33.2133 6.67575H29.1659L23.9928 10.2718ZM33.9679 17.2597L30.6359 14.9273L24.8147 18.9943L30.0268 22.6389L24.0183 26.8445L18.8171 23.1985L15.9849 25.1585C15.0536 25.8948 14.4116 26.9358 14.1719 28.0985L18.1997 30.9172L14.0641 33.8119V41.9557L33.9679 28.0201V17.2696L33.9678 17.287L33.9679 17.2597ZM30.6359 31.4795L24.8147 35.5465L29.2639 38.6531H33.1839C33.2977 38.6545 33.4107 38.6346 33.5171 38.5943C33.5994 38.5659 33.6757 38.5228 33.7425 38.4669C33.815 38.4116 33.8738 38.3405 33.9146 38.259C33.9554 38.1775 33.977 38.0877 33.9777 37.9965V33.8021L30.6359 31.4795Z" fill="white"/>
<defs>
<linearGradient id="paint0_linear_1300_1453" x1="0" y1="0" x2="48" y2="48" gradientUnits="userSpaceOnUse">
<stop stop-color="#F86842"/>
<stop offset="1" stop-color="#8C175B"/>
</linearGradient>
</defs>
</svg>
