<svg width="48" height="48" viewBox="0 0 48 48" fill="none" xmlns="http://www.w3.org/2000/svg">
<path d="M0 14C0 6.26801 6.26801 0 14 0H34C41.732 0 48 6.26801 48 14V34C48 41.732 41.732 48 34 48H14C6.26801 48 0 41.732 0 34V14Z" fill="url(#paint0_linear_1300_1376)"/>
<path fill-rule="evenodd" clip-rule="evenodd" d="M12.835 15.771C12.0793 15.7768 11.324 15.7392 10.5727 15.6586C9.01499 15.4746 8.20649 15.0842 8.0317 14.4266C7.75065 13.3956 9.25061 12.5286 10.4041 11.9626C14.7931 9.82201 24.4181 7.60056 31.8617 7.01074C34.1632 6.82825 36.0967 6.8167 37.4611 6.97686C39.0188 7.16089 39.8273 7.55128 40.0021 8.20886C40.2832 9.23989 38.7832 10.1069 37.6297 10.6729C33.2407 12.8135 23.6157 15.0349 16.1721 15.6247C14.9471 15.7225 13.8244 15.771 12.835 15.771ZM35.1765 7.7946C34.2918 7.7946 33.2223 7.83541 31.9325 7.93782C24.5852 8.52302 15.108 10.7014 10.8068 12.7996C8.95878 13.7013 8.91951 14.1856 8.92105 14.1856C8.98188 14.4104 10.3841 15.1566 16.1005 14.703C23.4479 14.1209 32.925 11.9395 37.2263 9.84126C39.0743 8.93959 39.1135 8.45911 39.112 8.45526C39.0642 8.28124 38.2149 7.7946 35.1765 7.7946ZM29.5824 18.449C28.1436 17.0309 26.2034 16.2379 24.1832 16.2422H24.1062C22.0591 16.2524 20.1 17.0754 18.6597 18.5301C17.2194 19.9848 16.416 21.9521 16.4262 23.9992C16.4364 26.0462 17.2594 28.0054 18.7141 29.4457C20.1689 30.8859 22.1361 31.6894 24.1832 31.6791H24.2602C25.7866 31.6635 27.274 31.1957 28.5345 30.3347C29.7949 29.4737 30.7717 28.2583 31.3414 26.8422C31.9111 25.4261 32.0481 23.8728 31.735 22.3788C31.4219 20.8848 30.6728 19.5172 29.5824 18.449ZM10.5411 41.0168C11.2924 41.0974 12.0477 41.1349 12.8034 41.1292C13.7913 41.1292 14.9139 41.0799 16.1429 40.9891C23.5864 40.3992 33.2114 38.1778 37.6004 36.0372C38.7539 35.4712 40.2539 34.6042 39.9728 33.5732C39.7942 32.9156 38.9857 32.5252 37.428 32.3412C36.0635 32.181 34.1301 32.1926 31.8285 32.3751C24.3849 32.9649 14.7599 35.1863 10.3709 37.3269C9.21593 37.8898 7.7152 38.7568 8.0001 39.7848C8.17489 40.4424 8.98339 40.8327 10.5411 41.0168ZM31.8994 33.296C33.1891 33.1936 34.2586 33.1528 35.1434 33.1528C38.1818 33.1528 39.0311 33.6394 39.0788 33.8134C39.0804 33.8134 39.0411 34.2978 37.1931 35.1994C32.8919 37.2977 23.4147 39.4783 16.0674 40.0612C10.3471 40.5147 8.94951 39.7686 8.88791 39.5438C8.88637 39.5399 8.92564 39.0594 10.7736 38.1578C15.0749 36.0595 24.552 33.8781 31.8994 33.296Z" fill="white"/>
<defs>
<linearGradient id="paint0_linear_1300_1376" x1="48" y1="48" x2="-2.62577e-05" y2="2.62577e-05" gradientUnits="userSpaceOnUse">
<stop stop-color="#180C2B"/>
<stop offset="1" stop-color="#1E3258"/>
</linearGradient>
</defs>
</svg>
