<svg width="48" height="48" viewBox="0 0 48 48" fill="none" xmlns="http://www.w3.org/2000/svg">
<path d="M0 14C0 6.26801 6.26801 0 14 0H34C41.732 0 48 6.26801 48 14V34C48 41.732 41.732 48 34 48H14C6.26801 48 0 41.732 0 34V14Z" fill="url(#paint0_linear_1900_4133)"/>
<path fill-rule="evenodd" clip-rule="evenodd" d="M23.5395 6.5L6.5 38.4375H13.8684H41.5L23.5395 6.5ZM13.8684 38.4375L30.4474 31.3925L23.5395 20.1204L13.8684 38.4375Z" fill="white"/>
<path d="M0 28H14C17.3137 28 20 30.6863 20 34V48H8C3.58172 48 0 44.4183 0 40V28Z" fill="#3F3F3F"/>
<path d="M15.8874 34.1034C15.6868 33.9447 15.4476 33.7279 15.0116 33.6737C14.6027 33.6195 14.186 33.8944 13.9044 34.0763C13.6227 34.2583 13.0903 34.7926 12.8704 34.9552C12.6505 35.1178 12.0872 35.2688 11.1806 35.8147C10.274 36.3606 6.71686 38.6525 6.71686 38.6525L7.64279 38.6641L3.5147 40.7973H3.92751L3.33337 41.2503C3.33337 41.2503 3.85807 41.3897 4.29788 41.1109V41.2387C4.29788 41.2387 9.213 39.2952 10.1621 39.7985L9.58337 39.9688C9.63353 39.9688 10.5672 40.0308 10.5672 40.0308C10.5898 40.2248 10.6548 40.4114 10.7575 40.5774C10.8602 40.7433 10.9981 40.8845 11.1613 40.9909C11.7246 41.3626 11.7362 41.5678 11.7362 41.5678C11.7362 41.5678 11.4429 41.6878 11.4429 41.8388C11.4429 41.8388 11.875 41.7072 12.2763 41.7188C12.5309 41.7285 12.7835 41.7688 13.0286 41.8388C13.0286 41.8388 12.9977 41.6762 12.6081 41.5678C12.2184 41.4594 11.8326 41.0335 11.6436 40.8012C11.5278 40.6534 11.4523 40.4778 11.4246 40.2918C11.3968 40.1058 11.4178 39.9158 11.4854 39.7404C11.6204 39.3881 12.0911 39.1945 13.0633 38.6912C14.2091 38.095 14.4715 37.6536 14.6335 37.3091C14.7956 36.9645 15.0348 36.2793 15.1698 35.9579C15.3395 35.5437 15.5479 35.323 15.7215 35.1913C15.8951 35.0597 16.6667 34.7693 16.6667 34.7693C16.6667 34.7693 16.0764 34.2544 15.8874 34.1034Z" fill="white"/>
<defs>
<linearGradient id="paint0_linear_1900_4133" x1="48" y1="48" x2="-2.71797e-05" y2="2.71797e-05" gradientUnits="userSpaceOnUse">
<stop stop-color="#0A42B3"/>
<stop offset="0.766683" stop-color="#4381FF"/>
</linearGradient>
</defs>
</svg>
