<svg width="48" height="48" viewBox="0 0 48 48" fill="none" xmlns="http://www.w3.org/2000/svg">
<path d="M0 14C0 6.26801 6.26801 0 14 0H34C41.732 0 48 6.26801 48 14V34C48 41.732 41.732 48 34 48H14C6.26801 48 0 41.732 0 34V14Z" fill="url(#paint0_linear_1327_2447)"/>
<path fill-rule="evenodd" clip-rule="evenodd" d="M41.5 24C41.5 33.665 33.665 41.5 24 41.5C14.335 41.5 6.5 33.665 6.5 24C6.5 14.335 14.335 6.5 24 6.5C33.665 6.5 41.5 14.335 41.5 24ZM17.8671 28.0216L23.2863 17.3556L35.6666 13.3056V16.0436L24.9985 19.3516L19.7497 29.7895L12.3332 34.6944V31.1581L17.8671 28.0216ZM18.7803 23.0592L19.9776 20.8345L17.6393 18.0399H12.3333V20.3212H16.2132L18.7803 23.0592ZM22.488 27.3935L23.629 25.1123L27.9659 30.4734H35.6668V32.584H26.7674L22.488 27.3935Z" fill="white"/>
<defs>
<linearGradient id="paint0_linear_1327_2447" x1="48" y1="48" x2="0.146965" y2="-0.14607" gradientUnits="userSpaceOnUse">
<stop/>
<stop offset="1" stop-color="#3F3F3F"/>
</linearGradient>
</defs>
</svg>
