<svg width="48" height="48" viewBox="0 0 48 48" fill="none" xmlns="http://www.w3.org/2000/svg">
<path d="M0 14C0 6.26801 6.26801 0 14 0H34C41.732 0 48 6.26801 48 14V34C48 41.732 41.732 48 34 48H14C6.26801 48 0 41.732 0 34V14Z" fill="url(#paint0_linear_1300_1117)"/>
<path d="M39.4543 13.7713C38.9277 13.3546 38.2998 12.7855 37.1554 12.6432C36.0819 12.501 34.9881 13.2225 34.2488 13.7002C33.5096 14.1778 32.112 15.5803 31.5347 16.0071C30.9575 16.434 29.4789 16.8303 27.099 18.2633C24.719 19.6962 15.3817 25.7126 15.3817 25.7126L17.8122 25.7431L6.97598 31.3428H8.05961L6.5 32.5319C6.5 32.5319 7.87731 32.8977 9.03183 32.166V32.5014C9.03183 32.5014 21.934 27.3996 24.4253 28.7208L22.9063 29.168C23.0379 29.168 25.4887 29.3306 25.4887 29.3306C25.5482 29.8399 25.7188 30.3297 25.9883 30.7654C26.2579 31.201 26.6198 31.5716 27.0483 31.851C28.5269 32.8266 28.5573 33.3652 28.5573 33.3652C28.5573 33.3652 27.7876 33.6803 27.7876 34.0766C27.7876 34.0766 28.9219 33.7311 29.9751 33.7616C30.6436 33.787 31.3066 33.8928 31.9499 34.0766C31.9499 34.0766 31.8689 33.6498 30.8461 33.3652C29.8232 33.0807 28.8105 31.9627 28.3142 31.353C28.0103 30.9648 27.8122 30.504 27.7394 30.0158C27.6666 29.5276 27.7216 29.0288 27.899 28.5684C28.2535 27.6436 29.489 27.1354 32.0411 25.8142C35.0489 24.2492 35.7376 23.0906 36.1629 22.1861C36.5883 21.2816 37.2161 19.4828 37.5706 18.6393C38.0162 17.5519 38.5631 16.9726 39.0188 16.6271C39.4745 16.2815 41.5 15.5193 41.5 15.5193C41.5 15.5193 39.9505 14.1677 39.4543 13.7713Z" fill="white"/>
<defs>
<linearGradient id="paint0_linear_1300_1117" x1="48" y1="48" x2="-2.62577e-05" y2="2.62577e-05" gradientUnits="userSpaceOnUse">
<stop/>
<stop offset="1" stop-color="#3F3F3F"/>
</linearGradient>
</defs>
</svg>
