<svg width="48" height="48" viewBox="0 0 48 48" fill="none" xmlns="http://www.w3.org/2000/svg">
<path d="M0 14C0 6.26801 6.26801 0 14 0H34C41.732 0 48 6.26801 48 14V34C48 41.732 41.732 48 34 48H14C6.26801 48 0 41.732 0 34V14Z" fill="url(#paint0_linear_1320_2553)"/>
<path fill-rule="evenodd" clip-rule="evenodd" d="M40.6249 39.7171H24.7891L16.9956 31.8963L24.8751 24.0017L40.6249 39.7171Z" fill="white"/>
<path fill-rule="evenodd" clip-rule="evenodd" d="M40.5928 8.25L24.8753 24.0019L16.9785 16.1202L24.8753 8.25H40.5928Z" fill="white"/>
<path fill-rule="evenodd" clip-rule="evenodd" d="M16.9964 31.8963L9.15991 39.75V24.0347L16.9964 31.8963Z" fill="white"/>
<path fill-rule="evenodd" clip-rule="evenodd" d="M16.9787 16.1205L9.16012 23.9154V24.0344L9.125 24V8.28394L16.9787 16.1205Z" fill="white"/>
<defs>
<linearGradient id="paint0_linear_1320_2553" x1="48" y1="48" x2="-2.71797e-05" y2="2.71797e-05" gradientUnits="userSpaceOnUse">
<stop stop-color="#A91056"/>
<stop offset="1" stop-color="#F34594"/>
</linearGradient>
</defs>
</svg>
