<svg width="48" height="48" viewBox="0 0 48 48" fill="none" xmlns="http://www.w3.org/2000/svg">
<path d="M0 14C0 6.26801 6.26801 0 14 0H34C41.732 0 48 6.26801 48 14V34C48 41.732 41.732 48 34 48H14C6.26801 48 0 41.732 0 34V14Z" fill="url(#paint0_linear_1304_997)"/>
<path fill-rule="evenodd" clip-rule="evenodd" d="M33.7036 38.5655C38.404 35.4279 41.5 30.0755 41.5 24C41.5 14.335 33.665 6.5 24 6.5C14.335 6.5 6.5 14.335 6.5 24C6.5 33.665 14.335 41.5 24 41.5C24.3037 41.5 24.6056 41.4923 24.9056 41.477L26.0062 31.9944C25.8934 31.9981 25.7802 32 25.6666 32H25.6458C24.9696 32 24.0466 32 23.1598 31.9108C22.8015 31.8748 22.4097 31.8212 22.0196 31.7333C21.9117 32.0132 21.7645 32.311 21.5634 32.6016C21.1521 33.1957 20.5245 33.7421 19.6123 34.0236C18.7169 34.3 17.6437 34.2919 16.3739 33.9627C15.7028 33.7887 14.9142 33.3887 14.2478 32.8466C13.5907 32.3121 12.9051 31.5179 12.6939 30.4947C12.6391 30.2295 12.5157 29.9906 12.378 29.845C11.7765 29.2087 11.4432 28.3975 11.2559 27.6826C11.0653 26.9555 11 26.2296 11 25.6667C11 24.4049 11.3458 23.3967 11.9724 22.6425C12.5887 21.9007 13.3866 21.5128 14.1044 21.3134C14.6332 21.1665 15.1484 21.113 15.58 21.1013C16.2176 16.2136 20.5847 12.3333 25.6666 12.3333C31.1684 12.3333 35.6666 16.715 35.6666 22.1667C35.6666 23.5106 35.3918 24.7938 34.8939 25.9629L33.7036 38.5655ZM31.23 39.9414L32.2061 29.6062C31.1163 30.5332 29.8211 31.232 28.3977 31.6285L27.2877 41.1917C28.6658 40.9297 29.9868 40.5061 31.23 39.9414ZM17.8388 22.0526C18.7763 23.805 19.7603 25.469 20.6964 27.052L20.6965 27.0521L20.6968 27.0527C21.1509 27.8206 21.5938 28.5695 22.0145 29.3001C22.3016 29.4203 22.7619 29.5257 23.3934 29.5892C24.1541 29.6657 24.9711 29.6667 25.6666 29.6667C26.164 29.6667 26.6493 29.6205 27.1185 29.5326C29.6221 29.0635 31.6885 27.4026 32.6863 25.1875C33.1021 24.2644 33.3333 23.2433 33.3333 22.1667C33.3333 18.0454 29.9219 14.6667 25.6666 14.6667C21.5089 14.6667 17.9967 18.0519 17.8388 22.0526ZM18.7307 28.3128L18.7306 28.3127C17.8279 26.7855 16.8512 25.1333 15.9327 23.4345L15.9275 23.4343C15.5756 23.4235 15.1399 23.4474 14.7289 23.5616C14.3218 23.6747 13.9947 23.8597 13.7672 24.1335C13.55 24.3949 13.3333 24.8451 13.3333 25.6667C13.3333 26.0678 13.3818 26.5905 13.513 27.091C13.6473 27.6036 13.8436 27.9987 14.0736 28.242C14.5555 28.7518 14.8514 29.4048 14.979 30.023C15.0381 30.3093 15.2757 30.6749 15.7202 31.0365C16.1554 31.3905 16.6468 31.6229 16.9594 31.704C17.9396 31.9581 18.5539 31.9084 18.9241 31.7941C19.2775 31.685 19.4937 31.4918 19.6449 31.2734C19.8082 31.0376 19.903 30.7578 19.9537 30.5119C19.9599 30.4818 19.9653 30.4529 19.97 30.4255C19.5841 29.7565 19.1663 29.0497 18.7313 28.3139L18.7307 28.3128ZM25.9712 20.7662C25.1421 21.1518 24.626 21.581 24.4707 21.8138C24.1133 22.3499 23.389 22.4948 22.8528 22.1374C22.3167 21.78 22.1719 21.0556 22.5293 20.5195C23.0407 19.7524 24.0246 19.0982 24.9871 18.6505C25.9849 18.1864 27.1973 17.8333 28.3333 17.8333C28.9777 17.8333 29.5 18.3557 29.5 19C29.5 19.6443 28.9777 20.1667 28.3333 20.1667C27.6361 20.1667 26.7651 20.3969 25.9712 20.7662Z" fill="white"/>
<defs>
<linearGradient id="paint0_linear_1304_997" x1="48" y1="48" x2="-2.71797e-05" y2="2.71797e-05" gradientUnits="userSpaceOnUse">
<stop stop-color="#DE8405"/>
<stop offset="1" stop-color="#FFBB49"/>
</linearGradient>
</defs>
</svg>
