<svg width="48" height="48" viewBox="0 0 48 48" fill="none" xmlns="http://www.w3.org/2000/svg">
<path d="M0 14C0 6.26801 6.26801 0 14 0H34C41.732 0 48 6.26801 48 14V34C48 41.732 41.732 48 34 48H14C6.26801 48 0 41.732 0 34V14Z" fill="url(#paint0_linear_1301_897)"/>
<path fill-rule="evenodd" clip-rule="evenodd" d="M6.12 26.18L9.72 22.1C10.7763 21.0437 12.1488 21.3157 13.3007 21.5439C13.9809 21.6787 14.5842 21.7982 15 21.62C16.44 21.0029 27 9.14 27 9.14L23.88 6.5C23.88 6.5 12.84 18.5 11.64 19.7C11.2118 20.1282 10.2428 20.0524 9.20906 19.9715C8.02699 19.879 6.76015 19.7798 6.12 20.42C4.92 21.62 3 23.78 3 23.78L6.12 26.18ZM18.6 24.5L12.12 31.46L9 29.06C9 29.06 13.32 24.26 14.52 23.06C15.1602 22.4198 16.4953 22.4507 17.7411 22.4795C18.8306 22.5046 19.8518 22.5282 20.28 22.1C21.48 20.9 29.88 11.78 29.88 11.78L33 14.42C33 14.42 25.8 22.34 24.36 23.78C24.0004 24.1396 23.2305 24.0319 22.3332 23.9063C21.0802 23.7311 19.5789 23.5211 18.6 24.5ZM18.12 36.74L27.48 26.66C28.4589 25.6811 29.8787 25.8911 31.0637 26.0663C31.9123 26.1919 32.6404 26.2996 33 25.94C33.96 24.98 39 19.7 39 19.7L35.88 17.06C35.88 17.06 30.6 23.06 29.4 24.26C28.8 24.86 27.72 24.8 26.64 24.74C25.56 24.68 24.48 24.62 23.88 25.22C22.68 26.42 15.24 34.58 15.24 34.58L18.12 36.74ZM24.12 42.02L36.12 29.3C37.0778 28.3422 38.6561 28.4813 39.9715 28.5973C40.9633 28.6848 41.8057 28.759 42.12 28.34C42.8511 27.3652 45 24.98 45 24.98L41.88 22.34C41.88 22.34 39 25.7 37.8 26.9C37.3467 27.3533 36.305 27.2715 35.2052 27.1852C33.9756 27.0887 32.6734 26.9866 32.04 27.62C30.84 28.82 21 39.62 21 39.62L24.12 42.02Z" fill="white"/>
<defs>
<linearGradient id="paint0_linear_1301_897" x1="48" y1="48" x2="0" y2="0" gradientUnits="userSpaceOnUse">
<stop stop-color="#0E7227"/>
<stop offset="1" stop-color="#5CC774"/>
</linearGradient>
</defs>
</svg>
