<svg width="48" height="48" viewBox="0 0 48 48" fill="none" xmlns="http://www.w3.org/2000/svg">
<path d="M0 14C0 6.26801 6.26801 0 14 0H34C41.732 0 48 6.26801 48 14V34C48 41.732 41.732 48 34 48H14C6.26801 48 0 41.732 0 34V14Z" fill="url(#paint0_linear_1301_906)"/>
<path fill-rule="evenodd" clip-rule="evenodd" d="M21.2477 5.39591L20.9991 5.1672L20.9683 4.83002L21.8368 4.75L21.2477 5.39591ZM6.19597 18.7808C6.22707 18.787 6.26006 18.7932 6.29484 18.7992C6.56269 18.8453 6.93949 18.8819 7.38202 18.8452C8.27349 18.7714 9.41952 18.4008 10.462 17.2454C11.4389 16.1626 14.1349 13.2007 16.5875 10.5085C17.8137 9.16267 18.9787 7.88451 19.8372 6.94282C20.2665 6.47197 20.6191 6.08524 20.8644 5.81622L21.2476 5.39602C21.2477 5.39595 21.2477 5.39591 20.9991 5.1672C20.9683 4.83002 20.9682 4.83003 20.968 4.83005L20.9675 4.8301L20.966 4.83023L20.9615 4.83068C20.9576 4.83106 20.9523 4.8316 20.9455 4.83232C20.9319 4.83377 20.9124 4.83594 20.8871 4.839C20.8367 4.8451 20.7633 4.85473 20.669 4.86907C20.4803 4.89776 20.2074 4.94536 19.8645 5.02152C19.1789 5.17383 18.2127 5.44059 17.0807 5.8994C14.8164 6.81718 11.887 8.50433 9.21655 11.5811C6.87464 14.2794 5.76075 17.4201 5.23091 19.8751C4.96567 21.104 4.8458 22.1657 4.79221 22.9214C4.76541 23.2994 4.75516 23.6013 4.75164 23.8098C4.74988 23.914 4.74981 23.9949 4.75019 24.0504C4.75038 24.0781 4.75068 24.0995 4.75094 24.1142C4.75108 24.1216 4.7512 24.1273 4.75129 24.1313L4.75141 24.136L4.75146 24.1379C4.75147 24.1381 4.75147 24.1382 5.08842 24.1285L4.75147 24.1382L4.77862 25.0835L5.35495 24.3358L5.3551 24.3356L5.35582 24.3346L5.359 24.3305C5.36189 24.3268 5.3663 24.3211 5.37218 24.3136C5.38394 24.2985 5.40159 24.276 5.42471 24.2469C5.47096 24.1885 5.53908 24.1034 5.62579 23.9976C5.79929 23.7857 6.04676 23.4912 6.34198 23.1612C6.93568 22.4977 7.7098 21.7053 8.45743 21.1502C8.77562 20.914 9.16277 20.76 9.85944 20.7236C10.5701 20.6865 11.5804 20.773 13.1279 21.0095C14.0939 21.1572 15.1944 21.0484 16.1488 20.8024C17.0898 20.5597 17.9571 20.1658 18.4109 19.6901C19.9649 18.0614 23.0353 14.7061 25.7144 11.7612C27.0546 10.288 28.2978 8.9165 29.206 7.91328C29.6601 7.41166 30.0304 7.00211 30.2873 6.71795C30.3894 6.6049 30.4736 6.5117 30.538 6.44045C31.3328 6.73445 32.4456 7.34195 33.4982 7.98721C34.4392 8.56408 35.3023 9.15258 35.8108 9.54061L35.6263 9.74365C35.3533 10.044 34.9622 10.4744 34.4898 10.9945C33.5448 12.0346 32.2744 13.4335 30.9723 14.8684C28.3699 17.7362 25.6366 20.7528 25.1286 21.3311C24.8818 21.612 24.3399 21.9425 23.6461 22.1596C22.9604 22.3743 22.1787 22.4614 21.4753 22.3078C20.8993 22.182 20.4138 22.0386 19.9613 21.9049C19.8154 21.8618 19.673 21.8197 19.5321 21.7796C18.9615 21.6171 18.4186 21.4874 17.8305 21.4874C16.6326 21.4874 15.4015 22.022 14.0748 23.495C13.4361 24.204 11.5334 26.2674 9.78817 28.1559C8.91603 29.0997 8.0839 29.999 7.46981 30.6624C7.16276 30.994 6.91022 31.2668 6.73445 31.4565L6.45976 31.7531C6.45972 31.7531 6.45969 31.7531 6.70645 31.9838L6.45976 31.7531L6.33005 31.8931L6.38233 32.0768C6.49724 32.4808 6.77616 33.0141 7.1305 33.5842C7.48976 34.1622 7.94335 34.8044 8.42891 35.4334C9.39279 36.6818 10.5125 37.9162 11.2949 38.4878L11.5353 38.6634L11.7388 38.4458C12.5217 37.6088 14.2276 35.7214 16.0975 33.6528C16.7296 32.9534 17.3806 32.2332 18.0209 31.526C19.2891 30.1251 20.5166 28.7738 21.4773 27.7306C21.9577 27.2088 22.3706 26.7652 22.6881 26.4313C23.0123 26.0903 23.2218 25.8802 23.3049 25.8107C24.0457 25.1906 24.972 24.8776 26.0357 24.9405C26.4009 24.9621 26.9161 25.0247 27.4871 25.0941C27.7953 25.1316 28.1198 25.1711 28.4457 25.2071C28.903 25.2577 29.3583 25.3007 29.757 25.3185C30.1471 25.3359 30.5144 25.331 30.7805 25.2716C31.6574 25.0759 33.3029 24.6461 34.3916 23.4797C34.8873 22.9486 36.1575 21.5406 37.5188 20.0316C38.752 18.6645 40.0601 17.2145 40.9349 16.2584C41.5837 17.7026 42.4841 20.5627 42.5695 23.3876C42.2014 23.7783 41.8932 24.1133 41.6252 24.4047C40.9921 25.093 40.5831 25.5376 40.1376 25.8956C39.5333 26.3812 38.4243 26.8191 37.1228 26.5078L36.9892 26.4759C36.319 26.3155 35.5967 26.1427 34.9853 26.0071C34.6592 25.9348 34.3617 25.8724 34.1187 25.828C33.8853 25.7852 33.6751 25.7537 33.5389 25.7537H33.5337C33.1138 25.7537 31.5117 25.7536 30.2668 27.0041C29.6862 27.5872 26.9637 30.5939 24.1038 33.7538L23.8386 34.0468C21.0529 37.1248 18.1868 40.2915 17.0462 41.5026L16.6791 41.8925L17.1875 42.0575C21.6247 43.4975 25.1062 43.4116 27.4685 42.948C31.0927 42.2367 39.6098 39.4359 42.5601 29.0292L42.6535 28.6999L42.3246 28.6098C41.5115 28.3871 40.6555 28.4494 39.9192 28.6589C39.188 28.867 38.537 29.2313 38.146 29.6541C37.2694 30.6025 34.3027 33.8218 31.5555 36.8037C30.1819 38.2947 28.863 39.7265 27.8875 40.7855L26.3627 42.4409C24.2587 42.7099 21.4109 42.635 17.9049 41.5732C19.2221 40.1544 21.8123 37.2924 24.3304 34.5101L24.6026 34.2093C27.4733 31.0375 30.1779 28.051 30.7435 27.4829C31.7856 26.4362 33.1417 26.4309 33.5389 26.4309C33.605 26.4309 33.7572 26.4501 33.9978 26.4942C34.2289 26.5365 34.5171 26.5968 34.8399 26.6684C35.4456 26.8027 36.1627 26.9743 36.8346 27.135L36.9666 27.1666C38.4967 27.5325 39.8147 27.0223 40.5588 26.4244C41.0456 26.0332 41.5047 25.5341 42.1642 24.8173C42.4504 24.5063 42.7743 24.1542 43.1545 23.7522L43.25 23.6512L43.2471 23.5119C43.1785 20.2027 42.0162 16.8333 41.3207 15.5059L41.0988 15.0824L40.775 15.4336C39.9113 16.3706 38.4111 18.0337 37.0114 19.5855C35.6584 21.0855 34.3992 22.4814 33.8998 23.0165C32.9659 24.0171 31.5103 24.415 30.6343 24.6105C30.4621 24.649 30.1722 24.6591 29.7869 24.642C29.4103 24.6252 28.9723 24.584 28.5195 24.534C28.2165 24.5005 27.9043 24.4626 27.6013 24.4258C27.0137 24.3544 26.4605 24.2872 26.0753 24.2645C24.8468 24.1919 23.7505 24.5562 22.8733 25.2904C22.7541 25.3902 22.5149 25.6329 22.2005 25.9636C21.8794 26.3013 21.4637 26.7481 20.9824 27.2707C20.0196 28.3162 18.7904 29.6694 17.5221 31.0704C16.8792 31.7804 16.2265 32.5026 15.5932 33.2032C13.8785 35.1002 12.3061 36.8398 11.4574 37.7564C10.7654 37.1802 9.818 36.1275 8.96167 35.0184C8.48652 34.4029 8.04682 33.7797 7.70239 33.2256C7.41437 32.7621 7.20397 32.3643 7.09003 32.0668L7.22806 31.9178C7.40387 31.728 7.65644 31.4552 7.96353 31.1235C8.57771 30.46 9.40998 29.5605 10.2823 28.6166C12.0259 26.7299 13.9324 24.6624 14.5747 23.9493C15.8098 22.5781 16.871 22.1646 17.8305 22.1646C18.321 22.1646 18.7895 22.272 19.3481 22.4311C19.4788 22.4683 19.6146 22.5084 19.7563 22.5503C20.2126 22.6852 20.73 22.838 21.332 22.9695C22.1793 23.1545 23.0829 23.0452 23.8467 22.8061C24.6024 22.5696 25.2741 22.189 25.6341 21.7792C26.1374 21.2062 28.8649 18.1959 31.4706 15.3246C32.7725 13.8898 34.0429 12.4911 34.9878 11.451C35.4602 10.9309 35.8513 10.5006 36.1242 10.2002L36.5516 9.73L36.5519 9.72962C36.552 9.72954 36.552 9.7295 36.3031 9.5012L36.552 9.7295L36.7881 9.46984L36.5208 9.24272C36.0624 8.85308 34.9996 8.11429 33.8494 7.40916C32.7028 6.70629 31.4253 6.00947 30.5404 5.72505L30.3337 5.65862L30.188 5.82011L30.4377 6.04754C30.188 5.82011 30.1879 5.82015 30.1879 5.82022L30.1876 5.82057L30.0843 5.93491C30.0164 6.01007 29.9164 6.12075 29.7881 6.26277C29.5314 6.54681 29.1612 6.95623 28.7072 7.4577C27.7993 8.46064 26.5565 9.83173 25.2168 11.3044C22.5361 14.251 19.4715 17.5998 17.9242 19.2216C17.6027 19.5585 16.8857 19.9132 15.9811 20.1464C15.09 20.3762 14.0836 20.4706 13.2293 20.3401C11.6756 20.1026 10.6079 20.0064 9.82445 20.0473C9.02705 20.089 8.50405 20.2735 8.05671 20.6057C7.25372 21.2018 6.44352 22.0347 5.84055 22.7086C5.69976 22.8659 5.56958 23.0154 5.45265 23.1522C5.45621 23.0936 5.46021 23.0327 5.46469 22.9695C5.51644 22.2397 5.63253 21.2105 5.88979 20.0186C5.9754 19.6219 6.07654 19.2077 6.19597 18.7808ZM6.39021 18.1285C6.39634 18.1296 6.40254 18.1307 6.40883 18.1317C6.63225 18.1702 6.95121 18.2014 7.32664 18.1703C8.07109 18.1087 9.04975 17.8022 9.96242 16.7906C10.9407 15.7063 13.6381 12.7429 16.0902 10.0514C17.3164 8.70543 18.4815 7.42721 19.34 6.48548C19.6262 6.17154 19.8784 5.895 20.0873 5.66581C20.062 5.67128 20.0363 5.67692 20.0101 5.68274C19.3558 5.82808 18.4258 6.08442 17.333 6.52738C15.1477 7.41314 12.3129 9.04421 9.72473 12.0261C8.04212 13.9648 7.01556 16.1499 6.39021 18.1285ZM27.4459 42.2621C30.9824 41.5459 38.9039 38.8522 41.8104 29.1905C41.2383 29.0989 40.6419 29.1571 40.103 29.3104C39.4522 29.4956 38.9234 29.8085 38.6401 30.1149C37.7639 31.0627 34.7978 34.2815 32.0503 37.2636C30.6767 38.7546 29.3578 40.1864 28.3824 41.2454L27.4459 42.2621Z" fill="white"/>
<defs>
<linearGradient id="paint0_linear_1301_906" x1="48" y1="48" x2="0" y2="0" gradientUnits="userSpaceOnUse">
<stop stop-color="#4A22E1"/>
<stop offset="1" stop-color="#7657EF"/>
</linearGradient>
</defs>
</svg>
