<svg width="48" height="48" viewBox="0 0 48 48" fill="none" xmlns="http://www.w3.org/2000/svg">
<path d="M0 14C0 6.26801 6.26801 0 14 0H34C41.732 0 48 6.26801 48 14V34C48 41.732 41.732 48 34 48H14C6.26801 48 0 41.732 0 34V14Z" fill="url(#paint0_linear_1327_2335)"/>
<path fill-rule="evenodd" clip-rule="evenodd" d="M33.9654 41.0625L11.777 25.4884L9.04004 27.4009C8.46228 27.8052 7.99052 28.3429 7.66479 28.9685C7.33906 29.5941 7.16899 30.289 7.16899 30.9944C7.16899 31.6998 7.33906 32.3948 7.66479 33.0203C7.99052 33.6459 8.46228 34.1837 9.04004 34.5879L14.003 38.0706L19.7623 34.0497L21.8719 35.5377L14.0082 41.0414L7.65296 36.5773C6.75634 35.9479 6.02441 35.1118 5.51911 34.1395C5.01381 33.1673 4.75 32.0876 4.75 30.9918C4.75 29.896 5.01381 28.8162 5.51911 27.844C6.02441 26.8718 6.75634 26.0356 7.65296 25.4063L9.16633 24.349L9.15694 24.3355L9.64636 23.9929L7.65296 22.5937C6.75634 21.9644 6.02441 21.1282 5.51911 20.156C5.01381 19.1838 4.75 18.1041 4.75 17.0083C4.75 15.9124 5.01381 14.8327 5.51911 13.8605C6.02441 12.8883 6.75634 12.0521 7.65296 11.4228L14.0293 6.9375L36.2201 22.5133L38.9442 20.6097C39.522 20.2054 39.9937 19.6677 40.3194 19.0421C40.6452 18.4165 40.8153 17.7216 40.8153 17.0162C40.8153 16.3108 40.6452 15.6158 40.3194 14.9902C39.9937 14.3647 39.522 13.8269 38.9442 13.4227L33.9813 9.94L28.2325 13.9662L26.1229 12.4781L33.9918 6.96917L40.3524 11.4333L40.3471 11.4175C41.2437 12.0468 41.9756 12.883 42.4809 13.8552C42.9862 14.8275 43.2501 15.9072 43.2501 17.003C43.2501 18.0988 42.9862 19.1785 42.4809 20.1507C41.9756 21.123 41.2437 21.9591 40.3471 22.5885L39.2301 23.3693C39.2332 23.3728 39.2363 23.3764 39.2394 23.3799L38.3459 24.0054L40.3418 25.4063C41.2384 26.0356 41.9703 26.8718 42.4756 27.844C42.9809 28.8162 43.2447 29.8959 43.2447 30.9917C43.2447 32.0876 42.9809 33.1673 42.4756 34.1395C41.9703 35.1117 41.2384 35.9479 40.3418 36.5772L33.9654 41.0625ZM36.2162 25.4963L38.9389 27.4062C39.5166 27.8104 39.9884 28.3481 40.3141 28.9737C40.6398 29.5993 40.8099 30.2943 40.8099 30.9997C40.8099 31.705 40.6398 32.4 40.3141 33.0256C39.9884 33.6512 39.5166 34.1889 38.9389 34.5932L33.9707 38.0706L13.9093 23.9983L21.8772 18.4304L19.7675 16.9423L19.1811 17.3521L19.1651 17.3293L11.7761 22.502L9.05587 20.5938C8.47811 20.1896 8.00634 19.6519 7.68061 19.0263C7.35489 18.4007 7.18481 17.7057 7.18481 17.0003C7.18481 16.295 7.35489 15.6 7.68061 14.9744C8.00634 14.3488 8.47811 13.8111 9.05587 13.4068L14.0241 9.92944L34.0878 24.0033L26.1071 29.5802L28.2167 31.0683L34.1712 26.9058L34.1816 26.9206L36.2162 25.4963Z" fill="white"/>
<defs>
<linearGradient id="paint0_linear_1327_2335" x1="48" y1="48" x2="-2.71797e-05" y2="2.71797e-05" gradientUnits="userSpaceOnUse">
<stop stop-color="#181C5E"/>
<stop offset="1" stop-color="#6489F7"/>
</linearGradient>
</defs>
</svg>
