<svg width="48" height="48" viewBox="0 0 48 48" fill="none" xmlns="http://www.w3.org/2000/svg">
<path d="M0 14C0 6.26801 6.26801 0 14 0H34C41.732 0 48 6.26801 48 14V34C48 41.732 41.732 48 34 48H14C6.26801 48 0 41.732 0 34V14Z" fill="url(#paint0_linear_1302_859)"/>
<path d="M27.8432 32.6633C27.7304 32.6913 27.7589 32.8036 27.8705 32.7756C27.7589 32.8036 27.7589 32.9441 27.8705 32.9159H27.899C27.8705 32.9441 27.899 33.0002 27.9548 33.0002C27.9548 33.0564 27.9833 33.1125 27.9833 33.1125C28.0391 33.1125 28.0676 33.0844 28.0676 33.0564C28.0949 33.0282 28.1519 33.0282 28.1792 33.0564C28.2362 33.0564 28.292 33.0564 28.292 33.1407C28.3763 33.1407 28.4048 33.1968 28.4321 33.2249C28.5734 33.3372 28.6007 33.5056 28.6565 33.6742L28.6292 33.7023C28.6292 33.7023 28.685 33.8146 28.7978 33.8989C28.8821 34.1796 29.0506 34.3201 29.275 34.4604C29.3308 34.5447 29.4709 34.657 29.5837 34.7694L29.5552 34.6852V34.6009C29.6395 34.657 29.7238 34.7132 29.8081 34.7975C29.8366 34.7975 29.8651 34.7694 29.8651 34.7694C29.9209 34.8255 29.9494 34.9098 30.0052 34.9378C30.0325 34.9378 30.061 34.9378 30.0895 34.9098C30.2854 35.1344 30.3424 35.4434 30.511 35.6398C30.6511 35.7803 30.9882 35.9769 31.1283 36.2015C31.2969 36.4262 31.6056 36.5105 31.7742 36.7351C31.83 36.6508 31.8585 36.7632 31.9143 36.7351C31.9143 36.7632 31.9143 36.8194 31.9428 36.8194L32.1672 36.9036C32.1114 36.8755 32.0829 36.8194 32.0544 36.7912C32.4759 37.072 32.8688 37.4091 33.2903 37.718C34.3861 38.6447 35.4523 39.7118 36.5481 40.6665C36.5196 40.5822 36.5196 40.5261 36.5766 40.4981C36.744 40.6384 36.9969 40.9473 37.1655 40.9755C36.7167 40.4981 36.211 40.0487 36.0424 39.4871C36.211 39.5151 36.2952 39.5151 36.4353 39.6275C36.3795 39.6556 36.351 39.6836 36.351 39.7398C36.4638 39.6556 36.4923 39.7398 36.5196 39.7679C37.2783 40.6104 38.0642 41.3967 38.8787 42.1549C38.4299 41.4529 37.7271 41.0316 37.3626 40.3576C38.037 40.9473 38.7101 41.537 39.3287 42.2391L40.0588 42.9974C40.0588 42.9131 40.0861 42.8569 40.0861 42.8007L39.3287 41.9864C39.0758 41.7336 38.7659 41.4529 38.5985 41.2001C38.3729 40.835 38.2613 40.4699 37.8957 40.2453C37.8957 40.3296 38.0084 40.4419 37.9526 40.4981C37.4469 40.0207 36.8283 39.4871 36.4923 38.8974C36.5481 38.8413 36.6324 39.0378 36.6324 38.9254C36.4638 38.8131 36.3237 38.5885 36.211 38.3357C36.1267 38.3357 36.211 38.448 36.0982 38.3919C35.7895 37.9707 35.2279 37.746 35.0035 37.2125C35.0878 37.2406 35.1721 37.2686 35.2849 37.2686C35.425 37.2968 34.4704 36.9317 34.6105 36.5105C34.7506 36.1735 34.8064 36.7632 35.3122 36.8755C35.5093 36.9036 35.4808 36.7351 35.5651 36.6508C36.351 37.4091 36.9969 38.0268 37.2783 38.2516V38.1673C37.194 38.0268 37.0812 37.9988 37.0812 37.8583L37.1097 37.7742C37.6155 38.3639 38.5985 39.7679 39.4118 39.8522C39.3287 39.7679 39.2717 39.7118 39.2717 39.5994C39.3002 39.459 39.3845 39.4871 39.5246 39.4871C39.3845 39.4028 39.3002 39.3748 39.1601 39.3748V39.4871C38.9915 39.459 38.7944 39.431 38.7101 39.2344C38.7944 39.2344 38.9345 39.2344 38.963 39.122C38.7386 39.122 38.5985 39.0939 38.4572 38.8693C38.5415 38.8131 38.6258 38.8131 38.6828 38.8131C38.6828 38.7288 38.6828 38.7288 38.6258 38.6447C38.5415 38.5885 38.3456 38.3357 38.2886 38.3357C38.2044 38.2516 38.0927 38.1953 38.0927 38.1953L37.9799 38.2234L37.9242 37.9426C37.7841 37.9988 37.8684 38.1673 37.7271 38.2234L37.2225 37.6617V37.4371C37.2225 37.2968 37.3626 37.3529 37.3899 37.3529C37.3626 37.5776 37.1382 37.5214 37.5585 37.7742L37.587 37.6056C37.587 37.3248 37.2498 37.2968 37.2498 37.072H37.2225C37.2225 37.044 37.2498 36.9878 37.2498 36.9597C37.194 36.9878 37.1655 36.9317 37.1097 36.9036C37.0812 36.9036 37.0812 36.9036 37.0539 36.8755H37.0254V36.7632C36.7725 36.7632 36.6882 36.5105 36.5766 36.37C36.3237 35.9769 36.0151 35.5837 35.6494 35.2749C35.6209 35.1626 35.4808 34.994 35.2006 34.657C35.0593 34.5166 36.1825 35.3591 36.1267 35.2467C35.9023 34.8817 37.6998 35.2749 37.6998 35.2749L37.194 34.8817C37.3068 34.8536 37.1655 34.4043 37.1655 34.3481V34.2639L37.0254 34.3763V34.292L36.8283 34.4324H36.801C36.801 34.2639 36.8568 34.1516 36.9696 34.0673H36.9411C36.8283 34.0673 36.801 33.9269 36.9126 33.9269C36.9696 33.9269 36.9969 34.0112 36.9696 34.0392L37.1382 33.955L37.1655 34.1235H37.2783C37.2783 34.2358 37.3341 34.3201 37.4184 34.4886H37.3068L37.3899 34.8255C37.5312 34.8255 37.5312 34.4886 37.5027 34.3481C37.5027 34.1235 37.4184 34.0392 37.3899 33.8146H37.4742V33.7584H37.3626L37.0254 33.6181L36.9126 33.7023C36.9126 33.5618 36.801 33.5618 36.7725 33.5618C36.5766 33.5618 36.5481 33.5618 36.5481 33.7023L36.5766 33.7865L36.5481 33.8427C36.5481 33.8427 36.408 33.8146 36.3237 33.7304L36.2395 33.6461L36.3237 33.5056C36.3237 33.5899 36.408 33.5899 36.4638 33.5899L36.4353 33.4215H36.5196C36.5481 33.3933 36.5481 33.1968 36.5481 33.1125C36.5481 33.1125 36.5196 33.0002 36.4353 33.0002H36.3795L36.351 32.7756C36.351 32.7756 36.4923 32.9159 36.5196 32.8879L36.7167 32.8036C36.5196 32.6351 36.3511 32.6913 36.1267 32.6913C36.1267 32.5509 36.1824 32.5509 36.1551 32.4385C36.0708 32.2982 35.9866 32.2421 35.8738 32.2421C35.8738 32.2701 35.9308 32.4667 36.0424 32.4667C35.9023 32.579 35.818 32.6913 35.7622 32.8036L35.6779 32.7194L35.5366 32.8036L35.4523 32.8318H35.368C35.6779 32.6913 35.818 32.579 35.7895 32.2421C35.6494 32.2421 35.3407 32.1578 35.2849 32.1297L35.2564 31.905L34.9477 31.9331V31.7365L35.1163 31.7085V31.6804C35.032 31.5962 34.8907 31.568 34.8907 31.568L34.582 31.7085C34.582 31.7085 34.5547 31.7085 34.4977 31.7365C34.639 31.6804 34.5547 31.4838 34.6948 31.4838V31.3996C34.6948 31.3153 34.6663 31.2311 34.639 31.175C34.6948 31.1468 34.6663 31.0345 34.639 31.0345C34.582 31.0345 34.582 31.0625 34.582 31.0907C34.3861 30.9502 34.0763 31.0345 34.049 30.6976L33.9089 30.8099C33.6833 30.8099 33.4874 30.5009 33.4589 30.3605L33.3461 30.3886C33.3461 30.2482 33.4304 30.0517 33.206 30.0797C33.206 30.0236 33.1787 29.9393 33.3188 29.9393C33.3188 29.9112 33.263 29.7989 33.1787 29.7989L33.0374 29.9393C33.0944 29.7989 32.9531 29.7989 32.9531 29.6866H33.0944V29.5743H33.0659C33.0659 29.4619 33.1502 29.4057 33.0659 29.2372C32.8688 29.1531 32.7572 29.2372 32.7003 29.3496L32.6445 29.3777L32.4759 29.2654H32.6445V29.1531C32.5602 29.1249 32.3916 28.9283 32.3916 28.9283L32.2515 29.0688L32.0829 28.9283L32.223 28.8441L32.1672 28.6757C32.2515 28.6195 32.3073 28.5634 32.28 28.4791C32.2515 28.3106 31.8585 28.3386 31.9143 28.6195C31.7742 28.5634 31.2411 28.086 31.1841 28.0298C31.0998 27.9455 30.9039 27.7209 30.9312 27.6366C30.9597 27.6366 30.9882 27.6647 31.0155 27.6647H31.044C31.044 27.6927 31.0998 27.7209 31.1283 27.777L31.1568 27.8051L31.2684 27.9455C31.2411 27.9735 31.2411 28.0298 31.2684 28.086C31.2969 28.114 31.3812 28.114 31.437 28.086C31.5213 28.1701 31.5771 28.1983 31.5771 28.1701C31.5771 28.1421 31.5498 28.114 31.4928 28.0578C31.5213 28.0578 31.5498 28.0298 31.5771 28.0017C31.5498 27.8332 31.4085 27.8051 31.3242 27.8894L31.2684 27.8332C31.3527 27.8051 31.4085 27.6366 31.3242 27.5804C31.2411 27.5524 31.1568 27.6086 31.1283 27.6927C31.0998 27.6647 31.0725 27.6647 31.0725 27.6366C31.2126 27.6086 31.2126 27.5524 31.3812 27.4963C31.437 27.44 31.4655 27.3838 31.4928 27.3277C31.4928 27.412 31.5498 27.412 31.5498 27.3277C31.5498 27.2996 31.5213 27.2715 31.5213 27.2715V27.2154V27.1592C31.5213 26.8503 31.1568 26.6538 30.7912 26.6818C30.7627 26.7661 30.7912 26.8503 30.7912 26.9627H30.7627C30.7354 26.9064 30.6784 26.8784 30.6511 26.8503L30.7912 26.6538C30.9039 26.6538 30.9312 26.6538 31.0155 26.5415H30.9039L30.8197 26.5976C30.8755 26.4853 30.9039 26.3729 30.8754 26.2325C30.6226 26.1764 30.1738 26.429 30.061 26.738L29.6122 26.3449C29.668 26.3449 29.7238 26.3167 29.7523 26.2606C29.8081 26.2606 29.8081 26.2325 29.8081 26.2044C29.8366 26.1483 29.8366 26.0921 29.8366 26.0359H30.2011C30.1738 25.8113 29.8081 25.8113 29.8924 25.6709L29.4436 25.3058C29.4994 25.2216 29.4709 25.1093 29.3593 24.997C29.275 24.997 29.2192 25.025 29.1622 25.0531C28.685 24.6319 28.1234 24.1825 28.0676 24.2387L27.3647 23.5648L27.2247 23.5928C27.0288 23.5928 26.8602 22.7785 26.4945 23.0312L26.3259 22.8627C27.1404 21.7675 27.9548 20.6723 28.7135 19.5772C28.7693 19.5772 28.8536 19.549 28.9379 19.4649C28.9094 19.3244 28.9663 19.2121 28.9379 19.0716C29.0779 18.8752 29.1907 18.7066 29.2192 18.5943L28.8251 19.0998C28.7135 19.0998 28.6292 18.9875 28.4891 19.0998C28.4048 19.184 28.4048 19.3806 28.5164 19.4929C28.0391 20.0264 27.5903 20.56 27.0561 20.9532C27.0846 20.7566 27.0561 20.6723 27.2532 20.4197C27.2805 20.4477 27.3374 20.4477 27.3932 20.4197C27.2816 20.3635 27.3932 20.2792 27.449 20.223L28.7978 18.5381C28.9094 18.5943 29.0221 18.5943 29.0779 18.5943C29.1622 18.4539 29.1349 18.3135 29.0779 18.173L29.4709 17.6956C29.4709 17.8361 29.5837 17.9765 29.6965 18.0607C29.6122 18.145 29.4994 18.2292 29.4709 18.3135C29.5837 18.2012 29.6965 18.1169 29.7523 18.2012C29.7808 18.3135 29.6122 18.4539 29.5552 18.5662C29.7523 18.3978 29.9209 18.2012 30.061 18.0327C30.1168 17.9765 30.1738 17.9204 30.2011 17.8361C30.4825 17.471 30.7069 17.1341 30.9597 16.769C30.5383 17.1059 30.4267 17.3868 30.2011 17.6956C30.1738 17.6114 30.1168 17.5272 30.0325 17.4991C30.4267 17.1621 30.7912 16.769 30.9597 16.4039L30.7912 16.5724C30.7912 16.432 30.6511 16.2916 30.511 16.3197L30.847 15.8423C30.0895 16.5724 29.5837 17.3868 28.9663 18.0888C28.9379 18.0607 28.8821 18.0327 28.8536 18.0327C29.1907 17.5272 29.5837 17.0217 29.9494 16.5162C30.0052 16.5162 30.0325 16.4882 30.061 16.432V16.4039L30.9882 15.2245L31.6614 14.354C31.7184 14.4663 31.887 14.5224 31.9428 14.3259C31.9428 14.2978 31.8585 14.2416 31.8027 14.2135L31.8585 14.1293V14.2416C31.9986 14.0731 32.3073 13.8485 32.3643 13.6238L31.887 14.1012C32.0829 13.8485 32.28 13.5957 32.5044 13.3711C32.5044 13.3992 32.5044 13.4553 32.5328 13.4553C32.6171 13.4553 32.6444 13.343 32.5601 13.3149C32.6729 13.1745 32.7846 13.0622 32.8973 12.9779C33.3461 12.1074 34.1606 11.293 34.9477 10.3663C35.6209 9.60813 36.2394 8.68144 36.9126 7.83899L38.4299 5.92943C38.57 5.76094 39.0188 5.22739 38.8229 5.45204C36.0151 8.73761 33.2345 12.1355 30.6226 15.393C30.6226 15.393 30.5952 15.4211 30.5952 15.4491C30.454 15.3649 30.3697 15.3649 30.2854 15.4772C30.2854 15.5895 30.3424 15.6457 30.4267 15.6457L30.1738 15.9827C30.1453 15.9546 30.0895 15.9546 30.061 15.9827C30.0895 16.0108 30.0895 16.0389 30.0895 16.0669L29.9767 16.2354C29.9209 16.2073 29.8651 16.2073 29.8081 16.2073C29.7238 16.2916 29.7523 16.4039 29.8081 16.4601L29.4709 16.8251C29.1622 17.1341 28.8536 17.3868 28.6007 17.6395C28.685 17.4991 28.7408 17.3307 28.7693 17.1341C28.8821 16.3477 29.4151 15.8142 29.9767 15.3087C30.1168 15.1964 30.3139 15.056 30.3139 14.8033C30.2581 14.7752 30.2581 14.6629 30.3424 14.6629C30.3982 14.6629 30.4267 14.6629 30.4267 14.719C30.454 14.6629 30.4825 14.6348 30.454 14.5786H30.5668V14.5505H30.5383C30.5383 14.5505 30.5668 14.5224 30.5952 14.5224C30.6784 14.4663 30.7069 14.354 30.7069 14.2697C30.7354 14.2416 30.7069 14.1855 30.6784 14.1574C30.7354 14.1574 30.847 14.0731 30.9597 13.9889C30.9882 13.9608 31.0155 13.9608 31.0155 13.9327C31.0998 14.0731 31.2684 14.1293 31.4085 13.9889C31.4085 13.9046 31.3527 13.8204 31.2411 13.7362C31.4085 13.5677 31.5498 13.4273 31.5498 13.343C31.5213 13.2026 31.6899 13.2868 31.8027 13.0622H31.5213L31.6614 12.9218C31.887 12.8375 31.8585 12.6971 31.9986 12.5848L31.9143 12.5286V12.4444L31.9986 12.3601C32.1387 12.304 32.28 11.9951 32.28 11.9951L32.4201 12.0512C32.4201 11.967 32.4485 11.9389 32.5601 11.8266C32.4485 11.7143 32.4486 11.7423 32.4201 11.7423C32.3916 11.5177 32.6172 11.4896 32.8415 11.4896L32.6171 11.3773C32.6444 11.1245 32.8415 10.9561 32.9816 10.7876C32.9816 10.8718 33.0659 10.8718 33.0659 10.7876C33.0659 10.7595 33.0374 10.7314 33.0101 10.7595C33.0944 10.6191 33.1787 10.5068 33.1787 10.3383L32.813 10.6752C32.813 10.4506 32.9258 10.1979 32.8973 9.9732C32.673 10.0013 31.6614 11.3211 31.5771 11.5739H31.7184C31.6056 11.7704 31.0998 12.0512 31.1283 12.2759H31.3242C31.1841 12.3601 30.9597 12.4163 30.8197 12.4444V12.3882C30.7912 12.1636 30.9312 12.0512 31.0998 12.0512C31.0998 12.0232 31.0155 11.9108 31.0155 11.9108C31.0998 11.9108 31.1568 11.8547 31.2411 11.7423C31.2684 11.7704 31.2684 11.7985 31.2969 11.7985C31.3527 11.7985 31.3527 11.6862 31.3242 11.63C31.4655 11.4615 31.5771 11.265 31.6899 11.1807L31.2684 11.2088C31.6899 11.1526 32.5602 10.4506 32.5328 10.0013C32.5328 9.86088 32.223 9.88895 32.223 9.6643L32.1957 9.58006C32.1957 9.52389 32.6171 8.96226 32.6171 8.9061L32.4759 8.96226V8.9061C32.4485 8.56911 33.4031 7.95131 33.3746 7.55817L32.7003 8.34446H32.6729C32.6729 8.37254 32.6729 8.56911 32.5886 8.56911H32.4759L32.4486 8.45679C32.6729 8.34446 32.6445 8.11981 32.6445 7.89516V7.61434C32.5602 7.75474 32.2515 8.23213 32.1387 8.23213L31.2969 9.10266L31.2126 9.13075C31.2969 9.01842 31.6899 8.62528 31.6899 8.51296C31.6899 8.42871 31.6341 8.40063 31.5498 8.40063C31.6899 8.26021 32.3073 7.53009 32.4201 7.38969L32.6171 7.16502C32.1957 7.24927 31.83 7.78282 31.6056 8.06364H31.5213L31.5771 7.95131L31.8585 7.55817H31.8027C31.8027 7.55817 31.6614 7.81091 31.6056 7.72666L30.9039 8.45679L30.7354 8.48486C30.8197 8.42871 31.1568 8.09172 31.1568 7.97939C31.1568 7.86707 31.0725 7.83899 31.0155 7.83899C31.1568 7.69858 31.2684 7.50201 31.3527 7.3616C31.1283 7.53009 30.8755 7.83899 30.8197 8.20406L30.7354 8.23213C30.6784 8.23213 30.511 8.34446 30.454 8.45679V8.34446C30.2296 8.37254 30.1738 8.51296 30.1738 8.70953C30.2581 8.70953 30.2581 8.79376 30.1738 8.82185V8.70953C30.1453 8.70953 30.1453 8.82185 30.1738 8.82185V8.93418C29.9494 8.93418 30.0325 8.96226 29.9209 8.82185L30.0052 8.59719V8.51296H29.8924C29.9209 8.82185 29.4994 9.6643 29.0506 9.69238C29.0779 9.74855 29.1622 9.74855 29.2192 9.74855C29.1907 9.86088 29.1064 9.88895 29.0506 9.91703C29.0779 9.94512 29.0779 10.0574 29.0221 10.0574C28.9663 10.0574 28.9379 10.0013 28.9663 9.9732C28.8821 10.0013 28.8251 10.0574 28.8821 10.2821L28.7978 10.1979L28.685 10.3102L28.7408 10.3944V10.4506C28.6007 10.591 28.4321 10.7033 28.3205 10.8157L28.4048 10.8999C28.3205 11.1245 28.1792 11.0122 28.0391 11.0122V10.8437C27.899 10.8437 27.899 11.0122 27.7304 11.0403H27.5903L27.899 10.8437L27.7019 10.7314L28.0949 10.6191L28.1519 10.7033H28.2362L28.292 10.5348V10.4506L27.7862 10.4787C27.7862 10.4787 27.6461 10.7314 27.5618 10.6472L27.2247 11.0684L27.1973 10.7595L26.7474 11.2088C26.7759 11.1245 26.916 10.9841 26.916 10.8999V10.8437H26.8875C26.8875 10.6191 27.5333 10.3663 27.309 10.1417L28.1519 9.01842C28.0391 9.07458 27.9275 9.13075 27.8705 9.21499C27.7589 9.29924 27.6746 9.41156 27.5903 9.52389V9.55198L27.4775 9.6643C27.3932 9.80471 27.2816 9.91703 27.1689 10.0294V10.0855L27.0845 10.1698L27.113 10.0855C27.0561 10.1698 27.0003 10.1979 26.9445 10.254C27.0561 10.254 27.0846 10.3944 26.9718 10.3944C26.916 10.3944 26.8875 10.3383 26.8875 10.3102L26.523 10.5629C26.4672 10.6472 26.3829 10.7314 26.2986 10.7876C26.2986 10.8718 26.1573 10.9561 26.1573 11.1245V11.1807L26.2986 11.0122H26.3259C26.2986 11.0965 26.2416 11.2369 26.1573 11.265H26.073L25.9887 11.1807C25.9887 11.1245 26.0172 11.0684 26.0172 11.0122C25.9887 11.1246 25.9329 11.2369 25.8771 11.3211C25.9056 11.3773 25.9614 11.4054 26.0172 11.4054L25.8771 11.63C25.737 11.7423 25.2313 12.3601 25.1185 12.4725L25.0912 12.3882C25.3429 12.0232 25.6242 11.7704 25.8771 11.4896C24.8383 11.6862 24.9499 13.0903 24.2197 13.5677L24.361 13.5396L23.9953 13.9327C23.8837 13.8485 23.2094 14.6067 23.0408 14.8313V14.8033C23.0966 14.5786 23.0123 14.6629 23.1809 14.6067C23.2379 14.4663 23.321 14.4663 23.321 14.3259L23.2379 14.354C22.3106 14.6909 22.7036 15.6176 22.0019 16.3477C21.6648 16.6567 20.7102 18.4258 20.4288 18.4258C19.2214 17.7799 17.9012 16.6567 17.3123 16.1793C17.0594 15.9827 15.6834 14.9156 14.8974 14.9998V14.8033L14.7562 14.8594L14.8131 14.6629L14.6445 14.5786V14.7752L14.5602 14.8033C14.5044 14.8033 14.1673 14.6067 14.083 14.6067C14.1673 14.4663 14.1103 14.382 14.026 14.3259C14.083 14.1012 14.1388 13.9327 13.9417 13.8204C13.6057 13.7642 13.5772 13.9889 13.2958 13.9889C13.2685 14.0451 13.2685 14.0731 13.24 14.0731L12.6785 14.2416C12.7343 14.1855 12.7628 14.1293 12.7628 14.017C12.5942 13.8485 12.3698 14.1574 12.5384 14.2978C12.4256 14.3259 12.2855 14.354 12.1169 14.354C11.7797 14.382 11.5268 14.5786 11.3582 14.8033C11.2739 14.8313 11.2466 14.8875 11.1896 14.9156C11.1623 14.8313 11.1623 14.7752 11.078 14.7471C11.1065 14.5505 11.2466 14.4663 11.2739 14.2697C11.0496 14.2978 10.9653 14.2978 10.7124 14.2416C10.7409 14.1574 10.6851 14.1012 10.6281 14.0731C10.6008 14.354 10.2351 14.5505 9.9822 14.3259C9.75781 14.382 9.56193 14.4663 9.56193 14.6629C9.56193 15.056 10.1793 14.9437 10.2921 14.6629C10.4322 14.9156 10.7967 15.1683 11.1338 14.9998C11.1623 14.9998 11.1623 15.0279 11.1896 15.056L10.9653 15.5053V15.4211C10.7694 15.2526 10.5165 15.4211 10.4322 15.5895C10.5165 15.758 10.7124 15.7861 10.881 15.73C10.7694 15.9546 10.6851 16.095 10.5438 16.1231C10.3194 16.1231 11.9768 16.8813 11.7524 16.8813C11.7524 17.0498 10.4607 16.1231 10.4607 16.3477C10.5165 17.0217 8.77478 17.1902 9.42064 19.3806L9.58923 19.8299C9.81362 19.9423 10.7124 20.56 10.7124 20.7846C10.7409 21.234 9.14044 19.9984 9.14044 20.3072L10.6851 21.3463L10.6008 21.3744C10.7409 21.3463 11.1065 21.3463 11.2181 21.5429C11.1896 21.3463 11.2739 21.2901 11.4152 21.2901C11.3309 21.4306 11.471 21.4306 11.4995 21.5429C11.5838 21.5429 11.7239 21.5429 11.7239 21.5148C13.3528 22.3291 14.9532 23.34 16.4693 24.323C15.3747 26.9907 8.74747 33.0844 9.50494 34.3481C9.42064 34.3763 9.36485 34.4604 9.25206 34.4324C9.22475 34.5447 9.16775 34.6289 9.08465 34.6852C9.00035 34.9378 9.16777 35.1344 9.39334 35.1063C9.39334 35.1906 9.44914 35.2749 9.44914 35.3872C9.25206 35.3872 9.25206 35.7523 9.47764 35.6398C9.50494 35.331 9.9822 35.3872 10.1508 35.1344C10.1793 35.0783 10.1793 34.994 10.1235 34.966C10.1793 34.966 10.2078 34.9378 10.2636 34.9378C10.2351 35.0501 10.3194 35.1344 10.3194 35.2749C10.3479 35.3029 10.3764 35.331 10.4037 35.331C10.3764 35.331 10.3479 35.331 10.2921 35.3591C10.1793 35.5837 10.4037 35.7523 10.5165 35.5557C10.5165 35.4714 10.5165 35.4152 10.4607 35.3591C10.5723 35.4152 10.6566 35.3591 10.7967 35.3591V35.3872C10.8252 35.3872 10.8537 35.3591 10.881 35.3591H10.938C10.9938 35.3591 11.0222 35.4152 11.078 35.4152C11.1338 35.4152 11.1896 35.3872 11.2466 35.3872C11.2466 35.5837 11.2739 35.8926 11.471 35.8365C11.5268 35.7803 11.5553 35.7241 11.5838 35.6398C11.5838 35.7523 11.6681 35.7241 11.7524 35.6961C11.7797 35.6398 11.7797 35.5557 11.7524 35.4714C11.6681 35.5275 11.6396 35.5557 11.5838 35.5275V35.3872C11.4995 35.3872 11.471 35.3591 11.4152 35.331C11.471 35.3029 11.5268 35.2467 11.5838 35.1906L11.6111 35.3872C11.6681 35.3591 11.8355 35.3591 11.8355 35.2187H11.7524L11.7239 35.1626L11.8082 35.0783V34.994L11.7524 34.9378C11.7797 34.9098 11.7797 34.9098 11.7797 34.8817H11.8082C11.8355 34.8255 11.8355 34.7975 11.8082 34.7694C11.9198 34.7694 11.9483 34.8536 11.9483 34.9378C11.9483 35.1626 11.8925 35.3591 11.8925 35.5275C11.9768 35.5275 12.0611 35.4434 12.1169 35.3591C12.2012 35.4152 12.3413 35.4152 12.3413 35.4995L12.257 35.6398H12.3413L12.4256 35.5557C12.4256 35.5557 12.5384 35.4152 12.6785 35.1906C12.707 35.2749 12.7343 35.331 12.7913 35.331L12.7069 35.4714H12.6785C12.65 35.4714 12.65 35.4995 12.65 35.5275C12.5384 35.7241 12.4541 35.8646 12.4541 35.8926L12.5099 36.0892C12.5099 36.1735 12.4826 36.2297 12.4826 36.3138C12.4826 36.342 12.6226 36.4823 12.7069 36.4543L12.8471 36.4262V36.6508L12.8186 36.6228C12.7912 36.6789 12.8186 36.7351 12.8471 36.7351C12.8755 36.7071 12.8755 36.6789 12.8755 36.6789C12.8755 36.6228 12.9028 36.4543 13.0714 36.4543C13.0999 36.4543 13.2115 36.4262 13.2115 36.5105L13.0999 36.6789L13.2115 36.6508C13.3243 36.6508 13.3801 36.6228 13.4644 36.6228L13.4371 36.5105V36.4262C13.5772 36.4543 13.69 36.5105 13.7743 36.5946L13.9702 36.4823C14.083 36.37 14.083 36.2858 14.1946 36.2015C14.3359 36.0892 14.476 35.9207 14.5876 35.7523H14.7003V35.6398C14.7561 35.6398 14.8131 35.6118 14.8689 35.5837C15.1503 35.2187 15.4305 34.9378 15.8235 34.7413C15.852 34.7132 15.852 34.6289 15.8793 34.5727C16.3008 34.1796 16.5821 33.7304 16.9466 33.281C17.0309 33.1687 17.1152 33.0844 17.2553 33.0282C17.2838 33.0002 17.2838 32.8879 17.3123 32.8598L17.6768 32.5509C17.4239 33.281 16.0764 34.6852 15.7962 35.2749C15.459 35.331 14.7846 36.4262 14.8404 36.4543C15.3462 36.7351 15.852 35.5557 16.0206 35.5275C16.1322 35.3872 16.8623 34.3481 17.0879 34.1796C17.0879 34.3763 16.835 34.6009 16.8065 34.7975C16.5821 34.9098 16.1607 35.7241 16.3293 35.7241C16.3578 35.8365 17.0594 34.7132 17.0594 34.8255C17.3123 34.6289 17.0036 35.5275 17.5925 34.966C17.6495 34.9098 17.7053 34.8255 17.7896 34.7694C17.7611 34.7413 17.7338 34.6852 17.7611 34.657C17.7611 34.5727 17.7611 34.4886 17.9012 34.4324C17.8739 34.3481 17.9855 34.2639 18.014 34.2078C18.211 33.9269 18.547 33.7584 18.8284 33.5056C18.8842 33.4495 18.8842 33.3653 18.9685 33.3372C19.7272 32.8036 19.8399 32.1297 20.2887 31.4838L20.2602 31.4557L20.5131 31.1468C20.5131 31.1468 20.4858 31.1188 20.4858 31.0907C20.766 30.6976 21.2718 30.4167 21.552 30.0517C21.7491 29.7989 22.0292 29.2934 22.3664 28.9565L22.5077 28.788L22.6478 28.9003C22.6478 28.8441 22.6478 28.7598 22.7321 28.7598C22.7879 28.7598 22.8164 28.9003 22.7321 28.9003H22.7036C23.2094 29.2654 23.7994 29.8269 23.9668 29.9954H23.8837L23.7425 29.9674C23.7709 30.2202 24.0511 30.4448 24.304 30.4167L24.4453 30.3886L24.5854 30.5009L24.4726 30.6414L24.6697 30.5571H24.697C24.9226 30.529 25.1755 31.0625 25.5114 31.0907V31.0345C25.5114 31.0064 25.4272 30.9222 25.3999 30.894H25.5114C25.8486 30.866 26.1573 31.2311 26.5788 31.203C26.6073 31.568 26.6916 31.5681 27.113 31.5962L26.9718 31.6804C27.0561 31.6804 27.0845 31.7647 27.0845 31.8208C27.3089 31.8488 27.3374 31.9331 27.3932 32.0173C27.3932 31.9893 27.4217 31.9611 27.449 31.9611C27.4775 31.9611 27.4775 32.1016 27.449 32.1016C27.5333 32.1578 27.6461 32.1578 27.899 32.1016L27.8432 32.2421L27.7304 32.3544C27.7304 32.4667 27.9275 32.5509 27.9275 32.5509C27.9548 32.5509 28.0676 32.5509 28.0676 32.5228V32.6913C28.0949 32.6913 28.292 32.5228 28.292 32.5228L28.3205 32.5509V32.6633L28.292 32.6913L28.2362 32.8036C28.1792 32.8598 28.0949 32.9159 28.0106 32.9159H27.9833L27.9548 32.8879H27.9275C27.9275 32.8318 27.9275 32.7756 27.899 32.7756C27.9548 32.7475 27.899 32.6633 27.8432 32.6633ZM27.7589 10.1136V10.1979C27.8432 10.1136 27.9833 9.9732 28.0676 9.9732C28.1234 9.9732 28.2635 10.0013 28.3478 10.0013C28.2635 10.0855 28.1234 10.1136 28.1234 10.254L28.1519 10.3383C28.2077 10.254 28.4891 10.0013 28.5734 9.77663V9.94512C28.5734 10.1698 28.4891 10.1698 28.4606 10.3102L28.8536 9.8328V9.74855L28.7693 9.69238L29.0506 9.24308C29.0779 9.27116 29.1907 9.21499 29.3023 9.10266C29.275 9.13075 29.275 9.13075 29.3308 9.13075C29.3593 9.13075 29.3593 9.13075 29.3593 9.07458L29.3308 9.04651C29.7238 8.62528 30.3139 7.69858 30.3139 7.55817C30.1168 7.75474 29.9209 8.34446 29.5552 8.37254H29.5279C29.5552 8.28829 29.7238 8.11981 29.7523 7.92324C29.4151 8.14789 28.6565 8.82185 28.6565 9.18691L28.685 9.27116L28.7978 9.15883C28.7693 9.55198 28.5449 9.27116 28.4606 9.58006C28.4606 9.63622 28.4321 9.86088 28.4321 9.86088H28.3478L28.3205 9.72046C28.0949 9.74855 27.7589 9.88895 27.7589 10.1136ZM30.5668 32.6071C30.4825 32.6633 30.4825 32.7756 30.6226 32.8318L30.7354 32.7475L30.9882 32.9721L31.8585 33.7865C32.2515 34.0954 32.7287 34.4886 32.6729 34.4886C32.6171 34.4886 32.5328 34.4604 32.4486 34.4043L32.6445 34.6852C32.673 34.6852 32.673 34.657 32.7288 34.657C32.7846 34.657 32.7846 34.7413 32.7288 34.7413H32.7003V34.7694C32.5602 34.6289 32.4201 34.4604 32.2515 34.3201C31.8027 34.0392 31.437 33.5618 31.4085 33.4776C31.1283 33.2249 30.847 33.0002 30.5383 32.8036C30.511 32.8879 30.6511 32.9159 30.6226 32.9721C30.3697 32.8318 30.0895 32.5228 29.8924 32.4667C29.9767 32.5509 30.1453 32.6351 30.1453 32.7756C29.9494 32.6071 29.7808 32.4105 29.6395 32.1297C29.7808 32.1578 29.8651 32.2701 30.0052 32.3262C29.8651 32.1297 29.668 31.9893 29.4994 31.877C29.4994 31.9611 29.5837 32.0735 29.4994 32.1297C29.4709 32.0735 29.275 31.9893 29.275 31.7927C29.3308 31.877 29.3866 31.9611 29.4709 31.905C29.3308 31.7647 29.1907 31.5962 29.0221 31.4557C29.0221 31.3996 29.0221 31.3434 28.9663 31.2873C29.5552 31.7365 30.0895 32.2139 30.5668 32.6071ZM27.0003 19.9703C26.8032 19.9423 26.5515 20.1107 26.6916 20.3354L26.2701 20.7846C26.2986 20.6723 26.3259 20.56 26.3829 20.5038L26.4672 20.3635H26.523C26.5515 20.3354 26.523 20.2792 26.523 20.2511C26.6346 19.9984 26.6916 19.7175 26.8317 19.4367C27.0003 19.7175 27.3932 19.2964 27.0561 19.0998L26.8875 19.1559C26.8875 19.1278 26.8875 19.0998 26.916 19.0716C27.3089 18.7347 27.7589 18.5662 28.1519 18.2012C28.1234 18.2573 28.0949 18.2855 28.0949 18.3135C28.2077 18.2573 28.3763 18.0327 28.4321 18.0607C28.2635 18.3416 28.0676 18.5943 27.8705 18.8752C27.8705 18.7066 27.6746 18.5943 27.5333 18.7909C27.506 18.9032 27.6176 19.0436 27.7589 19.0155L27.6176 19.184C27.5618 19.1559 27.4775 19.184 27.3647 19.2401C27.3374 19.3244 27.3648 19.4087 27.3932 19.4929C27.2531 19.6333 27.1403 19.8018 27.0003 19.9703ZM23.7425 27.8612C23.7151 27.8051 23.6582 27.7209 23.6582 27.6647L23.8837 27.5524C23.9668 27.5524 24.0796 27.5804 24.1639 27.6366C23.9953 27.6647 23.8552 27.6927 23.8552 27.8332C23.911 28.0578 24.3883 27.9174 24.1924 27.6647C24.361 27.7489 24.5011 27.8894 24.6412 28.0017C24.754 28.086 24.8656 28.1701 24.9784 28.2263C24.7813 28.5072 25.147 29.0126 25.3714 28.6195C25.3998 28.6195 25.3999 28.5634 25.3999 28.5352L25.8213 28.8441C25.737 28.9565 25.68 29.0969 25.68 29.2372L23.7425 27.8612ZM8.52189 35.7803H8.49459C8.57889 35.6398 8.43878 35.3872 8.27019 35.6118C8.27019 35.7523 8.29751 35.8365 8.3818 35.8365L8.18589 35.9207C7.90452 36.2297 8.04462 36.7632 8.3818 36.7351C8.43879 36.7351 8.52189 36.6508 8.60619 36.6789C8.63468 36.5105 8.77477 36.342 8.77477 36.1454C8.77477 35.8646 8.57888 35.9488 8.52189 35.7803ZM31.1283 25.3339C31.0155 24.5476 29.9767 25.0812 30.3139 25.6147C30.511 25.8955 31.044 25.727 31.1283 25.3339ZM7.82022 36.7071C7.79173 36.5946 7.70863 36.5666 7.68013 36.5105C7.79173 36.342 7.68014 36.0611 7.45575 36.2577C7.45575 36.342 7.42725 36.3981 7.45575 36.4823C7.37145 36.5385 7.34295 36.6508 7.31446 36.7632C7.20286 36.8194 7.17437 36.9036 7.11857 37.0159C7.11857 37.3529 7.25866 37.5214 7.54004 37.4652C7.68014 37.3809 7.62433 37.1282 7.68013 36.9597C7.73593 36.8474 7.82022 36.8194 7.82022 36.7071ZM28.685 23.1716C28.8821 22.7503 28.6292 22.1888 28.0676 22.2729C27.899 22.638 28.0949 23.2839 28.685 23.1716ZM35.3407 38.757C35.2564 38.7851 35.2006 38.8131 35.2564 38.8974C35.1436 38.8693 35.0878 38.757 35.0035 38.7289C35.0035 38.6727 35.0878 38.7008 35.0878 38.6165C34.7221 38.1953 34.2734 37.9988 33.8804 37.6056C33.8246 37.5494 33.8519 37.718 33.7403 37.6617C33.5147 37.5494 33.4031 37.1563 33.206 36.9597C33.0944 36.9878 33.2903 37.1563 33.1502 37.1843C33.0374 37.1002 33.0944 36.9317 33.0944 36.8474V36.8194H33.2345C33.4874 37.0159 33.7118 37.2406 33.9362 37.4371C34.4704 37.8865 35.0035 38.3919 35.4808 38.8974C35.3965 38.9254 35.368 38.8413 35.3407 38.757ZM9.44914 35.7241C9.36485 35.6961 9.36485 35.8084 9.28055 35.8084C9.19626 35.8365 9.19624 35.7803 9.14044 35.8084C9.08464 35.8365 9.02766 35.9207 8.97186 35.9207C8.91606 36.0611 8.94337 36.2015 9.00035 36.2858C9.05615 36.3138 9.11196 36.3138 9.19626 36.2858C9.16777 36.37 9.16777 36.4543 9.19626 36.5666H9.42064C9.56193 36.4543 9.47764 36.1734 9.39334 36.1454H9.36485C9.36485 36.1172 9.39334 36.0892 9.39334 36.0611C9.47764 36.0331 9.50494 35.9769 9.53343 35.9207C9.53343 35.8084 9.53344 35.7241 9.44914 35.7241ZM12.0041 13.8204C11.9483 13.7081 11.8925 13.5677 11.7797 13.5115C11.6396 13.68 11.2739 13.68 11.3024 13.9608C11.3582 14.2697 11.9768 14.2135 12.0041 13.8204ZM24.3325 13.1464C24.4168 13.1464 24.4168 13.006 24.3325 13.006C24.5296 12.7252 24.7255 12.3882 24.8098 12.1636C24.4453 12.7252 23.6867 13.3149 23.6582 13.7923V13.8766C23.7151 13.8204 24.0238 13.4553 24.304 13.0341C24.304 13.0622 24.304 13.1464 24.3325 13.1464ZM30.5668 16.7971C30.3139 17.0217 30.0895 17.2464 29.9767 17.471C29.8651 17.4148 29.7523 17.3868 29.6395 17.443L30.3139 16.5443C30.3697 16.6567 30.454 16.769 30.5668 16.7971ZM12.9313 35.1344C12.8755 35.0783 12.8186 35.0501 12.7628 35.0783C13.2958 34.3481 14.2789 32.9721 14.3074 32.9721C14.3074 33.0564 13.4644 34.292 12.9313 35.1344ZM28.1519 21.908C28.292 21.8237 28.3763 21.7114 28.3478 21.4868C28.2635 21.4025 28.1519 21.3182 27.9275 21.3463C27.7304 21.5148 27.8432 21.9922 28.1519 21.908ZM33.656 9.29924L33.4874 9.21499C33.4874 9.15883 33.5147 9.07458 33.5147 9.01842C33.4031 9.13075 33.263 9.04651 33.1217 9.24308H33.206C33.2345 9.24308 33.2903 9.18691 33.3188 9.15883C33.2903 9.3554 33.1217 9.43965 33.1217 9.60813H33.206L33.3746 9.72046H33.4589C33.599 9.63622 33.656 9.49581 33.656 9.3554V9.29924ZM27.0288 32.3544H27.0003V32.2982C27.0003 32.3262 27.0288 32.3262 27.0288 32.3544C27.0003 32.2421 26.9445 32.1859 26.8875 32.1297H26.916C26.9445 32.1297 26.9718 32.1016 26.9718 32.0735C27.0003 32.1297 27.0561 32.1859 27.113 32.2421C27.113 32.2982 27.1404 32.3544 27.1689 32.3544C27.1974 32.3544 27.1974 32.3262 27.2247 32.2982C27.2247 32.3262 27.2531 32.3262 27.2816 32.3544L27.2247 32.2701C27.2247 32.2139 27.1974 32.1578 27.1404 32.1578C27.0561 31.9893 26.9445 31.8488 26.8032 31.7927L26.8875 31.9611C26.8602 31.9893 26.8602 32.0735 26.8875 32.1297C26.7474 31.9893 26.5788 31.9331 26.4945 31.7085C26.4945 31.6804 26.523 31.6804 26.5788 31.6804C26.523 31.6523 26.4945 31.6242 26.4945 31.5962C26.4945 31.6242 26.4945 31.6804 26.4387 31.6804C26.3544 31.7085 26.3259 31.5962 26.2416 31.568C26.2986 31.6804 26.3544 31.7647 26.4102 31.8208C26.3259 31.8208 26.3259 31.9893 26.4102 31.9893C26.4387 31.9893 26.4672 31.877 26.4387 31.8488L26.523 31.9331C26.4945 31.9611 26.4945 32.0735 26.5515 32.0735C26.6073 32.0735 26.6346 32.0173 26.6073 31.9893C26.6346 31.9893 26.6346 32.0173 26.6631 32.0173C26.6073 32.0735 26.6346 32.1578 26.6916 32.1578C26.7189 32.1578 26.7474 32.1297 26.7474 32.1016L26.8032 32.1578H26.7759C26.7189 32.1578 26.7474 32.2982 26.8032 32.2982C26.8602 32.2701 26.8602 32.2139 26.8317 32.1859L26.9445 32.2701C26.8875 32.2701 26.8875 32.3824 26.9445 32.3824C26.9718 32.3824 26.9718 32.3824 27.0003 32.3544C26.9445 32.3824 26.9445 32.4947 27.0288 32.4947C27.113 32.4947 27.113 32.3544 27.0288 32.3544ZM27.0288 29.7989C27.0003 29.7989 26.9718 29.7989 26.9445 29.8269L27.0288 29.7708C27.3647 29.9954 27.6746 30.2482 28.0106 30.5009C27.899 30.4728 27.7304 30.529 27.7304 30.6976L27.6746 30.6414C27.6176 30.5571 27.6461 30.5009 27.6461 30.4448C27.5333 30.3886 27.4217 30.3043 27.309 30.2202C27.3374 30.2202 27.3374 30.192 27.3374 30.192C27.2816 30.0236 27.1688 30.0236 27.0845 30.1079C27.0287 30.1079 27.0003 30.0797 26.9718 30.0797C27.0561 30.0797 27.1404 29.8831 27.0288 29.7989ZM31.6899 16.2073C31.5771 16.1231 31.6614 15.9827 31.6341 15.8704C31.437 15.8142 31.2684 15.7861 31.1283 16.0108C31.1841 16.2916 31.5213 16.2635 31.6899 16.2073ZM34.8064 29.8551C34.6948 29.7708 34.5262 29.6866 34.3292 29.8269C34.3292 29.9112 34.2734 29.9954 34.3292 30.1359C34.4977 30.2482 34.8634 30.0797 34.8064 29.8551ZM33.9932 35.6118C33.9089 35.6961 32.8973 34.9098 32.9531 34.8536C33.0659 34.8255 34.1048 35.5837 33.9932 35.6118ZM28.3478 19.8861C28.0106 20.4197 27.6461 20.9532 27.1404 21.4868C27.4775 20.9532 27.8705 20.4197 28.3478 19.8861ZM30.1453 8.26021V8.37254C30.3424 8.31638 30.6511 7.89516 30.6511 7.72666C30.4267 7.83899 30.1168 8.00748 30.1453 8.26021ZM33.7118 7.69858L32.8415 8.65336C33.0659 8.56911 33.7118 8.06364 33.7118 7.72666V7.69858ZM29.6395 25.1373C29.668 25.2216 29.7238 25.3058 29.7808 25.3619C29.6965 25.3619 29.7238 25.5305 29.8081 25.5305C29.8651 25.5305 29.8651 25.3901 29.8081 25.3619C30.3424 25.2496 29.7808 24.7161 29.6395 25.1373ZM9.9549 35.9207C9.98221 35.8365 9.9549 35.6398 9.87061 35.6118C9.78632 35.5837 9.70202 35.668 9.61773 35.7241C9.58923 35.8365 9.64622 35.9769 9.67353 36.0892C9.78631 36.0892 9.92641 36.0049 9.9549 35.9207ZM14.4475 12.5286L14.6719 12.641C14.7288 12.5848 14.8404 12.5567 14.8404 12.4163C14.7846 12.3321 14.6718 12.304 14.616 12.2759C14.616 12.1074 14.476 12.1355 14.3917 12.2197C14.3632 12.3882 14.5318 12.3601 14.4475 12.5286ZM14.1103 13.343C13.9987 13.2588 13.7743 13.2868 13.7173 13.3992C13.5487 13.7362 14.2516 13.7642 14.1103 13.343ZM11.2739 36.5666C11.2739 36.4543 11.1896 36.5385 11.0222 36.4543C10.9379 36.3981 10.9653 36.2015 10.7967 36.342C10.7409 36.4543 10.8252 36.5946 10.881 36.6508C10.9653 36.6228 11.0222 36.5666 11.0495 36.6508C11.0495 36.7351 11.0222 36.7632 11.078 36.8194C11.1896 36.7632 11.3024 36.6789 11.2739 36.5666ZM12.5942 35.8646C12.5657 35.8646 12.6226 35.7523 12.7069 35.6118C12.7342 35.5837 12.7343 35.5837 12.7343 35.5557C12.9598 35.2467 13.3243 34.7694 13.3801 34.7694C13.4644 34.7694 12.6785 35.8365 12.5942 35.8646ZM32.5886 27.2154C32.5328 27.2154 32.5043 27.2154 32.4759 27.1592C32.28 27.2154 32.1672 27.2996 32.2515 27.4963C32.3643 27.6647 32.7287 27.4681 32.5886 27.2154ZM32.5328 9.55198C32.5044 9.55198 32.4201 9.52389 32.4201 9.43965C32.3916 9.52389 32.3073 9.6643 32.3358 9.72046V9.77663H32.4486L32.5601 9.86088H32.6729C32.7572 9.86088 32.7845 9.72046 32.7572 9.63622L32.6729 9.72046L32.7288 9.46773C32.7003 9.52389 32.6171 9.55198 32.5328 9.55198ZM28.0676 30.7537C28.0949 30.6976 28.1234 30.6414 28.0949 30.6133V30.5852L28.9379 31.2591H28.7693C28.5449 31.0625 28.292 30.894 28.0676 30.7537ZM32.3916 33.9269C32.3358 33.9269 31.2126 32.8879 31.2684 32.8879C31.3527 32.8879 32.4759 33.8989 32.3916 33.9269ZM10.095 35.9488C10.0665 36.1172 10.1793 36.2858 10.2351 36.3981C10.3194 36.3981 10.3479 36.342 10.4037 36.2858C10.3764 36.0892 10.3194 35.7803 10.095 35.9488ZM31.4928 7.22119C31.7742 6.96846 31.9713 6.60339 32.1387 6.29449H32.1114L31.437 7.13694L31.4928 7.22119ZM31.4085 8.51296H31.4928L31.5498 8.62528L30.9882 9.13075C30.9882 8.99034 31.3242 8.51296 31.4085 8.51296ZM26.6916 32.5228C26.5788 32.4105 26.4102 32.2982 26.2701 32.1578C26.1858 32.1016 25.8771 31.7647 25.9887 31.905C26.4387 32.4667 27.0288 32.8036 27.6176 33.4215C27.3647 33.0002 27.0003 32.8036 26.6916 32.5228ZM9.9549 34.966C9.81362 34.9098 9.70202 34.8817 9.50494 34.966L9.73052 34.7694C9.70202 34.5727 9.58924 34.5727 9.56193 34.4324C9.61773 34.4886 9.70202 34.5166 9.78632 34.5447C9.87061 34.5447 9.81362 34.8536 9.81362 34.8536L9.92641 34.9378V34.6289C9.9549 34.6289 9.9549 34.6009 9.9822 34.6009C9.9822 34.5447 9.98221 34.5166 9.9549 34.4886C9.9549 34.4604 9.98221 34.4324 10.0107 34.4324C10.0107 34.4324 10.0392 34.5166 10.095 34.6009C10.0665 34.6009 10.0392 34.6009 10.0107 34.6289C9.92641 34.7413 9.9549 34.8536 10.0392 34.9098C10.0107 34.9098 9.98221 34.9378 9.9549 34.966ZM26.1573 31.5962L25.6242 31.175H25.5399L25.6527 31.3153V31.3996L25.5399 31.3153C25.5957 31.5399 25.9887 31.568 26.1573 31.6523V31.5962ZM30.6511 24.4634C30.8197 24.6319 31.0725 24.4353 30.9882 24.2107C30.8196 24.1545 30.5668 24.2668 30.6511 24.4634ZM9.42064 36.9317C9.08465 36.9317 9.16776 37.3809 9.36485 37.2968C9.53344 37.2406 9.56193 37.0159 9.42064 36.9317ZM8.43879 38.8131C8.5219 38.7288 8.49459 38.5885 8.46609 38.4762C8.12891 38.3639 8.12892 39.0659 8.43879 38.8131ZM12.2297 36.3138C12.1169 36.5946 12.3413 36.7351 12.5384 36.5946C12.5099 36.37 12.3983 36.2858 12.2297 36.3138ZM9.87061 36.342C9.78632 36.4543 9.84211 36.6508 9.92641 36.6789C10.1508 36.6508 10.1508 36.3981 10.0665 36.2858C9.9822 36.342 9.98221 36.3138 9.87061 36.342ZM12.7069 13.5396C12.5942 13.5396 12.4826 13.5115 12.3983 13.4553C12.3698 13.5677 12.3413 13.7081 12.4256 13.7923C12.6226 13.8204 12.7342 13.7362 12.7069 13.5396ZM31.5213 25.6147C31.3527 25.6709 31.2969 25.7552 31.3242 25.8955C31.5213 26.0921 31.8027 25.699 31.5213 25.6147ZM27.0003 11.2369L26.6073 11.8547C26.6073 11.9389 26.6073 12.0512 26.5788 12.0512L26.4945 11.8547C26.5515 11.6862 26.8032 11.3492 27.0003 11.2369ZM12.9028 13.5957C13.0441 13.5677 13.1557 13.4834 13.1284 13.3149C12.9871 13.1464 12.7343 13.3711 12.8471 13.5677C12.8755 13.5677 12.9028 13.5677 12.9028 13.5957ZM36.408 40.3858C36.0982 40.133 35.7895 39.8802 35.5366 39.5433C35.8465 39.7679 36.1552 40.0487 36.408 40.3858ZM32.8973 9.91703C33.0101 9.9732 32.9531 10.2821 33.1502 10.2821L33.1217 9.8328C33.0101 9.8328 32.8973 9.8328 32.8973 9.91703ZM30.2296 10.3663C30.2296 10.5068 30.1168 10.6752 30.0052 10.6752H29.8924L30.0325 10.5068H29.8651C29.8924 10.3663 30.1168 10.3663 30.2296 10.3663ZM27.7019 23.6771V23.5648C27.6746 23.5648 27.0846 23.0593 27.0561 23.0593C27.0561 23.0874 27.5903 23.649 27.5903 23.649L27.7019 23.6771ZM33.2345 27.5243C33.1502 27.4963 33.0101 27.5524 32.9531 27.6086C32.9816 27.9455 33.4589 27.7209 33.2345 27.5243ZM25.5684 12.9499C25.5684 13.0341 25.5957 13.1745 25.5957 13.1745L25.5114 13.2588C25.4556 13.2588 25.0342 13.7642 24.9499 13.8766L25.5684 12.9499ZM10.4607 36.4543C10.4322 36.6228 10.2078 36.9317 10.5165 36.8474C10.5438 36.7071 10.6566 36.5385 10.5438 36.4262C10.5165 36.4262 10.488 36.4543 10.4607 36.4543ZM34.5547 31.8488H34.582C34.7221 31.8488 34.9192 32.0735 34.975 32.1578C34.7791 32.1578 34.6105 31.9893 34.4419 31.9611L34.5547 31.8488ZM32.7288 6.85612C32.8415 6.82805 32.9816 6.82805 33.0659 6.60339H32.9816L32.8415 6.68764V6.60339C32.813 6.54722 32.813 6.49107 32.8973 6.46299C32.7003 6.51915 32.7287 6.79997 32.5886 6.85612H32.7288ZM33.2903 37.6617C33.599 37.4933 33.8804 37.9988 34.1606 38.2516C33.7961 38.2234 33.656 37.5494 33.2903 37.6617ZM33.7118 31.0345L33.8519 31.175V31.0345C33.9647 31.0064 34.0763 31.0064 34.1048 31.1468C34.0763 31.1468 33.9362 31.203 33.8519 31.2311H33.7403C33.7118 31.2311 33.6275 31.2311 33.6275 31.175L33.7118 31.0345ZM6.78138 37.2125C6.78138 37.3529 6.80987 37.3809 6.86567 37.4371C7.20285 37.2968 6.94997 36.8755 6.78138 37.2125ZM26.2986 29.4619C26.2416 29.4057 26.13 29.4338 26.0457 29.49L25.9329 29.4057C26.0457 29.3496 26.1573 29.2654 26.2701 29.1811L26.3829 29.2654C26.2986 29.3215 26.3259 29.4057 26.2986 29.4619ZM32.8688 36.8194C32.813 36.8194 32.7572 36.8194 32.7003 36.7912C32.6445 36.7351 32.6171 36.6789 32.5886 36.6228C32.6729 36.6789 32.7572 36.7071 32.8415 36.7071L32.813 36.5385H32.8973L33.0944 36.7071C33.0101 36.7351 32.9258 36.7632 32.8688 36.8194ZM34.2449 28.6757C34.1891 28.5914 34.0205 28.6195 33.9647 28.7318C33.9647 28.816 34.0205 28.8441 34.049 28.9003C34.1891 28.9283 34.3019 28.8441 34.2449 28.6757ZM32.7288 29.8269C32.7288 29.9393 32.7002 30.0517 32.6171 30.0517H32.5328L32.5886 29.9674C32.4485 29.9674 32.3643 29.8269 32.3643 29.7428H32.5044V29.8269H32.7288ZM35.1721 32.9721C35.0035 32.9721 34.8634 32.9159 34.7791 32.7756C34.7791 32.7475 34.8634 32.7475 34.9477 32.7475C35.0878 32.7194 35.1721 32.8318 35.1721 32.9721ZM7.20286 38.1111L7.31446 38.0549C7.54004 37.5776 6.92149 37.8303 7.20286 38.1111ZM26.7474 10.9841C26.7189 11.265 26.6073 11.4896 26.3544 11.4896L26.7474 10.9841ZM8.85907 34.966C8.80327 34.966 8.74747 34.9098 8.69048 34.9098C8.55038 35.0221 8.69048 35.1626 8.74747 35.2467C8.85907 35.1906 8.88756 35.1063 8.85907 34.966ZM34.582 30.9502C34.6948 30.9222 34.7506 30.866 34.6948 30.7256H34.6663V30.6694H34.6105L34.639 30.7256C34.5547 30.6976 34.4704 30.7537 34.4704 30.8099L34.3862 30.8379L34.5262 30.9783L34.582 30.9502ZM14.6719 14.1574C14.7562 14.2135 14.8974 14.1574 14.9532 14.1012C14.9817 13.8204 14.6161 13.9327 14.6719 14.1574ZM33.0659 30.2482C33.0659 30.3043 33.0659 30.3043 33.1217 30.3886C33.1217 30.3886 32.9816 30.4728 32.8973 30.4728L32.7572 30.4167C32.7845 30.2763 32.9531 30.2482 33.0659 30.2482ZM33.4874 26.5415C33.3461 26.5695 33.263 26.6256 33.263 26.738C33.2903 26.738 33.3188 26.738 33.3188 26.7941C33.4874 26.8223 33.656 26.6538 33.4874 26.5415ZM26.1573 22.0483C26.2416 22.1045 26.1015 22.2168 25.9614 22.3291C26.0172 22.3854 26.073 22.4134 26.1858 22.3011C26.1573 22.3854 26.073 22.4977 26.0172 22.5819C25.9614 22.5257 25.9056 22.4696 25.8771 22.4134L26.1573 22.0483ZM12.1169 36.0611C12.0611 36.1454 12.0041 36.2015 12.0041 36.3138C12.0611 36.342 12.0884 36.37 12.1454 36.37L12.257 36.2577C12.2297 36.1454 12.2012 36.0611 12.1169 36.0611ZM37.9799 38.3919C38.12 38.42 38.2886 38.4762 38.2613 38.6165L38.0927 38.7008C38.0927 38.5604 37.98 38.448 37.8957 38.3919H37.9799ZM24.8941 30.4728C24.697 30.5009 24.4726 30.2763 24.4453 30.164L24.8941 30.3886V30.4728ZM31.6056 16.6285C31.5213 16.5724 31.437 16.6005 31.3812 16.5724C31.2411 16.7128 31.5213 16.9094 31.6056 16.769V16.6285ZM33.263 11.7143L33.3461 11.6862C33.3461 11.6862 33.3746 11.4896 33.3746 11.4054C33.263 11.4615 33.0659 11.7143 33.1217 11.7423C33.1217 11.7704 33.263 11.7143 33.263 11.7143ZM14.3632 12.9218C14.2789 12.8375 14.1388 12.8656 14.083 12.9779C14.083 13.0341 14.1388 13.0622 14.1673 13.1184C14.2789 13.1184 14.3632 13.0341 14.3632 12.9218ZM32.1672 8.70953V8.82185L31.6056 9.41156C31.7457 9.18691 31.9428 8.93418 32.1672 8.70953ZM29.4436 8.51296V8.54103C29.3593 8.73761 29.3308 8.84993 29.1907 8.87801H29.1064C29.1907 8.79376 29.3023 8.51296 29.4436 8.51296ZM31.8027 26.6538C31.7457 26.6538 31.7457 26.6256 31.7184 26.6256C31.5771 26.6538 31.5498 26.7099 31.5498 26.8223C31.6056 26.8223 31.6056 26.8784 31.6341 26.8784C31.7742 26.8503 31.83 26.7661 31.8027 26.6538ZM36.9411 32.4385C36.9696 32.5228 36.9411 32.6352 36.8568 32.6633L36.9696 32.8036V32.6633C37.1097 32.6352 37.1097 32.7194 37.194 32.7194C37.194 32.6071 37.0812 32.4947 36.9411 32.4385ZM11.3024 36.8194C11.3582 36.9317 11.2466 36.9317 11.2181 36.9597V37.1002C11.3582 37.072 11.3309 36.9597 11.4425 36.9878C11.5268 36.8474 11.4152 36.7071 11.3024 36.8194ZM24.9226 30.529H25.0342C25.147 30.529 25.2871 30.6694 25.3156 30.8099C25.1755 30.8379 25.0342 30.6133 24.9226 30.529ZM8.74747 37.3809C8.66318 37.4933 8.71897 37.6899 8.88756 37.6056C8.97186 37.4933 8.88757 37.2968 8.74747 37.3809ZM27.899 11.293H27.9548L27.5903 11.7704V11.6581C27.5903 11.5458 27.7589 11.4054 27.899 11.293ZM35.9866 33.253C36.0708 33.2249 36.1552 33.281 36.211 33.3653L36.0151 33.5338L35.9866 33.4495L35.9308 33.253H35.9866ZM34.1048 31.5119C34.2176 31.5119 34.3292 31.5962 34.4419 31.5962V31.7365C34.3292 31.7365 34.1048 31.6523 34.1048 31.5119ZM32.1672 34.5166C32.0544 34.5727 31.9713 34.3763 31.9986 34.292C32.1387 34.2358 32.3073 34.4324 32.1672 34.5166ZM23.4896 29.4057H23.4338L22.985 29.0407C23.0693 29.0688 23.378 29.2372 23.4623 29.2372C23.4896 29.2654 23.4622 29.3777 23.4896 29.4057ZM28.6007 31.4557C28.4891 31.3996 28.3478 31.3153 28.3205 31.2311C28.4606 31.203 28.5449 31.2591 28.6565 31.3153C28.6292 31.3714 28.6007 31.3996 28.6007 31.4557ZM30.3982 8.93418C30.3982 8.68144 30.5383 8.79376 30.6784 8.68144L30.7069 8.70953L30.3982 9.01842V8.93418ZM31.8585 15.2526C31.6341 15.4211 31.5213 15.5615 31.5213 15.7019C31.6614 15.6457 31.7742 15.393 31.8585 15.2526ZM8.12892 37.7742C8.18591 37.6899 8.18591 37.4933 8.04463 37.5494C7.93302 37.6337 7.96033 37.8583 8.12892 37.7742ZM13.9144 12.5567C13.9702 12.5286 14.0545 12.5006 14.026 12.3882C13.9417 12.304 13.7743 12.3882 13.7743 12.4725C13.8301 12.5006 13.8301 12.5848 13.9144 12.5567ZM8.69048 35.4714C8.71897 35.4152 8.69048 35.3029 8.69048 35.2467C8.63468 35.2749 8.63468 35.2187 8.55039 35.2749C8.49459 35.3872 8.55038 35.5275 8.69048 35.4714ZM14.5602 14.7471L14.5317 14.5786L14.1946 14.4663C14.1946 14.4944 14.5044 14.7471 14.5602 14.7471ZM31.5498 35.8084H31.7184C31.7742 35.9207 31.8585 36.0331 31.9713 36.1454C31.8027 36.0611 31.6614 35.9488 31.5498 35.8084ZM36.6882 33.4776C36.744 33.4776 36.744 33.3653 36.6882 33.3372C36.744 33.3092 36.7167 33.1968 36.6609 33.1968C36.5481 33.1968 36.5481 33.3092 36.6324 33.3372C36.5481 33.3653 36.5766 33.4776 36.6882 33.4776ZM34.4977 32.8598C34.582 32.8598 34.6105 32.9721 34.5262 33.0002C34.6105 33.0282 34.6105 33.1407 34.5262 33.1407C34.4419 33.1687 34.4135 33.0282 34.4977 33.0002C34.4135 33.0282 34.4135 32.8879 34.4977 32.8598ZM34.4704 8.23213C34.4135 8.23213 34.2449 8.28829 34.2449 8.48486L34.3292 8.45679C34.4135 8.45679 34.4704 8.34446 34.4704 8.23213ZM33.263 37.4091C33.0101 37.4091 32.8688 37.2686 32.7003 37.1002C32.7846 37.1563 33.0944 37.2968 33.263 37.4091ZM25.2028 11.6862C25.2028 11.6862 25.3156 11.6019 25.3156 11.4896C25.2871 11.5177 25.0912 11.6862 25.0912 11.7143C24.9784 12.1355 25.0627 11.9389 25.2028 11.6862ZM30.3982 7.64242L30.6226 7.50201C30.5383 7.50201 30.5383 7.41776 30.5383 7.33352H30.454L30.3982 7.64242ZM8.0731 35.4434C8.0731 35.331 8.04463 35.2749 7.96033 35.3029C7.79174 35.3872 7.96031 35.6398 8.0731 35.4434ZM27.8705 33.1407L27.899 33.2249C27.899 33.3653 27.9833 33.4495 28.1234 33.5056H28.1519C28.1234 33.4215 27.9833 33.3092 27.9833 33.2249L27.8705 33.1407ZM9.28055 38.3077C9.25206 38.42 9.33635 38.5042 9.42064 38.4762C9.42064 38.42 9.50494 38.42 9.47764 38.3357C9.44914 38.2796 9.39334 38.2516 9.28055 38.3077ZM30.5952 15.056C30.6784 15.0841 30.6226 15.1402 30.6784 15.1683C30.7912 15.1402 30.7627 15.0841 30.8197 14.9998C30.7069 14.9156 30.651 14.9156 30.5952 15.056ZM24.2482 27.9735C24.2482 28.0578 24.1354 28.086 24.1924 28.1701C24.2767 28.1983 24.3325 28.1701 24.3883 28.114C24.361 28.0017 24.304 27.9735 24.2482 27.9735ZM35.8738 34.6009L35.8465 34.4324H35.9023C35.9023 34.4324 36.1552 34.5447 36.2395 34.5447L35.8738 34.6009ZM32.8973 7.95131L33.0101 7.58625L32.8973 7.64242C32.8973 7.64242 32.7846 7.95131 32.8973 7.95131ZM8.80327 36.2297C8.66317 36.4543 9.00035 36.4823 8.94336 36.2297C8.88756 36.2297 8.85907 36.2015 8.80327 36.2297ZM10.5438 38.2516C10.5438 38.2796 10.5165 38.2796 10.488 38.3077C10.488 38.3919 10.488 38.42 10.5438 38.4762C10.6281 38.4762 10.6281 38.42 10.6566 38.3639C10.6566 38.3077 10.6008 38.2516 10.5438 38.2516ZM34.1048 9.86088V9.77663C33.9647 9.86088 33.9089 9.94512 33.9089 10.0855L33.9362 10.1417L34.049 9.91703L34.1048 9.86088ZM26.2416 11.7143H26.3259L25.9887 12.0793C26.0457 11.8828 26.1858 11.7423 26.2416 11.7143ZM34.6663 8.00748C34.6663 7.95131 34.639 7.89516 34.582 7.89516C34.5262 7.89516 34.5547 8.09172 34.6105 8.09172C34.639 8.09172 34.639 8.11981 34.6948 8.11981C34.7791 8.11981 34.7506 8.00748 34.6663 8.00748ZM28.6565 18.4539L28.292 18.819L28.6007 18.3696L28.6565 18.4539ZM34.1333 8.96226H34.049C33.9089 8.96226 33.8519 9.04651 33.8804 9.10266C34.0205 9.10266 34.0763 9.10266 34.1333 8.96226ZM31.4928 8.26021C31.4928 8.28829 31.2684 8.51296 31.1841 8.54103C31.0998 8.54103 31.4928 8.17597 31.4928 8.26021ZM29.8651 7.92324C29.8924 7.89516 30.061 7.67049 30.061 7.58625C29.8651 7.67049 29.8651 7.81091 29.8651 7.92324ZM28.4891 33.7865H28.4606C28.4321 33.7304 28.4321 33.7023 28.4048 33.7023C28.3763 33.7304 28.3763 33.8707 28.4048 33.8427H28.4321C28.4048 33.8989 28.4321 33.9269 28.4891 33.9269C28.6007 33.9269 28.6007 33.7865 28.4891 33.7865ZM35.818 33.5338L35.7337 33.6181C35.6779 33.6181 35.4808 33.5056 35.4808 33.4495L35.818 33.5338ZM30.3139 7.19311L30.1738 7.3616V7.44584C30.2854 7.41776 30.3139 7.33352 30.3982 7.27736L30.3139 7.19311ZM30.7627 9.88895C30.6784 9.88895 30.6784 9.77663 30.7354 9.74855C30.6511 9.72046 30.6511 9.60813 30.7354 9.60813C30.7912 9.58006 30.8196 9.72046 30.7627 9.74855C30.8196 9.72046 30.8196 9.86088 30.7627 9.88895ZM33.9089 7.08079C33.8804 7.08079 33.8519 7.10887 33.8519 7.10887C33.8804 7.08079 33.8804 7.0527 33.8804 6.99654C33.8804 6.94037 33.6833 7.16502 33.7676 7.16502C33.7961 7.16502 33.8246 7.13694 33.8519 7.10887C33.8246 7.16502 33.8519 7.22119 33.9089 7.22119C33.9647 7.22119 33.9647 7.08079 33.9089 7.08079ZM34.2176 8.59719C34.1333 8.62528 34.049 8.68144 33.9932 8.73761V8.82185C34.049 8.82185 34.2176 8.73761 34.2176 8.59719ZM11.5268 35.9488C11.4425 36.0331 11.471 36.2015 11.6111 36.1172C11.6681 36.0331 11.6111 35.9207 11.5268 35.9488ZM37.0254 37.044C37.0254 37.1563 36.8283 37.1563 36.8283 37.044C36.8283 36.9597 37.0254 36.9597 37.0254 37.044ZM36.9696 34.7694C37.0539 34.7694 37.0539 34.966 36.9696 34.966C36.8568 34.966 36.8568 34.7694 36.9696 34.7694ZM27.5618 10.8718C27.5333 10.8437 27.5333 10.7314 27.5618 10.7314C27.6461 10.7314 27.6746 10.8718 27.5903 10.8718H27.5618C27.5903 10.8999 27.5903 11.0403 27.5618 11.0403C27.449 11.0403 27.449 10.8718 27.5618 10.8718ZM32.1387 28.114C32.1957 28.114 32.1672 27.9735 32.1114 27.9735C32.1114 27.9455 32.0829 27.8894 32.0271 27.8894C31.9713 27.8894 31.9986 28.0298 32.0544 28.0298C32.0544 28.0578 32.0829 28.114 32.1387 28.114ZM37.3626 33.3092H37.3899C37.3899 33.3372 37.4184 33.3653 37.4469 33.3653C37.5585 33.3372 37.5585 33.1968 37.4469 33.2249H37.4184C37.4184 33.1968 37.3899 33.1687 37.3626 33.1687C37.3341 33.1687 37.3341 33.3092 37.3626 33.3092ZM14.4475 12.7533C14.4475 12.641 14.3632 12.641 14.2789 12.641C14.2789 12.669 14.2516 12.6971 14.2231 12.7533C14.2789 12.7814 14.3917 12.7814 14.4475 12.7533ZM32.3358 29.0688C32.3916 29.0688 32.3916 29.0969 32.3916 29.1531C32.3916 29.1531 32.3916 29.1249 32.4201 29.1249C32.4759 29.1249 32.4759 29.2654 32.4201 29.2654C32.3643 29.2934 32.3358 29.2372 32.3643 29.1811H32.3358C32.2515 29.1811 32.2515 29.0688 32.3358 29.0688ZM33.5717 30.1359V30.0517C33.5432 30.0236 33.4874 29.9954 33.4589 29.9954H33.4304C33.4589 30.0517 33.4589 30.2202 33.4589 30.2763L33.5717 30.1359ZM27.4775 11.4334C27.5903 11.4334 27.5903 11.63 27.4775 11.63C27.3932 11.63 27.3932 11.4334 27.4775 11.4334ZM30.4825 12.8937C30.4825 12.7533 30.5668 12.6129 30.7354 12.6129L30.4825 12.8937ZM28.8536 8.40063C28.9379 8.40063 28.9094 8.20406 28.8251 8.20406C28.7408 8.20406 28.7693 8.40063 28.8536 8.40063ZM30.3139 10.1136C30.4267 10.1136 30.454 10.2821 30.3424 10.2821C30.2581 10.3102 30.2296 10.1417 30.3139 10.1136ZM23.9668 29.8269C23.8837 29.8269 23.8552 29.6305 23.9395 29.6305C24.0238 29.6305 24.0511 29.8269 23.9668 29.8269ZM34.9192 31.3996V31.175L34.7791 31.2591C34.7791 31.3434 34.8634 31.3996 34.9192 31.3996ZM9.9822 13.7923C10.0107 13.6519 9.8706 13.6519 9.81362 13.7081V13.7923C9.89791 13.7923 9.9264 13.8485 9.9822 13.7923ZM28.7135 34.0673C28.6292 34.0673 28.6565 34.2358 28.7408 34.2358C28.8536 34.2358 28.8251 34.0673 28.7135 34.0673ZM14.4202 13.7081C14.3917 13.68 14.2516 13.68 14.2231 13.7362V13.8204C14.3359 13.8204 14.4202 13.7923 14.4202 13.7081ZM26.073 12.5567C26.073 12.6971 25.9329 12.7814 25.8486 12.7814H25.7928C25.8486 12.6971 26.0172 12.641 26.073 12.5567ZM26.6346 29.8831C26.6631 29.9112 26.6916 29.9112 26.7474 29.9112C26.8032 29.9112 26.8317 29.8831 26.8602 29.8831C26.8317 29.9112 26.8317 29.9674 26.8875 30.0236C26.916 30.0797 26.9445 30.0797 26.9718 30.0797H26.916L26.6346 29.8831ZM30.3697 12.5286C30.4267 12.5286 30.454 12.641 30.3982 12.669C30.454 12.6971 30.454 12.8095 30.3982 12.8095C30.3697 12.8375 30.3424 12.6971 30.3697 12.669C30.3424 12.6971 30.3424 12.5567 30.3697 12.5286ZM34.8907 7.83899C34.975 7.83899 34.975 7.64242 34.8907 7.64242C34.8064 7.67049 34.8064 7.83899 34.8907 7.83899ZM31.4655 9.55198L31.4085 9.69238C31.4085 9.69238 31.2411 9.60813 31.2411 9.52389C31.2684 9.52389 31.437 9.58006 31.4655 9.55198ZM28.9936 9.60813L29.2192 9.32733H29.1349C29.1349 9.32733 28.9936 9.46773 28.9936 9.55198V9.60813ZM13.2685 37.2406C13.1557 37.2686 13.1557 37.4371 13.2685 37.4091C13.3528 37.4091 13.3528 37.2406 13.2685 37.2406ZM32.7288 28.4791C32.7572 28.4229 32.7288 28.3106 32.6445 28.3386C32.6445 28.3948 32.5601 28.4229 32.5601 28.4791C32.6444 28.4509 32.6445 28.5352 32.7288 28.4791ZM33.4589 7.33352V7.47393L33.599 7.16502C33.4589 7.16502 33.4589 7.24927 33.4589 7.33352ZM23.911 13.9889C23.9953 13.9889 23.9953 14.1574 23.911 14.1574C23.7994 14.1574 23.7994 13.9889 23.911 13.9889ZM31.6341 5.92943C31.7184 5.90135 31.7184 5.70478 31.6341 5.73285C31.5498 5.73285 31.5498 5.92943 31.6341 5.92943ZM28.0391 30.9502C28.0949 30.8379 27.9833 30.9222 27.9275 30.894V30.8099C27.9548 30.8099 27.9833 30.8099 28.0106 30.7817C28.0676 30.8379 28.1234 30.894 28.1519 30.9783C28.0949 30.894 28.0676 30.9502 28.0391 30.9502ZM29.1064 16.5443C29.1622 16.5443 29.1907 16.4882 29.1907 16.432C29.1622 16.3759 29.1349 16.4039 29.0779 16.3759C29.0221 16.4601 29.0221 16.5162 29.1064 16.5443ZM35.6779 38.2234C35.5651 38.1111 35.4523 38.0549 35.3407 37.9145L35.5651 38.0268C35.6209 38.083 35.6494 38.1391 35.6779 38.2234ZM37.5027 33.5618C37.6998 33.618 37.587 33.4215 37.4742 33.4495C37.3899 33.4495 37.4184 33.5618 37.5027 33.5618ZM31.7457 29.2092C31.83 29.2092 31.83 29.3777 31.7457 29.4057C31.6614 29.4057 31.6614 29.2092 31.7457 29.2092ZM36.0424 32.8318C36.1267 32.8318 36.1551 33.0002 36.0708 33.0002C35.9866 33.0282 35.9581 32.8598 36.0424 32.8318ZM10.3764 14.2697C10.3764 14.1855 10.3764 14.1012 10.2636 14.1293C10.2636 14.1855 10.2351 14.2135 10.2351 14.2416C10.2636 14.2697 10.2921 14.2978 10.3764 14.2697ZM32.4759 27.9735L32.4201 27.8612C32.3358 27.8612 32.28 27.8894 32.3073 27.9735C32.3643 28.0017 32.3916 28.0017 32.4759 27.9735ZM36.7167 34.2078V34.292L36.5766 34.4324L36.4923 34.4043L36.7167 34.2078ZM24.361 30.3886C24.304 30.3886 24.2767 30.192 24.3325 30.192C24.4168 30.192 24.4453 30.3886 24.361 30.3886ZM32.5601 34.7694C32.6444 34.7694 32.6444 34.966 32.5601 34.966C32.5043 34.966 32.5043 34.7694 32.5601 34.7694ZM29.7808 10.254C29.8651 10.2259 29.8651 10.3663 29.7808 10.3944C29.668 10.3944 29.668 10.254 29.7808 10.254ZM33.8246 5.56437C33.8804 5.56437 33.8519 5.3678 33.7961 5.3678C33.7118 5.39588 33.7403 5.56437 33.8246 5.56437ZM34.5547 36.9036C34.4419 36.9036 34.4419 36.7632 34.5547 36.7632C34.639 36.7351 34.639 36.8755 34.5547 36.9036ZM32.4486 7.75474C32.5602 7.75474 32.5328 7.55817 32.4201 7.55817C32.3916 7.55817 32.4201 7.75474 32.4486 7.75474ZM35.1163 31.9331C35.1721 31.9331 35.2006 32.1297 35.1436 32.1297C35.0593 32.1297 35.032 31.9331 35.1163 31.9331ZM34.8634 5.50821C34.9192 5.50821 34.8907 5.31163 34.8349 5.31163C34.7506 5.31163 34.7791 5.50821 34.8634 5.50821ZM33.3746 8.54103H33.4304C33.5147 8.54103 33.599 8.31638 33.599 8.28829C33.4304 8.31638 33.5147 8.51296 33.3746 8.54103ZM33.0944 11.4896C33.206 11.4896 33.206 11.3773 33.1217 11.3492H33.0944C33.0101 11.3492 33.0101 11.4896 33.0944 11.4896ZM27.9275 23.9299C28.0391 23.9299 28.0391 23.7894 27.9275 23.7894C27.8432 23.7894 27.8432 23.9299 27.9275 23.9299ZM34.3019 33.3933C34.4135 33.3933 34.4135 33.5338 34.3019 33.5338C34.2176 33.5338 34.2176 33.3933 34.3019 33.3933ZM34.9192 33.8989C34.8349 33.8989 34.8349 33.7304 34.9192 33.7304C35.0035 33.7304 35.0035 33.8989 34.9192 33.8989ZM31.0155 32.7756C30.9312 32.7756 30.9312 32.6352 31.0155 32.6352C31.1283 32.6352 31.1283 32.7756 31.0155 32.7756ZM32.9816 9.32733C32.8973 9.32733 32.8973 9.46773 32.9816 9.46773C33.0944 9.46773 33.0944 9.32733 32.9816 9.32733ZM24.2482 30.7817C24.1639 30.8099 24.1639 30.9783 24.2482 30.9502C24.3325 30.9502 24.3325 30.7817 24.2482 30.7817ZM26.523 12.4444C26.4102 12.4444 26.3829 12.304 26.4945 12.304C26.5788 12.304 26.6073 12.4444 26.523 12.4444ZM29.8081 10.8157C29.8924 10.8157 29.8924 10.9561 29.8081 10.9561C29.6965 10.9841 29.6965 10.8437 29.8081 10.8157ZM32.28 6.94037C32.3643 6.94037 32.3643 6.79997 32.28 6.79997C32.1672 6.82805 32.1672 6.96846 32.28 6.94037ZM34.2449 32.1016C34.1606 32.1016 34.1333 31.9611 34.2176 31.9611C34.3292 31.9611 34.3577 32.1016 34.2449 32.1016ZM34.3577 4.94657C34.4135 4.94657 34.4135 4.75 34.3577 4.75C34.2734 4.75 34.2734 4.94657 34.3577 4.94657ZM30.1453 26.1483C30.061 26.1483 30.061 26.3449 30.1453 26.3449C30.2011 26.3449 30.2011 26.1483 30.1453 26.1483ZM31.887 29.8269C31.8027 29.8551 31.8027 29.6585 31.887 29.6305C31.9428 29.6305 31.9428 29.8269 31.887 29.8269ZM24.9226 11.7704H24.8383C24.8383 11.7704 24.7255 11.9389 24.7255 11.967L24.8098 11.9389C24.8656 11.8547 24.9226 11.7985 24.9226 11.7704ZM33.9932 7.69858C33.9647 7.67049 33.9362 7.61434 33.9362 7.58625L33.8519 7.67049V7.69858L33.9932 7.81091V7.69858ZM36.6882 36.7912C36.6882 36.7071 36.8283 36.7351 36.8283 36.8194C36.801 36.9036 36.6609 36.9036 36.6882 36.7912ZM30.2296 19.4367C30.2011 19.521 30.3139 19.6333 30.3697 19.549C30.3982 19.4649 30.2854 19.4087 30.2296 19.4367ZM32.223 8.00748C32.3358 7.97939 32.3358 7.78282 32.223 7.81091C32.1957 7.81091 32.1957 8.00748 32.223 8.00748ZM34.3292 35.5837C34.2176 35.5837 34.1891 35.4995 34.3019 35.4995C34.3292 35.4995 34.3292 35.5837 34.3292 35.5837C34.4135 35.5837 34.4419 35.7241 34.3577 35.7241C34.3292 35.7241 34.3292 35.5837 34.3292 35.5837ZM31.7457 27.5524C31.7742 27.6647 31.83 27.6366 31.9143 27.6086C31.9143 27.4963 31.7742 27.4963 31.7457 27.5524ZM15.3177 12.2759C15.2904 12.2478 15.2334 12.2478 15.1776 12.2759V12.3882C15.2619 12.3882 15.3462 12.3601 15.3177 12.2759ZM27.7019 32.6913C27.6746 32.6633 27.6176 32.6352 27.5903 32.6352C27.5903 32.6913 27.6176 32.7194 27.6461 32.7475C27.6746 32.7756 27.6746 32.8036 27.7304 32.8036C27.7304 32.8036 27.7589 32.8318 27.7862 32.8318L27.7304 32.7475C27.7304 32.7194 27.7304 32.6913 27.7019 32.6913ZM33.1502 35.668C33.1502 35.6118 33.1787 35.5557 33.206 35.5557C33.263 35.5557 33.2903 35.6961 33.2345 35.7523L33.1502 35.668ZM9.33635 35.3872C9.28055 35.3872 9.30903 35.2467 9.22474 35.2749C9.11195 35.3591 9.28055 35.4995 9.33635 35.3872ZM34.582 36.2297C34.4704 36.2577 34.4419 36.0892 34.5547 36.0611C34.582 36.0611 34.6105 36.2297 34.582 36.2297ZM24.2197 29.6866C24.304 29.6866 24.3325 29.8269 24.2482 29.8269C24.1639 29.8551 24.1354 29.7146 24.2197 29.6866ZM31.0155 10.254C30.9312 10.254 30.9039 10.0855 30.9882 10.0855C31.044 10.0855 31.0725 10.254 31.0155 10.254ZM25.9329 31.6523C25.8771 31.6523 25.9056 31.8208 25.9614 31.8208C26.0457 31.8208 26.0172 31.6523 25.9329 31.6523ZM33.3188 11.0965H33.2903L33.2345 11.3211C33.3188 11.2369 33.4031 11.0965 33.4031 11.0684C33.3746 11.0684 33.3461 11.0965 33.3188 11.0965ZM34.2734 9.63622C34.3292 9.63622 34.3019 9.46773 34.2449 9.46773C34.1606 9.46773 34.1891 9.63622 34.2734 9.63622ZM30.3982 9.6643C30.4267 9.6643 30.454 9.8328 30.4267 9.8328C30.3139 9.8328 30.2854 9.6643 30.3982 9.6643ZM29.8366 9.69238C29.9494 9.69238 29.9767 9.86088 29.8651 9.86088C29.8366 9.86088 29.8081 9.69238 29.8366 9.69238ZM33.4304 6.65955C33.5147 6.65955 33.4874 6.51915 33.4031 6.51915C33.3188 6.51915 33.3461 6.65955 33.4304 6.65955ZM33.206 30.3886C33.2903 30.3886 33.3188 30.529 33.2345 30.529C33.1502 30.529 33.1217 30.3886 33.206 30.3886ZM30.7069 10.5629C30.6226 10.5629 30.6226 10.4225 30.7069 10.4225C30.7912 10.4225 30.7912 10.5629 30.7069 10.5629ZM32.2515 12.8095C32.3358 12.8095 32.3073 12.669 32.223 12.669C32.1387 12.669 32.1672 12.8095 32.2515 12.8095ZM32.1114 10.4787C32.0271 10.4787 32.0271 10.3383 32.1114 10.3383C32.1957 10.3383 32.1957 10.4787 32.1114 10.4787ZM32.0829 9.6643C32.1672 9.6643 32.1672 9.80471 32.0829 9.80471C31.9986 9.80471 31.9986 9.6643 32.0829 9.6643ZM31.6899 28.3667C31.7742 28.3667 31.7742 28.2263 31.6899 28.2263C31.6056 28.2263 31.6056 28.3667 31.6899 28.3667ZM30.9039 9.72046C30.8197 9.72046 30.7912 9.58006 30.8754 9.58006C30.9597 9.58006 30.9882 9.72046 30.9039 9.72046ZM38.0642 38.3357C38.0642 38.2516 38.2044 38.2516 38.2044 38.3357C38.2044 38.42 38.0642 38.42 38.0642 38.3357ZM26.1573 12.4725C26.073 12.4725 26.0457 12.3321 26.13 12.3321C26.2143 12.3321 26.2416 12.4725 26.1573 12.4725ZM33.6833 7.47393C33.7676 7.47393 33.7676 7.33352 33.6833 7.33352C33.599 7.33352 33.599 7.47393 33.6833 7.47393ZM25.5684 12.4444C25.6527 12.4444 25.6527 12.5848 25.5684 12.5848C25.4841 12.5848 25.4841 12.4444 25.5684 12.4444ZM27.1404 32.7194C27.2247 32.7194 27.2247 32.579 27.1404 32.579C27.0561 32.579 27.0561 32.7194 27.1404 32.7194ZM33.0101 30.7537C33.0944 30.7537 33.0944 30.894 33.0101 30.894C32.9258 30.894 32.9258 30.7537 33.0101 30.7537ZM31.0725 6.57532C31.1568 6.57532 31.1568 6.4349 31.0725 6.4349C30.9882 6.4349 30.9882 6.57532 31.0725 6.57532ZM33.2345 30.9783C33.3188 30.9783 33.3461 31.1188 33.263 31.1188C33.1787 31.1188 33.1502 30.9783 33.2345 30.9783ZM32.6729 34.1516C32.5886 34.1516 32.5602 34.0112 32.6445 34.0112C32.7288 34.0112 32.7572 34.1516 32.6729 34.1516ZM34.975 9.13075C35.0593 9.13075 35.032 8.99034 34.9477 8.99034C34.8634 8.99034 34.8907 9.13075 34.975 9.13075ZM31.0155 10.6191C30.9312 10.6191 30.9312 10.4506 31.0155 10.4506C31.0725 10.4506 31.0725 10.6191 31.0155 10.6191ZM31.9713 10.5629C31.887 10.5629 31.887 10.3944 31.9713 10.3944C32.0271 10.3944 32.0271 10.5629 31.9713 10.5629ZM34.4977 6.32257C34.582 6.32257 34.582 6.15408 34.4977 6.15408C34.4419 6.15408 34.4419 6.32257 34.4977 6.32257ZM30.4267 7.13694C30.511 7.13694 30.511 6.96846 30.4267 6.96846C30.3697 6.96846 30.3697 7.13694 30.4267 7.13694ZM32.5328 30.3325C32.6171 30.3325 32.6171 30.5009 32.5328 30.5009C32.4759 30.5009 32.4759 30.3325 32.5328 30.3325ZM35.818 33.8427C35.7337 33.8427 35.7337 33.6742 35.818 33.6742C35.8738 33.6742 35.8738 33.8427 35.818 33.8427ZM30.7627 32.3824C30.8196 32.3824 30.8196 32.5509 30.7627 32.5509C30.6784 32.5509 30.6784 32.3824 30.7627 32.3824ZM35.2564 34.4604C35.1721 34.4604 35.1721 34.292 35.2564 34.292C35.3122 34.292 35.3122 34.4604 35.2564 34.4604ZM30.7627 7.30544C30.847 7.30544 30.847 7.16502 30.7627 7.16502C30.6784 7.19311 30.6784 7.33352 30.7627 7.30544ZM30.9039 13.9327C30.8197 13.9327 30.8197 13.7923 30.9039 13.7923C30.9882 13.7642 30.9882 13.9046 30.9039 13.9327ZM30.7912 12.0793C30.7069 12.0793 30.7069 11.9389 30.7912 11.9389C30.8755 11.9108 30.8755 12.0512 30.7912 12.0793ZM31.8585 9.6643C31.9428 9.6643 31.9428 9.80471 31.8585 9.80471C31.7742 9.8328 31.7742 9.69238 31.8585 9.6643ZM34.3577 8.70953C34.4419 8.70953 34.4419 8.56911 34.3577 8.56911C34.2734 8.59719 34.2734 8.73761 34.3577 8.70953ZM32.28 28.2544C32.3643 28.2263 32.3643 28.086 32.28 28.114C32.1957 28.114 32.1957 28.2544 32.28 28.2544ZM34.2734 7.3616C34.3577 7.33352 34.3577 7.19311 34.2734 7.22119C34.1891 7.22119 34.1891 7.3616 34.2734 7.3616ZM29.2192 25.9236C29.1349 25.9518 29.1349 25.8113 29.2192 25.7832C29.3023 25.7832 29.3023 25.9236 29.2192 25.9236ZM35.0593 36.5105C34.975 36.5105 34.975 36.37 35.0593 36.37C35.1436 36.342 35.1436 36.4823 35.0593 36.5105ZM32.813 25.7832C32.7846 25.7552 32.7846 25.727 32.7846 25.699C32.7003 25.727 32.6171 25.727 32.6729 25.8113C32.7002 25.8393 32.7846 25.8393 32.813 25.7832ZM34.2449 36.4543C34.3577 36.4543 34.3577 36.5946 34.2734 36.6228H34.2449C34.2176 36.5666 34.2176 36.4543 34.2449 36.4543ZM7.79173 35.5837C7.73592 35.6118 7.73593 35.6398 7.73593 35.6961C7.73593 35.7241 7.76442 35.7523 7.82022 35.7241C7.84872 35.6961 7.84872 35.6398 7.84872 35.5837C7.82022 35.5837 7.79173 35.6118 7.79173 35.5837ZM30.6511 27.103C30.6511 27.1312 30.6511 27.1312 30.6226 27.1592C30.6226 27.1312 30.5953 27.1312 30.5668 27.1312V27.075C30.511 27.0189 30.4825 26.9907 30.454 26.9907L30.511 26.9346L30.6511 27.103ZM31.2969 10.6191L31.3812 10.5068H31.437L31.5213 10.591L31.2969 10.6191ZM32.9816 9.15883C33.0944 9.15883 33.0944 9.10266 33.0944 9.01842C32.9816 9.01842 32.9531 9.07458 32.9816 9.15883ZM36.8568 32.5228C36.9411 32.5228 36.9126 32.4105 36.8283 32.4105C36.7167 32.4105 36.744 32.5228 36.8568 32.5228ZM37.0812 32.7756C36.9696 32.8036 36.9696 32.9721 37.0812 32.9441C37.1097 32.9441 37.1097 32.7756 37.0812 32.7756ZM30.0325 7.16502C30.061 7.16502 30.061 6.99654 30.0325 6.99654C29.9209 6.99654 29.9209 7.16502 30.0325 7.16502ZM33.1787 8.87801C33.2903 8.87801 33.2903 8.76569 33.1787 8.76569C33.0944 8.76569 33.0944 8.87801 33.1787 8.87801ZM11.3309 37.1843C11.1896 37.2125 11.3024 37.3809 11.3582 37.3809C11.3867 37.3248 11.3309 37.2686 11.3309 37.1843ZM34.1333 31.7647C34.2176 31.7647 34.2176 31.9611 34.1333 31.9611C34.1048 31.9611 34.1048 31.7647 34.1333 31.7647ZM29.9494 9.49581C29.9767 9.49581 29.9767 9.63622 29.9494 9.63622C29.8366 9.63622 29.8366 9.49581 29.9494 9.49581ZM24.1081 13.7642C24.1354 13.7642 24.1354 13.6238 24.1081 13.6238C23.9953 13.6238 23.9953 13.7642 24.1081 13.7642ZM27.0845 10.7595C27.113 10.7595 27.113 10.6191 27.0845 10.6191C26.9718 10.6191 26.9718 10.7595 27.0845 10.7595ZM33.1502 6.54723C33.1787 6.54723 33.1787 6.40682 33.1502 6.40682C33.0374 6.40682 33.0374 6.54723 33.1502 6.54723ZM15.459 14.6909C15.5433 14.6909 15.6276 14.6909 15.5991 14.6067C15.5706 14.5786 15.4863 14.5786 15.459 14.6067V14.6909ZM36.7725 33.7865L36.801 33.9269H36.6882C36.6882 33.8427 36.6882 33.7865 36.7725 33.7865ZM33.9647 7.22119C33.9089 7.22119 33.9089 7.3616 33.9647 7.3616C34.049 7.3616 34.049 7.22119 33.9647 7.22119ZM36.1825 32.7756C36.2668 32.7756 36.2668 32.9159 36.1825 32.9159C36.1267 32.9159 36.1267 32.7756 36.1825 32.7756ZM35.2279 30.2763C35.1721 30.2763 35.1721 30.4167 35.2279 30.4167C35.3122 30.4167 35.3122 30.2763 35.2279 30.2763ZM32.1387 29.9954C32.0829 29.9954 32.0829 29.8551 32.1387 29.8551C32.223 29.8551 32.223 29.9954 32.1387 29.9954ZM32.7572 30.192C32.7002 30.192 32.7002 30.0517 32.7572 30.0517C32.8415 30.0517 32.8415 30.192 32.7572 30.192ZM30.9597 12.5006C31.044 12.5006 31.044 12.641 30.9597 12.641C30.9039 12.641 30.9039 12.5006 30.9597 12.5006ZM30.5952 9.74855C30.6784 9.74855 30.6784 9.88895 30.5952 9.88895C30.5383 9.88895 30.5383 9.74855 30.5952 9.74855ZM30.9039 7.38969C30.9882 7.38969 30.9882 7.24927 30.9039 7.24927C30.847 7.24927 30.847 7.38969 30.9039 7.38969ZM32.1957 9.29924C32.1387 9.29924 32.1387 9.15883 32.1957 9.15883C32.28 9.15883 32.28 9.29924 32.1957 9.29924ZM32.4201 28.4509C32.5044 28.4509 32.5044 28.3106 32.4201 28.3106C32.3643 28.3106 32.3643 28.4509 32.4201 28.4509ZM35.1163 30.7256C35.0593 30.7256 35.0593 30.866 35.1163 30.866C35.2006 30.866 35.2006 30.7256 35.1163 30.7256ZM33.4589 8.84993C33.4031 8.84993 33.4031 8.99034 33.4589 8.99034C33.5432 8.99034 33.5432 8.84993 33.4589 8.84993ZM23.4623 14.2416C23.5465 14.2416 23.5465 14.1012 23.4623 14.1012C23.4053 14.1012 23.4053 14.2416 23.4623 14.2416ZM26.916 11.7985L26.9445 11.9108H26.8317L26.8032 11.7985H26.916ZM32.9816 11.2369C33.0101 11.2369 32.9816 11.0965 32.9531 11.0965C32.8415 11.1245 32.8688 11.265 32.9816 11.2369ZM24.1081 29.9674C24.0511 29.9674 24.0511 29.8269 24.1081 29.8269C24.1924 29.8269 24.1924 29.9674 24.1081 29.9674ZM33.9362 6.85612C34.0205 6.85612 34.0205 6.71572 33.9362 6.71572C33.8804 6.71572 33.8804 6.85612 33.9362 6.85612ZM35.8738 33.5338C35.9581 33.5338 35.9581 33.6742 35.8738 33.6742C35.818 33.6742 35.818 33.5338 35.8738 33.5338ZM31.0155 7.02462C31.0998 7.02462 31.0998 6.88421 31.0155 6.88421C30.9597 6.88421 30.9597 7.02462 31.0155 7.02462ZM33.4874 9.49581C33.4304 9.49581 33.4304 9.3554 33.4874 9.3554C33.5717 9.3554 33.5717 9.49581 33.4874 9.49581ZM33.4304 35.6398C33.5147 35.6398 33.5147 35.7803 33.4304 35.7803C33.3746 35.7803 33.3746 35.6398 33.4304 35.6398ZM33.5147 9.80471C33.4589 9.80471 33.4589 9.94512 33.5147 9.94512C33.599 9.94512 33.599 9.80471 33.5147 9.80471ZM34.8349 33.7304C34.7791 33.7304 34.7791 33.5899 34.8349 33.5899C34.9192 33.5899 34.9192 33.7304 34.8349 33.7304ZM28.8251 9.32733C28.9094 9.32733 28.9094 9.46773 28.8251 9.46773C28.7693 9.46773 28.7693 9.32733 28.8251 9.32733ZM32.7572 7.30544C32.7845 7.27736 32.7845 7.13694 32.7572 7.16502C32.6444 7.16502 32.6444 7.30544 32.7572 7.30544ZM35.9308 34.9378C35.8738 34.9378 35.8738 34.7975 35.9308 34.7975C36.0151 34.7975 36.0151 34.9378 35.9308 34.9378ZM35.9023 34.1235C35.9866 34.1235 35.9866 34.2639 35.9023 34.2639C35.8465 34.2639 35.8465 34.1235 35.9023 34.1235ZM35.8465 33.3092C35.9308 33.3092 35.9308 33.4495 35.8465 33.4495C35.7895 33.4495 35.7895 33.3092 35.8465 33.3092ZM30.3697 9.32733C30.3424 9.32733 30.3139 9.15883 30.3424 9.15883C30.4267 9.15883 30.454 9.32733 30.3697 9.32733ZM35.9023 31.568C35.9866 31.5399 35.9581 31.3996 35.8738 31.4276C35.818 31.4276 35.8465 31.568 35.9023 31.568ZM31.83 28.4791C31.9143 28.4791 31.9143 28.3386 31.83 28.3386C31.7742 28.3667 31.7742 28.5072 31.83 28.4791ZM25.2028 11.4615C25.2871 11.4334 25.2598 11.293 25.1755 11.3211C25.1185 11.3211 25.147 11.4615 25.2028 11.4615ZM33.7961 6.99654C33.8804 6.99654 33.8804 6.85612 33.7961 6.85612C33.7403 6.88421 33.7403 7.02462 33.7961 6.99654ZM35.0593 33.5618C35.1436 33.5618 35.1436 33.7023 35.0593 33.7023C35.0035 33.7304 35.0035 33.5899 35.0593 33.5618ZM34.049 36.4823C34.0205 36.4823 34.0205 36.342 34.049 36.342C34.1606 36.3138 34.1891 36.4543 34.049 36.4823ZM33.3746 30.9783C33.3188 30.9783 33.3188 30.8379 33.3746 30.8379C33.4589 30.8099 33.4589 30.9502 33.3746 30.9783ZM31.7742 12.6129C31.8585 12.6129 31.887 12.7533 31.8027 12.7533C31.7457 12.7533 31.7184 12.641 31.7742 12.6129ZM32.28 29.7708C32.223 29.7708 32.223 29.6305 32.28 29.6305C32.3643 29.6023 32.3643 29.7428 32.28 29.7708ZM28.8251 10.7314C28.882 10.7314 28.9094 10.8718 28.8536 10.8718C28.7693 10.8999 28.7408 10.7595 28.8251 10.7314ZM10.4322 34.3763H10.5165C10.5165 34.3763 10.5438 34.3763 10.5438 34.3481C10.488 34.4043 10.4322 34.4604 10.4037 34.5166C10.3764 34.5166 10.3479 34.5166 10.3479 34.4886L10.4322 34.3763ZM36.4923 34.1796C36.5766 34.1516 36.5766 34.292 36.4923 34.3201C36.4353 34.3201 36.4353 34.1796 36.4923 34.1796ZM33.8519 7.58625C33.9362 7.58625 33.9089 7.44584 33.8246 7.44584C33.7676 7.47392 33.7961 7.58625 33.8519 7.58625ZM27.3647 32.7194C27.4217 32.7194 27.3932 32.579 27.3374 32.579C27.2532 32.6071 27.2805 32.7475 27.3647 32.7194ZM35.5651 32.3544C35.6494 32.3544 35.6779 32.4947 35.5936 32.4947C35.5366 32.4947 35.5093 32.3544 35.5651 32.3544ZM31.044 7.24927C31.1283 7.24927 31.0998 7.10887 31.0155 7.10887C30.9597 7.10887 30.9882 7.24927 31.044 7.24927ZM25.6527 11.4334C25.737 11.4334 25.7085 11.293 25.6242 11.293C25.5684 11.293 25.5957 11.4334 25.6527 11.4334ZM32.1387 8.14789C32.223 8.14789 32.1957 8.00748 32.1114 8.00748C32.0544 8.00748 32.0829 8.14789 32.1387 8.14789ZM33.2903 5.62053C33.3746 5.62053 33.3461 5.48012 33.263 5.48012C33.206 5.48012 33.2345 5.62053 33.2903 5.62053ZM34.6948 34.4886C34.7221 34.4886 34.7506 34.6289 34.7221 34.6289C34.6105 34.6289 34.582 34.4886 34.6948 34.4886ZM33.4304 10.928C33.4304 10.8999 33.4031 10.8437 33.4031 10.8437C33.2903 10.8718 33.2903 10.9841 33.3746 10.9841H33.4031C33.4304 10.9841 33.4304 10.9561 33.4304 10.928ZM36.0708 30.894C36.015 30.894 36.0424 31.0345 36.0982 31.0345C36.1825 31.0345 36.1551 30.894 36.0708 30.894ZM34.4977 36.6789C34.3861 36.6789 34.3577 36.5385 34.4704 36.5385C34.4978 36.5385 34.5262 36.6789 34.4977 36.6789ZM33.0659 26.738L33.0101 26.6538C32.9258 26.6818 32.9258 26.738 32.9531 26.7941C33.0101 26.7941 33.0374 26.7661 33.0659 26.738ZM33.0659 34.5727C33.1217 34.5727 33.1502 34.7132 33.0944 34.7132C33.0101 34.7132 32.9816 34.6009 33.0659 34.5727ZM24.5011 12.4163C24.5296 12.4163 24.5011 12.2759 24.4726 12.2759C24.361 12.2759 24.3883 12.4163 24.5011 12.4163ZM32.6729 29.7428C32.5886 29.7428 32.5886 29.6023 32.6729 29.6023C32.7287 29.6023 32.7287 29.7428 32.6729 29.7428ZM30.511 9.38348C30.5668 9.38348 30.5668 9.52389 30.511 9.52389C30.4267 9.52389 30.4267 9.38348 30.511 9.38348ZM32.1672 10.0294C32.0829 10.0294 32.0829 9.88895 32.1672 9.88895C32.223 9.88895 32.223 10.0294 32.1672 10.0294ZM36.0982 32.0735C36.0151 32.0735 36.0151 32.2139 36.0982 32.2139C36.1552 32.2139 36.1552 32.0735 36.0982 32.0735ZM32.0829 8.48486C32.1387 8.48486 32.1387 8.62528 32.0829 8.62528C31.9986 8.62528 31.9986 8.48486 32.0829 8.48486ZM31.6056 10.2821C31.6614 10.2821 31.6614 10.4225 31.6056 10.4225C31.5213 10.4225 31.5213 10.2821 31.6056 10.2821ZM33.3188 30.6694C33.2345 30.6694 33.2345 30.529 33.3188 30.529C33.3746 30.529 33.3746 30.6694 33.3188 30.6694ZM34.8349 30.5852C34.8907 30.5852 34.8634 30.4448 34.8064 30.4448C34.7221 30.4448 34.7506 30.5852 34.8349 30.5852ZM10.8252 21.234C10.7409 21.234 10.7409 21.0935 10.8252 21.0935C10.881 21.0935 10.881 21.234 10.8252 21.234ZM33.6275 8.76569C33.5432 8.76569 33.5432 8.9061 33.6275 8.9061C33.6833 8.9061 33.6833 8.76569 33.6275 8.76569ZM25.3429 11.293C25.3998 11.293 25.3998 11.1526 25.3429 11.1526C25.2597 11.1526 25.2597 11.293 25.3429 11.293ZM36.4638 34.7694C36.5196 34.7694 36.5196 34.9098 36.4638 34.9098C36.3795 34.9098 36.3795 34.7694 36.4638 34.7694ZM35.2279 31.3714C35.2849 31.3714 35.2849 31.2311 35.2279 31.2311C35.1436 31.2311 35.1436 31.3714 35.2279 31.3714ZM29.8081 34.9098C29.7238 34.9098 29.7238 35.0501 29.8081 35.0501C29.8651 35.0501 29.8651 34.9098 29.8081 34.9098ZM33.5147 11.0684C33.4304 11.0684 33.4589 11.2088 33.5432 11.2088C33.599 11.2088 33.5717 11.0684 33.5147 11.0684ZM33.4874 10.4787C33.4031 10.4787 33.4031 10.6191 33.4874 10.6191C33.5432 10.6191 33.5432 10.4787 33.4874 10.4787ZM32.3358 34.5447C32.3916 34.5447 32.4201 34.6852 32.3643 34.6852C32.28 34.6852 32.2515 34.5447 32.3358 34.5447ZM34.1048 6.77189C34.1606 6.77189 34.1606 6.63147 34.1048 6.63147C34.0205 6.63147 34.0205 6.77189 34.1048 6.77189ZM28.6292 9.58006C28.685 9.58006 28.685 9.72046 28.6292 9.72046C28.5449 9.72046 28.5449 9.58006 28.6292 9.58006ZM35.3965 34.5166C35.3122 34.5166 35.3122 34.3763 35.3965 34.3763C35.4523 34.3763 35.4523 34.5166 35.3965 34.5166ZM35.368 34.0112C35.2849 34.0112 35.2849 33.8707 35.368 33.8707C35.425 33.8707 35.425 34.0112 35.368 34.0112ZM35.6494 34.5727C35.5651 34.5727 35.5366 34.4324 35.6209 34.4324C35.6779 34.4324 35.7052 34.5727 35.6494 34.5727ZM32.8973 31.1468C32.9531 31.1188 32.9531 31.2591 32.8973 31.2873C32.813 31.2873 32.813 31.1468 32.8973 31.1468ZM31.8027 28.7318C31.8585 28.7037 31.8585 28.8441 31.8027 28.8722C31.7184 28.8722 31.7184 28.7318 31.8027 28.7318ZM29.8651 10.0855C29.9767 10.0855 30.0052 10.2259 29.8924 10.2259C29.8651 10.2259 29.8366 10.0855 29.8651 10.0855ZM32.9531 34.0953C32.9531 34.1516 32.9531 34.2078 32.9258 34.2078C32.8415 34.2078 32.813 34.0673 32.8973 34.0673C32.9258 34.0673 32.9258 34.0953 32.9531 34.0953ZM30.4267 27.1312L30.2854 27.0469C30.3424 27.0469 30.3697 27.0189 30.3982 26.9907L30.4267 27.0469L30.511 27.1312H30.4267ZM27.309 23.6771C27.4217 23.6771 27.4217 23.8174 27.309 23.8174C27.2816 23.8174 27.2816 23.6771 27.309 23.6771ZM32.5328 9.3554C32.5044 9.3554 32.5044 9.49581 32.5328 9.49581C32.6444 9.49581 32.6444 9.3554 32.5328 9.3554ZM33.7676 31.905C33.7403 31.905 33.7403 31.7647 33.7676 31.7647C33.8804 31.7647 33.8804 31.905 33.7676 31.905ZM36.6039 34.7413C36.5766 34.7413 36.5766 34.6009 36.6039 34.6009C36.7167 34.6009 36.7167 34.7413 36.6039 34.7413ZM26.523 11.0122C26.523 11.0965 26.4387 11.1526 26.3259 11.2369C26.3259 11.1526 26.4387 11.0965 26.523 11.0122ZM27.5333 32.8036C27.506 32.8036 27.506 32.9441 27.5333 32.9441C27.6461 32.9441 27.6461 32.8036 27.5333 32.8036ZM33.9932 31.877C33.9647 31.877 33.9647 31.7365 33.9932 31.7365C34.1048 31.7365 34.1048 31.877 33.9932 31.877ZM25.8213 13.0622C25.737 13.0903 25.737 12.9499 25.8213 12.9218C25.8771 12.9218 25.8771 13.0622 25.8213 13.0622ZM36.4923 32.2139C36.6039 32.1859 36.6039 32.0454 36.4923 32.0735C36.4638 32.0735 36.4638 32.2139 36.4923 32.2139ZM30.3139 26.0359C30.2581 26.0359 30.2581 26.1483 30.3139 26.1483C30.454 26.1483 30.3982 26.0359 30.3139 26.0359ZM32.8415 10.6752C32.9531 10.6472 32.9531 10.7876 32.8415 10.8157C32.813 10.8157 32.813 10.6752 32.8415 10.6752ZM34.639 32.5228C34.6105 32.4105 34.7506 32.4105 34.7791 32.5228C34.7791 32.5509 34.639 32.5509 34.639 32.5228ZM36.2668 32.6633C36.351 32.6633 36.351 32.5509 36.2668 32.5509C36.1825 32.5509 36.1825 32.6633 36.2668 32.6633ZM35.7895 34.8255C35.7052 34.8255 35.7052 34.7132 35.7895 34.7132C35.8738 34.7132 35.8738 34.8255 35.7895 34.8255ZM33.0944 7.3616C33.206 7.3616 33.206 7.3616 33.206 7.27736C33.206 7.19311 33.0101 7.3616 33.0944 7.3616ZM36.9411 36.9317C36.9411 36.9597 36.801 36.9317 36.801 36.9036C36.8283 36.8194 36.9696 36.8194 36.9411 36.9317ZM24.9499 12.0232C25.0342 12.0232 25.0342 11.9108 24.9499 11.9108C24.8656 11.9108 24.8656 12.0232 24.9499 12.0232ZM35.2279 32.5228L35.3407 32.3824V32.4947L35.2279 32.6071V32.5228ZM34.3862 30.6976C34.3862 30.6133 34.2734 30.6133 34.2734 30.6976C34.2734 30.7817 34.3862 30.7817 34.3862 30.6976ZM34.1606 5.22739C34.2449 5.19931 34.2449 5.08698 34.1606 5.11506C34.0763 5.11506 34.0763 5.22739 34.1606 5.22739ZM33.8804 30.4448C33.9089 30.4167 33.9089 30.2482 33.8804 30.2763C33.7961 30.2763 33.7961 30.4448 33.8804 30.4448ZM35.5093 31.1188V31.203L35.5936 31.2873H35.6779L35.5093 31.1188ZM33.4304 31.568V31.6523H33.2903C33.2903 31.568 33.3746 31.568 33.4304 31.568ZM29.9767 26.3729L30.061 26.4853H30.1453C30.1453 26.4572 30.0895 26.401 30.061 26.3729H29.9767ZM30.511 32.2139C30.4267 32.2139 30.3982 32.0735 30.4825 32.0735C30.511 32.0735 30.5383 32.2139 30.511 32.2139ZM34.0763 33.9269C34.1048 33.9269 34.1333 34.0673 34.1048 34.0673C34.0205 34.0673 33.9932 33.9269 34.0763 33.9269ZM32.9531 35.1063C33.0101 35.0783 33.0374 35.1906 32.9816 35.2187C32.8973 35.2187 32.8688 35.1063 32.9531 35.1063ZM36.7167 32.8879C36.6324 32.8879 36.6609 33.0282 36.744 33.0282C36.7725 33.0282 36.744 32.8879 36.7167 32.8879ZM32.7003 9.13075C32.6171 9.13075 32.6445 9.27116 32.7288 9.27116C32.7572 9.27116 32.7288 9.13075 32.7003 9.13075ZM32.5886 6.63147C32.6171 6.63147 32.5886 6.49107 32.5601 6.49107C32.4759 6.49107 32.5043 6.63147 32.5886 6.63147ZM27.6176 11.3211C27.5903 11.3211 27.5618 11.1807 27.5903 11.1807C27.6746 11.1807 27.7019 11.3211 27.6176 11.3211ZM32.1387 7.0527C32.0544 7.0527 32.0829 7.19311 32.1672 7.19311C32.1957 7.19311 32.1672 7.0527 32.1387 7.0527ZM32.7288 10.8157C32.813 10.8157 32.813 10.8999 32.7288 10.8999C32.6172 10.8999 32.6172 10.8157 32.7288 10.8157ZM32.4486 8.20406C32.4759 8.20406 32.4759 8.34446 32.4486 8.34446C32.3643 8.34446 32.3643 8.20406 32.4486 8.20406ZM10.5723 34.2078C10.5723 34.1796 10.6008 34.1796 10.6281 34.1516C10.6566 34.1516 10.6566 34.1796 10.6851 34.1796L10.5438 34.3481C10.5723 34.3201 10.5723 34.2358 10.5723 34.2078ZM24.3325 30.0517C24.3325 29.9674 24.4168 29.9674 24.4168 30.0517C24.4168 30.164 24.3325 30.164 24.3325 30.0517ZM32.1957 29.518C32.2515 29.518 32.28 29.6305 32.223 29.6305C32.1387 29.6305 32.1114 29.518 32.1957 29.518ZM33.6833 30.8099C33.7118 30.8099 33.7118 30.9502 33.6833 30.9502C33.599 30.9502 33.599 30.8099 33.6833 30.8099ZM10.9937 37.8865C10.9095 37.8865 10.9379 37.9988 10.9653 38.0268C11.0495 38.0268 11.0222 37.8865 10.9937 37.8865ZM32.3643 8.59719C32.4486 8.59719 32.4759 8.68144 32.3916 8.68144C32.28 8.70953 32.2515 8.62528 32.3643 8.59719ZM34.8349 36.2858C34.8064 36.2858 34.8064 36.1454 34.8349 36.1454C34.9192 36.1454 34.9192 36.2858 34.8349 36.2858ZM29.9209 8.48486C30.0052 8.48486 30.0052 8.34446 29.9209 8.34446C29.8924 8.34446 29.8924 8.48486 29.9209 8.48486ZM33.4589 11.4334C33.5432 11.4334 33.5432 11.293 33.4589 11.293C33.4304 11.293 33.4304 11.4334 33.4589 11.4334ZM27.0003 12.5006C26.9718 12.5006 26.9718 12.3601 27.0003 12.3601C27.0845 12.3601 27.0845 12.5006 27.0003 12.5006ZM33.3461 9.43965C33.3188 9.46773 33.3188 9.32733 33.3461 9.29924C33.4304 9.29924 33.4304 9.43965 33.3461 9.43965ZM27.5333 33.1407C27.506 33.1407 27.5333 33.253 27.5618 33.253C27.6746 33.253 27.6461 33.1407 27.5333 33.1407ZM7.48305 37.5214C7.45574 37.5494 7.48305 37.6337 7.51154 37.6617L7.56734 37.6056C7.56734 37.5494 7.54004 37.5214 7.48305 37.5214ZM35.4523 36.6228C35.3965 36.6228 35.368 36.5385 35.3965 36.4823L35.5093 36.5666C35.4808 36.5946 35.4808 36.6228 35.4523 36.6228ZM35.2006 34.966V35.0221C35.1721 35.0221 35.1436 34.994 35.1163 34.994V34.966C35.1163 34.8536 35.2006 34.8536 35.2006 34.966ZM27.5903 11.3211C27.6176 11.3211 27.6176 11.4334 27.5903 11.4334C27.4775 11.4334 27.4775 11.3211 27.5903 11.3211ZM27.3374 11.0965C27.3648 11.0965 27.3648 11.2088 27.3374 11.2088C27.2247 11.2369 27.2247 11.1245 27.3374 11.0965ZM33.1787 6.32257C33.263 6.2945 33.263 6.15408 33.1787 6.18217C33.1502 6.18217 33.1502 6.32257 33.1787 6.32257ZM36.9696 33.253L36.9969 33.3372L37.1097 33.3092L36.9696 33.1968V33.253ZM33.263 32.7194C33.206 32.7194 33.206 32.6071 33.263 32.6071C33.3461 32.6071 33.3461 32.7194 33.263 32.7194ZM30.454 12.4444C30.454 12.3882 30.5668 12.3882 30.5668 12.4444C30.5668 12.5286 30.454 12.5286 30.454 12.4444ZM26.7474 32.4105C26.6631 32.4105 26.6631 32.5228 26.7474 32.5228C26.8032 32.5228 26.8032 32.4105 26.7474 32.4105ZM9.08465 38.2516V38.3639C9.11195 38.3639 9.14046 38.3357 9.16776 38.3357V38.2234C9.14046 38.2516 9.11195 38.2516 9.08465 38.2516ZM29.9209 26.2606C29.9767 26.2606 29.9767 26.1483 29.9209 26.1483C29.8366 26.1483 29.8366 26.2606 29.9209 26.2606ZM35.5651 32.0173C35.5651 32.1016 35.6494 32.1016 35.6494 32.0173C35.6209 31.905 35.5366 31.905 35.5651 32.0173ZM28.0949 24.0422C28.1234 24.0141 28.1234 23.9017 28.0949 23.9299C27.9833 23.9299 27.9833 24.0422 28.0949 24.0422ZM33.2345 9.8328C33.1502 9.8328 33.1502 9.91703 33.2345 9.91703C33.3461 9.88895 33.3461 9.80471 33.2345 9.8328ZM30.8754 9.3554L30.7354 9.52389V9.46773C30.7354 9.43965 30.7627 9.41156 30.7912 9.3554H30.8754ZM34.3577 32.3262C34.3577 32.3544 34.2449 32.3544 34.2449 32.3262C34.2449 32.2139 34.3577 32.2139 34.3577 32.3262ZM30.3697 8.68144C30.3982 8.68144 30.3982 8.79376 30.3697 8.79376C30.2581 8.79376 30.2581 8.70953 30.3697 8.68144ZM7.79173 37.6337V37.4933C7.68012 37.5214 7.68012 37.6617 7.79173 37.6337ZM36.7167 32.1859C36.6882 32.1859 36.6882 32.2982 36.7167 32.2982C36.8283 32.2982 36.8283 32.1859 36.7167 32.1859ZM24.2767 29.9393C24.3325 29.9393 24.3325 30.0517 24.2767 30.0517C24.1924 30.0797 24.1924 29.9674 24.2767 29.9393ZM37.3626 33.5338C37.3341 33.4495 37.2225 33.4495 37.2498 33.5338C37.2498 33.5899 37.3626 33.5899 37.3626 33.5338ZM34.4419 33.3933L34.3019 33.253H34.4135C34.4135 33.281 34.4419 33.3092 34.4419 33.3372V33.3933ZM27.6461 33.0282L27.7304 33.1407V33.0282L27.6461 32.9441V33.0282ZM8.1016 39.3748C8.12891 39.4028 8.21321 39.3467 8.21321 39.2905C8.15741 39.2625 8.1016 39.2905 8.1016 39.3748ZM27.9275 10.3383C27.9275 10.4225 28.0106 10.4225 28.0106 10.3383C27.9833 10.254 27.899 10.254 27.9275 10.3383ZM31.3812 6.18217C31.3527 6.09792 31.2684 6.09792 31.2969 6.18217C31.2969 6.26642 31.3812 6.26642 31.3812 6.18217ZM31.3527 11.3211C31.437 11.3211 31.437 11.4054 31.3527 11.4054C31.2684 11.4334 31.2684 11.3492 31.3527 11.3211ZM33.5717 6.88421L33.3188 7.16502H33.3746L33.5717 6.88421ZM27.1404 11.6581V11.5739C27.1404 11.5458 27.2247 11.4615 27.2532 11.4334V11.4615L27.1404 11.6581ZM24.8383 12.4725C24.8941 12.4725 24.8656 12.3882 24.8098 12.3882C24.7255 12.4163 24.754 12.5006 24.8383 12.4725ZM27.1973 12.1355C27.1973 12.2478 27.1974 12.2478 27.1689 12.2478C27.0561 12.2478 27.1973 12.0512 27.1973 12.1355ZM34.582 32.3262C34.582 32.4105 34.4704 32.4105 34.4704 32.3262C34.4704 32.2982 34.582 32.2982 34.582 32.3262ZM32.2515 8.82185C32.28 8.82185 32.28 8.93418 32.2515 8.93418C32.1672 8.93418 32.1672 8.82185 32.2515 8.82185ZM34.1606 35.3591C34.0763 35.3591 34.0763 35.2749 34.1333 35.2467L34.1891 35.3029C34.1891 35.331 34.1891 35.3591 34.1606 35.3591ZM33.8804 31.6242C33.8804 31.5399 33.9647 31.5119 33.9647 31.5962C33.9647 31.6523 33.8804 31.6804 33.8804 31.6242ZM7.84872 38.1111V38.1953C7.90452 38.1953 7.93301 38.1391 7.93301 38.083C7.90452 38.0549 7.90452 38.083 7.84872 38.1111ZM33.6275 10.5348C33.7118 10.5348 33.7118 10.5348 33.7118 10.4787C33.7118 10.3944 33.5432 10.5348 33.6275 10.5348ZM33.3746 5.9856C33.4589 5.9856 33.4589 5.9856 33.4589 5.92943C33.4589 5.84519 33.2903 5.9856 33.3746 5.9856ZM12.0041 34.6289C12.0611 34.6289 12.0884 34.7132 12.0326 34.7132C11.9483 34.7132 11.9198 34.6289 12.0041 34.6289ZM34.4977 35.5837C34.4977 35.6118 34.5262 35.6398 34.5547 35.668V35.7241C34.4704 35.7241 34.4419 35.6398 34.4977 35.5837ZM36.9969 33.7865L37.1382 33.7584C37.1382 33.8146 37.0254 33.8427 36.9969 33.8427V33.7865ZM29.6395 34.8255C29.5837 34.8255 29.5837 34.9098 29.6395 34.9098C29.7238 34.9098 29.7238 34.8255 29.6395 34.8255ZM31.8585 7.41776C31.8585 7.47393 31.9428 7.47393 31.9428 7.41776C31.9428 7.33352 31.8585 7.33352 31.8585 7.41776ZM34.9192 32.4105C34.9192 32.3262 34.975 32.2982 34.975 32.3824C35.0035 32.4947 34.9477 32.5228 34.9192 32.4105ZM34.582 34.7694C34.5547 34.7413 34.5262 34.7132 34.4977 34.7132C34.4977 34.6852 34.4977 34.657 34.5262 34.657C34.582 34.6289 34.6105 34.7132 34.582 34.7694ZM27.5618 10.4506C27.6461 10.4506 27.6461 10.4506 27.6461 10.3663C27.6176 10.2821 27.5333 10.4506 27.5618 10.4506ZM34.8907 30.894C34.8349 30.894 34.8349 30.9783 34.8907 30.9783C34.975 30.9502 34.975 30.866 34.8907 30.894ZM32.3916 30.3325C32.3916 30.2763 32.4759 30.2763 32.4759 30.3325C32.4759 30.4167 32.3916 30.4167 32.3916 30.3325ZM30.5383 10.1136C30.5383 10.1979 30.454 10.1979 30.454 10.1136C30.454 10.0574 30.5383 10.0574 30.5383 10.1136ZM32.9531 28.1983C32.8688 28.1983 32.8688 28.2825 32.9531 28.2825C33.0101 28.2825 33.0101 28.1983 32.9531 28.1983ZM34.6663 10.1979C34.7221 10.1979 34.7221 10.1136 34.6663 10.1136C34.582 10.1136 34.582 10.1979 34.6663 10.1979ZM31.9713 29.2934L32.0544 29.3777H31.9713L31.887 29.2934H31.9713ZM35.2849 33.7023H35.1436C35.1436 33.6461 35.2279 33.6461 35.2849 33.6461V33.7023ZM37.0539 34.657C37.0812 34.6289 37.0812 34.7413 37.0539 34.7694C36.9696 34.7694 36.9696 34.657 37.0539 34.657ZM14.1388 37.1563C14.083 37.2125 14.1388 37.2686 14.1673 37.2686C14.1673 37.2406 14.1946 37.2125 14.2231 37.1843C14.1673 37.1843 14.1673 37.1282 14.1388 37.1563ZM33.0374 11.9108C33.0374 11.9389 33.1217 11.9389 33.1217 11.9108C33.1217 11.7985 33.0374 11.7985 33.0374 11.9108ZM35.6209 31.6804C35.6209 31.7927 35.7052 31.7927 35.7052 31.6804C35.7052 31.6523 35.6209 31.6523 35.6209 31.6804ZM34.3019 6.23833C34.3577 6.23833 34.3577 6.15408 34.3019 6.15408C34.2176 6.18217 34.2176 6.26642 34.3019 6.23833ZM27.1404 11.2369C27.1131 11.2369 27.1131 11.1245 27.1404 11.1245C27.2247 11.1245 27.2247 11.2369 27.1404 11.2369ZM26.6073 12.1636C26.5788 12.1636 26.5788 12.0793 26.6073 12.0793C26.7189 12.0793 26.7189 12.1636 26.6073 12.1636ZM30.4267 26.3167C30.4267 26.2325 30.3139 26.2325 30.3139 26.3167C30.3139 26.3449 30.4267 26.3449 30.4267 26.3167ZM34.1891 32.5509C34.2734 32.5509 34.2734 32.6633 34.1891 32.6633C34.1606 32.6633 34.1606 32.5509 34.1891 32.5509ZM34.0205 32.1016C34.049 32.1016 34.1048 32.1578 34.1333 32.1859H34.0205L33.9932 32.1016H34.0205ZM34.1891 8.26021C34.2449 8.26021 34.2449 8.26021 34.2449 8.14789C34.2449 8.11981 34.1048 8.26021 34.1891 8.26021ZM8.21321 37.4091C8.12892 37.4091 8.1574 37.4933 8.18589 37.5214C8.24169 37.5214 8.24171 37.4371 8.21321 37.4091ZM33.4589 7.72666C33.4589 7.69858 33.3461 7.83899 33.3746 7.83899C33.4589 7.83899 33.4589 7.83899 33.4589 7.72666ZM33.7403 6.7438C33.7961 6.71572 33.7961 6.63147 33.7403 6.65955C33.656 6.65955 33.656 6.7438 33.7403 6.7438ZM33.656 32.0173L33.6833 32.1297H33.5717L33.656 32.0173ZM34.6948 5.64862C34.6948 5.56437 34.639 5.56437 34.639 5.64862C34.639 5.76094 34.6948 5.76094 34.6948 5.64862ZM10.7694 38.5885C10.7967 38.5885 10.7967 38.5885 10.7967 38.6165C10.7967 38.6165 10.8252 38.6165 10.8537 38.5885C10.881 38.5042 10.7694 38.4762 10.7694 38.5885ZM34.2734 32.8879C34.3861 32.8879 34.3861 32.9441 34.2734 32.9441C34.1891 32.9441 34.1891 32.8879 34.2734 32.8879ZM28.2362 33.2249C28.1519 33.2249 28.1519 33.281 28.2362 33.281C28.3478 33.281 28.3478 33.2249 28.2362 33.2249ZM34.639 30.3886C34.639 30.3605 34.6105 30.3325 34.582 30.3043H34.4977L34.582 30.3886H34.639ZM35.368 32.9721C35.3965 33.0564 35.3965 33.0564 35.3407 33.0564C35.2564 33.0564 35.368 32.8879 35.368 32.9721ZM8.3545 37.1843C8.38181 37.2686 8.3545 37.2406 8.3545 37.3248C8.43879 37.2968 8.43879 37.1563 8.3545 37.1843ZM13.8859 36.7351C13.8301 36.7632 13.8301 36.7912 13.8301 36.8474C13.9144 36.8474 13.9144 36.7632 13.8859 36.7351ZM30.9312 11.7985C30.9039 11.6862 30.9882 11.6862 31.0155 11.7985C31.0155 11.8266 30.9312 11.8266 30.9312 11.7985ZM24.1924 30.2202C24.1924 30.192 24.2767 30.164 24.2767 30.192C24.304 30.2763 24.2197 30.3043 24.1924 30.2202ZM32.1114 10.254L32.0829 10.1136H32.1672L32.1114 10.254ZM35.4808 33.281H35.3407L35.3965 33.1968L35.4808 33.281ZM34.4704 5.87327C34.5547 5.87327 34.5547 5.87327 34.5547 5.78902C34.5547 5.76094 34.4135 5.87327 34.4704 5.87327ZM31.1568 9.27116L31.0998 9.3554L31.0155 9.27116H31.1568ZM13.4929 37.4652H13.6057V37.4091C13.5214 37.4091 13.4929 37.4091 13.4929 37.4652ZM37.4184 32.9441L37.3341 32.8598V32.9441L37.4469 33.0002L37.4184 32.9441ZM33.7676 8.9061L33.6833 9.07458L33.8519 8.87801L33.7676 8.9061ZM33.9647 31.9611C33.9647 31.9893 33.8804 32.0173 33.8804 31.9893C33.8804 31.905 33.9647 31.877 33.9647 31.9611ZM28.6565 19.5772C28.6007 19.6333 28.5449 19.6333 28.5164 19.6333L28.5734 19.549C28.6007 19.5772 28.6292 19.5772 28.6565 19.5772ZM29.275 9.43965C29.3593 9.43965 29.3593 9.43965 29.3593 9.3554C29.3593 9.29924 29.2192 9.46773 29.275 9.43965ZM34.3577 7.10887C34.4135 7.10887 34.4135 7.10887 34.4135 7.0527C34.3861 6.96846 34.2734 7.13694 34.3577 7.10887ZM26.8602 12.5848L26.8317 12.7252L26.7474 12.7533L26.8602 12.5848ZM31.437 7.58625C31.4655 7.67049 31.5213 7.67049 31.4928 7.58625C31.4928 7.50201 31.437 7.50201 31.437 7.58625ZM26.3259 31.7927C26.2986 31.7085 26.2416 31.7365 26.2701 31.8208C26.2701 31.877 26.3259 31.8488 26.3259 31.7927ZM29.0221 9.01842C29.0221 9.10266 29.0221 9.10266 28.9663 9.10266C28.8821 9.10266 29.0221 8.99034 29.0221 9.01842ZM34.8907 31.7085C34.8907 31.7365 34.8064 31.7365 34.8064 31.7085C34.8064 31.6242 34.8907 31.6242 34.8907 31.7085ZM25.5114 11.5177C25.5114 11.4334 25.4272 11.4334 25.4272 11.5177C25.4272 11.5458 25.5114 11.5458 25.5114 11.5177ZM33.3746 31.7927C33.3746 31.8208 33.2903 31.8208 33.2903 31.7927C33.2903 31.7085 33.3746 31.7085 33.3746 31.7927ZM31.2969 7.81091C31.2969 7.83899 31.3812 7.83899 31.3812 7.81091C31.3812 7.72666 31.2969 7.72666 31.2969 7.81091ZM26.3544 12.2759C26.3544 12.304 26.3544 12.304 26.2701 12.304C26.2143 12.3321 26.3544 12.1636 26.3544 12.2759ZM8.43879 35.4152C8.38181 35.4152 8.35449 35.4434 8.3818 35.4995C8.46609 35.4995 8.43879 35.4434 8.43879 35.4152ZM35.8465 33.0282C35.9308 33.0282 35.9308 33.0844 35.8465 33.0844C35.7895 33.0844 35.7895 33.0282 35.8465 33.0282ZM33.656 35.8926C33.599 35.8926 33.599 35.8365 33.656 35.8365C33.7403 35.8365 33.7403 35.8926 33.656 35.8926ZM28.9936 31.6523C28.9936 31.7085 28.9936 31.7365 29.0779 31.7647C28.9936 31.7927 28.9663 31.7085 28.9094 31.6804C28.9094 31.6804 28.9378 31.6804 28.9936 31.6523ZM31.5498 34.4324C31.5213 34.4324 31.4928 34.4043 31.4655 34.3763C31.4928 34.3763 31.5213 34.3481 31.5498 34.3481C31.5771 34.3481 31.5771 34.4324 31.5498 34.4324ZM35.6209 34.2078C35.6209 34.1235 35.6779 34.1235 35.6779 34.2078C35.6779 34.2639 35.6209 34.2639 35.6209 34.2078ZM31.0998 8.68144C31.0998 8.76569 31.0155 8.76569 31.0155 8.68144C30.9882 8.65336 31.0725 8.65336 31.0998 8.68144ZM31.6899 10.8718C31.6899 10.9561 31.6341 10.9561 31.6341 10.8718C31.6341 10.8157 31.6899 10.8157 31.6899 10.8718ZM33.7403 35.9769C33.7676 35.9769 33.7676 36.0611 33.7403 36.0611C33.656 36.0611 33.656 35.9769 33.7403 35.9769ZM35.1721 36.6228C35.1436 36.5666 35.2006 36.5666 35.2279 36.6228C35.2279 36.7071 35.1721 36.7071 35.1721 36.6228ZM29.3023 25.9518V25.9236L29.3593 25.9518V26.0641C29.3308 26.0359 29.3023 25.9798 29.3023 25.9518ZM33.9932 36.2015C34.0205 36.2015 34.0205 36.2858 33.9932 36.2858C33.9089 36.2858 33.9089 36.2015 33.9932 36.2015ZM34.049 30.5571H34.1606L34.0205 30.4728L34.049 30.5571ZM32.7003 29.49C32.7003 29.518 32.7003 29.5462 32.7288 29.5743L32.5886 29.518L32.7003 29.49ZM31.6614 34.4886H31.7742V34.5727L31.6614 34.4886ZM23.5738 29.5462V29.4338L23.6582 29.5462H23.5738ZM31.1283 11.4615C31.1568 11.4615 31.1841 11.4334 31.2126 11.4334L31.1283 11.5739V11.4615ZM35.6209 33.0282H35.7052V33.0844H35.6209V33.0282ZM36.3795 34.7694C36.3795 34.7975 36.3795 34.7975 36.2953 34.7975C36.2395 34.7975 36.3795 34.6852 36.3795 34.7694ZM27.113 11.0684C27.1404 11.0684 27.1404 11.1245 27.113 11.1245C27.0003 11.1245 27.0003 11.0684 27.113 11.0684ZM35.3122 32.7194C35.3122 32.6071 35.368 32.6071 35.368 32.7194C35.368 32.7475 35.3122 32.7475 35.3122 32.7194ZM36.3237 32.2139C36.3237 32.2421 36.3795 32.2421 36.3795 32.2139C36.3795 32.1016 36.3237 32.1016 36.3237 32.2139ZM12.0884 34.7694H12.1169C12.0884 34.7975 12.0611 34.8536 12.0611 34.9098C12.0326 34.8536 12.0326 34.7694 12.0884 34.7694ZM34.4419 36.0331H34.3577V35.9488L34.4419 36.0331ZM27.4217 10.591V10.5068L27.3374 10.6472L27.4217 10.591ZM12.2855 35.7803L12.3698 35.8646V35.7803H12.2855ZM25.8213 12.1074L25.9056 12.1917H25.8213V12.1074ZM27.4217 32.8036H27.506L27.4217 32.7194V32.8036ZM31.9986 8.14789L31.9143 8.23213H31.9986V8.14789ZM32.4201 34.7694V34.6852L32.5044 34.7413L32.4201 34.7694ZM10.2921 34.7975C10.2636 34.7975 10.2636 34.7132 10.2921 34.7132H10.3479L10.2921 34.7975ZM30.7069 8.09172C30.7069 8.00748 30.6511 8.00748 30.6511 8.09172C30.6511 8.11981 30.7069 8.11981 30.7069 8.09172ZM32.7288 35.1063V34.994L32.7846 35.1063H32.7288ZM24.1081 30.192L24.0511 30.0797H24.1081V30.192ZM31.5213 11.7704L31.437 11.6581L31.4655 11.7704H31.5213ZM33.7403 31.5399C33.7118 31.4557 33.7403 31.4557 33.7676 31.5399C33.7676 31.6242 33.7403 31.6242 33.7403 31.5399ZM29.8081 18.1169C29.7523 18.1169 29.7238 18.0888 29.7238 18.0607C29.7523 18.0888 29.8081 18.0888 29.8366 18.0888C29.8366 18.0888 29.8366 18.1169 29.8081 18.1169ZM32.3358 10.0013C32.3358 10.0855 32.3073 10.1136 32.3073 10.0294C32.3073 9.9732 32.3358 9.94512 32.3358 10.0013ZM33.9362 31.3714C33.9362 31.2873 33.9647 31.2873 33.9647 31.3714C33.9647 31.4276 33.9362 31.4276 33.9362 31.3714ZM33.656 30.2202C33.656 30.2763 33.6833 30.2763 33.6833 30.2202C33.6833 30.1359 33.656 30.1359 33.656 30.2202ZM33.8519 7.92324C33.9362 7.92324 33.9362 7.89516 33.8519 7.89516C33.7961 7.89516 33.7961 7.92324 33.8519 7.92324ZM31.2411 13.3711V13.4553H31.1841L31.2411 13.3711ZM32.8973 28.7318V28.788H32.9816L32.8973 28.7318ZM27.6746 33.3092H27.7589L27.6746 33.253V33.3092ZM12.0611 35.5837V35.668H12.1169L12.0611 35.5837ZM30.6511 7.0527L30.5952 7.13694H30.6511V7.0527ZM35.5366 34.0673L35.425 34.0112H35.5093L35.5366 34.0673ZM33.3461 31.203V31.1188L33.4031 31.203H33.3461ZM31.1841 9.86088V9.80471H31.2684L31.1841 9.86088ZM25.68 12.3321C25.7643 12.304 25.7643 12.3321 25.68 12.3601C25.6242 12.3601 25.6242 12.3321 25.68 12.3321ZM33.3188 6.15408V6.21025L33.4031 6.15408H33.3188ZM33.656 30.5009C33.6833 30.5852 33.7118 30.5852 33.6833 30.5009C33.6833 30.4448 33.656 30.4448 33.656 30.5009ZM6.55699 35.6398V35.5557H6.5L6.55699 35.6398ZM40.5919 43.1658C40.6204 43.1938 40.6477 43.222 40.6477 43.25V43.1658H40.5919ZM32.1957 7.33352H32.1672L32.0829 7.47393L32.1957 7.33352ZM27.1973 30.3043C27.1973 30.3043 27.2247 30.3043 27.2532 30.2763V30.3043C27.2532 30.3605 27.2246 30.3325 27.1973 30.3043ZM36.3795 33.2249H36.4353L36.3795 33.281V33.2249ZM27.3932 32.0173C27.3932 32.0735 27.4217 32.1016 27.449 32.1016L27.3932 32.0173ZM29.0221 9.91703C28.9937 9.91703 28.9663 9.94512 28.9663 9.9732L29.0506 9.91703H29.0221ZM23.7994 29.6305L23.7151 29.6023H23.7994V29.6305ZM30.4267 14.8033V14.7752C30.3982 14.7752 30.3697 14.8033 30.3424 14.8033H30.4267ZM10.3479 34.5727C10.3194 34.5727 10.3194 34.6009 10.2921 34.6009C10.2921 34.6009 10.2921 34.5727 10.3194 34.5447C10.3194 34.5447 10.3194 34.5727 10.3479 34.5727ZM32.3916 6.94037L32.3643 7.02462H32.3916V6.94037ZM35.8465 31.877H35.7622L35.8465 31.905V31.877ZM34.8349 34.8817C34.8634 34.8817 34.8634 34.8817 34.8907 34.9098C34.8634 34.9098 34.8349 34.8817 34.8064 34.8817H34.8349ZM40.5634 43.1097V43.0815H40.5361L40.5634 43.1097ZM32.0544 34.7975L32.0829 34.8255H32.0544V34.7975ZM10.2921 34.8255L10.2636 34.8536V34.8255H10.2921ZM32.7288 9.46773C32.7572 9.43965 32.7572 9.41156 32.7572 9.41156L32.7288 9.46773ZM19.6987 29.7708C19.6987 29.7708 19.6987 29.7428 19.7272 29.7428L19.6987 29.7708ZM31.8027 34.6289L31.83 34.657C31.8027 34.657 31.8027 34.6289 31.8027 34.6289ZM34.5547 37.044V37.072V37.044ZM26.4672 31.5399C26.4672 31.568 26.4945 31.5681 26.4945 31.5962C26.4672 31.5681 26.4672 31.568 26.4672 31.5399ZM33.5432 8.99034C33.5432 9.01842 33.5432 9.01842 33.5147 9.01842L33.5432 8.99034Z" fill="white"/>
<defs>
<linearGradient id="paint0_linear_1302_859" x1="48" y1="48" x2="0" y2="0" gradientUnits="userSpaceOnUse">
<stop offset="0.249942" stop-color="#009F80"/>
<stop offset="1" stop-color="#95E7D7"/>
</linearGradient>
</defs>
</svg>
