<svg width="48" height="48" viewBox="0 0 48 48" fill="none" xmlns="http://www.w3.org/2000/svg">
<path d="M0 14C0 6.26801 6.26801 0 14 0H34C41.732 0 48 6.26801 48 14V34C48 41.732 41.732 48 34 48H14C6.26801 48 0 41.732 0 34V14Z" fill="url(#paint0_linear_1320_2270)"/>
<path fill-rule="evenodd" clip-rule="evenodd" d="M9.6548 12.5182C15.996 4.59559 27.5592 3.31359 35.4818 9.6548C43.4044 15.996 44.6864 27.5592 38.3452 35.4818C32.004 43.4044 20.4409 44.6864 12.5182 38.3452C4.59559 32.004 3.31359 20.4409 9.6548 12.5182ZM24.1291 13.7193C26.1598 11.1822 29.8627 10.7716 32.3998 12.8023C34.9371 14.833 35.3475 18.5361 33.3168 21.0732C31.2861 23.6103 27.5832 24.0209 25.0461 21.9902C22.5088 19.9595 22.0983 16.2564 24.1291 13.7193Z" fill="white"/>
<defs>
<linearGradient id="paint0_linear_1320_2270" x1="48" y1="48" x2="0" y2="0" gradientUnits="userSpaceOnUse">
<stop offset="0.164323" stop-color="#03345A"/>
<stop offset="0.855711" stop-color="#03528F"/>
</linearGradient>
</defs>
</svg>
