<svg width="48" height="48" viewBox="0 0 48 48" fill="none" xmlns="http://www.w3.org/2000/svg">
<path d="M0 14C0 6.26801 6.26801 0 14 0H34C41.732 0 48 6.26801 48 14V34C48 41.732 41.732 48 34 48H14C6.26801 48 0 41.732 0 34V14Z" fill="url(#paint0_linear_1301_790)"/>
<path fill-rule="evenodd" clip-rule="evenodd" d="M14.1685 37.1785C10.1565 34.1806 7.55921 29.3936 7.55921 24C7.55921 14.92 14.92 7.55921 24 7.55921C31.4939 7.55921 39.6775 12.0376 41.6567 18.8963C39.445 11.232 32.3785 5.625 24 5.625C13.8518 5.625 5.625 13.8518 5.625 24C5.625 34.1482 13.8518 42.375 24 42.375C34.1482 42.375 42.375 34.1482 42.375 24V23.0329L41.3655 23.0327C41.3355 23.0325 41.2901 23.032 41.2309 23.0311C41.1126 23.0293 40.9391 23.0257 40.7228 23.0183C40.2895 23.0036 39.6874 22.9742 39.0128 22.9155C37.634 22.7956 36.0618 22.5616 34.9909 22.1339C33.268 21.4458 32.2953 20.5337 31.1838 19.4664L31.1196 19.4047C30.0063 18.3351 28.7554 17.1335 26.5877 16.1134C24.4521 15.1084 22.0906 15.2696 20.3553 15.6267C19.4741 15.808 18.7193 16.0471 18.1838 16.241C17.9153 16.3382 17.7001 16.4248 17.5496 16.4882C16.6764 16.8558 15.8288 17.2908 14.9718 17.6944C14.9718 17.6944 16.6532 18.1556 17.4849 18.4131C17.515 18.4224 17.5619 18.4373 17.6234 18.458C17.7464 18.4994 17.9264 18.5636 18.1443 18.6518C18.583 18.8294 19.1599 19.0981 19.7295 19.4642C20.6266 20.0409 21.3703 20.7664 21.6753 21.6571C19.771 21.9075 17.9849 22.7434 16.6493 23.5291C15.8394 24.0055 15.1658 24.4809 14.6938 24.838C14.4573 25.0168 14.2702 25.1669 14.1406 25.2736C14.0318 25.3632 12.3124 26.8788 12.3124 26.8788C12.3124 26.8788 14.5307 27.1147 15.6253 27.3353C16.3535 27.482 17.3353 27.7181 18.3593 28.0755C19.3881 28.4344 20.4274 28.9047 21.2898 29.5067C22.154 30.1099 22.787 30.8073 23.0994 31.6057C24.0091 33.9305 23.1164 36.1952 21.3241 37.4692C19.5531 38.728 16.8606 39.0272 14.1685 37.1785ZM20.438 40.0539C21.1621 39.8187 21.8379 39.477 22.4447 39.0457C24.8836 37.3122 26.1669 34.1369 24.9006 30.9009C24.4031 29.6296 23.4525 28.6574 22.3969 27.9207C21.3395 27.1826 20.1227 26.6422 18.9966 26.2493C18.2561 25.9909 17.5409 25.7915 16.9144 25.6401C17.1367 25.4951 17.376 25.3456 17.6299 25.1962C19.1185 24.3206 20.9933 23.5164 22.7911 23.5164C25.5009 23.5164 27.5191 24.348 29.446 25.2403C29.6212 25.3213 29.797 25.4038 29.9737 25.4868C31.6956 26.2946 33.5041 27.1431 35.6053 27.1431C37.643 27.1431 39.2301 26.567 40.3238 25.9712C39.35 34.1218 32.4129 40.4408 24 40.4408C22.7769 40.4408 21.5849 40.3072 20.438 40.0539ZM38.2339 24.7832C37.5097 25.0303 36.6318 25.2089 35.6053 25.2089C33.957 25.2089 32.5408 24.5486 30.743 23.7103C30.5847 23.6365 30.4234 23.5613 30.2588 23.4851C28.4586 22.6515 26.3759 21.768 23.6649 21.6079C23.3011 19.8129 21.9407 18.5863 20.7754 17.8372C20.6456 17.7537 20.516 17.6747 20.3877 17.6C20.504 17.5727 20.6233 17.5463 20.7452 17.5212C22.3111 17.199 24.1807 17.1184 25.7641 17.8635C27.6434 18.7479 28.7035 19.766 29.8064 20.8252L29.8441 20.8615C30.979 21.9513 32.1793 23.0938 34.2735 23.9301C35.4369 24.3948 36.9426 24.6447 38.2339 24.7832Z" fill="white"/>
<defs>
<linearGradient id="paint0_linear_1301_790" x1="0" y1="0" x2="48" y2="48" gradientUnits="userSpaceOnUse">
<stop stop-color="#29CCB9"/>
<stop offset="0.494792" stop-color="#0091FF"/>
<stop offset="1" stop-color="#FF66B7"/>
</linearGradient>
</defs>
</svg>
