<svg width="48" height="48" viewBox="0 0 48 48" fill="none" xmlns="http://www.w3.org/2000/svg">
<path d="M0 14C0 6.26801 6.26801 0 14 0H34C41.732 0 48 6.26801 48 14V34C48 41.732 41.732 48 34 48H14C6.26801 48 0 41.732 0 34V14Z" fill="url(#paint0_linear_1304_929)"/>
<path fill-rule="evenodd" clip-rule="evenodd" d="M34.1512 32.5733H39.8418C40.4741 32.5734 41.7387 31.3131 41.7387 30.6828C41.7387 30.0526 38.8934 13.6684 38.2611 11.1477C37.6288 8.62697 34.3128 8.78112 33.2028 9.88748C32.4791 10.6088 29.8772 14.2734 28.0661 16.8242C27.0993 18.1859 26.3577 19.2303 26.2477 19.3399C25.9315 19.655 25.9315 20.6002 26.2477 20.9153L29.7253 24.3812C30.0414 24.6963 30.6737 24.6963 31.306 24.3812C31.9383 24.0661 32.5705 23.4359 32.5705 23.4359L34.1512 32.5733ZM4.75 38.875H12.6536L15.815 23.4359L17.0796 24.6963C17.3957 25.0114 18.028 25.0114 18.3441 24.6963L22.1378 20.9153C22.454 20.6002 22.454 19.655 22.1378 19.3399C21.9798 19.1823 20.5573 17.292 19.0162 15.2441C17.475 13.196 15.815 10.9902 15.1827 10.2025C13.9181 8.62708 10.7567 9.04721 10.1244 10.5176C9.49214 11.9879 4.75 38.875 4.75 38.875ZM20.1867 27.7363C19.6929 27.2441 19.6929 26.4461 20.1867 25.9539L23.3997 22.7517C23.8935 22.2595 24.6942 22.2595 25.188 22.7517L28.401 25.9539C28.8948 26.4461 28.8948 27.2441 28.401 27.7363L25.188 30.9384C24.6942 31.4306 23.8935 31.4306 23.3997 30.9384L20.1867 27.7363ZM35.365 38.3066L34.543 34.2106C34.5039 34.0156 34.6535 33.8337 34.853 33.8337H42.1118C42.2625 33.8337 42.3922 33.9397 42.4218 34.087L43.2438 38.183C43.2829 38.378 43.1332 38.5599 42.9337 38.5599H35.675C35.5243 38.5599 35.3945 38.4539 35.365 38.3066Z" fill="white"/>
<defs>
<linearGradient id="paint0_linear_1304_929" x1="48" y1="48" x2="-2.71797e-05" y2="2.71797e-05" gradientUnits="userSpaceOnUse">
<stop offset="0.206617" stop-color="#EC592C"/>
<stop offset="1" stop-color="#E5957D"/>
</linearGradient>
</defs>
</svg>
