<svg width="48" height="48" viewBox="0 0 48 48" fill="none" xmlns="http://www.w3.org/2000/svg">
<path d="M0 14C0 6.26801 6.26801 0 14 0H34C41.732 0 48 6.26801 48 14V34C48 41.732 41.732 48 34 48H14C6.26801 48 0 41.732 0 34V14Z" fill="url(#paint0_linear_1300_1138)"/>
<path fill-rule="evenodd" clip-rule="evenodd" d="M14.3255 10.333C16.8238 7.87877 20.2122 6.5 23.7454 6.5L23.7571 6.50623C25.7331 6.50961 27.6836 6.94428 29.4676 7.77882C31.2516 8.61336 32.8245 9.8269 34.0727 11.3317C35.3208 12.8365 36.2129 14.595 36.6846 16.48C37.1562 18.3649 37.1956 20.3293 36.7999 22.2311L35.9965 22.7703C33.2693 24.6068 28.8511 24.6068 26.1239 22.7703L25.1457 22.1101L23.3396 20.8947C20.3126 18.8571 15.4053 18.8571 12.3801 20.8947L10.6592 22.0513C10.5025 21.2388 10.4236 20.4137 10.4237 19.5867C10.4237 16.1159 11.8272 12.7872 14.3255 10.333ZM25.8603 25.9405C27.3059 26.9148 29.2251 27.4486 31.2323 27.4486C33.2394 27.4486 35.1514 26.9166 36.6033 25.9396L37.6603 25.2278C37.8313 25.1128 37.9487 24.9357 37.9867 24.7357C38.0248 24.5356 37.9803 24.3289 37.8632 24.161C37.7461 23.9931 37.5659 23.8778 37.3623 23.8404C37.1586 23.803 36.9482 23.8466 36.7772 23.9617L35.7202 24.6735C34.3692 25.486 32.8159 25.916 31.2318 25.916C29.6477 25.916 28.0944 25.486 26.7434 24.6735L23.9619 22.8005C22.3705 21.7284 20.271 21.1394 18.0455 21.1394C15.8201 21.1394 13.7206 21.7328 12.1301 22.8005L10.3304 24.0106C10.1628 24.127 10.0485 24.3035 10.0123 24.502C9.97604 24.7005 10.0207 24.905 10.1367 25.0714C10.2527 25.2378 10.4306 25.3527 10.6321 25.3913C10.8336 25.4298 11.0424 25.389 11.2135 25.2776L13.0132 24.0676C14.3447 23.1653 16.1335 22.6724 18.0455 22.6724C19.9576 22.6724 21.7464 23.168 23.0788 24.0676L25.8603 25.9405ZM17.9876 32.9447V25.5516C17.9818 25.3959 17.9888 25.24 18.0084 25.0854C18.0318 24.882 18.1306 24.6941 18.2859 24.5578C18.4413 24.4214 18.6424 24.346 18.8508 24.346C19.053 24.351 19.2463 24.4292 19.3934 24.5657C19.5405 24.7022 19.6311 24.8873 19.6478 25.0854C19.6798 25.3421 19.6892 25.6011 19.6759 25.8594V40.6029C19.6306 41.1501 19.2819 41.5096 18.8127 41.4998C18.3435 41.49 18.0048 41.1154 18.0021 40.5611V35.646L17.9876 32.9447ZM16.4052 32.8976V29.2237L16.4053 28.6111C16.4056 27.5901 16.4058 26.5693 16.3998 25.549C16.3971 24.9057 16.1018 24.5151 15.6045 24.4911C15.1073 24.4671 14.726 24.9004 14.726 25.5437V32.8896C14.7287 33.4893 15.0946 33.9137 15.5792 33.9279C16.0637 33.9422 16.4052 33.5258 16.4052 32.8976ZM21.2645 29.2183V26.638C21.2645 26.0392 21.5879 25.6522 22.0697 25.6522C22.5516 25.6522 22.9229 26.0517 22.9275 26.6158C22.9468 28.3739 22.9468 30.1312 22.9275 31.8876C22.9275 32.4864 22.5652 32.8468 22.0752 32.8414C21.5852 32.8361 21.2645 32.4695 21.26 31.8556V29.2165L21.2645 29.2183ZM11.4644 27.1754V29.7557L11.4599 29.753V32.3929C11.4599 33.0069 11.7841 33.3735 12.275 33.3788C12.7659 33.3841 13.1282 33.0238 13.1282 32.425C13.1445 30.6686 13.1445 28.9113 13.1282 27.1531C13.1228 26.589 12.7524 26.1895 12.2705 26.1895C11.7887 26.1895 11.4644 26.5766 11.4644 27.1754ZM25.3513 27.5572H25.3485C24.8928 27.5572 24.5234 27.9201 24.5234 28.3678V29.7736C24.5234 30.2213 24.8928 30.5842 25.3485 30.5842H25.3513C25.807 30.5842 26.1764 30.2213 26.1764 29.7736V28.3678C26.1764 27.9201 25.807 27.5572 25.3513 27.5572ZM28.6201 28.7877H28.6228C29.0785 28.7877 29.448 29.1506 29.448 29.5983V37.478C29.448 37.9257 29.0785 38.2886 28.6228 38.2886H28.6201C28.1644 38.2886 27.795 37.9257 27.795 37.478V29.5983C27.795 29.1506 28.1644 28.7877 28.6201 28.7877ZM31.8717 29.0928H31.869C31.4133 29.0928 31.0438 29.4557 31.0438 29.9034V36.6007C31.0438 37.0483 31.4133 37.4113 31.869 37.4113H31.8717C32.3274 37.4113 32.6968 37.0483 32.6968 36.6007V29.9034C32.6968 29.4557 32.3274 29.0928 31.8717 29.0928ZM35.1632 28.3285H35.1659C35.6216 28.3285 35.9911 28.6915 35.9911 29.1391V32.0282C35.9911 32.4759 35.6216 32.8388 35.1659 32.8388H35.1632C34.7075 32.8388 34.3381 32.4759 34.3381 32.0282V29.1391C34.3381 28.6915 34.7075 28.3285 35.1632 28.3285Z" fill="white"/>
<defs>
<linearGradient id="paint0_linear_1300_1138" x1="0" y1="0" x2="48" y2="48" gradientUnits="userSpaceOnUse">
<stop offset="0.192874" stop-color="#F2A007"/>
<stop offset="1" stop-color="#A56B00"/>
</linearGradient>
</defs>
</svg>
