<svg width="48" height="48" viewBox="0 0 48 48" fill="none" xmlns="http://www.w3.org/2000/svg">
<path d="M0 14C0 6.26801 6.26801 0 14 0H34C41.732 0 48 6.26801 48 14V34C48 41.732 41.732 48 34 48H14C6.26801 48 0 41.732 0 34V14Z" fill="url(#paint0_linear_1300_1153)"/>
<path fill-rule="evenodd" clip-rule="evenodd" d="M15.6584 19.5813C15.6584 12.8438 21.1126 7.55005 27.6897 7.55005C34.2668 7.55005 39.7209 13.0042 39.7209 19.5813V20.0626H39.0793H16.3001H15.6584V19.5813ZM13.8134 21.9875C13.4148 21.9875 13.0916 22.3107 13.0916 22.7094C13.0916 23.1081 13.4148 23.4313 13.8134 23.4313H41.8864C42.285 23.4313 42.6082 23.1081 42.6082 22.7094C42.6082 22.3107 42.285 21.9875 41.8864 21.9875H13.8134ZM7.31686 26.0781C7.31686 25.6794 7.66379 25.3562 7.95846 25.3562H28.4597C28.7544 25.3562 29.1335 25.6794 29.1335 26.0781C29.1335 26.4768 28.7544 26.8 28.4597 26.8H7.95846C7.66379 26.8 7.31686 26.4768 7.31686 26.0781ZM11.2468 23.4313C11.6455 23.4313 11.9687 23.1081 11.9687 22.7094C11.9687 22.3107 11.6455 21.9875 11.2468 21.9875C10.8481 21.9875 10.5249 22.3107 10.5249 22.7094C10.5249 23.1081 10.8481 23.4313 11.2468 23.4313ZM6.19375 26.0781C6.19375 26.4768 5.87056 26.8 5.47187 26.8C5.07319 26.8 4.75 26.4768 4.75 26.0781C4.75 25.6794 5.07319 25.3562 5.47187 25.3562C5.87056 25.3562 6.19375 25.6794 6.19375 26.0781ZM13.5707 28.7249C13.2175 28.7249 12.9312 29.0481 12.9312 29.4468C12.9312 29.8454 13.2175 30.1686 13.5707 30.1686H38.4396C38.7928 30.1686 39.0791 29.8454 39.0791 29.4468C39.0791 29.0481 38.7928 28.7249 38.4396 28.7249H13.5707ZM21.5938 32.816C21.5938 32.4173 21.8801 32.0941 22.2332 32.0941L42.6105 32.094C42.9637 32.094 43.25 32.4172 43.25 32.8158C43.25 33.2145 42.9637 33.5377 42.6105 33.5377L22.2332 33.5379C21.8801 33.5379 21.5938 33.2147 21.5938 32.816ZM11.0864 30.1686C11.4851 30.1686 11.8083 29.8454 11.8083 29.4468C11.8083 29.0481 11.4851 28.7249 11.0864 28.7249C10.6877 28.7249 10.3645 29.0481 10.3645 29.4468C10.3645 29.8454 10.6877 30.1686 11.0864 30.1686ZM7.63758 32.8158C7.63758 33.2145 7.31439 33.5377 6.91571 33.5377C6.51703 33.5377 6.19383 33.2145 6.19383 32.8158C6.19383 32.4172 6.51703 32.094 6.91571 32.094C7.31439 32.094 7.63758 32.4172 7.63758 32.8158ZM9.48236 32.094C9.08368 32.094 8.76048 32.4172 8.76048 32.8158C8.76048 33.2145 9.08368 33.5377 9.48236 33.5377H19.2678C19.6665 33.5377 19.9897 33.2145 19.9897 32.8158C19.9897 32.4172 19.6665 32.094 19.2678 32.094H9.48236ZM24.3209 36.1845C24.3209 36.5832 23.9977 36.9064 23.5991 36.9064C23.2004 36.9064 22.8772 36.5832 22.8772 36.1845C22.8772 35.7858 23.2004 35.4626 23.5991 35.4626C23.9977 35.4626 24.3209 35.7858 24.3209 36.1845ZM26.1783 35.4626C25.7727 35.4626 25.4438 35.7858 25.4438 36.1845C25.4438 36.5832 25.7727 36.9064 26.1783 36.9064H38.7458C39.1515 36.9064 39.4803 36.5832 39.4803 36.1845C39.4803 35.7858 39.1515 35.4626 38.7458 35.4626H26.1783ZM16.6208 39.5532C16.6208 39.9519 16.2976 40.275 15.8989 40.275C15.5002 40.275 15.177 39.9519 15.177 39.5532C15.177 39.1545 15.5002 38.8313 15.8989 38.8313C16.2976 38.8313 16.6208 39.1545 16.6208 39.5532ZM18.4781 38.8313C18.0725 38.8313 17.7437 39.1545 17.7437 39.5532C17.7437 39.9519 18.0725 40.275 18.4781 40.275H31.0457C31.4513 40.275 31.7801 39.9519 31.7801 39.5532C31.7801 39.1545 31.4513 38.8313 31.0457 38.8313H18.4781Z" fill="white"/>
<defs>
<linearGradient id="paint0_linear_1300_1153" x1="0" y1="0" x2="48" y2="48" gradientUnits="userSpaceOnUse">
<stop stop-color="#53CBC8"/>
<stop offset="1" stop-color="#11807D"/>
</linearGradient>
</defs>
</svg>
