<svg width="48" height="48" viewBox="0 0 48 48" fill="none" xmlns="http://www.w3.org/2000/svg">
<path d="M0 14C0 6.26801 6.26801 0 14 0H34C41.732 0 48 6.26801 48 14V34C48 41.732 41.732 48 34 48H14C6.26801 48 0 41.732 0 34V14Z" fill="url(#paint0_linear_1300_1413)"/>
<path fill-rule="evenodd" clip-rule="evenodd" d="M30.3982 8.10132C27.5979 8.10132 26.0591 8.92615 24.6867 10.5214C23.2589 12.171 22.9846 14.2604 22.9291 15.7457L22.8747 19.9807L25.2353 20.0362L25.2897 15.8011C25.2894 14.7468 25.6375 13.7219 26.2799 12.886C26.9384 12.0611 27.8167 11.6215 28.805 11.6215H28.8604C30.013 11.6215 30.8368 11.8958 31.4409 12.3909C32.1003 12.9414 32.4301 13.7108 32.3746 14.7564C32.3735 15.2733 32.2656 15.7843 32.0578 16.2575C31.8499 16.7307 31.5465 17.1558 31.1666 17.5062C30.3982 18.2202 29.409 18.6608 28.3663 18.6063L26.0591 18.5509L26.0037 20.0362L28.3108 20.0906H28.4217C29.8466 20.0924 31.2152 19.5341 32.2321 18.536C33.2491 17.5379 33.833 16.1801 33.8579 14.7555C33.8579 14.0405 33.748 13.3256 33.4728 12.6661L33.3628 12.3909L33.5282 12.6107C34.2966 13.5464 34.6808 14.701 34.6808 15.911C34.6618 17.2503 34.1143 18.5278 33.1577 19.4654C32.2011 20.4029 30.9128 20.9244 29.5733 20.9165H29.4644L25.1808 20.861L22.7638 20.8056L16.1195 20.6957H15.9551C13.648 20.6957 11.4527 21.5759 9.74956 23.2256C8.04718 24.8744 7.06102 27.1263 7.00374 29.4956C6.94829 30.8709 7.27803 32.1909 7.82759 33.4564L7.77214 33.5108C6.675 31.9711 6.12544 30.2115 6.1799 28.341C6.22376 26.055 7.17156 23.8796 8.81581 22.2909C9.62859 21.4987 10.5913 20.8767 11.6475 20.4613C12.7037 20.0459 13.8323 19.8455 14.9669 19.8718L21.9409 19.9807L21.9954 18.4954L15.0214 18.3855H14.857C12.2283 18.3748 9.70183 19.403 7.82759 21.2462C5.9062 23.1125 4.80065 25.6628 4.75203 28.341C4.69757 31.6958 5.74025 34.6109 7.71768 36.6458C9.85849 38.7915 12.935 39.8907 16.9978 39.8907C19.6892 39.8907 21.7765 39.0658 23.2044 37.4152C24.3025 36.0962 24.961 34.2812 25.0165 32.2463L25.0709 28.0112L22.7093 27.9558L22.6548 32.1909C22.6548 33.291 22.2706 34.3357 21.6666 35.106C21.0071 35.9309 20.0734 36.426 19.0852 36.3705C17.9316 36.3705 17.1077 36.0962 16.5037 35.6011C15.8452 35.0506 15.5155 34.2812 15.5709 33.2365C15.6254 31.0908 17.383 29.3312 19.5248 29.3312H19.5793L21.8854 29.3866L21.9409 27.9013L19.6347 27.8459H19.5238C18.0989 27.8441 16.7304 28.4025 15.7135 29.4005C14.6965 30.3986 14.1126 31.7564 14.0876 33.1811C14.0876 33.896 14.1975 34.6109 14.4728 35.2714L14.5817 35.5457L14.4174 35.3258C13.648 34.3911 13.2638 33.1811 13.2638 32.0265C13.2831 30.6873 13.8306 29.4099 14.7872 28.4725C15.7437 27.535 17.0319 27.0133 18.3712 27.021H18.4811L22.7647 27.0765L25.1808 27.132L31.8261 27.2409H31.9904C36.8226 27.2409 40.8319 23.3355 40.8864 18.442C40.889 17.0789 40.6084 15.7302 40.0625 14.4812L40.118 14.4267C41.2161 15.9665 41.7657 17.7261 41.7102 19.5955C41.6662 21.8815 40.7185 24.0569 39.0743 25.6457C38.2617 26.4379 37.2992 27.06 36.2432 27.4756C35.1871 27.8911 34.0588 28.0918 32.9242 28.0657L25.9492 27.9558L25.8948 29.4411L32.8687 29.551H33.0341C35.669 29.551 38.3604 28.5063 40.3923 26.6913C42.5351 24.7654 43.1935 22.2364 43.248 19.5965C43.3035 16.516 42.2043 13.6553 40.2279 11.566C37.9762 9.3658 34.5719 8.10132 30.3982 8.10132ZM31.934 25.7556H31.8241V25.7546L25.1798 25.6447L22.7638 25.5902L18.4792 25.5348H18.3702C17.5249 25.5319 16.6873 25.6957 15.9052 26.0166C15.1232 26.3376 14.412 26.8094 13.8124 27.4052C12.5489 28.6153 11.8349 30.2649 11.7805 32.0255C11.7805 32.9603 11.9448 33.895 12.33 34.7198L12.4389 35.0496L12.2191 34.7753C11.3408 33.6197 10.9012 32.2453 10.9012 30.8145C10.9566 27.4052 13.7569 24.6555 17.1622 24.6555H17.2721L21.8845 24.7654L21.9399 23.2801L17.3266 23.1702H17.1622C12.934 23.1702 9.4733 26.5804 9.41884 30.8155C9.41972 31.9655 9.64333 33.1044 10.0773 34.1693L10.2427 34.5555L10.0229 34.2247C9.03875 32.9113 8.53477 31.3001 8.59499 29.6599C8.65044 25.5902 12.0003 22.3453 16.0631 22.3453H16.174L22.8182 22.4552L25.1798 22.5097H25.2343L29.5189 22.5652H29.6278C30.4732 22.568 31.3108 22.4043 32.0928 22.0834C32.8749 21.7624 33.5861 21.2905 34.1857 20.6947C35.4492 19.4846 36.1631 17.835 36.2176 16.0754C36.2176 15.1397 36.0532 14.2049 35.668 13.3801L35.5591 13.0503L35.7789 13.3246C36.6428 14.4635 37.1058 15.856 37.0959 17.2854C37.0414 18.9905 36.382 20.5303 35.1739 21.6849C34.0213 22.8404 32.4281 23.4445 30.8359 23.4445H30.7259L26.1136 23.3355L26.0581 24.8208L30.6715 24.9298H30.8359C32.8677 24.9298 34.7353 24.1604 36.2176 22.7305C37.6999 21.2997 38.5238 19.3747 38.5792 17.2854C38.5783 16.1347 38.3543 14.9951 37.9197 13.9296L37.7554 13.5454L37.9752 13.8752C38.9593 15.1886 39.4633 16.7998 39.4031 18.44C39.2931 22.5097 35.9978 25.7556 31.934 25.7556ZM25.2353 24.8763L22.7093 24.8208L22.7638 23.1712L25.2353 23.2266V24.8763Z" fill="white"/>
<defs>
<linearGradient id="paint0_linear_1300_1413" x1="48" y1="48" x2="0.146965" y2="-0.14607" gradientUnits="userSpaceOnUse">
<stop stop-color="#50AA85"/>
<stop offset="1" stop-color="#57C799"/>
</linearGradient>
</defs>
</svg>
