<svg width="48" height="48" viewBox="0 0 48 48" fill="none" xmlns="http://www.w3.org/2000/svg">
<path d="M0 14C0 6.26801 6.26801 0 14 0H34C41.732 0 48 6.26801 48 14V34C48 41.732 41.732 48 34 48H14C6.26801 48 0 41.732 0 34V14Z" fill="url(#paint0_linear_1301_989)"/>
<path fill-rule="evenodd" clip-rule="evenodd" d="M43.25 24.01C43.25 34.3497 35.0926 42.7864 24.855 43.25C31.348 41.1661 36.0469 35.0846 36.0469 27.907C36.0469 19.0083 28.8245 11.7945 19.9151 11.7945C12.9422 11.7945 7.00257 16.2132 4.75 22.4001C5.5689 12.5164 13.8598 4.75 23.9668 4.75C34.6166 4.75 43.25 13.373 43.25 24.01ZM6.63471 27.9069C6.63471 20.581 12.5807 14.6422 19.9154 14.6422C20.1087 14.6422 20.3011 14.6464 20.4924 14.6545C17.2681 16.1802 15.0381 19.4603 15.0381 23.2605C15.0381 28.517 19.3044 32.7781 24.5672 32.7781C28.3721 32.7781 31.6562 30.5507 33.1837 27.3302C33.1919 27.5214 33.196 27.7137 33.196 27.9069C33.196 35.2328 27.25 41.1716 19.9154 41.1716C12.5807 41.1716 6.63471 35.2328 6.63471 27.9069Z" fill="white"/>
<defs>
<linearGradient id="paint0_linear_1301_989" x1="48" y1="48" x2="0" y2="0" gradientUnits="userSpaceOnUse">
<stop offset="0.149369" stop-color="#B533B3"/>
<stop offset="1" stop-color="#38EDF1"/>
</linearGradient>
</defs>
</svg>
