<svg width="48" height="48" viewBox="0 0 48 48" fill="none" xmlns="http://www.w3.org/2000/svg">
<path d="M0 14C0 6.26801 6.26801 0 14 0H34C41.732 0 48 6.26801 48 14V34C48 41.732 41.732 48 34 48H14C6.26801 48 0 41.732 0 34V14Z" fill="url(#paint0_linear_1738_3877)"/>
<path fill-rule="evenodd" clip-rule="evenodd" d="M9.1719 18.7958L26.8349 5.98594C29.7306 3.88592 33.7834 4.52668 35.8872 7.4171C37.991 10.3075 37.3491 14.3531 34.4535 16.4531L31.9331 18.2809C34.748 16.7552 38.3282 17.5113 40.2618 20.168C42.3656 23.0584 41.7237 27.104 38.8281 29.204L21.165 42.0139C18.2694 44.1139 14.2166 43.4732 12.1128 40.5827C10.009 37.6923 10.6509 33.6468 13.5465 31.5468L16.0668 29.7189C13.252 31.2446 9.67182 30.4885 7.73816 27.8318C5.63437 24.9414 6.27627 20.8958 9.1719 18.7958ZM17.8245 28.513L22.9135 24.8223L22.9802 24.7742L33.5957 26.4525L16.0831 39.2839L23.4475 29.402L17.8245 28.513ZM24.9453 23.2799L14.4032 21.6132L31.9158 8.78187L24.5514 18.6638L30.1006 19.5411L24.9453 23.2799Z" fill="white"/>
<defs>
<linearGradient id="paint0_linear_1738_3877" x1="48" y1="48" x2="0.146965" y2="-0.14607" gradientUnits="userSpaceOnUse">
<stop offset="0.166667" stop-color="#7569E5"/>
<stop offset="0.848958" stop-color="#48E8CC"/>
</linearGradient>
</defs>
</svg>
