<svg width="48" height="48" viewBox="0 0 48 48" fill="none" xmlns="http://www.w3.org/2000/svg">
<path d="M0 14C0 6.26801 6.26801 0 14 0H34C41.732 0 48 6.26801 48 14V34C48 41.732 41.732 48 34 48H14C6.26801 48 0 41.732 0 34V14Z" fill="url(#paint0_linear_1304_863)"/>
<path fill-rule="evenodd" clip-rule="evenodd" d="M17.1209 20.9178V41.5H10V20.8027H10.0022C10.0222 18.3031 10.6926 15.8508 11.9486 13.687C13.2238 11.49 15.0574 9.66839 17.264 8.40641C19.4705 7.14442 21.9716 6.48684 24.5143 6.5002C27.057 6.51356 29.5511 7.19738 31.7442 8.48248C33.9372 9.76758 35.7517 11.6084 37.0035 13.8186C38.2556 16.0289 38.901 18.5302 38.8742 21.0694C38.8474 23.6087 38.1497 26.0959 36.8512 28.2794C35.553 30.4628 33.7003 32.2652 31.4806 33.5039L28.0074 27.2964C29.1323 26.6687 30.0713 25.7552 30.7293 24.6487C31.3873 23.5421 31.7409 22.2816 31.7545 20.9946C31.768 19.7077 31.441 18.4401 30.8065 17.3199C30.172 16.1997 29.2525 15.2668 28.141 14.6155C27.0295 13.9642 25.7655 13.6176 24.4768 13.6109C23.1882 13.6041 21.9206 13.9374 20.8023 14.5769C19.684 15.2165 18.7548 16.1398 18.1085 17.2532C17.4622 18.3666 17.1218 19.6308 17.1218 20.9178H17.1209ZM29.1498 34.5462C28.3755 34.8132 27.5798 35.0137 26.7714 35.1459L25.6208 28.1287C26.0305 28.0617 26.4337 27.96 26.8262 27.8247L29.1498 34.5462ZM19.547 34.4828C20.3165 34.7594 21.1082 34.9704 21.9135 35.1133L23.1588 28.1122C22.7506 28.0397 22.3494 27.9328 21.9594 27.7926L19.547 34.4828Z" fill="white"/>
<defs>
<linearGradient id="paint0_linear_1304_863" x1="48" y1="48" x2="0" y2="0" gradientUnits="userSpaceOnUse">
<stop stop-color="#B62EB1"/>
<stop offset="1" stop-color="#E96CE5"/>
</linearGradient>
</defs>
</svg>
