<svg width="48" height="48" viewBox="0 0 48 48" fill="none" xmlns="http://www.w3.org/2000/svg">
<path d="M0 14C0 6.26801 6.26801 0 14 0H34C41.732 0 48 6.26801 48 14V34C48 41.732 41.732 48 34 48H14C6.26801 48 0 41.732 0 34V14Z" fill="url(#paint0_linear_1900_3905)"/>
<path fill-rule="evenodd" clip-rule="evenodd" d="M22.501 9.11207C21.2603 8.54598 19.9068 8.54598 18.7789 9.11207L6.15366 14.8862C5.7025 14.9994 5.24415 15.4522 5.01857 16.0183C4.45462 17.1505 5.01857 18.5091 6.14647 18.962L25.6591 27.6797C26.8998 28.2458 28.2533 28.2458 29.3812 27.6797L41.9009 22.0189C42.4112 21.75 42.8106 21.309 43.0288 20.7735C43.5927 19.6413 43.0288 18.2827 41.9009 17.8298L22.501 9.11207ZM41.788 29.1512C42.9159 29.6041 43.4799 30.9627 42.9159 31.9817C42.6978 32.5172 42.2984 32.9582 41.788 33.2271L29.2684 38.8879C28.1405 39.454 26.787 39.454 25.5463 38.8879L6.14643 30.1702C5.01854 29.7173 4.45459 28.3587 4.90575 27.3398C5.01807 27.0588 5.18591 26.8037 5.39914 26.5896C5.61237 26.3756 5.86658 26.2071 6.14643 26.0944L13.0923 22.9818L24.9112 28.4391C26.9018 29.3051 27.8931 29.2718 29.8637 28.4623L35.2798 26.0338L41.788 29.1512Z" fill="white"/>
<path d="M0 28H14C17.3137 28 20 30.6863 20 34V48H8C3.58172 48 0 44.4183 0 40V28Z" fill="#D43079"/>
<g clip-path="url(#clip0_1900_3905)">
<path d="M9.99875 34.1298C11.326 34.1298 12.4019 33.5038 12.4019 32.7315C12.4019 31.9593 11.326 31.3333 9.99875 31.3333C8.67153 31.3333 7.5956 31.9593 7.5956 32.7315C7.5956 33.5038 8.67153 34.1298 9.99875 34.1298Z" fill="white"/>
<path d="M9.99875 44.6657C11.326 44.6657 12.4019 44.0397 12.4019 43.2674C12.4019 42.4952 11.326 41.8691 9.99875 41.8691C8.67153 41.8691 7.5956 42.4952 7.5956 43.2674C7.5956 44.0397 8.67153 44.6657 9.99875 44.6657Z" fill="white"/>
<path d="M6.64978 36.0655C7.31339 34.9156 7.30909 33.6702 6.64016 33.2838C5.97124 32.8974 4.891 33.5164 4.22739 34.6662C3.56377 35.8161 3.56808 37.0615 4.23701 37.4479C4.90593 37.8343 5.98617 37.2154 6.64978 36.0655Z" fill="white"/>
<path d="M15.769 41.3326C16.4326 40.1827 16.4287 38.9375 15.7602 38.5514C15.0918 38.1653 14.0119 38.7844 13.3483 39.9343C12.6847 41.0842 12.6886 42.3294 13.3571 42.7155C14.0255 43.1016 15.1054 42.4825 15.769 41.3326Z" fill="white"/>
<path d="M6.64051 42.7152C7.30943 42.3288 7.31374 41.0834 6.65013 39.9336C5.98651 38.7837 4.90628 38.1647 4.23735 38.5511C3.56843 38.9375 3.56412 40.1829 4.22773 41.3328C4.89134 42.4827 5.97158 43.1016 6.64051 42.7152Z" fill="white"/>
<path d="M15.7608 37.4481C16.4293 37.062 16.4332 35.8168 15.7696 34.6669C15.106 33.517 14.0261 32.8979 13.3577 33.284C12.6892 33.6701 12.6852 34.9153 13.3489 36.0652C14.0125 37.2151 15.0923 37.8342 15.7608 37.4481Z" fill="white"/>
</g>
<defs>
<linearGradient id="paint0_linear_1900_3905" x1="48" y1="48" x2="4.29153e-06" y2="-4.29153e-06" gradientUnits="userSpaceOnUse">
<stop offset="0.0873541" stop-color="#5314F1"/>
<stop offset="0.746756" stop-color="#04E2FF"/>
</linearGradient>
<clipPath id="clip0_1900_3905">
<rect width="12.5333" height="13.3333" fill="white" transform="translate(3.73333 31.3333)"/>
</clipPath>
</defs>
</svg>
