<svg width="48" height="48" viewBox="0 0 48 48" fill="none" xmlns="http://www.w3.org/2000/svg">
<path d="M0 14C0 6.26801 6.26801 0 14 0H34C41.732 0 48 6.26801 48 14V34C48 41.732 41.732 48 34 48H14C6.26801 48 0 41.732 0 34V14Z" fill="url(#paint0_linear_1900_3908)"/>
<path fill-rule="evenodd" clip-rule="evenodd" d="M22.501 9.11207C21.2603 8.54598 19.9068 8.54598 18.7789 9.11207L6.15366 14.8862C5.7025 14.9994 5.24415 15.4522 5.01857 16.0183C4.45462 17.1505 5.01857 18.5091 6.14647 18.962L25.6591 27.6797C26.8998 28.2458 28.2533 28.2458 29.3812 27.6797L41.9009 22.0189C42.4112 21.75 42.8106 21.309 43.0288 20.7735C43.5927 19.6413 43.0288 18.2827 41.9009 17.8298L22.501 9.11207ZM41.788 29.1512C42.9159 29.6041 43.4799 30.9627 42.9159 31.9817C42.6978 32.5172 42.2984 32.9582 41.788 33.2271L29.2684 38.8879C28.1405 39.454 26.787 39.454 25.5463 38.8879L6.14643 30.1702C5.01854 29.7173 4.45459 28.3587 4.90575 27.3398C5.01807 27.0588 5.18591 26.8037 5.39914 26.5896C5.61237 26.3756 5.86658 26.2071 6.14643 26.0944L13.0923 22.9818L24.9112 28.4391C26.9018 29.3051 27.8931 29.2718 29.8637 28.4623L35.2798 26.0338L41.788 29.1512Z" fill="white"/>
<path d="M0 28H14C17.3137 28 20 30.6863 20 34V48H8C3.58172 48 0 44.4183 0 40V28Z" fill="#3F3F3F"/>
<path d="M15.8873 34.1034C15.6867 33.9447 15.4475 33.7279 15.0116 33.6737C14.6026 33.6195 14.186 33.8944 13.9043 34.0763C13.6227 34.2583 13.0903 34.7926 12.8704 34.9552C12.6505 35.1178 12.0872 35.2688 11.1806 35.8147C10.2739 36.3606 6.71682 38.6525 6.71682 38.6525L7.64275 38.6641L3.51466 40.7973H3.92747L3.33334 41.2503C3.33334 41.2503 3.85803 41.3897 4.29784 41.1109V41.2387C4.29784 41.2387 9.21297 39.2952 10.162 39.7985L9.58334 39.9688C9.63349 39.9688 10.5671 40.0308 10.5671 40.0308C10.5898 40.2248 10.6548 40.4114 10.7575 40.5774C10.8602 40.7433 10.998 40.8845 11.1613 40.9909C11.7245 41.3626 11.7361 41.5678 11.7361 41.5678C11.7361 41.5678 11.4429 41.6878 11.4429 41.8388C11.4429 41.8388 11.875 41.7072 12.2762 41.7188C12.5309 41.7285 12.7835 41.7688 13.0286 41.8388C13.0286 41.8388 12.9977 41.6762 12.608 41.5678C12.2184 41.4594 11.8326 41.0335 11.6435 40.8012C11.5277 40.6534 11.4523 40.4778 11.4245 40.2918C11.3968 40.1058 11.4178 39.9158 11.4853 39.7404C11.6204 39.3881 12.0911 39.1945 13.0633 38.6912C14.2091 38.095 14.4715 37.6536 14.6335 37.3091C14.7955 36.9645 15.0347 36.2793 15.1698 35.9579C15.3395 35.5437 15.5478 35.323 15.7215 35.1913C15.8951 35.0597 16.6667 34.7693 16.6667 34.7693C16.6667 34.7693 16.0764 34.2544 15.8873 34.1034Z" fill="white"/>
<defs>
<linearGradient id="paint0_linear_1900_3908" x1="48" y1="48" x2="4.29153e-06" y2="-4.29153e-06" gradientUnits="userSpaceOnUse">
<stop offset="0.0873541" stop-color="#5314F1"/>
<stop offset="0.746756" stop-color="#04E2FF"/>
</linearGradient>
</defs>
</svg>
