<svg width="48" height="48" viewBox="0 0 48 48" fill="none" xmlns="http://www.w3.org/2000/svg">
<path d="M0 14C0 6.26801 6.26801 0 14 0H34C41.732 0 48 6.26801 48 14V34C48 41.732 41.732 48 34 48H14C6.26801 48 0 41.732 0 34V14Z" fill="url(#paint0_linear_1300_1364)"/>
<path fill-rule="evenodd" clip-rule="evenodd" d="M22.501 9.11207C21.2603 8.54598 19.9068 8.54598 18.7789 9.11207L6.15366 14.8862C5.7025 14.9994 5.24415 15.4522 5.01857 16.0183C4.45462 17.1505 5.01857 18.5091 6.14647 18.962L25.6591 27.6797C26.8998 28.2458 28.2533 28.2458 29.3812 27.6797L41.9009 22.0189C42.4112 21.75 42.8106 21.309 43.0288 20.7735C43.5927 19.6413 43.0288 18.2827 41.9009 17.8298L22.501 9.11207ZM41.788 29.1512C42.9159 29.6041 43.4799 30.9627 42.9159 31.9817C42.6978 32.5172 42.2984 32.9582 41.788 33.2271L29.2684 38.8879C28.1405 39.454 26.787 39.454 25.5463 38.8879L6.14643 30.1702C5.01854 29.7173 4.45459 28.3587 4.90575 27.3398C5.01807 27.0588 5.18591 26.8037 5.39914 26.5896C5.61237 26.3756 5.86658 26.2071 6.14643 26.0944L13.0923 22.9818L24.9112 28.4391C26.9018 29.3051 27.8931 29.2718 29.8637 28.4623L35.2798 26.0338L41.788 29.1512Z" fill="white"/>
<defs>
<linearGradient id="paint0_linear_1300_1364" x1="48" y1="48" x2="4.29153e-06" y2="-4.29153e-06" gradientUnits="userSpaceOnUse">
<stop offset="0.0873541" stop-color="#5314F1"/>
<stop offset="0.746756" stop-color="#04E2FF"/>
<stop offset="0.749768" stop-color="#3F3F3F"/>
</linearGradient>
</defs>
</svg>
