<svg width="48" height="48" viewBox="0 0 48 48" fill="none" xmlns="http://www.w3.org/2000/svg">
<path d="M0 14C0 6.26801 6.26801 0 14 0H34C41.732 0 48 6.26801 48 14V34C48 41.732 41.732 48 34 48H14C6.26801 48 0 41.732 0 34V14Z" fill="url(#paint0_linear_1300_1493)"/>
<path fill-rule="evenodd" clip-rule="evenodd" d="M32.9246 9.125H15.0765H14.2211H9.125V21.0254V22.9254V23.9998H15.0765V22.9254V21.0254V15.0752H32.9246V9.125ZM38.8748 15.0753H32.9246V24L15.0765 24V29.9502H32.9246L32.9246 24H38.8748V15.0753ZM9.125 29.9503H15.0765V32.9261H15.0752V38.875H9.125V32.9261V31.4382V29.9503Z" fill="white"/>
<defs>
<linearGradient id="paint0_linear_1300_1493" x1="48" y1="48" x2="-2.62577e-05" y2="2.62577e-05" gradientUnits="userSpaceOnUse">
<stop stop-color="#78930F"/>
<stop offset="1" stop-color="#D1F068"/>
</linearGradient>
</defs>
</svg>
