<svg width="48" height="48" viewBox="0 0 48 48" fill="none" xmlns="http://www.w3.org/2000/svg">
<path d="M0 14C0 6.26801 6.26801 0 14 0H34C41.732 0 48 6.26801 48 14V34C48 41.732 41.732 48 34 48H14C6.26801 48 0 41.732 0 34V14Z" fill="url(#paint0_linear_1300_1396)"/>
<path fill-rule="evenodd" clip-rule="evenodd" d="M26.3573 17.0582C26.1915 15.2898 25.3073 13.1899 24.6994 13.0794C24.3679 13.0241 23.7047 13.632 23.1521 14.4609C22.3232 15.5661 20.7206 19.1029 20.0022 21.3133C19.8917 21.6449 19.7259 22.0317 19.6707 22.1422C19.5618 22.4145 19.6138 22.4185 20.3026 22.4714L20.3338 22.4738C20.7759 22.4738 21.6048 22.4185 22.1022 22.3633C23.8153 22.2527 25.1415 21.5896 25.8599 20.5396C26.1915 20.0976 26.302 19.8213 26.3573 18.8818C26.3573 18.6792 26.3634 18.452 26.3695 18.2248C26.3818 17.7705 26.3941 17.3161 26.3573 17.0582ZM23.0416 8.49272C23.539 8.32694 23.8705 8.27168 24.1468 8.27168C24.4784 8.21642 24.8652 8.27168 25.4178 8.3822C26.5231 8.54798 26.7441 8.60325 27.4625 9.1006C29.7282 10.869 30.9992 14.3504 30.8334 18.2739C30.6676 21.258 29.7835 23.0264 27.6835 24.5737C25.7494 26.0105 23.2074 26.5631 20.1128 26.2868C19.2838 26.1763 18.5654 26.2315 18.4549 26.2868C18.1234 26.6736 17.5707 33.1392 17.626 37.2285C17.626 40.5994 17.5155 41.3731 17.0181 42.0915C16.576 42.6994 16.1892 42.9757 15.4155 43.1414C14.6419 43.3625 14.2551 43.252 13.5367 42.7546C12.8183 42.2573 12.4314 41.4836 12.2657 40.3784C12.2104 39.66 12.1551 36.0128 12.2104 32.1445C12.2104 30.4314 13.6472 21.5344 14.5314 17.224C15.0287 14.8478 15.084 14.4609 14.9182 14.1294C14.6419 13.5767 14.9182 12.6373 15.6918 11.311L15.6919 11.311C16.1339 10.5926 16.576 9.87425 16.7418 9.65321C17.0734 9.15586 17.9023 8.82429 18.5654 8.93481C19.2286 8.99007 19.947 9.59795 20.0022 10.04C20.0575 10.3163 20.168 10.2611 21.0522 9.59795C21.6601 9.1006 22.3232 8.71377 23.0416 8.49272ZM34.4087 25.1818C34.7955 24.9608 35.2376 24.9055 35.6797 24.9055C36.3429 24.9608 37.0613 25.3476 37.3376 25.9555C38.2217 27.6133 36.3981 29.6027 34.685 28.7185C34.0771 28.387 33.5245 27.6133 33.5245 27.0054C33.5245 26.287 33.9114 25.5134 34.4087 25.1818Z" fill="white"/>
<defs>
<linearGradient id="paint0_linear_1300_1396" x1="48" y1="48" x2="0" y2="0" gradientUnits="userSpaceOnUse">
<stop stop-color="#D57923"/>
<stop offset="1" stop-color="#F8A65A"/>
</linearGradient>
</defs>
</svg>
