<svg width="48" height="48" viewBox="0 0 48 48" fill="none" xmlns="http://www.w3.org/2000/svg">
<path d="M0 14C0 6.26801 6.26801 0 14 0H34C41.732 0 48 6.26801 48 14V34C48 41.732 41.732 48 34 48H14C6.26801 48 0 41.732 0 34V14Z" fill="url(#paint0_linear_1304_977)"/>
<path fill-rule="evenodd" clip-rule="evenodd" d="M19.3725 10.2492L15.6517 13.9512V17.7274V21.439H11.951H8.25L11.951 25.111L15.6517 28.7182V32.3927V36.0668L19.2965 39.6584L22.9413 43.25V35.9776V28.7057L26.6621 28.705L30.3828 28.7044L34.2554 24.9072L38.128 21.1104V17.6268V14.1432L34.2512 10.3218L30.3743 6.5H26.7744H23.189L19.3725 10.2492ZM30.6585 17.6088V21.439L26.8139 21.4378H22.8902V17.8537V13.6707H27.0732H30.6585V17.6088Z" fill="white"/>
<defs>
<linearGradient id="paint0_linear_1304_977" x1="48" y1="48" x2="-2.71797e-05" y2="2.71797e-05" gradientUnits="userSpaceOnUse">
<stop stop-color="#A91056"/>
<stop offset="1" stop-color="#F34594"/>
</linearGradient>
</defs>
</svg>
