<svg width="48" height="48" viewBox="0 0 48 48" fill="none" xmlns="http://www.w3.org/2000/svg">
<path d="M0 14C0 6.26801 6.26801 0 14 0H34C41.732 0 48 6.26801 48 14V34C48 41.732 41.732 48 34 48H14C6.26801 48 0 41.732 0 34V14Z" fill="url(#paint0_linear_1900_4049)"/>
<path d="M40.8438 36.136V31.5666L33.0148 23.674H28.2995L40.8438 36.136Z" fill="white"/>
<path d="M7.15634 12.2477V16.8074L14.9852 24.7H19.7006L7.15634 12.2477Z" fill="white"/>
<path d="M11.2672 7.37512H15.8439L23.7394 15.1916L31.5711 7.37512L36.3461 7.37512L23.7394 19.8994L11.2672 7.37512Z" fill="white"/>
<path d="M12.0367 40.6249H16.6134L24.5089 32.8084L32.3406 40.6249H37.1156L24.5089 28.1006L12.0367 40.6249Z" fill="white"/>
<path d="M24.0554 26.8544C25.2043 26.8544 26.1357 25.9245 26.1357 24.7774C26.1357 23.6303 25.2043 22.7004 24.0554 22.7004C22.9065 22.7004 21.9751 23.6303 21.9751 24.7774C21.9751 25.9245 22.9065 26.8544 24.0554 26.8544Z" fill="white"/>
<path d="M0 28H14C17.3137 28 20 30.6863 20 34V48H8C3.58172 48 0 44.4183 0 40V28Z" fill="#D43079"/>
<g clip-path="url(#clip0_1900_4049)">
<path d="M9.99873 34.1298C11.326 34.1298 12.4019 33.5038 12.4019 32.7315C12.4019 31.9593 11.326 31.3333 9.99873 31.3333C8.67151 31.3333 7.59558 31.9593 7.59558 32.7315C7.59558 33.5038 8.67151 34.1298 9.99873 34.1298Z" fill="white"/>
<path d="M9.99873 44.6657C11.326 44.6657 12.4019 44.0397 12.4019 43.2674C12.4019 42.4952 11.326 41.8691 9.99873 41.8691C8.67151 41.8691 7.59558 42.4952 7.59558 43.2674C7.59558 44.0397 8.67151 44.6657 9.99873 44.6657Z" fill="white"/>
<path d="M6.64979 36.0655C7.3134 34.9156 7.3091 33.6702 6.64017 33.2838C5.97124 32.8974 4.89101 33.5164 4.2274 34.6662C3.56378 35.8161 3.56809 37.0615 4.23701 37.4479C4.90594 37.8343 5.98618 37.2154 6.64979 36.0655Z" fill="white"/>
<path d="M15.769 41.3326C16.4327 40.1827 16.4287 38.9375 15.7602 38.5514C15.0918 38.1653 14.0119 38.7844 13.3483 39.9343C12.6847 41.0842 12.6886 42.3294 13.3571 42.7155C14.0256 43.1016 15.1054 42.4825 15.769 41.3326Z" fill="white"/>
<path d="M6.64054 42.7152C7.30946 42.3288 7.31377 41.0834 6.65016 39.9336C5.98654 38.7837 4.90631 38.1647 4.23738 38.5511C3.56846 38.9375 3.56415 40.1829 4.22776 41.3328C4.89137 42.4827 5.97161 43.1016 6.64054 42.7152Z" fill="white"/>
<path d="M15.7608 37.4481C16.4293 37.062 16.4332 35.8168 15.7696 34.6669C15.106 33.517 14.0261 32.8979 13.3577 33.284C12.6892 33.6701 12.6852 34.9153 13.3489 36.0652C14.0125 37.2151 15.0923 37.8342 15.7608 37.4481Z" fill="white"/>
</g>
<defs>
<linearGradient id="paint0_linear_1900_4049" x1="48" y1="48" x2="0" y2="0" gradientUnits="userSpaceOnUse">
<stop offset="0.281472" stop-color="#2B2D36"/>
<stop offset="0.738793" stop-color="#4D4E56"/>
</linearGradient>
<clipPath id="clip0_1900_4049">
<rect width="12.5333" height="13.3333" fill="white" transform="translate(3.73334 31.3333)"/>
</clipPath>
</defs>
</svg>
