<svg width="48" height="48" viewBox="0 0 48 48" fill="none" xmlns="http://www.w3.org/2000/svg">
<path d="M0 14C0 6.26801 6.26801 0 14 0H34C41.732 0 48 6.26801 48 14V34C48 41.732 41.732 48 34 48H14C6.26801 48 0 41.732 0 34V14Z" fill="url(#paint0_linear_1403_3629)"/>
<path d="M40.8438 36.136V31.5666L33.0148 23.674H28.2995L40.8438 36.136Z" fill="white"/>
<path d="M7.15616 12.2477V16.8074L14.9851 24.7H19.7004L7.15616 12.2477Z" fill="white"/>
<path d="M11.2671 7.37512H15.8438L23.7393 15.1916L31.5709 7.37512L36.3459 7.37512L23.7393 19.8994L11.2671 7.37512Z" fill="white"/>
<path d="M12.0366 40.6249H16.6133L24.5088 32.8084L32.3405 40.6249H37.1155L24.5088 28.1006L12.0366 40.6249Z" fill="white"/>
<path d="M24.0552 26.8544C25.2041 26.8544 26.1355 25.9245 26.1355 24.7774C26.1355 23.6303 25.2041 22.7004 24.0552 22.7004C22.9062 22.7004 21.9749 23.6303 21.9749 24.7774C21.9749 25.9245 22.9062 26.8544 24.0552 26.8544Z" fill="white"/>
<defs>
<linearGradient id="paint0_linear_1403_3629" x1="48" y1="48" x2="0" y2="0" gradientUnits="userSpaceOnUse">
<stop offset="0.281472" stop-color="#2B2D36"/>
<stop offset="0.738793" stop-color="#4D4E56"/>
<stop offset="0.740699" stop-color="#D43079"/>
</linearGradient>
</defs>
</svg>
