<svg width="48" height="48" viewBox="0 0 48 48" fill="none" xmlns="http://www.w3.org/2000/svg">
<path d="M0 14C0 6.26801 6.26801 0 14 0H34C41.732 0 48 6.26801 48 14V34C48 41.732 41.732 48 34 48H14C6.26801 48 0 41.732 0 34V14Z" fill="url(#paint0_linear_1300_1078)"/>
<g clip-path="url(#clip0_1300_1078)">
<path d="M23.9966 13.841C27.4843 13.841 30.3116 12.1977 30.3116 10.1705C30.3116 8.14334 27.4843 6.5 23.9966 6.5C20.509 6.5 17.6816 8.14334 17.6816 10.1705C17.6816 12.1977 20.509 13.841 23.9966 13.841Z" fill="white"/>
<path d="M23.9966 41.4975C27.4843 41.4975 30.3116 39.8541 30.3116 37.827C30.3116 35.7998 27.4843 34.1565 23.9966 34.1565C20.509 34.1565 17.6816 35.7998 17.6816 37.827C17.6816 39.8541 20.509 41.4975 23.9966 41.4975Z" fill="white"/>
<path d="M15.1959 18.9217C16.9397 15.9033 16.9284 12.6341 15.1706 11.6198C13.4128 10.6056 10.5742 12.2303 8.83035 15.2487C7.08651 18.2672 7.09783 21.5363 8.85563 22.5506C10.6134 23.5649 13.4521 21.9402 15.1959 18.9217Z" fill="white"/>
<path d="M39.1593 32.7483C40.9032 29.7299 40.8928 26.4613 39.1362 25.4477C37.3796 24.4341 34.5419 26.0594 32.7981 29.0778C31.0543 32.0963 31.0646 35.3649 32.8212 36.3785C34.5778 37.392 37.4155 35.7668 39.1593 32.7483Z" fill="white"/>
<path d="M15.1716 36.3777C16.9294 35.3635 16.9407 32.0943 15.1969 29.0759C13.453 26.0574 10.6144 24.4327 8.8566 25.447C7.09881 26.4612 7.08749 29.7304 8.83132 32.7488C10.5752 35.7673 13.4138 37.392 15.1716 36.3777Z" fill="white"/>
<path d="M39.1382 22.5516C40.8948 21.538 40.9051 18.2694 39.1613 15.2509C37.4175 12.2325 34.5798 10.6072 32.8232 11.6208C31.0666 12.6344 31.0562 15.903 32.8001 18.9214C34.5439 21.9399 37.3816 23.5652 39.1382 22.5516Z" fill="white"/>
</g>
<defs>
<linearGradient id="paint0_linear_1300_1078" x1="48" y1="48" x2="-2.71797e-05" y2="2.71797e-05" gradientUnits="userSpaceOnUse">
<stop stop-color="#D43079"/>
<stop offset="1" stop-color="#F93C90"/>
</linearGradient>
<clipPath id="clip0_1300_1078">
<rect width="32.935" height="35" fill="white" transform="translate(7.53223 6.5)"/>
</clipPath>
</defs>
</svg>
