<svg width="48" height="48" viewBox="0 0 48 48" fill="none" xmlns="http://www.w3.org/2000/svg">
<path d="M0 14C0 6.26801 6.26801 0 14 0H34C41.732 0 48 6.26801 48 14V34C48 41.732 41.732 48 34 48H14C6.26801 48 0 41.732 0 34V14Z" fill="url(#paint0_linear_1320_2732)"/>
<path fill-rule="evenodd" clip-rule="evenodd" d="M39.4 14.1364C41.5263 14.1364 43.25 12.4269 43.25 10.3182C43.25 8.20946 41.5263 6.5 39.4 6.5C37.2737 6.5 35.55 8.20946 35.55 10.3182C35.55 12.4269 37.2737 14.1364 39.4 14.1364ZM36.1917 25.9091C36.1917 34.5197 29.1532 41.5 20.4708 41.5C11.7885 41.5 4.75 34.5197 4.75 25.9091C4.75 17.2985 11.7885 10.3182 20.4708 10.3182C29.1532 10.3182 36.1917 17.2985 36.1917 25.9091ZM30.3525 25.9091C30.3525 31.3215 25.9283 35.7091 20.4708 35.7091C15.0133 35.7091 10.5892 31.3215 10.5892 25.9091C10.5892 20.4967 15.0133 16.1091 20.4708 16.1091C25.9283 16.1091 30.3525 20.4967 30.3525 25.9091Z" fill="white"/>
<defs>
<linearGradient id="paint0_linear_1320_2732" x1="48" y1="48" x2="-2.71797e-05" y2="2.71797e-05" gradientUnits="userSpaceOnUse">
<stop offset="0.135417" stop-color="#320912"/>
<stop offset="0.578125" stop-color="#CB3B58"/>
<stop offset="0.880208" stop-color="#FF6D8B"/>
</linearGradient>
</defs>
</svg>
