<svg width="48" height="48" viewBox="0 0 48 48" fill="none" xmlns="http://www.w3.org/2000/svg">
<path d="M0 14C0 6.26801 6.26801 0 14 0H34C41.732 0 48 6.26801 48 14V34C48 41.732 41.732 48 34 48H14C6.26801 48 0 41.732 0 34V14Z" fill="url(#paint0_linear_1320_2737)"/>
<mask id="path-2-inside-1_1320_2737" fill="white">
<path fill-rule="evenodd" clip-rule="evenodd" d="M24 41.5C33.665 41.5 41.5 33.665 41.5 24C41.5 14.335 33.665 6.5 24 6.5C14.335 6.5 6.5 14.335 6.5 24C6.5 33.665 14.335 41.5 24 41.5ZM24.0001 34.3814C29.7336 34.3814 34.3814 29.7335 34.3814 24.0001C34.3814 18.2666 29.7336 13.6187 24.0001 13.6187C18.2666 13.6187 13.6187 18.2666 13.6187 24.0001C13.6187 29.7335 18.2666 34.3814 24.0001 34.3814Z"/>
</mask>
<path fill-rule="evenodd" clip-rule="evenodd" d="M24 41.5C33.665 41.5 41.5 33.665 41.5 24C41.5 14.335 33.665 6.5 24 6.5C14.335 6.5 6.5 14.335 6.5 24C6.5 33.665 14.335 41.5 24 41.5ZM24.0001 34.3814C29.7336 34.3814 34.3814 29.7335 34.3814 24.0001C34.3814 18.2666 29.7336 13.6187 24.0001 13.6187C18.2666 13.6187 13.6187 18.2666 13.6187 24.0001C13.6187 29.7335 18.2666 34.3814 24.0001 34.3814Z" fill="white"/>
<path d="M40.5 24C40.5 33.1127 33.1127 40.5 24 40.5V42.5C34.2173 42.5 42.5 34.2173 42.5 24H40.5ZM24 7.5C33.1127 7.5 40.5 14.8873 40.5 24H42.5C42.5 13.7827 34.2173 5.5 24 5.5V7.5ZM7.5 24C7.5 14.8873 14.8873 7.5 24 7.5V5.5C13.7827 5.5 5.5 13.7827 5.5 24H7.5ZM24 40.5C14.8873 40.5 7.5 33.1127 7.5 24H5.5C5.5 34.2173 13.7827 42.5 24 42.5V40.5ZM33.3814 24.0001C33.3814 29.1813 29.1813 33.3814 24.0001 33.3814V35.3814C30.2858 35.3814 35.3814 30.2858 35.3814 24.0001H33.3814ZM24.0001 14.6187C29.1813 14.6187 33.3814 18.8189 33.3814 24.0001H35.3814C35.3814 17.7143 30.2858 12.6187 24.0001 12.6187V14.6187ZM14.6187 24.0001C14.6187 18.8189 18.8189 14.6187 24.0001 14.6187V12.6187C17.7143 12.6187 12.6187 17.7143 12.6187 24.0001H14.6187ZM24.0001 33.3814C18.8189 33.3814 14.6187 29.1813 14.6187 24.0001H12.6187C12.6187 30.2858 17.7143 35.3814 24.0001 35.3814V33.3814Z" fill="white" mask="url(#path-2-inside-1_1320_2737)"/>
<defs>
<linearGradient id="paint0_linear_1320_2737" x1="48" y1="48" x2="-2.71797e-05" y2="2.71797e-05" gradientUnits="userSpaceOnUse">
<stop stop-color="#0D81B4"/>
<stop offset="1" stop-color="#63DCF8"/>
</linearGradient>
</defs>
</svg>
