<svg width="48" height="48" viewBox="0 0 48 48" fill="none" xmlns="http://www.w3.org/2000/svg">
<path d="M0 14C0 6.26801 6.26801 0 14 0H34C41.732 0 48 6.26801 48 14V34C48 41.732 41.732 48 34 48H14C6.26801 48 0 41.732 0 34V14Z" fill="url(#paint0_linear_1840_3835)"/>
<path d="M32.6195 11.0156C30.4385 9.5775 27.7238 9.125 23.897 9.125H16.125V11.4253H23.7382C27.1939 11.4253 29.3328 11.7542 31.058 12.8647C31.8999 13.3847 32.5877 14.1196 33.0505 14.9933C33.5134 15.8671 33.7345 16.8483 33.6913 17.8359C33.7239 18.7822 33.5193 19.7216 33.0952 20.5686C32.6712 21.4155 32.0417 22.1432 31.2639 22.6847C29.7821 23.7119 27.9711 24.2475 23.7341 24.2475H16.125V38.875H18.6355V26.4661H23.4491C27.5232 26.4661 30.5258 26.055 32.7483 24.5338C33.8571 23.7909 34.7596 22.7795 35.3715 21.5943C35.9831 20.4091 36.2842 19.0882 36.2469 17.7552C36.2798 16.414 35.9628 15.0874 35.3268 13.9058C34.6908 12.7241 33.7577 11.7281 32.6195 11.0156Z" fill="white"/>
<defs>
<linearGradient id="paint0_linear_1840_3835" x1="48" y1="48" x2="-2.62577e-05" y2="2.62577e-05" gradientUnits="userSpaceOnUse">
<stop stop-color="#434852"/>
<stop offset="1" stop-color="#787F92"/>
</linearGradient>
</defs>
</svg>
