<svg width="48" height="48" viewBox="0 0 48 48" fill="none" xmlns="http://www.w3.org/2000/svg">
<path d="M0 14C0 6.26801 6.26801 0 14 0H34C41.732 0 48 6.26801 48 14V34C48 41.732 41.732 48 34 48H14C6.26801 48 0 41.732 0 34V14Z" fill="url(#paint0_linear_1329_2089)"/>
<path d="M24 4.75C13.3837 4.75 4.75 13.3756 4.75 23.982C4.75 31.6054 9.21298 38.2107 15.6665 41.32V41.3358H15.6981C18.21 42.5432 21.03 43.2219 24 43.2219C34.6163 43.2219 43.25 34.5963 43.25 23.9899C43.25 13.3756 34.6163 4.75 24 4.75ZM24 6.32834C33.7396 6.32834 41.6702 14.2516 41.6702 23.982C41.6702 26.7757 41.0146 29.4274 39.8534 31.779C37.3098 30.5479 34.7268 29.6325 32.1202 29.009V14.2832C32.1202 13.7702 31.7174 13.3598 31.2118 13.3598H27.9732H19.8135H16.5749C16.0773 13.3598 15.6665 13.7702 15.6665 14.2832V29.0802C13.1388 29.7035 10.6269 30.6031 8.1545 31.7869C6.98544 29.4274 6.32981 26.7835 6.32981 23.982C6.32981 14.2516 14.2605 6.32834 24 6.32834ZM9.17347 33.5625C11.2667 32.5288 13.439 31.7317 15.6744 31.1793V39.5445C13.0282 38.1319 10.7928 36.0642 9.17347 33.5625ZM19.8135 41.1307V21.4251C19.8135 19.1445 21.6856 17.2583 23.921 17.2583C26.1564 17.2583 27.9732 19.105 27.9732 21.3778C27.9732 21.3936 27.9653 21.4094 27.9653 21.4251H27.9732V28.283C26.0695 28.0621 24.158 27.991 22.2464 28.0936L20.6745 30.3743C23.1231 30.1692 25.5087 30.1849 27.8627 30.4533C27.8863 30.4533 27.9021 30.4533 27.9259 30.4612C27.9417 30.4612 27.9574 30.4612 27.9811 30.4691C28.3919 30.5164 29.8848 30.7058 31.2514 31.0451L27.9811 32.1578V41.1939C26.7014 41.4858 25.3745 41.6515 24.0158 41.6515C22.5545 41.6357 21.1563 41.4542 19.8135 41.1307ZM32.1123 39.655V31.2187C34.3398 31.779 36.5437 32.5998 38.7554 33.673C37.0966 36.1906 34.8059 38.2582 32.1123 39.655Z" fill="white"/>
<defs>
<linearGradient id="paint0_linear_1329_2089" x1="48" y1="48" x2="0.146965" y2="-0.14607" gradientUnits="userSpaceOnUse">
<stop offset="0.156759" stop-color="#701AB3"/>
<stop offset="0.521964" stop-color="#A8419D"/>
<stop offset="0.7668" stop-color="#FF6899"/>
<stop offset="0.767415" stop-color="#3F3F3F"/>
</linearGradient>
</defs>
</svg>
