<svg width="48" height="48" viewBox="0 0 48 48" fill="none" xmlns="http://www.w3.org/2000/svg">
<path d="M0 14C0 6.26801 6.26801 0 14 0H34C41.732 0 48 6.26801 48 14V34C48 41.732 41.732 48 34 48H14C6.26801 48 0 41.732 0 34V14Z" fill="url(#paint0_linear_1301_808)"/>
<path fill-rule="evenodd" clip-rule="evenodd" d="M25.812 35.5075L25.8132 35.5088L29.5127 39.6553V39.6554C29.6212 39.7766 29.6801 39.934 29.6774 40.0964C29.6748 40.2589 29.6109 40.4143 29.4984 40.5319C29.4239 40.6099 29.331 40.6679 29.2281 40.7007L29.2266 40.7012C25.2763 41.9377 21.0134 41.7334 17.2003 40.125C13.3859 38.5164 10.2654 35.6078 8.39285 31.9162C6.52022 28.2225 6.01718 23.9883 6.97255 19.961C7.9279 15.9334 10.28 12.3747 13.6113 9.91717C16.9393 7.46054 21.0354 6.26314 25.1676 6.53889C29.2981 6.81509 33.1969 8.54671 36.1712 11.4259C39.1456 14.3049 41.0028 18.1451 41.4135 22.264C41.8245 26.3814 40.7622 30.5112 38.4141 33.9236L38.4128 33.9255L38.4115 33.9274C38.3458 34.0191 38.2571 34.0921 38.1543 34.1391C38.0515 34.186 37.9382 34.2053 37.8256 34.195C37.713 34.1844 37.6051 34.1446 37.5128 34.0796C37.4204 34.0145 37.3468 33.9265 37.2993 33.8242L37.2991 33.8241L34.6967 28.2268L34.6932 28.2191L34.6901 28.2112C34.5983 27.9732 34.5974 27.7099 34.6876 27.4713C35.4265 25.2146 35.4319 22.7831 34.7031 20.5231C33.9752 18.2636 32.5481 16.2918 30.6266 14.8904C28.7085 13.4916 26.394 12.7366 24.0172 12.7344C21.6405 12.733 19.3248 13.4844 17.4046 14.8801C15.4808 16.2786 14.0507 18.2482 13.3193 20.5066C12.5864 22.7674 12.5888 25.2011 13.326 27.4605C14.0618 29.7174 15.4956 31.6842 17.422 33.0791C19.345 34.4711 21.6621 35.218 24.0389 35.212H24.0395C24.187 35.212 24.3358 35.2028 24.4929 35.1929L24.4994 35.1925L24.4994 35.1925C24.6482 35.1831 24.8049 35.1732 24.9611 35.1728C25.1189 35.1601 25.2775 35.1835 25.4248 35.2413C25.5721 35.2991 25.7041 35.3897 25.8109 35.5062L25.812 35.5075ZM31.2351 26.0926L31.2005 26.1367L28.7783 29.2175L28.7775 29.2184L28.7769 29.2194C28.651 29.3765 28.478 29.4893 28.2832 29.5412L28.282 29.5416L28.2809 29.5418L24.4947 30.5139L24.4635 30.522H24.1167L24.0852 30.3044C24.0816 30.2793 24.0803 30.2541 24.0813 30.2288C24.078 30.1911 24.0807 30.153 24.0894 30.1159L24.0902 30.1129L24.091 30.1098L25.305 25.504C25.3286 25.4032 25.3719 25.308 25.4325 25.2239C25.4931 25.1398 25.5698 25.0684 25.6581 25.0139C25.8277 24.9023 26.0333 24.8583 26.2339 24.8908L30.9559 25.5777H31.1818L31.2309 25.768C31.2392 25.7999 31.2426 25.8327 31.2411 25.8656C31.2589 25.9214 31.2613 25.981 31.248 26.038L31.2351 26.0926ZM24.6516 31.2728L24.6642 31.2695L28.8971 30.1564L28.8992 30.1557L28.9012 30.1554C28.9886 30.1338 29.066 30.0833 29.1207 30.0121L29.1216 30.0108L29.1226 30.0097L31.8192 26.5917L31.8955 26.4948H32.2759L32.3442 26.6418L37.3609 37.4287L37.3626 37.4321L37.364 37.4355C37.4361 37.6034 37.4644 37.7867 37.4461 37.9684L37.4458 37.9708L37.4454 37.9732C37.4234 38.1564 37.3529 38.3304 37.2411 38.4774L36.0207 40.1908L36.0161 40.1973L36.0111 40.2033C35.8998 40.3405 35.7494 40.4408 35.5796 40.491L35.5764 40.4918L35.5733 40.4927L33.49 41.0488L33.489 41.049C33.3091 41.0984 33.1191 41.0983 32.9392 41.0488L32.9351 41.0477L32.931 41.0464C32.7508 40.9903 32.5894 40.8863 32.464 40.7456L32.4638 40.7453L24.4766 31.8326L24.4119 31.7604V31.6622C24.4057 31.6326 24.4041 31.6022 24.407 31.5721C24.4043 31.5161 24.4178 31.4604 24.4459 31.4118L24.4913 31.3329L24.5768 31.3009L24.6395 31.2774L24.6516 31.2728Z" fill="white"/>
<defs>
<linearGradient id="paint0_linear_1301_808" x1="48" y1="48" x2="-2.62577e-05" y2="2.62577e-05" gradientUnits="userSpaceOnUse">
<stop stop-color="#CB2E41"/>
<stop offset="1" stop-color="#ED5B6D"/>
</linearGradient>
</defs>
</svg>
