<svg width="48" height="48" viewBox="0 0 48 48" fill="none" xmlns="http://www.w3.org/2000/svg">
<path d="M0 14C0 6.26801 6.26801 0 14 0H34C41.732 0 48 6.26801 48 14V34C48 41.732 41.732 48 34 48H14C6.26801 48 0 41.732 0 34V14Z" fill="url(#paint0_linear_1301_824)"/>
<path fill-rule="evenodd" clip-rule="evenodd" d="M21.9061 7.07401C21.9061 6.02815 22.7488 5.1875 23.7973 5.1875C24.3088 5.1875 24.8011 5.38829 25.1684 5.70582C25.5376 6.02501 25.8236 6.503 25.8236 7.07401C25.8236 7.49767 25.6586 7.88042 25.4121 8.19399L41.0131 35.1334C41.1252 35.1128 41.2408 35.102 41.3588 35.102C42.4033 35.102 43.2501 35.9466 43.2501 36.9885C43.2501 38.0304 42.4033 38.875 41.3588 38.875C40.5523 38.875 39.8637 38.3714 39.5918 37.6622H8.40826C8.13636 38.3714 7.44775 38.875 6.64122 38.875C5.59672 38.875 4.75 38.0304 4.75 36.9885C4.75 35.9466 5.59673 35.102 6.64122 35.102C6.69161 35.102 6.74154 35.1039 6.79094 35.1078L22.4584 8.4093C22.1167 8.06842 21.9061 7.59686 21.9061 7.07401ZM24.2812 8.9369L24.2822 8.93675L39.8606 35.8371C39.7491 35.9812 39.6581 36.1419 39.5918 36.3147H8.40825C8.31859 36.0809 8.18361 35.8694 8.01404 35.6909L23.7016 8.95817C23.7333 8.95973 23.7652 8.96051 23.7973 8.96051L23.8149 8.96052C23.9373 8.96058 24.1144 8.96067 24.2812 8.9369ZM32.4427 31.8682H15.5568L23.9322 17.3151L32.4427 31.8682Z" fill="white"/>
<defs>
<linearGradient id="paint0_linear_1301_824" x1="48" y1="48" x2="-2.62577e-05" y2="2.62577e-05" gradientUnits="userSpaceOnUse">
<stop stop-color="#2A4ECB"/>
<stop offset="1" stop-color="#4CABEC"/>
</linearGradient>
</defs>
</svg>
