<svg width="48" height="48" viewBox="0 0 48 48" fill="none" xmlns="http://www.w3.org/2000/svg">
<path d="M0 14C0 6.26801 6.26801 0 14 0H34C41.732 0 48 6.26801 48 14V34C48 41.732 41.732 48 34 48H14C6.26801 48 0 41.732 0 34V14Z" fill="url(#paint0_linear_1840_3863)"/>
<path d="M12.625 37.125V10.875H25.0181C27.3805 10.875 29.2927 11.232 30.7545 11.9461C32.2164 12.648 33.2866 13.6162 33.9654 14.8506C34.6441 16.073 34.9834 17.4647 34.9834 19.0259C34.9834 21.0712 34.5266 22.6687 33.613 23.8185C32.6993 24.9561 31.5833 25.8638 30.2651 26.5415L35.375 37.125H28.5226L24.1566 27.5399H19.3012V37.125H12.625ZM19.3012 22.8745H24.0979C25.3509 22.8745 26.3559 22.5114 27.113 21.7853C27.883 21.047 28.2681 20.1636 28.2681 19.1349C28.2681 18.0698 27.8765 17.1985 27.0934 16.5207C26.3102 15.843 25.377 15.5041 24.2937 15.5041H19.3012V22.8745Z" fill="white"/>
<defs>
<linearGradient id="paint0_linear_1840_3863" x1="48" y1="48" x2="-2.62577e-05" y2="2.62577e-05" gradientUnits="userSpaceOnUse">
<stop stop-color="#434852"/>
<stop offset="1" stop-color="#787F92"/>
</linearGradient>
</defs>
</svg>
