<svg width="48" height="48" viewBox="0 0 48 48" fill="none" xmlns="http://www.w3.org/2000/svg">
<path d="M0 14C0 6.26801 6.26801 0 14 0H34C41.732 0 48 6.26801 48 14V34C48 41.732 41.732 48 34 48H14C6.26801 48 0 41.732 0 34V14Z" fill="url(#paint0_linear_1300_1448)"/>
<path fill-rule="evenodd" clip-rule="evenodd" d="M18.8599 18.4201C21.6987 21.2589 26.3012 21.2589 29.1399 18.4201C31.9788 15.5814 31.9788 10.9788 29.1399 8.14006C26.3012 5.3013 21.6987 5.3013 18.8599 8.14006C16.0212 10.9788 16.0212 15.5814 18.8599 18.4201ZM8.57927 28.7008C11.418 31.5395 16.0206 31.5395 18.8593 28.7008C21.6982 25.8621 21.6982 21.2595 18.8593 18.4207C16.0206 15.5819 11.418 15.5819 8.57927 18.4207C5.7405 21.2595 5.7405 25.8621 8.57927 28.7008ZM39.4206 28.7008C36.5819 31.5395 31.9793 31.5395 29.1406 28.7008C26.3017 25.8621 26.3017 21.2595 29.1406 18.4207C31.9793 15.5819 36.5819 15.5819 39.4206 18.4207C42.2595 21.2595 42.2595 25.8621 39.4206 28.7008ZM29.1399 28.7013C26.3012 25.8626 21.6987 25.8626 18.8599 28.7013C16.0212 31.5401 16.0212 36.1427 18.8599 38.9814C21.6987 41.8201 26.3012 41.8201 29.1399 38.9814C31.9788 36.1427 31.9788 31.5401 29.1399 28.7013Z" fill="white"/>
<defs>
<linearGradient id="paint0_linear_1300_1448" x1="48" y1="48" x2="-2.62577e-05" y2="2.62577e-05" gradientUnits="userSpaceOnUse">
<stop stop-color="#EB3969"/>
<stop offset="1" stop-color="#EE829F"/>
</linearGradient>
</defs>
</svg>
