<svg width="48" height="48" viewBox="0 0 48 48" fill="none" xmlns="http://www.w3.org/2000/svg">
<path d="M0 14C0 6.26801 6.26801 0 14 0H34C41.732 0 48 6.26801 48 14V34C48 41.732 41.732 48 34 48H14C6.26801 48 0 41.732 0 34V14Z" fill="url(#paint0_linear_1320_2691)"/>
<path d="M13.8672 22.4268L23.4437 5.93446C23.6806 5.52644 24.2666 5.52077 24.5114 5.92412L30.2042 15.3068C30.6002 15.9594 30.3219 16.8123 29.6176 17.1044L14.6417 23.3154C14.0923 23.5432 13.5682 22.9419 13.8672 22.4268Z" fill="white"/>
<path d="M42.2448 36.1547L32.2814 19.1924C31.9675 18.658 31.3091 18.4366 30.7371 18.6729L15.0184 25.1681C14.4956 25.3841 14.2837 26.0134 14.5691 26.5027L20.8381 37.254C20.9495 37.4451 21.1537 37.5625 21.3745 37.5625H41.4417C42.1626 37.5625 42.6105 36.7773 42.2448 36.1547Z" fill="white"/>
<path d="M18.4528 36.6257L12.8238 26.9721C12.462 26.3517 11.5659 26.3561 11.2102 26.98L5.70777 36.631C5.47111 37.046 5.77015 37.5625 6.24715 37.5625H17.9164C18.3961 37.5625 18.6948 37.0408 18.4528 36.6257Z" fill="white"/>
<defs>
<linearGradient id="paint0_linear_1320_2691" x1="48" y1="48" x2="-2.71797e-05" y2="2.71797e-05" gradientUnits="userSpaceOnUse">
<stop offset="0.163836" stop-color="#AA41B9"/>
<stop offset="0.53848" stop-color="#4491F3"/>
<stop offset="1" stop-color="#7FF6AF"/>
</linearGradient>
</defs>
</svg>
