<svg width="48" height="48" viewBox="0 0 48 48" fill="none" xmlns="http://www.w3.org/2000/svg">
<path d="M0 14C0 6.26801 6.26801 0 14 0H34C41.732 0 48 6.26801 48 14V34C48 41.732 41.732 48 34 48H14C6.26801 48 0 41.732 0 34V14Z" fill="url(#paint0_linear_1300_1305)"/>
<path fill-rule="evenodd" clip-rule="evenodd" d="M22.598 11.8076C18.2907 14.2817 16.0144 17.0588 15.8274 20.0645C15.5491 24.5429 20.1332 28.0627 20.1332 28.0627C20.1332 28.0627 14.7403 24.8058 14.4825 20.226C14.3352 17.5992 15.985 11.0645 29.2984 7.27182C31.3746 6.68027 32.8275 6.50174 32.842 6.5L34.4183 7.64007C34.4183 7.64007 32.4583 7.83732 30.1394 8.49797C27.4053 9.27693 24.868 10.3904 22.598 11.8076ZM35.2424 8.32432C35.2559 8.33335 35.9199 8.77668 36.5845 9.33612L36.7933 9.51157L36.5272 9.56696C35.0073 9.88425 33.5481 10.2409 32.1893 10.6281C16.6668 15.0504 16.8788 22.623 16.8829 22.6989L16.9201 23.4138C16.9201 23.4138 15.6848 20.605 17.2196 18.2575C20.4509 13.0898 26.4185 10.4978 30.8558 9.23402C33.3063 8.53584 35.0936 8.31121 35.1532 8.30373L35.1546 8.30355L35.2019 8.29796L35.2422 8.32421L35.2424 8.32432ZM21.0127 20.1806C24.9353 16.6359 29.2177 14.9066 32.1199 14.0798C34.4657 13.4115 36.0827 13.2836 36.1442 13.2788L36.1459 13.2786L36.4022 13.2605L35.3579 14.9531L35.3008 14.9636C34.4788 15.1147 33.6427 15.3108 32.8156 15.5465C26.3287 17.3943 21.8683 21.2464 21.824 21.2852C18.3298 24.568 19.7745 27.2324 19.7745 27.2324C19.7468 27.1996 17.0706 23.8908 21.0127 20.1806ZM37.523 10.3253C37.5029 10.3274 35.4608 10.5447 32.6159 11.355C29.6051 12.2129 25.2209 13.8763 21.4353 16.9281C19.203 18.6623 17.7901 20.7544 17.5588 22.6685C17.4454 23.6025 18.5401 25.5853 18.5401 25.5853L18.3099 24.881C18.2994 24.849 17.3212 21.6411 22.2784 17.919C25.0561 15.833 27.9508 14.4054 31.3875 13.4265C33.1592 12.9217 34.8569 12.5902 36.7335 12.2395L36.7995 12.2271L36.8282 12.166C36.9699 11.862 37.646 10.5308 37.6531 10.5175L37.7627 10.3008L37.523 10.3253ZM15.9926 33.9197C18.8948 33.0929 23.1772 31.3636 27.0998 27.8189C31.0419 24.1088 28.3658 20.8 28.3381 20.7671C28.3381 20.7671 29.7827 23.4315 26.2886 26.7144C26.2442 26.7532 21.7839 30.6053 15.2969 32.4531C14.4698 32.6887 13.6337 32.8849 12.8117 33.036L12.7546 33.0464L11.7103 34.739L11.9666 34.7209L11.9683 34.7208C12.0299 34.7159 13.6469 34.588 15.9926 33.9197ZM12.8705 39.6758C12.8638 39.6714 12.1963 39.2263 11.5281 38.6639L11.3194 38.4884L11.5855 38.433C13.1054 38.1157 14.5646 37.759 15.9234 37.3719C31.4459 32.9496 31.2338 25.3769 31.2298 25.3011L31.1926 24.5862C31.1926 24.5862 32.4279 27.395 30.8931 29.7425C27.6617 34.9102 21.6942 37.5022 17.2569 38.766C14.8033 39.465 13.0146 39.6893 12.9593 39.6963L12.9593 39.6963L12.9581 39.6964L12.9108 39.702L12.8705 39.6758ZM10.5898 37.6748C10.6099 37.6727 12.6519 37.4554 15.4968 36.6451C18.5077 35.7872 22.8918 34.1238 26.6775 31.072C28.9099 29.3379 30.3226 27.2457 30.5539 25.3317C30.6674 24.3976 29.5727 22.4148 29.5727 22.4148L29.8028 23.1191C29.8133 23.1511 30.7916 26.3591 25.8344 30.0811C23.0567 32.1671 20.162 33.5947 16.7253 34.5736C14.9535 35.0784 13.2559 35.4099 11.3793 35.7606L11.3132 35.773L11.2846 35.8342C11.1428 36.1381 10.4668 37.4693 10.4597 37.4826L10.3501 37.6993L10.5898 37.6748ZM25.5146 36.1926C29.8219 33.7184 32.0982 30.9413 32.2852 27.9356C32.5635 23.4572 27.9794 19.9374 27.9794 19.9374C27.9794 19.9374 33.3723 23.1944 33.6302 27.7741C33.7775 30.4009 32.1276 36.9356 18.8143 40.7283C16.7381 41.3199 15.2851 41.4984 15.2706 41.5001L13.6943 40.36C13.6943 40.36 15.6544 40.1628 17.9732 39.5022C20.7073 38.7232 23.2447 37.6098 25.5146 36.1926Z" fill="white"/>
<defs>
<linearGradient id="paint0_linear_1300_1305" x1="0" y1="0" x2="48" y2="48" gradientUnits="userSpaceOnUse">
<stop stop-color="#987ED9"/>
<stop offset="1" stop-color="#5132AA"/>
</linearGradient>
</defs>
</svg>
