<svg width="48" height="48" viewBox="0 0 48 48" fill="none" xmlns="http://www.w3.org/2000/svg">
<path d="M0 14C0 6.26801 6.26801 0 14 0H34C41.732 0 48 6.26801 48 14V34C48 41.732 41.732 48 34 48H14C6.26801 48 0 41.732 0 34V14Z" fill="url(#paint0_linear_1840_3872)"/>
<path d="M39.1158 32.0584L39.75 32.0282C38.7836 36.1657 35.1292 38.7329 30.2366 38.7329H12.901C12.7889 38.7329 12.6813 38.6883 12.602 38.609C12.5227 38.5297 12.4782 38.4222 12.4782 38.31V34.5953C12.4782 33.9144 12.7487 33.2615 13.2301 32.78C13.7115 32.2986 14.3645 32.0282 15.0453 32.0282H26.3104C26.6714 32.0126 27.0259 31.9261 27.3534 31.7734C27.6809 31.6208 27.9751 31.405 28.2192 31.1385C28.4632 30.872 28.6523 30.56 28.7757 30.2203C28.899 29.8807 28.9541 29.52 28.9379 29.159C28.9379 27.2865 27.5185 26.7127 26.25 26.7127H17.1292C12.448 26.7127 9.09564 24.0852 8.25 20.008H12.297C12.2069 19.5493 12.1464 19.0852 12.1158 18.6188V17.3503C12.4178 12.4879 15.9815 9.25635 21.1762 9.25635H37.9983C38.1105 9.25635 38.218 9.3009 38.2973 9.38019C38.3766 9.45948 38.4211 9.56703 38.4211 9.67917V13.4241C38.4211 14.105 38.1507 14.7579 37.6693 15.2394C37.1878 15.7208 36.5349 15.9912 35.854 15.9912H21.0554C20.5293 16.0224 20.0362 16.2576 19.6808 16.6468C19.3255 17.036 19.136 17.5484 19.1527 18.0751C19.1279 18.575 19.301 19.0644 19.6345 19.4375C19.968 19.8106 20.4351 20.0373 20.9346 20.0684H26.854C32.0487 20.0684 35.6124 23.3 35.9144 28.1624V29.8537C35.9103 30.5949 35.8294 31.3338 35.6728 32.0584H39.1158Z" fill="white"/>
<defs>
<linearGradient id="paint0_linear_1840_3872" x1="48" y1="48" x2="-2.62577e-05" y2="2.62577e-05" gradientUnits="userSpaceOnUse">
<stop stop-color="#434852"/>
<stop offset="1" stop-color="#787F92"/>
</linearGradient>
</defs>
</svg>
