<svg width="48" height="48" viewBox="0 0 48 48" fill="none" xmlns="http://www.w3.org/2000/svg">
<path d="M0 14C0 6.26801 6.26801 0 14 0H34C41.732 0 48 6.26801 48 14V34C48 41.732 41.732 48 34 48H14C6.26801 48 0 41.732 0 34V14Z" fill="url(#paint0_linear_1779_3852)"/>
<g clip-path="url(#clip0_1779_3852)">
<path d="M11.6659 21.2589H6.76336C6.31215 21.2589 5.94641 21.6246 5.94641 22.0759C5.94641 22.5271 6.31215 22.8928 6.76336 22.8928H10.4355C11.5665 22.8928 12.4829 23.8092 12.4829 24.9401V25.7834C12.4829 26.8946 11.5821 27.7945 10.4717 27.7945H5.12945C4.67824 27.7962 4.3125 27.4304 4.3125 26.9784C4.3125 26.5272 4.67824 26.1615 5.12945 26.1615H10.032C10.4832 26.1615 10.849 25.7957 10.849 25.3445C10.849 24.8933 10.4832 24.5275 10.032 24.5275H6.35324C5.22644 24.5275 4.3125 23.6136 4.3125 22.4868V21.6797C4.3125 20.5447 5.23219 19.625 6.36721 19.625H11.6659C12.1171 19.625 12.4829 19.9907 12.4829 20.442C12.4837 20.8932 12.1179 21.2589 11.6659 21.2589Z" fill="white"/>
<path d="M22.8603 21.6699V26.9784C22.8603 27.4296 22.4946 27.7954 22.0434 27.7954C21.5921 27.7954 21.2264 27.4296 21.2264 26.9784V22.0759C21.2264 21.6246 20.8607 21.2589 20.4094 21.2589H17.1408C16.6896 21.2589 16.3238 21.6246 16.3238 22.0759V26.9784C16.3238 27.4296 15.9581 27.7954 15.5069 27.7954C15.0557 27.7954 14.6899 27.4296 14.6899 26.9784V21.6896C14.6891 20.5496 15.6137 19.625 16.7537 19.625H20.8155C21.9447 19.625 22.8603 20.5406 22.8603 21.6699Z" fill="white"/>
<path d="M33.2377 21.6994V25.7316C33.2377 26.8716 32.3131 27.7962 31.1731 27.7962H27.1484C25.9985 27.7962 25.0665 26.8642 25.0665 25.7144V21.7035C25.0665 20.5554 25.9969 19.625 27.1451 19.625H31.1633C32.309 19.625 33.2377 20.5537 33.2377 21.6994ZM26.7004 22.0759V25.3445C26.7004 25.7957 27.0662 26.1615 27.5174 26.1615H30.786C31.2372 26.1615 31.603 25.7957 31.603 25.3445V22.0759C31.603 21.6246 31.2372 21.2589 30.786 21.2589H27.5174C27.0662 21.2589 26.7004 21.6246 26.7004 22.0759Z" fill="white"/>
<path d="M37.1502 20.442V25.3445C37.1502 25.7957 37.516 26.1615 37.9672 26.1615C38.4184 26.1615 38.7841 25.7957 38.7841 25.3445V20.442C38.7841 19.9907 39.1499 19.625 39.6011 19.625C40.0523 19.625 40.418 19.9907 40.418 20.442V25.3445C40.418 25.7957 40.7838 26.1615 41.235 26.1615C41.6862 26.1615 42.052 25.7957 42.052 25.3445V20.442C42.052 19.9907 42.4177 19.625 42.8689 19.625C43.3201 19.625 43.6859 19.9907 43.6859 20.442V25.7324C43.6859 26.8716 42.7621 27.7954 41.6229 27.7954H37.5735C36.4368 27.7954 35.5155 26.874 35.5155 25.7374V20.442C35.5155 19.9907 35.8812 19.625 36.3325 19.625C36.7845 19.625 37.1502 19.9907 37.1502 20.442Z" fill="white"/>
<path d="M30.3918 26.1885C30.3967 26.1523 30.423 26.135 30.4501 26.1178C30.4551 26.1145 30.46 26.112 30.4649 26.1104C30.4748 26.1071 30.474 26.1022 30.4707 26.0948C30.4608 26.0734 30.4468 26.0545 30.4304 26.0372C30.391 25.9953 30.3449 25.9608 30.2964 25.9304C30.1978 25.8679 30.1427 25.7775 30.1222 25.6649C30.1206 25.6567 30.1181 25.6526 30.1082 25.6526C30.0458 25.6493 29.9825 25.6452 29.92 25.6419C29.8954 25.6403 29.8699 25.6386 29.8452 25.6378C29.8436 25.637 29.8419 25.6361 29.8436 25.6345C29.8937 25.6197 29.9447 25.6057 29.9948 25.5909C29.9973 25.5901 30.0006 25.5893 30.0038 25.5885C29.9775 25.5753 29.9504 25.5704 29.9225 25.5679C29.8543 25.5614 29.7869 25.5679 29.7195 25.577C29.5913 25.5942 29.4655 25.6246 29.3406 25.6575C29.117 25.7167 28.8976 25.7882 28.6798 25.8646C28.5434 25.9123 28.4077 25.9624 28.273 26.0142C28.2713 26.015 28.2697 26.0167 28.2664 26.015C28.2664 26.0027 28.2664 25.9904 28.2664 25.9756C28.2039 26.0093 28.139 26.0282 28.0683 26.0282C28.0379 26.0282 28.0083 26.0241 27.9763 26.0167C28.0338 25.9731 28.0897 25.9304 28.148 25.8852C28.1061 25.8852 28.0675 25.8852 28.028 25.8852C28.0289 25.8811 28.033 25.8811 28.0354 25.8794C28.0683 25.863 28.1004 25.8457 28.1332 25.8293C28.1702 25.8112 28.2056 25.7907 28.2425 25.7718C28.2639 25.7603 28.2861 25.7504 28.3075 25.7389C28.3436 25.7192 28.3798 25.7011 28.4168 25.6822C28.4587 25.6608 28.4998 25.6394 28.5417 25.6181C28.5803 25.5975 28.619 25.577 28.6584 25.5564C28.6962 25.5367 28.734 25.5178 28.7718 25.4989C28.8129 25.4775 28.854 25.4553 28.8951 25.434C28.9321 25.4151 28.9683 25.397 29.0053 25.3781C29.0644 25.3477 29.1244 25.3164 29.1836 25.286C29.2058 25.2745 29.228 25.263 29.2494 25.2499C29.1606 25.2499 29.0727 25.2499 28.9839 25.2499C28.9839 25.249 28.9831 25.249 28.9831 25.2482C28.997 25.2392 29.011 25.231 29.0242 25.2219C29.062 25.1973 29.0998 25.1726 29.1384 25.1488C29.1918 25.1159 29.2444 25.0806 29.2987 25.0477C29.3365 25.0247 29.3735 24.9992 29.4113 24.9754C29.4499 24.9507 29.4885 24.9269 29.5263 24.9022C29.5609 24.8808 29.5945 24.8586 29.6282 24.8365C29.6743 24.8077 29.7211 24.7789 29.7663 24.7493C29.8008 24.7263 29.8362 24.7041 29.8707 24.6828C29.9167 24.6548 29.9611 24.6244 30.0071 24.5973C30.0458 24.5743 30.0828 24.5488 30.1206 24.5258C30.1584 24.5019 30.1953 24.4781 30.234 24.4551C30.2611 24.4387 30.2874 24.4214 30.3145 24.4041C30.317 24.4025 30.3195 24.4017 30.3219 24.4C30.3236 24.3959 30.3277 24.3943 30.3318 24.3918C30.3836 24.3614 30.4362 24.3318 30.4896 24.3055C30.5537 24.2743 30.6186 24.2455 30.6844 24.2176C30.7164 24.2044 30.7485 24.1905 30.7781 24.1732C30.792 24.165 30.8044 24.1559 30.8159 24.1452C30.8635 24.1025 30.9112 24.0614 30.9597 24.0195C31.0074 23.9776 31.0559 23.9365 31.1076 23.8987C31.157 23.8625 31.2079 23.8288 31.263 23.8025C31.3 23.7853 31.3386 23.7705 31.3789 23.7655C31.4323 23.759 31.4832 23.7664 31.5342 23.7853C31.5958 23.8091 31.6493 23.8444 31.6994 23.8864C31.7298 23.9118 31.7627 23.9348 31.7939 23.9595C31.8367 23.994 31.8802 24.0294 31.9221 24.0647C31.9262 24.068 31.9303 24.0721 31.9328 24.0779C31.9328 24.0787 31.9328 24.0795 31.9328 24.0795C31.9197 24.0885 31.904 24.0918 31.8901 24.0968C31.8186 24.1239 31.7487 24.1551 31.6805 24.1896C31.6616 24.1987 31.6452 24.211 31.6304 24.2258C31.5917 24.2636 31.5572 24.3039 31.5293 24.3499C31.5128 24.377 31.4989 24.4058 31.4882 24.4362C31.4504 24.5455 31.4052 24.6524 31.3624 24.7592C31.3476 24.7962 31.3353 24.8332 31.3189 24.8693C31.3016 24.908 31.2786 24.9433 31.2515 24.9762C31.203 25.0362 31.143 25.083 31.0805 25.1266C31.0156 25.1718 30.9466 25.2104 30.8759 25.2466C30.8077 25.2819 30.7386 25.3156 30.6704 25.351C30.6137 25.3805 30.557 25.4093 30.5052 25.4455C30.4789 25.4636 30.4534 25.4841 30.432 25.5088C30.4082 25.5367 30.3951 25.5704 30.3877 25.6057C30.3688 25.7011 30.391 25.7882 30.446 25.8671C30.469 25.9008 30.4945 25.932 30.5241 25.96C30.566 26.0011 30.612 26.0356 30.6622 26.0644C30.7016 26.0874 30.7444 26.1022 30.7871 26.1194C30.815 26.1301 30.8405 26.1457 30.8561 26.1728C30.8586 26.1769 30.8627 26.1811 30.8594 26.186C30.8578 26.186 30.857 26.186 30.8553 26.186C30.8109 26.1753 30.7666 26.163 30.7205 26.158C30.6975 26.1556 30.6745 26.1539 30.6507 26.1531C30.5948 26.1506 30.5405 26.1564 30.4863 26.1654C30.4633 26.1696 30.4403 26.1753 30.4173 26.1811C30.4099 26.1827 30.4025 26.1835 30.3951 26.186C30.3959 26.1885 30.3942 26.1885 30.3918 26.1885Z" fill="white"/>
<path d="M29.8444 25.6338C29.8452 25.6346 29.846 25.6362 29.846 25.637C29.8428 25.637 29.8395 25.637 29.8345 25.6379C29.8386 25.6346 29.8411 25.6329 29.8444 25.6338Z" fill="white"/>
</g>
<defs>
<linearGradient id="paint0_linear_1779_3852" x1="48" y1="48" x2="0.146965" y2="-0.14607" gradientUnits="userSpaceOnUse">
<stop offset="0.156015" stop-color="#272283"/>
<stop offset="0.816771" stop-color="#7A06EA"/>
</linearGradient>
<clipPath id="clip0_1779_3852">
<rect width="42" height="8.17119" fill="white" transform="translate(3 19.625)"/>
</clipPath>
</defs>
</svg>
