<svg width="48" height="48" viewBox="0 0 48 48" fill="none" xmlns="http://www.w3.org/2000/svg">
<path d="M0 14C0 6.26801 6.26801 0 14 0H34C41.732 0 48 6.26801 48 14V34C48 41.732 41.732 48 34 48H14C6.26801 48 0 41.732 0 34V14Z" fill="url(#paint0_linear_1346_2628)"/>
<path d="M34.3615 38.1043C38.6908 34.9186 41.5 29.7875 41.5 24.0002C41.5 14.3352 33.6651 6.5 23.9999 6.5C14.3349 6.5 6.5 14.3352 6.5 24.0002C6.5 29.7876 9.30931 34.9188 13.6386 38.1045L22.581 23.9642H13.431V20.9499H22.581V17.8477H13.431V14.8333H34.5691V17.8477H25.4208V20.9499H34.5691V23.9642H25.4208L34.3615 38.1043Z" fill="white"/>
<path d="M31.9012 39.619L23.9999 27.1192L16.0987 39.619C18.4722 40.8221 21.1569 41.5 23.9999 41.5C26.843 41.5 29.5277 40.8221 31.9012 39.619Z" fill="white"/>
<defs>
<linearGradient id="paint0_linear_1346_2628" x1="48" y1="48" x2="-2.71797e-05" y2="2.71797e-05" gradientUnits="userSpaceOnUse">
<stop stop-color="#B01915"/>
<stop offset="0.750895" stop-color="#E73B33"/>
<stop offset="0.751221" stop-color="#3F3F3F"/>
</linearGradient>
</defs>
</svg>
