<svg width="48" height="48" viewBox="0 0 48 48" fill="none" xmlns="http://www.w3.org/2000/svg">
<path d="M0 14C0 6.26801 6.26801 0 14 0H34C41.732 0 48 6.26801 48 14V34C48 41.732 41.732 48 34 48H14C6.26801 48 0 41.732 0 34V14Z" fill="url(#paint0_linear_1900_4079)"/>
<path d="M34.3615 38.1043C38.6908 34.9186 41.5 29.7875 41.5 24.0002C41.5 14.3352 33.6651 6.5 23.9999 6.5C14.3349 6.5 6.5 14.3352 6.5 24.0002C6.5 29.7876 9.30931 34.9188 13.6386 38.1045L22.581 23.9642H13.431V20.9499H22.581V17.8477H13.431V14.8333H34.5691V17.8477H25.4208V20.9499H34.5691V23.9642H25.4208L34.3615 38.1043Z" fill="white"/>
<path d="M31.9012 39.619L23.9999 27.1192L16.0987 39.619C18.4722 40.8221 21.1569 41.5 23.9999 41.5C26.843 41.5 29.5277 40.8221 31.9012 39.619Z" fill="white"/>
<path d="M0 28H14C17.3137 28 20 30.6863 20 34V48H8C3.58172 48 0 44.4183 0 40V28Z" fill="#3F3F3F"/>
<path d="M15.8873 34.1034C15.6867 33.9447 15.4475 33.7279 15.0116 33.6737C14.6026 33.6195 14.1859 33.8944 13.9043 34.0763C13.6227 34.2583 13.0903 34.7926 12.8704 34.9552C12.6504 35.1178 12.0872 35.2688 11.1805 35.8147C10.2739 36.3606 6.7168 38.6525 6.7168 38.6525L7.64273 38.6641L3.51464 40.7973H3.92745L3.33331 41.2503C3.33331 41.2503 3.858 41.3897 4.29782 41.1109V41.2387C4.29782 41.2387 9.21294 39.2952 10.162 39.7985L9.58331 39.9688C9.63347 39.9688 10.5671 40.0308 10.5671 40.0308C10.5898 40.2248 10.6548 40.4114 10.7574 40.5774C10.8601 40.7433 10.998 40.8845 11.1612 40.9909C11.7245 41.3626 11.7361 41.5678 11.7361 41.5678C11.7361 41.5678 11.4429 41.6878 11.4429 41.8388C11.4429 41.8388 11.875 41.7072 12.2762 41.7188C12.5309 41.7285 12.7834 41.7688 13.0285 41.8388C13.0285 41.8388 12.9977 41.6762 12.608 41.5678C12.2183 41.4594 11.8325 41.0335 11.6435 40.8012C11.5277 40.6534 11.4522 40.4778 11.4245 40.2918C11.3968 40.1058 11.4177 39.9158 11.4853 39.7404C11.6204 39.3881 12.091 39.1945 13.0633 38.6912C14.2091 38.095 14.4714 37.6536 14.6335 37.3091C14.7955 36.9645 15.0347 36.2793 15.1697 35.9579C15.3395 35.5437 15.5478 35.323 15.7214 35.1913C15.895 35.0597 16.6666 34.7693 16.6666 34.7693C16.6666 34.7693 16.0764 34.2544 15.8873 34.1034Z" fill="white"/>
<defs>
<linearGradient id="paint0_linear_1900_4079" x1="48" y1="48" x2="-2.71797e-05" y2="2.71797e-05" gradientUnits="userSpaceOnUse">
<stop stop-color="#B01915"/>
<stop offset="0.750895" stop-color="#E73B33"/>
</linearGradient>
</defs>
</svg>
