<svg width="48" height="48" viewBox="0 0 48 48" fill="none" xmlns="http://www.w3.org/2000/svg">
<path d="M0 14C0 6.26801 6.26801 0 14 0H34C41.732 0 48 6.26801 48 14V34C48 41.732 41.732 48 34 48H14C6.26801 48 0 41.732 0 34V14Z" fill="url(#paint0_linear_1326_1974)"/>
<path d="M38.7203 20.9699V12.8507L24.0747 5.625L9.27368 12.8118V20.9699L30.2903 31.1868L23.997 34.2558L9.27368 27.069V35.2659L23.997 42.375L38.7203 35.3436V27.1467L17.626 16.8909L24.0747 13.8607L38.7203 20.9699Z" fill="white"/>
<defs>
<linearGradient id="paint0_linear_1326_1974" x1="48" y1="48" x2="-2.71797e-05" y2="2.71797e-05" gradientUnits="userSpaceOnUse">
<stop offset="0.219147" stop-color="#5B49B5"/>
<stop offset="0.614583" stop-color="#8950D3"/>
<stop offset="1" stop-color="#DBD8ED"/>
</linearGradient>
</defs>
</svg>
