<svg width="48" height="48" viewBox="0 0 48 48" fill="none" xmlns="http://www.w3.org/2000/svg">
<path d="M0 14C0 6.26801 6.26801 0 14 0H34C41.732 0 48 6.26801 48 14V34C48 41.732 41.732 48 34 48H14C6.26801 48 0 41.732 0 34V14Z" fill="url(#paint0_linear_1900_3878)"/>
<path fill-rule="evenodd" clip-rule="evenodd" d="M30.6191 19.3564C33.3971 16.0456 32.9653 11.1093 29.6544 8.33111C26.3554 5.56294 21.4429 5.98166 18.6592 9.25987L18.6514 9.23843C14.5899 10.7167 12.4958 15.2075 13.9741 19.2689C15.4523 23.3305 19.9433 25.4246 24.0046 23.9464L21.3281 16.5924L18.6913 9.34794L24.6239 14.3261L30.6191 19.3564ZM29.3353 38.7118C33.3968 37.2335 35.4909 32.7426 34.0125 28.6811C32.5344 24.6198 28.0436 22.5257 23.982 24.0039L26.6588 31.3578L27.6521 34.0874L29.3353 38.7118ZM18.3016 39.6689C14.9907 36.8908 14.5588 31.9545 17.337 28.6436L19.8288 30.7345L23.3319 33.6739L29.3269 38.7044C26.5489 42.0154 21.6126 42.4472 18.3016 39.6689Z" fill="white"/>
<path d="M0 28H14C17.3137 28 20 30.6863 20 34V48H8C3.58172 48 0 44.4183 0 40V28Z" fill="#D43079"/>
<g clip-path="url(#clip0_1900_3878)">
<path d="M9.99876 34.1298C11.326 34.1298 12.4019 33.5038 12.4019 32.7315C12.4019 31.9593 11.326 31.3333 9.99876 31.3333C8.67154 31.3333 7.59561 31.9593 7.59561 32.7315C7.59561 33.5038 8.67154 34.1298 9.99876 34.1298Z" fill="white"/>
<path d="M9.99876 44.6657C11.326 44.6657 12.4019 44.0397 12.4019 43.2674C12.4019 42.4952 11.326 41.8691 9.99876 41.8691C8.67154 41.8691 7.59561 42.4952 7.59561 43.2674C7.59561 44.0397 8.67154 44.6657 9.99876 44.6657Z" fill="white"/>
<path d="M6.64979 36.0655C7.3134 34.9156 7.3091 33.6702 6.64017 33.2838C5.97124 32.8974 4.89101 33.5164 4.2274 34.6662C3.56378 35.8161 3.56809 37.0615 4.23701 37.4479C4.90594 37.8343 5.98618 37.2154 6.64979 36.0655Z" fill="white"/>
<path d="M15.769 41.3326C16.4327 40.1827 16.4287 38.9375 15.7602 38.5514C15.0918 38.1653 14.0119 38.7844 13.3483 39.9343C12.6847 41.0842 12.6886 42.3294 13.3571 42.7155C14.0256 43.1016 15.1054 42.4825 15.769 41.3326Z" fill="white"/>
<path d="M6.64051 42.7152C7.30943 42.3288 7.31374 41.0834 6.65013 39.9336C5.98651 38.7837 4.90628 38.1647 4.23735 38.5511C3.56843 38.9375 3.56412 40.1829 4.22773 41.3328C4.89134 42.4827 5.97158 43.1016 6.64051 42.7152Z" fill="white"/>
<path d="M15.7608 37.4481C16.4293 37.062 16.4332 35.8168 15.7696 34.6669C15.106 33.517 14.0261 32.8979 13.3577 33.284C12.6892 33.6701 12.6852 34.9153 13.3489 36.0652C14.0125 37.2151 15.0923 37.8342 15.7608 37.4481Z" fill="white"/>
</g>
<defs>
<linearGradient id="paint0_linear_1900_3878" x1="48" y1="48" x2="0" y2="0" gradientUnits="userSpaceOnUse">
<stop stop-color="#23371A"/>
<stop offset="0.747945" stop-color="#89C62D"/>
</linearGradient>
<clipPath id="clip0_1900_3878">
<rect width="12.5333" height="13.3333" fill="white" transform="translate(3.73334 31.3333)"/>
</clipPath>
</defs>
</svg>
