<svg width="48" height="48" viewBox="0 0 48 48" fill="none" xmlns="http://www.w3.org/2000/svg">
<path d="M0 14C0 6.26801 6.26801 0 14 0H34C41.732 0 48 6.26801 48 14V34C48 41.732 41.732 48 34 48H14C6.26801 48 0 41.732 0 34V14Z" fill="url(#paint0_linear_1900_3881)"/>
<path fill-rule="evenodd" clip-rule="evenodd" d="M30.6191 19.3564C33.3971 16.0456 32.9653 11.1093 29.6544 8.33111C26.3554 5.56294 21.4429 5.98166 18.6592 9.25987L18.6514 9.23843C14.5899 10.7167 12.4958 15.2075 13.9741 19.2689C15.4523 23.3305 19.9433 25.4246 24.0046 23.9464L21.3281 16.5924L18.6913 9.34794L24.6239 14.3261L30.6191 19.3564ZM29.3353 38.7118C33.3968 37.2335 35.4909 32.7426 34.0125 28.6811C32.5344 24.6198 28.0436 22.5257 23.982 24.0039L26.6588 31.3578L27.6509 34.084L29.3353 38.7118ZM18.3016 39.6689C14.9907 36.8908 14.5588 31.9545 17.337 28.6436L19.8293 30.7349L23.3319 33.6739L29.3269 38.7044C26.5489 42.0154 21.6126 42.4472 18.3016 39.6689Z" fill="white"/>
<path d="M0 28H14C17.3137 28 20 30.6863 20 34V48H8C3.58172 48 0 44.4183 0 40V28Z" fill="#3F3F3F"/>
<path d="M15.8873 34.1034C15.6867 33.9447 15.4475 33.7279 15.0116 33.6737C14.6026 33.6195 14.186 33.8944 13.9043 34.0763C13.6227 34.2583 13.0903 34.7926 12.8704 34.9552C12.6505 35.1178 12.0872 35.2688 11.1806 35.8147C10.2739 36.3606 6.71682 38.6525 6.71682 38.6525L7.64274 38.6641L3.51466 40.7973H3.92746L3.33333 41.2503C3.33333 41.2503 3.85802 41.3897 4.29783 41.1109V41.2387C4.29783 41.2387 9.21296 39.2952 10.162 39.7985L9.58333 39.9688C9.63348 39.9688 10.5671 40.0308 10.5671 40.0308C10.5898 40.2248 10.6548 40.4114 10.7575 40.5774C10.8602 40.7433 10.998 40.8845 11.1613 40.9909C11.7245 41.3626 11.7361 41.5678 11.7361 41.5678C11.7361 41.5678 11.4429 41.6878 11.4429 41.8388C11.4429 41.8388 11.875 41.7072 12.2762 41.7188C12.5309 41.7285 12.7835 41.7688 13.0285 41.8388C13.0285 41.8388 12.9977 41.6762 12.608 41.5678C12.2184 41.4594 11.8326 41.0335 11.6435 40.8012C11.5277 40.6534 11.4523 40.4778 11.4245 40.2918C11.3968 40.1058 11.4177 39.9158 11.4853 39.7404C11.6204 39.3881 12.091 39.1945 13.0633 38.6912C14.2091 38.095 14.4714 37.6536 14.6335 37.3091C14.7955 36.9645 15.0347 36.2793 15.1697 35.9579C15.3395 35.5437 15.5478 35.323 15.7214 35.1913C15.8951 35.0597 16.6667 34.7693 16.6667 34.7693C16.6667 34.7693 16.0764 34.2544 15.8873 34.1034Z" fill="white"/>
<defs>
<linearGradient id="paint0_linear_1900_3881" x1="48" y1="48" x2="0" y2="0" gradientUnits="userSpaceOnUse">
<stop stop-color="#1C3816"/>
<stop offset="0.749836" stop-color="#4F6B49"/>
</linearGradient>
</defs>
</svg>
