<svg width="48" height="48" viewBox="0 0 48 48" fill="none" xmlns="http://www.w3.org/2000/svg">
<path d="M0 14C0 6.26801 6.26801 0 14 0H34C41.732 0 48 6.26801 48 14V34C48 41.732 41.732 48 34 48H14C6.26801 48 0 41.732 0 34V14Z" fill="url(#paint0_linear_1327_2422)"/>
<path fill-rule="evenodd" clip-rule="evenodd" d="M27.3199 4.8207C27.3102 4.79636 27.299 4.779 27.2862 4.76904C26.8375 4.42002 22.3632 8.88707 18.7349 16.7432C19.1823 18.1735 20.4108 20.6602 21.7091 23.0093C22.0084 23.5508 22.3109 24.0842 22.6077 24.5945C22.8069 20.9313 23.0766 17.0301 23.4009 14.906C23.766 12.5146 24.7964 9.90812 25.731 7.90545C26.199 6.90279 26.6442 6.04885 26.9725 5.44543C27.1116 5.18966 27.2298 4.97883 27.3199 4.8207ZM22.895 24.735C22.8951 24.7344 22.8951 24.7338 22.8951 24.7332C24.4814 23.1378 26.0899 21.3326 27.9777 18.6337C36.2026 17.9645 42.3614 20.717 42.9631 21.5207C40.5515 21.3508 37.4511 21.1703 33.5711 21.6137C32.5264 21.7331 31.2899 22.0549 29.9029 22.4801C29.0062 22.7549 28.0413 23.0747 27.021 23.4129L27.021 23.4129L27.021 23.4129L27.021 23.4129L27.021 23.4129L27.0208 23.413L27.0201 23.4132L27.0186 23.4137L27.0156 23.4147C26.4598 23.5989 25.8875 23.7886 25.3008 23.9794C24.5241 24.232 23.721 24.487 22.895 24.735ZM22.5787 25.1364C22.5676 25.1396 22.5566 25.1429 22.5456 25.1461L22.5219 25.1531L22.5023 25.1588C22.4859 25.1637 22.4695 25.1685 22.4531 25.1733C21.9188 25.7001 21.3843 26.2103 20.8397 26.7302L20.8397 26.7302C19.9442 27.5851 19.0214 28.4659 18.0277 29.4893C17.0552 30.4908 15.7083 32.4572 14.4262 34.8488C13.233 37.0745 12.1017 39.6577 11.3841 42.1557C11.5974 41.9875 12.006 41.5384 12.5561 40.9337C13.5113 39.8839 14.8931 38.3651 16.4207 37.0325C18.9355 34.8388 21.742 33.2283 22.2344 32.952C22.2368 32.8863 22.2394 32.8125 22.2423 32.731C22.2562 32.3479 22.2768 31.7955 22.3037 31.1178C22.3576 29.7624 22.437 27.9057 22.539 25.9008C22.5519 25.6482 22.5651 25.3931 22.5787 25.1364ZM22.5253 33.0592C22.5284 32.9722 22.5321 32.8658 22.5366 32.7416C22.5504 32.3589 22.571 31.8068 22.5979 31.1295C22.6518 29.7748 22.7312 27.9193 22.8331 25.9158C22.8387 25.8057 22.8444 25.6952 22.8501 25.5844C23.0501 25.9179 23.245 26.2364 23.4318 26.5351C24.0387 27.505 24.566 28.2734 24.9086 28.6599C27.8953 32.0291 30.3033 35.0303 32.0126 37.5531C33.6129 39.9151 34.5889 41.8412 34.866 43.25C34.701 43.2471 34.56 43.0563 34.2885 42.689C33.8372 42.0786 33.0256 40.9807 31.1442 39.4472C28.0578 36.9313 23.5551 33.7759 22.5253 33.0592ZM22.9194 24.2898C23.1167 20.7221 23.3794 16.9978 23.692 14.9505C24.0507 12.6009 25.0669 10.0247 25.9979 8.02999C26.4627 7.03393 26.9051 6.18547 27.2311 5.58616C27.2806 5.4953 27.3273 5.41017 27.3711 5.33113C27.3739 5.92596 27.294 6.92644 27.2042 8.05172V8.05175V8.05177C27.0896 9.48758 26.9588 11.1266 26.9628 12.3854C26.9649 13.0446 27.1644 14.4331 27.3551 15.7609L27.3551 15.7609L27.3551 15.7611C27.5166 16.8847 27.6717 17.9649 27.6958 18.5228C25.9273 21.0447 24.4102 22.7727 22.9194 24.2898ZM5.14878 16.9547C6.29968 16.3043 15.1398 16.2935 18.5151 17.0194C19.0161 18.5053 20.2096 20.9049 21.4514 23.1517C21.7493 23.6908 22.0506 24.2221 22.3463 24.7308C20.6553 24.0704 19.2319 23.3228 17.4086 22.3653L17.4086 22.3652L17.4086 22.3652L17.4086 22.3652L17.4081 22.365L17.4052 22.3634C17.0658 22.1852 16.7125 21.9997 16.3411 21.8061L16.3374 21.8042L16.3336 21.8025C15.6959 21.5144 14.9573 21.1664 14.1474 20.7847L14.1472 20.7846C11.5554 19.5632 8.23333 17.9976 5.14878 16.9547ZM30.905 27.2672C35.1172 34.2551 35.0595 40.1642 34.9519 42.4195C34.5142 41.0553 33.5917 39.3588 32.2564 37.3879C30.5372 34.8504 28.12 31.8387 25.129 28.4645C24.8046 28.0987 24.2889 27.3498 23.6814 26.3789C23.4705 26.0417 23.2491 25.6788 23.0216 25.2973C24.9576 25.9882 27.3139 26.596 30.905 27.2672ZM21.856 25.3454C19.4731 26.0211 16.9157 26.6095 14.2642 26.8989C13.312 28.9852 12.4313 31.4241 11.9154 33.705C11.3698 36.1165 11.0904 40.5392 11.1663 41.8509C11.8933 39.3978 13.0019 36.8822 14.1666 34.7096C15.4538 32.3087 16.816 30.3145 17.8164 29.2842C18.8224 28.2482 19.7515 27.3613 20.65 26.5036L20.6501 26.5035L20.6501 26.5035L20.6501 26.5035C21.0569 26.1152 21.4574 25.7329 21.856 25.3454ZM17.2689 22.6245C19.0522 23.5612 20.4683 24.3049 22.1277 24.9613C19.6544 25.6763 16.992 26.3052 14.2298 26.6065C13.8721 26.0873 12.5646 24.2962 10.443 22.574C8.0597 20.6393 5.26288 18.178 5.0387 17.2283C8.10901 18.2648 11.4139 19.8222 14.009 21.0451L14.0092 21.0452L14.0099 21.0456C14.822 21.4283 15.5646 21.7782 16.2086 22.0691C16.5781 22.2617 16.9301 22.4466 17.2689 22.6245ZM25.3919 24.2594C24.6367 24.505 23.8556 24.7533 23.0519 24.9954C24.9777 25.6882 27.3265 26.2982 30.9433 26.9748C31.5431 26.569 33.8418 25.0658 36.5625 23.958C38.7558 23.0307 40.3678 22.6625 41.4315 22.4196C42.3237 22.2159 42.8303 22.1002 42.9708 21.8165C40.5593 21.6463 37.4722 21.4642 33.6046 21.9062C32.5881 22.0224 31.3731 22.3374 29.9893 22.7616C29.0956 23.0355 28.1367 23.3534 27.119 23.6906L27.1187 23.6907L27.1185 23.6908L27.1183 23.6909C26.5602 23.8759 25.9843 24.0667 25.3919 24.2594Z" fill="white"/>
<defs>
<linearGradient id="paint0_linear_1327_2422" x1="48" y1="48" x2="-2.71797e-05" y2="2.71797e-05" gradientUnits="userSpaceOnUse">
<stop offset="0.161458" stop-color="#BC1B64"/>
<stop offset="1" stop-color="#EB3D8B"/>
</linearGradient>
</defs>
</svg>
