<svg width="48" height="48" viewBox="0 0 48 48" fill="none" xmlns="http://www.w3.org/2000/svg">
<path d="M0 14C0 6.26801 6.26801 0 14 0H34C41.732 0 48 6.26801 48 14V34C48 41.732 41.732 48 34 48H14C6.26801 48 0 41.732 0 34V14Z" fill="url(#paint0_linear_1320_2773)"/>
<path fill-rule="evenodd" clip-rule="evenodd" d="M22.6586 7.45176C22.6586 8.46065 21.8479 9.27859 20.848 9.27859C19.8481 9.27859 19.0374 8.46065 19.0374 7.45176C19.0374 6.44287 19.8481 5.625 20.848 5.625C21.8479 5.625 22.6586 6.44287 22.6586 7.45176ZM27.5376 9.30629C28.5375 9.30629 29.348 8.48845 29.348 7.47956C29.348 6.47067 28.5375 5.65281 27.5376 5.65281C26.5375 5.65281 25.727 6.47067 25.727 7.47956C25.727 8.48845 26.5375 9.30629 27.5376 9.30629ZM36.5527 10.4309C36.5527 11.4399 35.742 12.2576 34.742 12.2576C33.7421 12.2576 32.9314 11.4399 32.9314 10.4309C32.9314 9.42201 33.7421 8.60412 34.742 8.60412C35.742 8.60412 36.5527 9.42201 36.5527 10.4309ZM32.5803 11.7596C32.5803 12.5822 31.9195 13.2488 31.1043 13.2488C30.2893 13.2488 29.6285 12.5822 29.6285 11.7596C29.6285 10.9373 30.2893 10.2706 31.1043 10.2706C31.9195 10.2706 32.5803 10.9373 32.5803 11.7596ZM19.3609 25.4841C19.7972 25.4841 20.151 25.1272 20.151 24.6869C20.151 24.2466 19.7972 23.8898 19.3609 23.8898C18.9245 23.8898 18.5709 24.2466 18.5709 24.6869C18.5709 25.1272 18.9245 25.4841 19.3609 25.4841ZM18.7051 26.6488C19.1745 26.6599 19.5463 27.0529 19.5352 27.5266C19.5242 28.0003 19.1346 28.3753 18.6651 28.3642C18.1955 28.353 17.8238 27.96 17.8349 27.4863C17.8459 27.0125 18.2355 26.6376 18.7051 26.6488ZM19.0927 21.509C19.6107 21.509 20.0308 21.0851 20.0308 20.5623C20.0308 20.0395 19.6107 19.6158 19.0927 19.6158C18.5745 19.6158 18.1544 20.0395 18.1544 20.5623C18.1544 21.0851 18.5745 21.509 19.0927 21.509ZM19.7665 17.9492C19.7665 18.5698 19.2679 19.073 18.6527 19.073C18.0376 19.073 17.5389 18.5698 17.5389 17.9492C17.5389 17.3286 18.0376 16.8255 18.6527 16.8255C19.2679 16.8255 19.7665 17.3286 19.7665 17.9492ZM20.0967 23.5187C20.533 23.5187 20.8868 23.1618 20.8868 22.7215C20.8868 22.2814 20.533 21.9245 20.0967 21.9245C19.6603 21.9245 19.3065 22.2814 19.3065 22.7215C19.3065 23.1618 19.6603 23.5187 20.0967 23.5187ZM22.1426 24.2385C22.1426 24.6023 21.8503 24.8972 21.4898 24.8972C21.1292 24.8972 20.8368 24.6023 20.8368 24.2385C20.8368 23.8746 21.1292 23.5797 21.4898 23.5797C21.8503 23.5797 22.1426 23.8746 22.1426 24.2385ZM21.2589 26.4585C21.6196 26.4585 21.9119 26.1636 21.9119 25.7997C21.9119 25.436 21.6196 25.1411 21.2589 25.1411C20.8983 25.1411 20.606 25.436 20.606 25.7997C20.606 26.1636 20.8983 26.4585 21.2589 26.4585ZM22.3233 20.5514C22.3233 20.9916 21.9697 21.3485 21.5333 21.3485C21.097 21.3485 20.7432 20.9916 20.7432 20.5514C20.7432 20.1111 21.097 19.7542 21.5333 19.7542C21.9697 19.7542 22.3233 20.1111 22.3233 20.5514ZM22.0668 22.9541C22.4273 22.9541 22.7196 22.6592 22.7196 22.2953C22.7196 21.9315 22.4273 21.6366 22.0668 21.6366C21.7061 21.6366 21.4138 21.9315 21.4138 22.2953C21.4138 22.6592 21.7061 22.9541 22.0668 22.9541ZM23.4769 26.4973C23.4769 26.7999 23.2337 27.0453 22.9337 27.0453C22.6336 27.0453 22.3905 26.7999 22.3905 26.4973C22.3905 26.1945 22.6336 25.9493 22.9337 25.9493C23.2337 25.9493 23.4769 26.1945 23.4769 26.4973ZM23.3453 27.9306C23.3524 27.628 23.115 27.3769 22.8152 27.3699C22.5153 27.3629 22.2665 27.6024 22.2594 27.9049C22.2524 28.2075 22.4898 28.4585 22.7896 28.4655C23.0897 28.4727 23.3383 28.2332 23.3453 27.9306ZM23.5856 25.2072C23.5856 25.51 23.3424 25.7552 23.0424 25.7552C22.7423 25.7552 22.4992 25.51 22.4992 25.2072C22.4992 24.9046 22.7423 24.6592 23.0424 24.6592C23.3424 24.6592 23.5856 24.9046 23.5856 25.2072ZM23.2246 24.2716C23.5246 24.2716 23.7678 24.0264 23.7678 23.7236C23.7678 23.421 23.5246 23.1756 23.2246 23.1756C22.9247 23.1756 22.6814 23.421 22.6814 23.7236C22.6814 24.0264 22.9247 24.2716 23.2246 24.2716ZM23.9818 22.2676C23.9818 22.5702 23.7387 22.8156 23.4386 22.8156C23.1388 22.8156 22.8954 22.5702 22.8954 22.2676C22.8954 21.9649 23.1388 21.7196 23.4386 21.7196C23.7387 21.7196 23.9818 21.9649 23.9818 22.2676ZM23.5417 21.21C23.9024 21.21 24.1947 20.9151 24.1947 20.5514C24.1947 20.1875 23.9024 19.8926 23.5417 19.8926C23.1811 19.8926 22.8887 20.1875 22.8887 20.5514C22.8887 20.9151 23.1811 21.21 23.5417 21.21ZM27.2956 14.954C27.2956 15.5746 26.7969 16.0777 26.1817 16.0777C25.5666 16.0777 25.0679 15.5746 25.0679 14.954C25.0679 14.3334 25.5666 13.8303 26.1817 13.8303C26.7969 13.8303 27.2956 14.3334 27.2956 14.954ZM24.6349 17.6446C25.1531 17.6446 25.5731 17.2209 25.5731 16.6981C25.5731 16.1752 25.1531 15.7514 24.6349 15.7514C24.1167 15.7514 23.6966 16.1752 23.6966 16.6981C23.6966 17.2209 24.1167 17.6446 24.6349 17.6446ZM24.6613 18.6413C24.6613 19.0816 24.3075 19.4385 23.8712 19.4385C23.4349 19.4385 23.0811 19.0816 23.0811 18.6413C23.0811 18.2012 23.4349 17.8443 23.8712 17.8443C24.3075 17.8443 24.6613 18.2012 24.6613 18.6413ZM21.9675 17.0467C22.5826 17.0467 23.0813 16.5435 23.0813 15.9229C23.0813 15.3023 22.5826 14.7992 21.9675 14.7992C21.3524 14.7992 20.8537 15.3023 20.8537 15.9229C20.8537 16.5435 21.3524 17.0467 21.9675 17.0467ZM22.3521 18.3146C22.3521 18.8374 21.932 19.2611 21.4138 19.2611C20.8958 19.2611 20.4757 18.8374 20.4757 18.3146C20.4757 17.7918 20.8958 17.3679 21.4138 17.3679C21.932 17.3679 22.3521 17.7918 22.3521 18.3146ZM21.6307 27.867C21.6396 27.479 21.335 27.157 20.9503 27.1479C20.5655 27.1389 20.2465 27.4462 20.2376 27.8345C20.2287 28.2225 20.5332 28.5445 20.918 28.5536C21.3028 28.5626 21.6218 28.2552 21.6307 27.867ZM29.5787 13.2378C29.5787 13.941 29.0136 14.5111 28.3168 14.5111C27.6198 14.5111 27.0548 13.941 27.0548 13.2378C27.0548 12.5347 27.6198 11.9647 28.3168 11.9647C29.0136 11.9647 29.5787 12.5347 29.5787 13.2378ZM26.4009 10.5637C26.4009 11.3862 25.7401 12.0529 24.9249 12.0529C24.1099 12.0529 23.4491 11.3862 23.4491 10.5637C23.4491 9.74136 24.1099 9.07468 24.9249 9.07468C25.7401 9.07468 26.4009 9.74136 26.4009 10.5637ZM23.1256 14.6384C23.8226 14.6384 24.3876 14.0685 24.3876 13.3653C24.3876 12.6621 23.8226 12.0921 23.1256 12.0921C22.4286 12.0921 21.8637 12.6621 21.8637 13.3653C21.8637 14.0685 22.4286 14.6384 23.1256 14.6384ZM19.4932 12.9996C20.3084 12.9996 20.969 12.333 20.969 11.5106C20.969 10.6881 20.3084 10.0214 19.4932 10.0214C18.678 10.0214 18.0172 10.6881 18.0172 11.5106C18.0172 12.333 18.678 12.9996 19.4932 12.9996ZM20.0462 15.0096C20.0462 15.7128 19.4811 16.2827 18.7842 16.2827C18.0872 16.2827 17.5222 15.7128 17.5222 15.0096C17.5222 14.3063 18.0872 13.7364 18.7842 13.7364C19.4811 13.7364 20.0462 14.3063 20.0462 15.0096ZM17.5055 23.9393C18.0237 23.9393 18.4437 23.5155 18.4437 22.9928C18.4437 22.47 18.0237 22.0462 17.5055 22.0462C16.9873 22.0462 16.5673 22.47 16.5673 22.9928C16.5673 23.5155 16.9873 23.9393 17.5055 23.9393ZM17.0941 20.6179C17.0941 21.2385 16.5954 21.7415 15.9803 21.7415C15.3652 21.7415 14.8665 21.2385 14.8665 20.6179C14.8665 19.9971 15.3652 19.4941 15.9803 19.4941C16.5954 19.4941 17.0941 19.9971 17.0941 20.6179ZM15.0364 18.8626C15.7333 18.8626 16.2983 18.2926 16.2983 17.5895C16.2983 16.8863 15.7333 16.3162 15.0364 16.3162C14.3394 16.3162 13.7744 16.8863 13.7744 17.5895C13.7744 18.2926 14.3394 18.8626 15.0364 18.8626ZM16.3242 25.4593C16.8755 25.4722 17.3121 25.9335 17.2993 26.4897C17.2865 27.0461 16.8292 27.4866 16.2778 27.4736C15.7265 27.4607 15.2899 26.9994 15.3027 26.443C15.3155 25.8868 15.7728 25.4463 16.3242 25.4593ZM15.4546 11.1227C16.4546 11.1227 17.2652 10.3048 17.2652 9.29597C17.2652 8.28706 16.4546 7.4692 15.4546 7.4692C14.4546 7.4692 13.644 8.28706 13.644 9.29597C13.644 10.3048 14.4546 11.1227 15.4546 11.1227ZM16.2714 13.8524C16.2714 14.6747 15.6106 15.3414 14.7955 15.3414C13.9804 15.3414 13.3196 14.6747 13.3196 13.8524C13.3196 13.0298 13.9804 12.3632 14.7955 12.3632C15.6106 12.3632 16.2714 13.0298 16.2714 13.8524ZM12.1761 13.4067C12.1981 12.4592 11.4546 11.6731 10.5155 11.651C9.57645 11.6288 8.79737 12.3788 8.77538 13.3264C8.75341 14.2737 9.49687 15.0598 10.436 15.082C11.375 15.1041 12.1541 14.354 12.1761 13.4067ZM11.1929 16.6559C11.9715 16.6742 12.5878 17.326 12.5696 18.1114C12.5514 18.8969 11.9055 19.5187 11.127 19.5004C10.3484 19.4821 9.73207 18.8303 9.75029 18.0449C9.76851 17.2594 10.4144 16.6376 11.1929 16.6559ZM13.6553 21.8212C13.6715 21.1213 13.1223 20.5407 12.4286 20.5243C11.7349 20.5078 11.1593 21.062 11.1431 21.7619C11.1269 22.4618 11.6761 23.0423 12.3698 23.0588C13.0635 23.0752 13.639 22.5211 13.6553 21.8212ZM14.1488 23.3932C14.7698 23.4077 15.2615 23.9276 15.2469 24.5541C15.2324 25.1807 14.7172 25.6768 14.0962 25.6621C13.4752 25.6473 12.9835 25.1276 12.998 24.501C13.0126 23.8745 13.5278 23.3784 14.1488 23.3932ZM20.3314 42.3472C21.3313 42.3472 22.1418 41.5295 22.1418 40.5205C22.1418 39.5116 21.3313 38.6937 20.3314 38.6937C19.3313 38.6937 18.5207 39.5116 18.5207 40.5205C18.5207 41.5295 19.3313 42.3472 20.3314 42.3472ZM33.764 22.34C34.385 22.3547 34.8766 22.8745 34.8621 23.5011C34.8475 24.1275 34.3324 24.6236 33.7113 24.6089C33.0903 24.5942 32.5987 24.0744 32.6132 23.4478C32.6278 22.8214 33.1429 22.3253 33.764 22.34ZM31.8877 28.5122C32.5029 28.5122 33.0016 28.0091 33.0016 27.3885C33.0016 26.7679 32.5029 26.2649 31.8877 26.2649C31.2726 26.2649 30.7739 26.7679 30.7739 27.3885C30.7739 28.0091 31.2726 28.5122 31.8877 28.5122ZM31.5833 20.529C32.1346 20.542 32.5711 21.0034 32.5582 21.5598C32.5452 22.116 32.0878 22.5563 31.5365 22.5433C30.9851 22.5302 30.5486 22.0689 30.5616 21.5125C30.5745 20.9563 31.0319 20.516 31.5833 20.529ZM32.832 31.6902C33.529 31.6902 34.094 31.1201 34.094 30.417C34.094 29.7138 33.529 29.1437 32.832 29.1437C32.135 29.1437 31.5701 29.7138 31.5701 30.417C31.5701 31.1201 32.135 31.6902 32.832 31.6902ZM29.7155 27.444C29.7155 27.9669 29.2955 28.3905 28.7773 28.3905C28.2592 28.3905 27.8391 27.9669 27.8391 27.444C27.8391 26.9212 28.2592 26.4974 28.7773 26.4974C29.2955 26.4974 29.7155 26.9212 29.7155 27.444ZM29.2154 31.1809C29.8305 31.1809 30.3292 30.6778 30.3292 30.0571C30.3292 29.4365 29.8305 28.9334 29.2154 28.9334C28.6003 28.9334 28.1016 29.4365 28.1016 30.0571C28.1016 30.6778 28.6003 31.1809 29.2154 31.1809ZM24.9739 27.4551C24.9739 27.8189 24.6816 28.1137 24.3211 28.1137C23.9605 28.1137 23.6682 27.8189 23.6682 27.4551C23.6682 27.0912 23.9605 26.7963 24.3211 26.7963C24.6816 26.7963 24.9739 27.0912 24.9739 27.4551ZM24.4303 26.2868C24.7304 26.2868 24.9735 26.0414 24.9735 25.7388C24.9735 25.4362 24.7304 25.1908 24.4303 25.1908C24.1305 25.1908 23.8871 25.4362 23.8871 25.7388C23.8871 26.0414 24.1305 26.2868 24.4303 26.2868ZM25.1827 24.2822C25.1827 24.585 24.9395 24.8304 24.6395 24.8304C24.3395 24.8304 24.0963 24.585 24.0963 24.2822C24.0963 23.9796 24.3395 23.7342 24.6395 23.7342C24.9395 23.7342 25.1827 23.9796 25.1827 24.2822ZM24.9355 22.057C25.2354 22.057 25.4785 21.8116 25.4785 21.509C25.4785 21.2062 25.2354 20.961 24.9355 20.961C24.6355 20.961 24.3923 21.2062 24.3923 21.509C24.3923 21.8116 24.6355 22.057 24.9355 22.057ZM25.0779 19.544C25.3777 19.5511 25.6151 19.8021 25.6081 20.1047C25.601 20.4073 25.3522 20.6467 25.0524 20.6397C24.7525 20.6327 24.5151 20.3816 24.5222 20.079C24.5292 19.7764 24.7778 19.5369 25.0779 19.544ZM24.8251 23.3468C25.1252 23.3468 25.3683 23.1014 25.3683 22.7986C25.3683 22.496 25.1252 22.2506 24.8251 22.2506C24.5251 22.2506 24.2819 22.496 24.2819 22.7986C24.2819 23.1014 24.5251 23.3468 24.8251 23.3468ZM26.444 25.7002C26.444 26.0639 26.1516 26.3588 25.7911 26.3588C25.4305 26.3588 25.1382 26.0639 25.1382 25.7002C25.1382 25.3363 25.4305 25.0414 25.7911 25.0414C26.1516 25.0414 26.444 25.3363 26.444 25.7002ZM26.3297 28.2521C26.766 28.2521 27.1197 27.8952 27.1197 27.4551C27.1197 27.0148 26.766 26.6579 26.3297 26.6579C25.8933 26.6579 25.5395 27.0148 25.5395 27.4551C25.5395 27.8952 25.8933 28.2521 26.3297 28.2521ZM27.031 23.7674C27.031 24.1313 26.7386 24.4262 26.3781 24.4262C26.0175 24.4262 25.7252 24.1313 25.7252 23.7674C25.7252 23.4037 26.0175 23.1088 26.3781 23.1088C26.7386 23.1088 27.031 23.4037 27.031 23.7674ZM26.6039 22.8596C26.9646 22.8596 27.2569 22.5647 27.2569 22.2008C27.2569 21.8371 26.9646 21.5422 26.6039 21.5422C26.2433 21.5422 25.9509 21.8371 25.9509 22.2008C25.9509 22.5647 26.2433 22.8596 26.6039 22.8596ZM26.9443 19.4507C27.3291 19.4597 27.6337 19.7817 27.6246 20.1699C27.6156 20.558 27.2965 20.8654 26.9117 20.8563C26.5269 20.847 26.2225 20.5251 26.2314 20.1369C26.2404 19.7488 26.5596 19.4416 26.9443 19.4507ZM21.6814 34.1761C22.2965 34.1761 22.7952 33.673 22.7952 33.0524C22.7952 32.4317 22.2965 31.9286 21.6814 31.9286C21.0663 31.9286 20.5676 32.4317 20.5676 33.0524C20.5676 33.673 21.0663 34.1761 21.6814 34.1761ZM24.1733 31.3083C24.1733 31.8311 23.7532 32.255 23.235 32.255C22.7168 32.255 22.2967 31.8311 22.2967 31.3083C22.2967 30.7856 22.7168 30.3618 23.235 30.3618C23.7532 30.3618 24.1733 30.7856 24.1733 31.3083ZM23.9967 30.1567C24.4331 30.1567 24.7867 29.7998 24.7867 29.3597C24.7867 28.9194 24.4331 28.5626 23.9967 28.5626C23.5602 28.5626 23.2066 28.9194 23.2066 29.3597C23.2066 29.7998 23.5602 30.1567 23.9967 30.1567ZM27.0145 32.0834C27.0145 32.704 26.5158 33.2072 25.9007 33.2072C25.2855 33.2072 24.7869 32.704 24.7869 32.0834C24.7869 31.4628 25.2855 30.9597 25.9007 30.9597C26.5158 30.9597 27.0145 31.4628 27.0145 32.0834ZM26.4494 30.6384C26.9674 30.6384 27.3875 30.2146 27.3875 29.6918C27.3875 29.1691 26.9674 28.7453 26.4494 28.7453C25.9312 28.7453 25.5111 29.1691 25.5111 29.6918C25.5111 30.2146 25.9312 30.6384 26.4494 30.6384ZM28.5563 25.285C28.5563 25.7253 28.2025 26.0822 27.7662 26.0822C27.3298 26.0822 26.9762 25.7253 26.9762 25.285C26.9762 24.8447 27.3298 24.4878 27.7662 24.4878C28.2025 24.4878 28.5563 24.8447 28.5563 25.285ZM28.502 24.1163C28.9383 24.1163 29.2921 23.7594 29.2921 23.3191C29.2921 22.8788 28.9383 22.522 28.502 22.522C28.0656 22.522 27.7118 22.8788 27.7118 23.3191C27.7118 23.7594 28.0656 24.1163 28.502 24.1163ZM29.1957 19.6384C29.6653 19.6496 30.0371 20.0426 30.026 20.5164C30.015 20.9901 29.6254 21.3651 29.1558 21.354C28.6863 21.3429 28.3147 20.9497 28.3256 20.476C28.3366 20.0023 28.7262 19.6273 29.1957 19.6384ZM13.1267 39.4022C14.1267 39.4022 14.9373 38.5843 14.9373 37.5754C14.9373 36.5664 14.1267 35.7487 13.1267 35.7487C12.1267 35.7487 11.3161 36.5664 11.3161 37.5754C11.3161 38.5843 12.1267 39.4022 13.1267 39.4022ZM18.2398 36.2466C18.2398 37.069 17.579 37.7357 16.7638 37.7357C15.9487 37.7357 15.2879 37.069 15.2879 36.2466C15.2879 35.4243 15.9487 34.7576 16.7638 34.7576C17.579 34.7576 18.2398 35.4243 18.2398 36.2466ZM19.5518 36.0363C20.2488 36.0363 20.8137 35.4662 20.8137 34.763C20.8137 34.0599 20.2488 33.4898 19.5518 33.4898C18.8548 33.4898 18.2898 34.0599 18.2898 34.763C18.2898 35.4662 18.8548 36.0363 19.5518 36.0363ZM24.4193 37.4426C24.4193 38.2649 23.7584 38.9316 22.9433 38.9316C22.1281 38.9316 21.4674 38.2649 21.4674 37.4426C21.4674 36.6203 22.1281 35.9536 22.9433 35.9536C23.7584 35.9536 24.4193 36.6203 24.4193 37.4426ZM24.7427 35.9142C25.4397 35.9142 26.0046 35.3443 26.0046 34.6411C26.0046 33.938 25.4397 33.3679 24.7427 33.3679C24.0459 33.3679 23.4807 33.938 23.4807 34.6411C23.4807 35.3443 24.0459 35.9142 24.7427 35.9142ZM28.8263 40.5483C28.8263 41.5571 28.0156 42.375 27.0157 42.375C26.0156 42.375 25.2051 41.5571 25.2051 40.5483C25.2051 39.5394 26.0156 38.7216 27.0157 38.7216C28.0156 38.7216 28.8263 39.5394 28.8263 40.5483ZM28.3769 37.9848C29.192 37.9848 29.8527 37.3181 29.8527 36.4958C29.8527 35.6734 29.192 35.0066 28.3769 35.0066C27.5617 35.0066 26.9008 35.6734 26.9008 36.4958C26.9008 37.3181 27.5617 37.9848 28.3769 37.9848ZM30.3462 32.9968C30.3462 33.7 29.7812 34.2701 29.0843 34.2701C28.3873 34.2701 27.8223 33.7 27.8223 32.9968C27.8223 32.2937 28.3873 31.7237 29.0843 31.7237C29.7812 31.7237 30.3462 32.2937 30.3462 32.9968ZM30.3577 25.9541C30.8759 25.9541 31.296 25.5303 31.296 25.0074C31.296 24.4846 30.8759 24.0609 30.3577 24.0609C29.8395 24.0609 29.4194 24.4846 29.4194 25.0074C29.4194 25.5303 29.8395 25.9541 30.3577 25.9541ZM34.2247 38.7103C34.2247 39.7192 33.414 40.5371 32.4141 40.5371C31.4142 40.5371 30.6035 39.7192 30.6035 38.7103C30.6035 37.7015 31.4142 36.8836 32.4141 36.8836C33.414 36.8836 34.2247 37.7015 34.2247 38.7103ZM33.0677 35.6431C33.8828 35.6431 34.5437 34.9764 34.5437 34.1541C34.5437 33.3317 33.8828 32.6649 33.0677 32.6649C32.2525 32.6649 31.5918 33.3317 31.5918 34.1541C31.5918 34.9764 32.2525 35.6431 33.0677 35.6431ZM35.4905 24.9454C36.1843 24.9618 36.7334 25.5423 36.7172 26.2422C36.7009 26.9421 36.1253 27.4963 35.4316 27.4799C34.738 27.4636 34.1887 26.8829 34.2049 26.183C34.2212 25.4831 34.7968 24.9289 35.4905 24.9454ZM38.1117 29.9592C38.1298 29.1737 37.5135 28.5221 36.735 28.5038C35.9563 28.4853 35.3105 29.1073 35.2922 29.8926C35.2741 30.6782 35.8904 31.3298 36.6689 31.3483C37.4474 31.3666 38.0934 30.7448 38.1117 29.9592ZM37.4303 32.9212C38.3694 32.9433 39.1128 33.7293 39.0911 34.6767C39.0692 35.6242 38.2901 36.3743 37.351 36.3522C36.4119 36.3301 35.6685 35.5442 35.6902 34.5967C35.7121 33.6494 36.4912 32.8991 37.4303 32.9212Z" fill="white"/>
<defs>
<linearGradient id="paint0_linear_1320_2773" x1="48" y1="48" x2="-2.71797e-05" y2="2.71797e-05" gradientUnits="userSpaceOnUse">
<stop stop-color="#FFBCD9"/>
<stop offset="0.495371" stop-color="#DB337C"/>
<stop offset="0.771173" stop-color="#FF6584"/>
<stop offset="0.772806" stop-color="#3F3F3F"/>
</linearGradient>
</defs>
</svg>
