<svg width="48" height="48" viewBox="0 0 48 48" fill="none" xmlns="http://www.w3.org/2000/svg">
<path d="M0 14C0 6.26801 6.26801 0 14 0H34C41.732 0 48 6.26801 48 14V34C48 41.732 41.732 48 34 48H14C6.26801 48 0 41.732 0 34V14Z" fill="url(#paint0_linear_1900_4118)"/>
<path fill-rule="evenodd" clip-rule="evenodd" d="M22.6587 7.45176C22.6587 8.46065 21.848 9.27859 20.8481 9.27859C19.8481 9.27859 19.0374 8.46065 19.0374 7.45176C19.0374 6.44287 19.8481 5.625 20.8481 5.625C21.848 5.625 22.6587 6.44287 22.6587 7.45176ZM27.5376 9.30629C28.5376 9.30629 29.3481 8.48845 29.3481 7.47956C29.3481 6.47067 28.5376 5.65281 27.5376 5.65281C26.5375 5.65281 25.727 6.47067 25.727 7.47956C25.727 8.48845 26.5375 9.30629 27.5376 9.30629ZM36.5527 10.4309C36.5527 11.4399 35.742 12.2576 34.7421 12.2576C33.7422 12.2576 32.9315 11.4399 32.9315 10.4309C32.9315 9.42201 33.7422 8.60412 34.7421 8.60412C35.742 8.60412 36.5527 9.42201 36.5527 10.4309ZM32.5804 11.7596C32.5804 12.5822 31.9195 13.2488 31.1044 13.2488C30.2894 13.2488 29.6285 12.5822 29.6285 11.7596C29.6285 10.9373 30.2894 10.2706 31.1044 10.2706C31.9195 10.2706 32.5804 10.9373 32.5804 11.7596ZM19.3609 25.4841C19.7973 25.4841 20.1511 25.1272 20.1511 24.6869C20.1511 24.2466 19.7973 23.8898 19.3609 23.8898C18.9246 23.8898 18.5709 24.2466 18.5709 24.6869C18.5709 25.1272 18.9246 25.4841 19.3609 25.4841ZM18.7052 26.6488C19.1746 26.6599 19.5464 27.0529 19.5352 27.5266C19.5243 28.0003 19.1347 28.3753 18.6651 28.3642C18.1956 28.353 17.8239 27.96 17.8349 27.4863C17.846 27.0125 18.2356 26.6376 18.7052 26.6488ZM19.0927 21.509C19.6108 21.509 20.0308 21.0851 20.0308 20.5623C20.0308 20.0395 19.6108 19.6158 19.0927 19.6158C18.5745 19.6158 18.1544 20.0395 18.1544 20.5623C18.1544 21.0851 18.5745 21.509 19.0927 21.509ZM19.7666 17.9492C19.7666 18.5698 19.2679 19.073 18.6528 19.073C18.0377 19.073 17.539 18.5698 17.539 17.9492C17.539 17.3286 18.0377 16.8255 18.6528 16.8255C19.2679 16.8255 19.7666 17.3286 19.7666 17.9492ZM20.0967 23.5187C20.5331 23.5187 20.8869 23.1618 20.8869 22.7215C20.8869 22.2814 20.5331 21.9245 20.0967 21.9245C19.6604 21.9245 19.3066 22.2814 19.3066 22.7215C19.3066 23.1618 19.6604 23.5187 20.0967 23.5187ZM22.1427 24.2385C22.1427 24.6023 21.8504 24.8972 21.4899 24.8972C21.1292 24.8972 20.8369 24.6023 20.8369 24.2385C20.8369 23.8746 21.1292 23.5797 21.4899 23.5797C21.8504 23.5797 22.1427 23.8746 22.1427 24.2385ZM21.259 26.4585C21.6196 26.4585 21.912 26.1636 21.912 25.7997C21.912 25.436 21.6196 25.1411 21.259 25.1411C20.8983 25.1411 20.606 25.436 20.606 25.7997C20.606 26.1636 20.8983 26.4585 21.259 26.4585ZM22.3234 20.5514C22.3234 20.9916 21.9697 21.3485 21.5334 21.3485C21.0971 21.3485 20.7432 20.9916 20.7432 20.5514C20.7432 20.1111 21.0971 19.7542 21.5334 19.7542C21.9697 19.7542 22.3234 20.1111 22.3234 20.5514ZM22.0668 22.9541C22.4273 22.9541 22.7197 22.6592 22.7197 22.2953C22.7197 21.9315 22.4273 21.6366 22.0668 21.6366C21.7062 21.6366 21.4139 21.9315 21.4139 22.2953C21.4139 22.6592 21.7062 22.9541 22.0668 22.9541ZM23.4769 26.4973C23.4769 26.7999 23.2338 27.0453 22.9337 27.0453C22.6337 27.0453 22.3905 26.7999 22.3905 26.4973C22.3905 26.1945 22.6337 25.9493 22.9337 25.9493C23.2338 25.9493 23.4769 26.1945 23.4769 26.4973ZM23.3454 27.9306C23.3524 27.628 23.1151 27.3769 22.8152 27.3699C22.5154 27.3629 22.2665 27.6024 22.2595 27.9049C22.2525 28.2075 22.4898 28.4585 22.7897 28.4655C23.0897 28.4727 23.3384 28.2332 23.3454 27.9306ZM23.5856 25.2072C23.5856 25.51 23.3425 25.7552 23.0424 25.7552C22.7424 25.7552 22.4992 25.51 22.4992 25.2072C22.4992 24.9046 22.7424 24.6592 23.0424 24.6592C23.3425 24.6592 23.5856 24.9046 23.5856 25.2072ZM23.2246 24.2716C23.5247 24.2716 23.7678 24.0264 23.7678 23.7236C23.7678 23.421 23.5247 23.1756 23.2246 23.1756C22.9248 23.1756 22.6814 23.421 22.6814 23.7236C22.6814 24.0264 22.9248 24.2716 23.2246 24.2716ZM23.9819 22.2676C23.9819 22.5702 23.7387 22.8156 23.4387 22.8156C23.1388 22.8156 22.8955 22.5702 22.8955 22.2676C22.8955 21.9649 23.1388 21.7196 23.4387 21.7196C23.7387 21.7196 23.9819 21.9649 23.9819 22.2676ZM23.5418 21.21C23.9024 21.21 24.1947 20.9151 24.1947 20.5514C24.1947 20.1875 23.9024 19.8926 23.5418 19.8926C23.1811 19.8926 22.8888 20.1875 22.8888 20.5514C22.8888 20.9151 23.1811 21.21 23.5418 21.21ZM27.2956 14.954C27.2956 15.5746 26.7969 16.0777 26.1818 16.0777C25.5667 16.0777 25.068 15.5746 25.068 14.954C25.068 14.3334 25.5667 13.8303 26.1818 13.8303C26.7969 13.8303 27.2956 14.3334 27.2956 14.954ZM24.6349 17.6446C25.1531 17.6446 25.5732 17.2209 25.5732 16.6981C25.5732 16.1752 25.1531 15.7514 24.6349 15.7514C24.1167 15.7514 23.6966 16.1752 23.6966 16.6981C23.6966 17.2209 24.1167 17.6446 24.6349 17.6446ZM24.6614 18.6413C24.6614 19.0816 24.3076 19.4385 23.8713 19.4385C23.4349 19.4385 23.0811 19.0816 23.0811 18.6413C23.0811 18.2012 23.4349 17.8443 23.8713 17.8443C24.3076 17.8443 24.6614 18.2012 24.6614 18.6413ZM21.9675 17.0467C22.5827 17.0467 23.0814 16.5435 23.0814 15.9229C23.0814 15.3023 22.5827 14.7992 21.9675 14.7992C21.3524 14.7992 20.8537 15.3023 20.8537 15.9229C20.8537 16.5435 21.3524 17.0467 21.9675 17.0467ZM22.3522 18.3146C22.3522 18.8374 21.9321 19.2611 21.4139 19.2611C20.8959 19.2611 20.4758 18.8374 20.4758 18.3146C20.4758 17.7918 20.8959 17.3679 21.4139 17.3679C21.9321 17.3679 22.3522 17.7918 22.3522 18.3146ZM21.6308 27.867C21.6397 27.479 21.335 27.157 20.9504 27.1479C20.5656 27.1389 20.2466 27.4462 20.2377 27.8345C20.2288 28.2225 20.5332 28.5445 20.918 28.5536C21.3028 28.5626 21.6219 28.2552 21.6308 27.867ZM29.5788 13.2378C29.5788 13.941 29.0136 14.5111 28.3168 14.5111C27.6198 14.5111 27.0549 13.941 27.0549 13.2378C27.0549 12.5347 27.6198 11.9647 28.3168 11.9647C29.0136 11.9647 29.5788 12.5347 29.5788 13.2378ZM26.401 10.5637C26.401 11.3862 25.7401 12.0529 24.925 12.0529C24.11 12.0529 23.4491 11.3862 23.4491 10.5637C23.4491 9.74136 24.11 9.07468 24.925 9.07468C25.7401 9.07468 26.401 9.74136 26.401 10.5637ZM23.1257 14.6384C23.8227 14.6384 24.3876 14.0685 24.3876 13.3653C24.3876 12.6621 23.8227 12.0921 23.1257 12.0921C22.4287 12.0921 21.8637 12.6621 21.8637 13.3653C21.8637 14.0685 22.4287 14.6384 23.1257 14.6384ZM19.4933 12.9996C20.3084 12.9996 20.9691 12.333 20.9691 11.5106C20.9691 10.6881 20.3084 10.0214 19.4933 10.0214C18.6781 10.0214 18.0173 10.6881 18.0173 11.5106C18.0173 12.333 18.6781 12.9996 19.4933 12.9996ZM20.0462 15.0096C20.0462 15.7128 19.4811 16.2827 18.7843 16.2827C18.0873 16.2827 17.5223 15.7128 17.5223 15.0096C17.5223 14.3063 18.0873 13.7364 18.7843 13.7364C19.4811 13.7364 20.0462 14.3063 20.0462 15.0096ZM17.5056 23.9393C18.0237 23.9393 18.4438 23.5155 18.4438 22.9928C18.4438 22.47 18.0237 22.0462 17.5056 22.0462C16.9874 22.0462 16.5673 22.47 16.5673 22.9928C16.5673 23.5155 16.9874 23.9393 17.5056 23.9393ZM17.0942 20.6179C17.0942 21.2385 16.5955 21.7415 15.9804 21.7415C15.3652 21.7415 14.8666 21.2385 14.8666 20.6179C14.8666 19.9971 15.3652 19.4941 15.9804 19.4941C16.5955 19.4941 17.0942 19.9971 17.0942 20.6179ZM15.0364 18.8626C15.7334 18.8626 16.2984 18.2926 16.2984 17.5895C16.2984 16.8863 15.7334 16.3162 15.0364 16.3162C14.3395 16.3162 13.7745 16.8863 13.7745 17.5895C13.7745 18.2926 14.3395 18.8626 15.0364 18.8626ZM16.3242 25.4593C16.8756 25.4722 17.3122 25.9335 17.2993 26.4897C17.2866 27.0461 16.8292 27.4866 16.2779 27.4736C15.7266 27.4607 15.29 26.9994 15.3028 26.443C15.3156 25.8868 15.7729 25.4463 16.3242 25.4593ZM15.4547 11.1227C16.4546 11.1227 17.2653 10.3048 17.2653 9.29597C17.2653 8.28706 16.4546 7.4692 15.4547 7.4692C14.4547 7.4692 13.6441 8.28706 13.6441 9.29597C13.6441 10.3048 14.4547 11.1227 15.4547 11.1227ZM16.2715 13.8524C16.2715 14.6747 15.6107 15.3414 14.7955 15.3414C13.9804 15.3414 13.3196 14.6747 13.3196 13.8524C13.3196 13.0298 13.9804 12.3632 14.7955 12.3632C15.6107 12.3632 16.2715 13.0298 16.2715 13.8524ZM12.1762 13.4067C12.1981 12.4592 11.4547 11.6731 10.5156 11.651C9.57651 11.6288 8.79743 12.3788 8.77544 13.3264C8.75347 14.2737 9.49693 15.0598 10.436 15.082C11.3751 15.1041 12.1542 14.354 12.1762 13.4067ZM11.193 16.6559C11.9715 16.6742 12.5879 17.326 12.5697 18.1114C12.5515 18.8969 11.9056 19.5187 11.127 19.5004C10.3485 19.4821 9.73213 18.8303 9.75035 18.0449C9.76857 17.2594 10.4145 16.6376 11.193 16.6559ZM13.6553 21.8212C13.6716 21.1213 13.1224 20.5407 12.4286 20.5243C11.7349 20.5078 11.1594 21.062 11.1432 21.7619C11.1269 22.4618 11.6761 23.0423 12.3699 23.0588C13.0636 23.0752 13.6391 22.5211 13.6553 21.8212ZM14.1489 23.3932C14.7699 23.4077 15.2615 23.9276 15.247 24.5541C15.2324 25.1807 14.7172 25.6768 14.0962 25.6621C13.4752 25.6473 12.9836 25.1276 12.9981 24.501C13.0126 23.8745 13.5278 23.3784 14.1489 23.3932ZM20.3314 42.3472C21.3313 42.3472 22.1419 41.5295 22.1419 40.5205C22.1419 39.5116 21.3313 38.6937 20.3314 38.6937C19.3313 38.6937 18.5208 39.5116 18.5208 40.5205C18.5208 41.5295 19.3313 42.3472 20.3314 42.3472ZM33.7641 22.34C34.385 22.3547 34.8767 22.8745 34.8621 23.5011C34.8476 24.1275 34.3325 24.6236 33.7113 24.6089C33.0904 24.5942 32.5987 24.0744 32.6133 23.4478C32.6278 22.8214 33.143 22.3253 33.7641 22.34ZM31.8878 28.5122C32.5029 28.5122 33.0016 28.0091 33.0016 27.3885C33.0016 26.7679 32.5029 26.2649 31.8878 26.2649C31.2727 26.2649 30.774 26.7679 30.774 27.3885C30.774 28.0091 31.2727 28.5122 31.8878 28.5122ZM31.5834 20.529C32.1346 20.542 32.5711 21.0034 32.5583 21.5598C32.5453 22.116 32.0879 22.5563 31.5366 22.5433C30.9852 22.5302 30.5487 22.0689 30.5617 21.5125C30.5745 20.9563 31.0319 20.516 31.5834 20.529ZM32.8321 31.6902C33.5291 31.6902 34.094 31.1201 34.094 30.417C34.094 29.7138 33.5291 29.1437 32.8321 29.1437C32.1351 29.1437 31.5701 29.7138 31.5701 30.417C31.5701 31.1201 32.1351 31.6902 32.8321 31.6902ZM29.7156 27.444C29.7156 27.9669 29.2955 28.3905 28.7773 28.3905C28.2593 28.3905 27.8392 27.9669 27.8392 27.444C27.8392 26.9212 28.2593 26.4974 28.7773 26.4974C29.2955 26.4974 29.7156 26.9212 29.7156 27.444ZM29.2155 31.1809C29.8306 31.1809 30.3293 30.6778 30.3293 30.0571C30.3293 29.4365 29.8306 28.9334 29.2155 28.9334C28.6003 28.9334 28.1017 29.4365 28.1017 30.0571C28.1017 30.6778 28.6003 31.1809 29.2155 31.1809ZM24.974 27.4551C24.974 27.8189 24.6817 28.1137 24.3212 28.1137C23.9605 28.1137 23.6682 27.8189 23.6682 27.4551C23.6682 27.0912 23.9605 26.7963 24.3212 26.7963C24.6817 26.7963 24.974 27.0912 24.974 27.4551ZM24.4304 26.2868C24.7304 26.2868 24.9736 26.0414 24.9736 25.7388C24.9736 25.4362 24.7304 25.1908 24.4304 25.1908C24.1305 25.1908 23.8872 25.4362 23.8872 25.7388C23.8872 26.0414 24.1305 26.2868 24.4304 26.2868ZM25.1828 24.2822C25.1828 24.585 24.9396 24.8304 24.6396 24.8304C24.3395 24.8304 24.0964 24.585 24.0964 24.2822C24.0964 23.9796 24.3395 23.7342 24.6396 23.7342C24.9396 23.7342 25.1828 23.9796 25.1828 24.2822ZM24.9356 22.057C25.2354 22.057 25.4786 21.8116 25.4786 21.509C25.4786 21.2062 25.2354 20.961 24.9356 20.961C24.6355 20.961 24.3924 21.2062 24.3924 21.509C24.3924 21.8116 24.6355 22.057 24.9356 22.057ZM25.0779 19.544C25.3778 19.5511 25.6151 19.8021 25.6081 20.1047C25.6011 20.4073 25.3523 20.6467 25.0524 20.6397C24.7526 20.6327 24.5152 20.3816 24.5222 20.079C24.5292 19.7764 24.7779 19.5369 25.0779 19.544ZM24.8252 23.3468C25.1252 23.3468 25.3684 23.1014 25.3684 22.7986C25.3684 22.496 25.1252 22.2506 24.8252 22.2506C24.5252 22.2506 24.282 22.496 24.282 22.7986C24.282 23.1014 24.5252 23.3468 24.8252 23.3468ZM26.444 25.7002C26.444 26.0639 26.1517 26.3588 25.7912 26.3588C25.4305 26.3588 25.1382 26.0639 25.1382 25.7002C25.1382 25.3363 25.4305 25.0414 25.7912 25.0414C26.1517 25.0414 26.444 25.3363 26.444 25.7002ZM26.3297 28.2521C26.7661 28.2521 27.1197 27.8952 27.1197 27.4551C27.1197 27.0148 26.7661 26.6579 26.3297 26.6579C25.8934 26.6579 25.5396 27.0148 25.5396 27.4551C25.5396 27.8952 25.8934 28.2521 26.3297 28.2521ZM27.031 23.7674C27.031 24.1313 26.7387 24.4262 26.3782 24.4262C26.0176 24.4262 25.7252 24.1313 25.7252 23.7674C25.7252 23.4037 26.0176 23.1088 26.3782 23.1088C26.7387 23.1088 27.031 23.4037 27.031 23.7674ZM26.604 22.8596C26.9646 22.8596 27.257 22.5647 27.257 22.2008C27.257 21.8371 26.9646 21.5422 26.604 21.5422C26.2433 21.5422 25.951 21.8371 25.951 22.2008C25.951 22.5647 26.2433 22.8596 26.604 22.8596ZM26.9443 19.4507C27.3291 19.4597 27.6338 19.7817 27.6247 20.1699C27.6156 20.558 27.2966 20.8654 26.9118 20.8563C26.527 20.847 26.2225 20.5251 26.2314 20.1369C26.2405 19.7488 26.5597 19.4416 26.9443 19.4507ZM21.6815 34.1761C22.2966 34.1761 22.7953 33.673 22.7953 33.0524C22.7953 32.4317 22.2966 31.9286 21.6815 31.9286C21.0663 31.9286 20.5677 32.4317 20.5677 33.0524C20.5677 33.673 21.0663 34.1761 21.6815 34.1761ZM24.1733 31.3083C24.1733 31.8311 23.7533 32.255 23.2351 32.255C22.7168 32.255 22.2968 31.8311 22.2968 31.3083C22.2968 30.7856 22.7168 30.3618 23.2351 30.3618C23.7533 30.3618 24.1733 30.7856 24.1733 31.3083ZM23.9968 30.1567C24.4331 30.1567 24.7868 29.7998 24.7868 29.3597C24.7868 28.9194 24.4331 28.5626 23.9968 28.5626C23.5603 28.5626 23.2066 28.9194 23.2066 29.3597C23.2066 29.7998 23.5603 30.1567 23.9968 30.1567ZM27.0145 32.0834C27.0145 32.704 26.5159 33.2072 25.9007 33.2072C25.2856 33.2072 24.7869 32.704 24.7869 32.0834C24.7869 31.4628 25.2856 30.9597 25.9007 30.9597C26.5159 30.9597 27.0145 31.4628 27.0145 32.0834ZM26.4495 30.6384C26.9675 30.6384 27.3876 30.2146 27.3876 29.6918C27.3876 29.1691 26.9675 28.7453 26.4495 28.7453C25.9313 28.7453 25.5112 29.1691 25.5112 29.6918C25.5112 30.2146 25.9313 30.6384 26.4495 30.6384ZM28.5564 25.285C28.5564 25.7253 28.2026 26.0822 27.7662 26.0822C27.3299 26.0822 26.9763 25.7253 26.9763 25.285C26.9763 24.8447 27.3299 24.4878 27.7662 24.4878C28.2026 24.4878 28.5564 24.8447 28.5564 25.285ZM28.502 24.1163C28.9384 24.1163 29.2922 23.7594 29.2922 23.3191C29.2922 22.8788 28.9384 22.522 28.502 22.522C28.0657 22.522 27.7119 22.8788 27.7119 23.3191C27.7119 23.7594 28.0657 24.1163 28.502 24.1163ZM29.1958 19.6384C29.6654 19.6496 30.0372 20.0426 30.026 20.5164C30.0151 20.9901 29.6255 21.3651 29.1559 21.354C28.6863 21.3429 28.3147 20.9497 28.3257 20.476C28.3366 20.0023 28.7262 19.6273 29.1958 19.6384ZM13.1267 39.4022C14.1267 39.4022 14.9373 38.5843 14.9373 37.5754C14.9373 36.5664 14.1267 35.7487 13.1267 35.7487C12.1267 35.7487 11.3161 36.5664 11.3161 37.5754C11.3161 38.5843 12.1267 39.4022 13.1267 39.4022ZM18.2398 36.2466C18.2398 37.069 17.579 37.7357 16.7639 37.7357C15.9488 37.7357 15.288 37.069 15.288 36.2466C15.288 35.4243 15.9488 34.7576 16.7639 34.7576C17.579 34.7576 18.2398 35.4243 18.2398 36.2466ZM19.5518 36.0363C20.2488 36.0363 20.8138 35.4662 20.8138 34.763C20.8138 34.0599 20.2488 33.4898 19.5518 33.4898C18.8548 33.4898 18.2899 34.0599 18.2899 34.763C18.2899 35.4662 18.8548 36.0363 19.5518 36.0363ZM24.4193 37.4426C24.4193 38.2649 23.7585 38.9316 22.9433 38.9316C22.1282 38.9316 21.4675 38.2649 21.4675 37.4426C21.4675 36.6203 22.1282 35.9536 22.9433 35.9536C23.7585 35.9536 24.4193 36.6203 24.4193 37.4426ZM24.7428 35.9142C25.4397 35.9142 26.0047 35.3443 26.0047 34.6411C26.0047 33.938 25.4397 33.3679 24.7428 33.3679C24.0459 33.3679 23.4808 33.938 23.4808 34.6411C23.4808 35.3443 24.0459 35.9142 24.7428 35.9142ZM28.8264 40.5483C28.8264 41.5571 28.0157 42.375 27.0158 42.375C26.0157 42.375 25.2051 41.5571 25.2051 40.5483C25.2051 39.5394 26.0157 38.7216 27.0158 38.7216C28.0157 38.7216 28.8264 39.5394 28.8264 40.5483ZM28.3769 37.9848C29.1921 37.9848 29.8527 37.3181 29.8527 36.4958C29.8527 35.6734 29.1921 35.0066 28.3769 35.0066C27.5618 35.0066 26.9009 35.6734 26.9009 36.4958C26.9009 37.3181 27.5618 37.9848 28.3769 37.9848ZM30.3463 32.9968C30.3463 33.7 29.7813 34.2701 29.0843 34.2701C28.3873 34.2701 27.8224 33.7 27.8224 32.9968C27.8224 32.2937 28.3873 31.7237 29.0843 31.7237C29.7813 31.7237 30.3463 32.2937 30.3463 32.9968ZM30.3578 25.9541C30.876 25.9541 31.2961 25.5303 31.2961 25.0074C31.2961 24.4846 30.876 24.0609 30.3578 24.0609C29.8396 24.0609 29.4195 24.4846 29.4195 25.0074C29.4195 25.5303 29.8396 25.9541 30.3578 25.9541ZM34.2248 38.7103C34.2248 39.7192 33.4141 40.5371 32.4142 40.5371C31.4142 40.5371 30.6035 39.7192 30.6035 38.7103C30.6035 37.7015 31.4142 36.8836 32.4142 36.8836C33.4141 36.8836 34.2248 37.7015 34.2248 38.7103ZM33.0677 35.6431C33.8829 35.6431 34.5437 34.9764 34.5437 34.1541C34.5437 33.3317 33.8829 32.6649 33.0677 32.6649C32.2526 32.6649 31.5919 33.3317 31.5919 34.1541C31.5919 34.9764 32.2526 35.6431 33.0677 35.6431ZM35.4906 24.9454C36.1843 24.9618 36.7335 25.5423 36.7172 26.2422C36.701 26.9421 36.1254 27.4963 35.4317 27.4799C34.7381 27.4636 34.1887 26.8829 34.205 26.183C34.2213 25.4831 34.7968 24.9289 35.4906 24.9454ZM38.1117 29.9592C38.1299 29.1737 37.5136 28.5221 36.7351 28.5038C35.9564 28.4853 35.3106 29.1073 35.2923 29.8926C35.2741 30.6782 35.8905 31.3298 36.669 31.3483C37.4475 31.3666 38.0934 30.7448 38.1117 29.9592ZM37.4304 32.9212C38.3695 32.9433 39.1129 33.7293 39.0911 34.6767C39.0692 35.6242 38.2902 36.3743 37.3511 36.3522C36.4119 36.3301 35.6685 35.5442 35.6903 34.5967C35.7122 33.6494 36.4912 32.8991 37.4304 32.9212Z" fill="white"/>
<path d="M0 28H14C17.3137 28 20 30.6863 20 34V48H8C3.58172 48 0 44.4183 0 40V28Z" fill="#3F3F3F"/>
<path d="M15.8873 34.1034C15.6867 33.9447 15.4475 33.7279 15.0116 33.6737C14.6026 33.6195 14.1859 33.8944 13.9043 34.0763C13.6227 34.2583 13.0903 34.7926 12.8704 34.9552C12.6504 35.1178 12.0872 35.2688 11.1805 35.8147C10.2739 36.3606 6.7168 38.6525 6.7168 38.6525L7.64273 38.6641L3.51464 40.7973H3.92745L3.33331 41.2503C3.33331 41.2503 3.858 41.3897 4.29782 41.1109V41.2387C4.29782 41.2387 9.21294 39.2952 10.162 39.7985L9.58331 39.9688C9.63347 39.9688 10.5671 40.0308 10.5671 40.0308C10.5898 40.2248 10.6548 40.4114 10.7574 40.5774C10.8601 40.7433 10.998 40.8845 11.1612 40.9909C11.7245 41.3626 11.7361 41.5678 11.7361 41.5678C11.7361 41.5678 11.4429 41.6878 11.4429 41.8388C11.4429 41.8388 11.875 41.7072 12.2762 41.7188C12.5309 41.7285 12.7834 41.7688 13.0285 41.8388C13.0285 41.8388 12.9977 41.6762 12.608 41.5678C12.2183 41.4594 11.8325 41.0335 11.6435 40.8012C11.5277 40.6534 11.4522 40.4778 11.4245 40.2918C11.3968 40.1058 11.4177 39.9158 11.4853 39.7404C11.6204 39.3881 12.091 39.1945 13.0633 38.6912C14.2091 38.095 14.4714 37.6536 14.6335 37.3091C14.7955 36.9645 15.0347 36.2793 15.1697 35.9579C15.3395 35.5437 15.5478 35.323 15.7214 35.1913C15.895 35.0597 16.6666 34.7693 16.6666 34.7693C16.6666 34.7693 16.0764 34.2544 15.8873 34.1034Z" fill="white"/>
<defs>
<linearGradient id="paint0_linear_1900_4118" x1="48" y1="48" x2="-2.71797e-05" y2="2.71797e-05" gradientUnits="userSpaceOnUse">
<stop stop-color="#FFBCD9"/>
<stop offset="0.495371" stop-color="#DB337C"/>
<stop offset="0.771173" stop-color="#FF6584"/>
</linearGradient>
</defs>
</svg>
