<svg width="48" height="48" viewBox="0 0 48 48" fill="none" xmlns="http://www.w3.org/2000/svg">
<path d="M0 14C0 6.26801 6.26801 0 14 0H34C41.732 0 48 6.26801 48 14V34C48 41.732 41.732 48 34 48H14C6.26801 48 0 41.732 0 34V14Z" fill="url(#paint0_linear_1300_1468)"/>
<path fill-rule="evenodd" clip-rule="evenodd" d="M41.5 24C41.5 33.665 33.665 41.5 24 41.5C14.335 41.5 6.5 33.665 6.5 24C6.5 14.335 14.335 6.5 24 6.5C33.665 6.5 41.5 14.335 41.5 24ZM23.9404 10.232C20.3643 10.232 17.4654 13.131 17.4654 16.707V20.907C17.4654 24.4831 20.3643 27.382 23.9404 27.382C24.4423 27.382 24.9309 27.3249 25.4 27.2168C25.6818 27.152 25.7607 26.8042 25.5517 26.6046L25.5167 26.5711L21.7865 23.0083C21.208 22.4465 20.8487 21.6604 20.8487 20.7904V16.8237C20.8487 15.1162 22.2328 13.732 23.9404 13.732C25.6478 13.732 27.032 15.1162 27.032 16.8237V18.1667C27.032 18.4244 27.241 18.6333 27.4987 18.6333H29.9487C30.2064 18.6333 30.4154 18.4244 30.4154 18.1667V16.707C30.4154 13.131 27.5164 10.232 23.9404 10.232ZM30.4167 30.9417C30.4167 34.5177 27.5177 37.4167 23.9417 37.4167C20.3656 37.4167 17.4667 34.5177 17.4667 30.9417V29.4833C17.4667 29.2256 17.6756 29.0167 17.9333 29.0167H20.3833C20.6411 29.0167 20.85 29.2256 20.85 29.4833V30.825C20.85 32.5325 22.2341 33.9167 23.9417 33.9167C25.6492 33.9167 27.0333 32.5325 27.0333 30.825V26.8583C27.0333 25.9882 26.6739 25.2021 26.0954 24.6404L22.3654 21.0776L22.3303 21.0441C22.1212 20.8444 22.2003 20.4967 22.482 20.4319C22.9512 20.3238 23.4398 20.2667 23.9417 20.2667C27.5177 20.2667 30.4167 23.1656 30.4167 26.7417V30.9417Z" fill="white"/>
<defs>
<linearGradient id="paint0_linear_1300_1468" x1="48" y1="48" x2="-2.62577e-05" y2="2.62577e-05" gradientUnits="userSpaceOnUse">
<stop stop-color="#720497"/>
<stop offset="1" stop-color="#F50083"/>
</linearGradient>
</defs>
</svg>
