<svg width="48" height="48" viewBox="0 0 48 48" fill="none" xmlns="http://www.w3.org/2000/svg">
<path d="M0 14C0 6.26801 6.26801 0 14 0H34C41.732 0 48 6.26801 48 14V34C48 41.732 41.732 48 34 48H14C6.26801 48 0 41.732 0 34V14Z" fill="url(#paint0_linear_1900_3950)"/>
<path fill-rule="evenodd" clip-rule="evenodd" d="M41.5 24C41.5 33.665 33.665 41.5 24 41.5C14.335 41.5 6.5 33.665 6.5 24C6.5 14.335 14.335 6.5 24 6.5C33.665 6.5 41.5 14.335 41.5 24ZM23.9404 10.232C20.3643 10.232 17.4654 13.131 17.4654 16.707V20.907C17.4654 24.4831 20.3643 27.382 23.9404 27.382C24.4423 27.382 24.9309 27.3249 25.4 27.2168C25.6818 27.152 25.7607 26.8042 25.5517 26.6046L25.5167 26.5711L21.7865 23.0083C21.208 22.4465 20.8487 21.6604 20.8487 20.7904V16.8237C20.8487 15.1162 22.2328 13.732 23.9404 13.732C25.6478 13.732 27.032 15.1162 27.032 16.8237V18.1667C27.032 18.4244 27.241 18.6333 27.4987 18.6333H29.9487C30.2064 18.6333 30.4154 18.4244 30.4154 18.1667V16.707C30.4154 13.131 27.5164 10.232 23.9404 10.232ZM30.4167 30.9417C30.4167 34.5177 27.5177 37.4167 23.9417 37.4167C20.3656 37.4167 17.4667 34.5177 17.4667 30.9417V29.4833C17.4667 29.2256 17.6756 29.0167 17.9333 29.0167H20.3833C20.6411 29.0167 20.85 29.2256 20.85 29.4833V30.825C20.85 32.5325 22.2341 33.9167 23.9417 33.9167C25.6492 33.9167 27.0333 32.5325 27.0333 30.825V26.8583C27.0333 25.9882 26.6739 25.2021 26.0954 24.6404L22.3654 21.0776L22.3303 21.0441C22.1212 20.8444 22.2003 20.4967 22.482 20.4319C22.9512 20.3238 23.4398 20.2667 23.9417 20.2667C27.5177 20.2667 30.4167 23.1656 30.4167 26.7417V30.9417Z" fill="white"/>
<path d="M0 28H14C17.3137 28 20 30.6863 20 34V48H8C3.58172 48 0 44.4183 0 40V28Z" fill="#3F3F3F"/>
<path d="M15.8873 34.1034C15.6867 33.9447 15.4475 33.7279 15.0116 33.6737C14.6026 33.6195 14.186 33.8944 13.9043 34.0763C13.6227 34.2583 13.0903 34.7926 12.8704 34.9552C12.6505 35.1178 12.0872 35.2688 11.1806 35.8147C10.2739 36.3606 6.71682 38.6525 6.71682 38.6525L7.64275 38.6641L3.51466 40.7973H3.92747L3.33334 41.2503C3.33334 41.2503 3.85803 41.3897 4.29784 41.1109V41.2387C4.29784 41.2387 9.21297 39.2952 10.162 39.7985L9.58334 39.9688C9.63349 39.9688 10.5671 40.0308 10.5671 40.0308C10.5898 40.2248 10.6548 40.4114 10.7575 40.5774C10.8602 40.7433 10.998 40.8845 11.1613 40.9909C11.7245 41.3626 11.7361 41.5678 11.7361 41.5678C11.7361 41.5678 11.4429 41.6878 11.4429 41.8388C11.4429 41.8388 11.875 41.7072 12.2762 41.7188C12.5309 41.7285 12.7835 41.7688 13.0286 41.8388C13.0286 41.8388 12.9977 41.6762 12.608 41.5678C12.2184 41.4594 11.8326 41.0335 11.6435 40.8012C11.5277 40.6534 11.4523 40.4778 11.4245 40.2918C11.3968 40.1058 11.4178 39.9158 11.4853 39.7404C11.6204 39.3881 12.0911 39.1945 13.0633 38.6912C14.2091 38.095 14.4715 37.6536 14.6335 37.3091C14.7955 36.9645 15.0347 36.2793 15.1698 35.9579C15.3395 35.5437 15.5478 35.323 15.7215 35.1913C15.8951 35.0597 16.6667 34.7693 16.6667 34.7693C16.6667 34.7693 16.0764 34.2544 15.8873 34.1034Z" fill="white"/>
<defs>
<linearGradient id="paint0_linear_1900_3950" x1="48" y1="48" x2="-2.62577e-05" y2="2.62577e-05" gradientUnits="userSpaceOnUse">
<stop stop-color="#0C0011"/>
<stop offset="0.749665" stop-color="#681391"/>
</linearGradient>
</defs>
</svg>
