<svg width="48" height="48" viewBox="0 0 48 48" fill="none" xmlns="http://www.w3.org/2000/svg">
<path d="M0 14C0 6.26801 6.26801 0 14 0H34C41.732 0 48 6.26801 48 14V34C48 41.732 41.732 48 34 48H14C6.26801 48 0 41.732 0 34V14Z" fill="url(#paint0_linear_1304_1022)"/>
<path fill-rule="evenodd" clip-rule="evenodd" d="M27.8403 7.24587C26.2347 6.76078 24.5316 6.5 22.7677 6.5H10.2625V14.7357C12.9046 14.0891 23.1938 9.6746 27.8403 7.24587ZM10.2625 18.1838C14.3094 17.2031 27.3008 11.4809 31.7758 8.99126C34.0766 10.374 36.0333 12.2703 37.4871 14.5216C32.1251 17.5618 17.7997 24.5879 10.2625 26.1681V18.1838ZM10.2625 29.6564C16.0908 28.5122 32.8569 21.2901 38.9762 17.3733C39.8134 19.4173 40.2749 21.6548 40.2749 24C40.2749 24.5158 40.2526 25.0263 40.2089 25.5308C34.3632 29.1802 18.0682 36.0652 10.2625 37.6884V29.6564ZM10.2625 41.3454V41.5H22.7677C30.5495 41.5 37.1455 36.425 39.4238 29.4054C33.3863 33.0979 16.3062 39.9705 10.2625 41.3454Z" fill="white"/>
<defs>
<linearGradient id="paint0_linear_1304_1022" x1="48" y1="48" x2="-2.71797e-05" y2="2.71797e-05" gradientUnits="userSpaceOnUse">
<stop offset="0.151042" stop-color="#7D20BF"/>
<stop offset="0.578125" stop-color="#584DDB"/>
<stop offset="0.942708" stop-color="#51BEF9"/>
</linearGradient>
</defs>
</svg>
