<svg width="48" height="48" viewBox="0 0 48 48" fill="none" xmlns="http://www.w3.org/2000/svg">
<path d="M0 14C0 6.26801 6.26801 0 14 0H34C41.732 0 48 6.26801 48 14V34C48 41.732 41.732 48 34 48H14C6.26801 48 0 41.732 0 34V14Z" fill="url(#paint0_linear_1626_3757)"/>
<path fill-rule="evenodd" clip-rule="evenodd" d="M16.6107 8.02208L13.2987 9.8616L13.8604 12.9978C13.5784 13.2393 13.307 13.4887 13.0463 13.7459L16.2184 16.9046C16.7844 16.344 17.4088 15.8452 18.0812 15.4167L19.9309 14.2438V25.3245L21.9951 26.5115L24.0592 27.6985L26.1234 26.5115L28.1876 25.3245V14.2438L30.0373 15.4167C30.6635 15.8135 31.2486 16.2711 31.7839 16.783L34.9572 13.6232C34.7439 13.4155 34.5251 13.2153 34.3008 13.0226L34.9217 9.9796L31.6666 8.04332L29.2221 10.0952C28.5038 9.84596 27.7684 9.64879 27.0216 9.50527L26.031 6.55545L22.2392 6.5L21.1538 9.49111C20.4047 9.63342 19.6673 9.83061 18.9474 10.0811L16.6107 8.02208ZM38.9991 14.0114L35.7405 14.4256L35.7417 14.4268L32.5423 17.5831C33.5706 18.8018 34.3238 20.2263 34.7509 21.7603C35.1779 23.2942 35.2688 24.9016 35.0175 26.4735C34.7661 28.0455 34.1783 29.5452 33.2939 30.8712C32.4095 32.1971 31.2492 33.3183 29.8916 34.1587V40.1232L31.4545 41.5002L34.7664 39.6607L34.2048 36.5292C34.7832 36.035 35.3242 35.499 35.8234 34.9256L38.8806 35.5451L40.8251 32.3027L38.7633 29.8673C39.0137 29.1522 39.2117 28.4198 39.3557 27.6762L42.3181 26.6886L42.375 22.9128L39.3712 21.832C39.2281 21.0866 39.03 20.3526 38.7787 19.6361L40.8464 17.3082L38.9991 14.0114ZM13.2228 21.8767C13.6294 20.3514 14.3577 18.9299 15.3594 17.707L12.1541 14.5188L9.11823 13.9041L7.17491 17.1465L9.23554 19.5819C8.98496 20.297 8.78694 21.0293 8.64306 21.773L5.68069 22.7606L5.625 26.5364L8.62883 27.6172C8.7718 28.363 8.96983 29.0974 9.22131 29.8142L7.15358 32.1422L9.00092 35.4401L12.147 34.8808C12.6432 35.4564 13.1815 35.9947 13.7573 36.4914L13.1364 39.5344L16.3926 41.4707L18.1144 40.0264V34.1575C16.7684 33.3244 15.6162 32.2152 14.7346 30.9038C13.8529 29.5925 13.2621 28.1091 13.0014 26.5525C12.7407 24.996 12.8162 23.4019 13.2228 21.8767Z" fill="white"/>
<defs>
<linearGradient id="paint0_linear_1626_3757" x1="48" y1="48" x2="0.146965" y2="-0.14607" gradientUnits="userSpaceOnUse">
<stop offset="0.158901" stop-color="#CA28CC"/>
<stop offset="0.856593" stop-color="#30BCD0"/>
</linearGradient>
</defs>
</svg>
