<svg width="48" height="48" viewBox="0 0 48 48" fill="none" xmlns="http://www.w3.org/2000/svg">
<path d="M0 14C0 6.26801 6.26801 0 14 0H34C41.732 0 48 6.26801 48 14V34C48 41.732 41.732 48 34 48H14C6.26801 48 0 41.732 0 34V14Z" fill="url(#paint0_linear_1304_895)"/>
<path d="M23.2144 41.5C19.4278 41.5 16.4304 40.3872 14.3053 38.1928C13.4578 37.3069 12.7627 36.2869 12.2483 35.1741C11.8009 34.2116 11.4622 33.2023 11.2386 32.1648C11.0719 31.4034 10.9607 30.631 10.906 29.8535C10.8666 29.2824 10.876 28.9328 10.876 28.9293C10.876 28.7489 10.9254 10.8488 10.9018 9.70957C10.9062 9.35392 10.9842 9.00302 11.131 8.67905C11.3074 8.27422 11.5564 7.90505 11.8657 7.58978C12.2175 7.23383 12.6385 6.95362 13.1028 6.76639C13.567 6.57916 14.0646 6.48888 14.565 6.50109H14.6373C15.2223 6.50612 15.802 6.61349 16.3499 6.81836C16.8129 6.99196 17.2409 7.24728 17.6135 7.57215C17.9346 7.85021 18.2008 8.18576 18.3987 8.56155C18.567 8.87642 18.6592 9.22634 18.6678 9.58325C18.6678 10.84 18.6678 14.166 18.6678 14.3064H18.8101C20.8671 14.3028 26.0801 14.294 30.1 14.294C32.9539 14.294 34.6871 14.2981 35.2519 14.3064C35.6822 14.3052 36.1062 14.4103 36.4861 14.6125C36.8249 14.8013 37.1138 15.0682 37.3288 15.3909C37.5526 15.728 37.7163 16.1014 37.8125 16.4943C37.9176 16.9133 37.9693 17.3438 37.9665 17.7757C37.9673 18.2152 37.9096 18.6528 37.7949 19.0771C37.6874 19.4851 37.5146 19.873 37.283 20.2257C37.0651 20.5605 36.7754 20.8427 36.4349 21.0518C36.0773 21.2647 35.6699 21.3798 35.2536 21.3855C34.3374 21.406 29.9642 21.4107 26.4521 21.4107C22.5509 21.4107 18.823 21.4054 18.6661 21.4054C18.6661 21.4289 18.6661 26.8354 18.6661 28.2243C18.673 28.7352 18.7273 29.2444 18.8283 29.7454C18.9578 30.4416 19.1814 31.117 19.493 31.7529C19.8226 32.4444 20.3158 33.0452 20.9299 33.5032C21.2627 33.7418 21.6313 33.926 22.0219 34.049C22.471 34.187 22.9385 34.2553 23.4083 34.2517H23.4642C24.7113 34.2394 26.1676 34.2329 27.9172 34.2329C29.7791 34.2329 31.5534 34.2399 32.9786 34.2452H32.9839C33.8655 34.2488 34.5578 34.2517 35.0121 34.2517C35.4377 34.252 35.8561 34.3619 36.2269 34.5707C36.5935 34.7788 36.9145 35.0586 37.1707 35.3933C37.4335 35.7315 37.6401 36.1098 37.7825 36.5137C37.9227 36.9042 37.9962 37.3155 38 37.7304C37.9904 38.1633 37.9026 38.5908 37.7408 38.9924C37.5715 39.4285 37.3424 39.839 37.0603 40.2121C36.7952 40.5708 36.4713 40.8821 36.1023 41.1328C35.9349 41.2441 35.7542 41.3341 35.5645 41.4007C35.3869 41.463 35.2003 41.4956 35.0121 41.4971H34.3256C33.8049 41.4976 32.7165 41.5 23.2144 41.5ZM30.4074 39.6375C32.8528 39.6375 33.9965 39.6375 34.546 39.6411H34.9527C35.1054 39.6326 35.2514 39.5756 35.3694 39.4783C35.522 39.3589 35.6537 39.2149 35.7591 39.0524C35.8821 38.8672 35.9809 38.667 36.0529 38.4566C36.1287 38.2399 36.172 38.0132 36.1816 37.7839C36.188 37.5337 36.1384 37.2852 36.0365 37.0565C35.94 36.8349 35.806 36.6316 35.6403 36.4555C35.437 36.2107 35.1489 36.0515 34.8334 36.0096C34.5031 36.0013 31.8878 35.989 28.9534 35.989C27.3948 35.989 25.1867 35.9925 23.5176 36.0096H23.4359C22.5771 36.0379 21.722 35.8837 20.9272 35.557C20.1324 35.2304 19.416 34.7388 18.8254 34.1148C18.2112 33.4332 17.7427 32.6335 17.4483 31.7647C17.0941 30.7106 16.9073 29.6076 16.8947 28.4957C16.8313 25.9106 16.836 23.6275 16.8489 22.1663C16.8642 20.5835 16.8947 19.5988 16.8947 19.5888C16.9388 19.5888 24.7224 19.5982 30.1212 19.5982C33.2625 19.5982 34.9568 19.5947 35.1572 19.5888C35.325 19.5759 35.4857 19.5158 35.6209 19.4156C35.756 19.3155 35.8601 19.1792 35.9213 19.0224C36.1018 18.6179 36.1861 18.1771 36.1675 17.7346C36.166 17.509 36.1356 17.2845 36.077 17.0666C36.0287 16.885 35.9525 16.712 35.8513 16.5537C35.7683 16.422 35.6593 16.3086 35.531 16.2205C35.4201 16.1443 35.2904 16.1 35.1561 16.0925C35.0033 16.0854 33.3342 16.0819 30.1911 16.0819C24.9428 16.0819 17.2233 16.0919 16.8971 16.0925H16.8941C16.8941 16.0672 16.8941 14.9762 16.8941 13.7159C16.8941 12.0027 16.8941 10.0615 16.8941 9.91403C16.8625 9.57566 16.7344 9.25347 16.5251 8.98574C16.362 8.77104 16.1516 8.59674 15.9103 8.47635C15.5866 8.32186 15.2311 8.2454 14.8724 8.25309C14.5114 8.24684 14.1525 8.30883 13.8145 8.43581C13.5627 8.53319 13.3351 8.68415 13.1475 8.87822C12.9969 9.0358 12.8782 9.22092 12.7978 9.42345C12.7344 9.57974 12.6979 9.74559 12.6897 9.91403C12.6773 10.2918 12.682 16.6054 12.6861 22.1751C12.6861 24.6357 12.6897 26.9593 12.6897 28.4957C12.6897 31.592 13.3614 34.0913 14.6879 35.9256C15.0886 36.4813 15.5584 36.9837 16.086 37.4208C16.6621 37.8933 17.2975 38.2883 17.9761 38.5959C18.7592 38.9476 19.581 39.206 20.4245 39.3655C21.4375 39.5556 22.4664 39.6481 23.4971 39.6417H23.52C26.2035 39.6375 28.5214 39.6375 30.4074 39.6375Z" fill="white"/>
<defs>
<linearGradient id="paint0_linear_1304_895" x1="48" y1="48" x2="0" y2="0" gradientUnits="userSpaceOnUse">
<stop offset="0.185839" stop-color="#E631CE"/>
<stop offset="1" stop-color="#F1A41F"/>
</linearGradient>
</defs>
</svg>
