<svg width="48" height="48" viewBox="0 0 48 48" fill="none" xmlns="http://www.w3.org/2000/svg">
<path d="M0 14C0 6.26801 6.26801 0 14 0H34C41.732 0 48 6.26801 48 14V34C48 41.732 41.732 48 34 48H14C6.26801 48 0 41.732 0 34V14Z" fill="url(#paint0_linear_1301_971)"/>
<path fill-rule="evenodd" clip-rule="evenodd" d="M9.20688 35.5708C-1.4789 22.1659 9.20693 6.96657 18.6926 4.75C8.25832 12.2441 7.73136 24.8046 15.0037 32.4043C22.2761 40.004 35.1345 40.004 43.25 29.4489C39.3503 43.4871 19.8927 48.9758 9.20688 35.5708ZM22.6979 14.1441C17.4281 15.4107 14.2661 20.6882 13.7391 24.6991C9.73405 9.28874 25.9652 0.42249 36.3995 7.81102C41.6835 11.5526 44.2203 18.366 42.5124 23.6436C38.8234 35.043 31.4457 34.0932 29.2324 31.771C24.7792 27.099 29.5486 20.5827 36.3995 21.6382C35.3978 21.0172 34.6335 20.6124 34.0188 20.2868C33.2753 19.893 32.7506 19.615 32.289 19.2106C32.2112 19.1424 32.1405 18.9081 32.0392 18.5723C31.5134 16.8294 30.1621 12.3501 22.6979 14.1441ZM28.1784 18.1549C28.6441 18.1549 29.0216 17.7769 29.0216 17.3105C29.0216 16.8442 28.6441 16.4661 28.1784 16.4661C27.7127 16.4661 27.3352 16.8442 27.3352 17.3105C27.3352 17.7769 27.7127 18.1549 28.1784 18.1549Z" fill="white"/>
<defs>
<linearGradient id="paint0_linear_1301_971" x1="48" y1="48" x2="0" y2="0" gradientUnits="userSpaceOnUse">
<stop offset="0.149369" stop-color="#B533B3"/>
<stop offset="1" stop-color="#38EDF1"/>
</linearGradient>
</defs>
</svg>
