<svg width="48" height="48" viewBox="0 0 48 48" fill="none" xmlns="http://www.w3.org/2000/svg">
<path d="M0 14C0 6.26801 6.26801 0 14 0H34C41.732 0 48 6.26801 48 14V34C48 41.732 41.732 48 34 48H14C6.26801 48 0 41.732 0 34V14Z" fill="url(#paint0_linear_1301_803)"/>
<path fill-rule="evenodd" clip-rule="evenodd" d="M27.7877 41.4638C27.7877 41.9689 28.252 42.3474 28.7407 42.2197C36.7486 40.1289 42.6568 32.8649 42.6568 24.2252C42.6568 13.9526 34.3043 5.625 24.001 5.625C13.6977 5.625 5.34521 13.9526 5.34521 24.2252C5.34521 33.0633 11.5279 40.4618 19.8163 42.3557C20.2995 42.466 20.7475 42.0895 20.7475 41.5939V37.1944C20.7475 36.836 20.5075 36.5238 20.1663 36.4141C17.5418 35.5714 15.4193 34.0787 13.7984 31.9362C12.0719 29.6376 11.2086 26.9743 11.2086 23.946C11.2086 19.945 12.7163 16.6674 15.7317 14.1134C18.2367 11.9974 21.088 10.9393 24.2858 10.9393C28.4078 10.9393 31.7334 12.4291 34.2625 15.4087C36.3052 17.8167 37.3266 20.5956 37.3266 23.7454C37.3266 26.8344 36.4208 29.6011 34.609 32.0456C33.0893 34.1101 31.0088 35.5663 28.3677 36.414C28.0269 36.5234 27.7877 36.8354 27.7877 37.1933V41.4638ZM27.5507 26.7503C27.5507 26.3098 27.1935 25.9527 26.753 25.9527H21.8005C21.3599 25.9527 21.0029 26.3098 21.0029 26.7503V27.0516C21.0029 27.726 20.2387 28.0625 19.8531 27.5092C19.1605 26.5155 18.8142 25.3399 18.8142 23.9826C18.8142 22.438 19.3552 21.1003 20.4375 19.9693C21.5196 18.8383 22.8025 18.2727 24.2858 18.2727C25.7571 18.2727 27.0339 18.8383 28.116 19.9693C29.1982 21.1003 29.7392 22.438 29.7392 23.9826C29.7392 25.2988 29.3969 26.4581 28.7123 27.4605C28.3278 28.0234 27.5507 27.6896 27.5507 27.0078V26.7503Z" fill="white"/>
<defs>
<linearGradient id="paint0_linear_1301_803" x1="48" y1="48" x2="-2.62577e-05" y2="2.62577e-05" gradientUnits="userSpaceOnUse">
<stop stop-color="#267DEE"/>
<stop offset="1" stop-color="#5FC2F9"/>
</linearGradient>
</defs>
</svg>
