<svg width="48" height="48" viewBox="0 0 48 48" fill="none" xmlns="http://www.w3.org/2000/svg">
<path d="M0 14C0 6.26801 6.26801 0 14 0H34C41.732 0 48 6.26801 48 14V34C48 41.732 41.732 48 34 48H14C6.26801 48 0 41.732 0 34V14Z" fill="url(#paint0_linear_1327_2058)"/>
<path fill-rule="evenodd" clip-rule="evenodd" d="M5.625 13.2812H22.5865V26.9405C22.5865 28.4582 20.5135 34.7188 14.2942 34.7188C8.075 34.7188 5.81346 28.648 5.81346 26.9405C5.81346 25.2331 5.625 13.2812 5.625 13.2812ZM25.6019 13.2812V34.3393H42.375V13.2812H40.3019V27.32L27.1096 13.2812H25.6019Z" fill="white"/>
<defs>
<linearGradient id="paint0_linear_1327_2058" x1="48" y1="48" x2="-2.71797e-05" y2="2.71797e-05" gradientUnits="userSpaceOnUse">
<stop stop-color="#0A8756"/>
<stop offset="0.510417" stop-color="#30A477"/>
<stop offset="1" stop-color="#74EFBF"/>
</linearGradient>
</defs>
</svg>
