<svg width="48" height="48" viewBox="0 0 48 48" fill="none" xmlns="http://www.w3.org/2000/svg">
<path d="M0 14C0 6.26801 6.26801 0 14 0H34C41.732 0 48 6.26801 48 14V34C48 41.732 41.732 48 34 48H14C6.26801 48 0 41.732 0 34V14Z" fill="url(#paint0_linear_1300_1280)"/>
<path fill-rule="evenodd" clip-rule="evenodd" d="M30.6191 19.3564C33.3971 16.0456 32.9653 11.1093 29.6544 8.33111C26.3554 5.56294 21.4429 5.98166 18.6592 9.25987L18.6514 9.23843C14.5899 10.7167 12.4958 15.2075 13.9741 19.2689C15.4523 23.3305 19.9433 25.4246 24.0046 23.9464L21.3281 16.5924L18.6913 9.34794L24.6239 14.3261L30.6191 19.3564ZM29.3353 38.7118C33.3968 37.2335 35.4909 32.7426 34.0125 28.6811C32.5344 24.6198 28.0436 22.5257 23.982 24.0039L26.6588 31.3578L27.6521 34.0874L29.3353 38.7118ZM18.3016 39.6689C14.9907 36.8908 14.5588 31.9545 17.337 28.6436L19.8288 30.7345L23.3319 33.6739L29.3269 38.7044C26.5489 42.0154 21.6126 42.4472 18.3016 39.6689Z" fill="white"/>
<defs>
<linearGradient id="paint0_linear_1300_1280" x1="48" y1="48" x2="-2.62577e-05" y2="2.62577e-05" gradientUnits="userSpaceOnUse">
<stop stop-color="#434852"/>
<stop offset="1" stop-color="#787F92"/>
</linearGradient>
</defs>
</svg>
