<svg width="48" height="48" viewBox="0 0 48 48" fill="none" xmlns="http://www.w3.org/2000/svg">
<path d="M0 14C0 6.26801 6.26801 0 14 0H34C41.732 0 48 6.26801 48 14V34C48 41.732 41.732 48 34 48H14C6.26801 48 0 41.732 0 34V14Z" fill="url(#paint0_linear_1300_1221)"/>
<path d="M14.5112 36.25L6.5 11.75H12.6524L17.2435 26.4059L21.7416 11.75H26.2398L30.8494 26.4059L35.3476 11.75H41.5L33.5074 36.25H28.6375L23.9907 21.5771L19.3067 36.25H14.5112Z" fill="white"/>
<defs>
<linearGradient id="paint0_linear_1300_1221" x1="48" y1="48" x2="-2.62577e-05" y2="2.62577e-05" gradientUnits="userSpaceOnUse">
<stop stop-color="#434852"/>
<stop offset="1" stop-color="#787F92"/>
</linearGradient>
</defs>
</svg>
