<svg width="48" height="48" viewBox="0 0 48 48" fill="none" xmlns="http://www.w3.org/2000/svg">
<path d="M0 14C0 6.26801 6.26801 0 14 0H34C41.732 0 48 6.26801 48 14V34C48 41.732 41.732 48 34 48H14C6.26801 48 0 41.732 0 34V14Z" fill="url(#paint0_linear_1301_868)"/>
<path d="M24.0029 6.50003C19.8893 6.49335 15.9052 7.93794 12.7519 10.5795H35.251C32.0991 7.93748 28.1157 6.49278 24.0029 6.50003ZM24.0029 41.5C28.0776 41.5075 32.0266 40.0893 35.1655 37.4912H12.8374C15.9777 40.0889 19.9274 41.507 24.0029 41.5ZM32.3564 15.3841H39.2598C38.6911 14.3822 38.0257 13.4384 37.2731 12.5662H10.7446C9.63769 13.8419 8.72222 15.2717 8.02686 16.8108H31.3395L32.3564 15.3841ZM23.8349 25.0287H6.50295C6.58607 26.4705 6.84846 27.8963 7.28406 29.2733H22.2137L23.2425 27.826H41.1079C41.3139 26.9057 41.445 25.9702 41.4999 25.0287H23.8349ZM27.7346 21.6036H41.3673C41.2383 20.6484 41.0293 19.7058 40.7424 18.7857H7.26049C6.83206 20.1635 6.57661 21.5893 6.5 23.0302H26.7206L27.7346 21.6036ZM10.7947 35.5045H17.7363L18.7503 34.0779H38.3313C38.9598 33.1916 39.5036 32.2482 39.9554 31.26H8.05044C8.75449 32.8004 9.67892 34.2303 10.7947 35.5045Z" fill="white"/>
<defs>
<linearGradient id="paint0_linear_1301_868" x1="48" y1="48" x2="0" y2="0" gradientUnits="userSpaceOnUse">
<stop stop-color="#132849"/>
<stop offset="1" stop-color="#2C5AA6"/>
</linearGradient>
</defs>
</svg>
